<svg xmlns="http://www.w3.org/2000/svg" xmlns:xlink="http://www.w3.org/1999/xlink" width="500" height="500"><defs><linearGradient id="a"><stop offset="0" stop-color="#fff"/><stop offset="1" stop-color="#fff" stop-opacity="0"/></linearGradient><linearGradient id="b"><stop offset="0" stop-color="#b6b6b6"/><stop offset="1" stop-color="#cacaca" stop-opacity="0"/></linearGradient><linearGradient id="c"><stop offset="0" stop-color="#fff"/><stop offset="1" stop-color="#fff" stop-opacity="0"/></linearGradient><linearGradient id="d"><stop offset="0" stop-color="#fff"/><stop offset="1" stop-color="#fff" stop-opacity="0"/></linearGradient><linearGradient id="e"><stop offset="0" stop-color="#00e4c6"/><stop offset="1" stop-color="#00e4c6" stop-opacity="0"/></linearGradient><filter color-interpolation-filters="sRGB" id="o"><feGaussianBlur stdDeviation=".782"/></filter><linearGradient id="f"><stop offset="0" stop-color="#ff0021"/><stop offset="1" stop-color="#ff0018" stop-opacity="0"/></linearGradient><linearGradient xlink:href="#b" id="p" gradientUnits="userSpaceOnUse" gradientTransform="matrix(2.7633 0 0 2.7633 198.759 -986.282)" x1="150.975" y1="434.711" x2="152.913" y2="530.642"/><linearGradient xlink:href="#d" id="q" gradientUnits="userSpaceOnUse" gradientTransform="matrix(.1467 0 0 .1471 1767.86 1749.002)" x1="-7668.96" y1="-11707.119" x2="-7725.838" y2="-9479.424"/><linearGradient id="g"><stop offset="0" stop-color="#853d00"/><stop offset="1" stop-color="#ffea00"/></linearGradient><linearGradient id="h"><stop offset="0" stop-color="#006a00"/><stop offset="1" stop-color="#ffffb7"/></linearGradient><linearGradient id="i"><stop offset="0" stop-color="#ff5a00"/><stop offset="1" stop-color="#fff"/></linearGradient><linearGradient id="k"><stop offset="0" stop-color="#696969"/><stop offset="1" stop-color="#adadad"/></linearGradient><linearGradient id="l"><stop offset="0" stop-color="#006a00"/><stop offset="1" stop-color="#ffffb7"/></linearGradient><linearGradient id="m"><stop offset="0" stop-color="#005fff"/><stop offset="1" stop-color="#fff"/></linearGradient><linearGradient id="j"><stop offset="0" stop-color="#0023ff"/><stop offset="1" stop-color="#fff"/></linearGradient><linearGradient id="n"><stop offset="0" stop-color="#0023ff"/><stop offset="1" stop-color="#fff"/></linearGradient><linearGradient xlink:href="#k" id="r" gradientUnits="userSpaceOnUse" gradientTransform="matrix(1.52687 0 0 .4333 -113.567 -298.408)" spreadMethod="reflect" x1="79.615" y1="983.853" x2="128.046" y2="983.858"/><linearGradient xlink:href="#k" id="s" gradientUnits="userSpaceOnUse" gradientTransform="matrix(1.61392 0 0 .40993 -113.567 -298.408)" spreadMethod="reflect" x1="71.826" y1="941.458" x2="115.082" y2="939.13"/><linearGradient xlink:href="#k" id="t" gradientUnits="userSpaceOnUse" gradientTransform="matrix(2.04769 0 0 .3231 -113.567 -298.408)" spreadMethod="reflect" x1="65.57" y1="1363.266" x2="104.151" y2="1345.3"/><linearGradient xlink:href="#k" id="u" gradientUnits="userSpaceOnUse" gradientTransform="matrix(2.01935 0 0 .32763 -113.567 -298.408)" spreadMethod="reflect" x1="66.687" y1="1247.572" x2="105.919" y2="1229.303"/><linearGradient xlink:href="#k" id="v" gradientUnits="userSpaceOnUse" gradientTransform="scale(1.03175 .96922)" x1="449.479" y1="584.731" x2="469.47" y2="584.731"/><linearGradient xlink:href="#l" id="w" gradientUnits="userSpaceOnUse" gradientTransform="scale(.9418 1.0618)" x1="541.837" y1="536.294" x2="553.815" y2="536.294"/><linearGradient xlink:href="#k" id="x" gradientUnits="userSpaceOnUse" gradientTransform="scale(1.03175 .96922)" x1="449.479" y1="584.731" x2="469.47" y2="584.731"/><linearGradient xlink:href="#l" id="y" gradientUnits="userSpaceOnUse" gradientTransform="scale(.9418 1.0618)" x1="541.837" y1="536.294" x2="553.815" y2="536.294"/><linearGradient xlink:href="#k" id="z" gradientUnits="userSpaceOnUse" gradientTransform="scale(1.26491 .79057)" x1="242.607" y1="692.758" x2="270.277" y2="692.758"/><linearGradient xlink:href="#k" id="A" gradientUnits="userSpaceOnUse" gradientTransform="scale(1.26491 .79057)" x1="242.607" y1="692.758" x2="270.277" y2="692.758"/><linearGradient xlink:href="#m" id="B" gradientUnits="userSpaceOnUse" gradientTransform="scale(1.66567 .60036)" x1="210.696" y1="994.623" x2="215.932" y2="983.821"/><linearGradient xlink:href="#k" id="C" gradientUnits="userSpaceOnUse" gradientTransform="scale(1.26491 .79057)" x1="242.607" y1="692.758" x2="270.277" y2="692.758"/><linearGradient xlink:href="#m" id="D" gradientUnits="userSpaceOnUse" gradientTransform="scale(1.47907 .6761)" x1="-125.466" y1="1137.58" x2="-121.233" y2="1128.847"/><linearGradient xlink:href="#k" id="E" gradientUnits="userSpaceOnUse" gradientTransform="scale(.65624 1.52384)" x1="753.729" y1="318.482" x2="769.888" y2="318.482"/><linearGradient xlink:href="#l" id="F" gradientUnits="userSpaceOnUse" gradientTransform="scale(.72556 1.37824)" x1="695.976" y1="366.048" x2="704.068" y2="356.693"/><linearGradient xlink:href="#k" id="G" gradientUnits="userSpaceOnUse" gradientTransform="scale(.65624 1.52384)" x1="753.729" y1="318.482" x2="769.888" y2="318.482"/><linearGradient xlink:href="#l" id="H" gradientUnits="userSpaceOnUse" gradientTransform="scale(.72556 1.37824)" x1="695.976" y1="366.048" x2="704.068" y2="356.693"/><linearGradient xlink:href="#n" id="I" gradientUnits="userSpaceOnUse" gradientTransform="scale(1.66567 .60036)" x1="210.696" y1="994.623" x2="215.932" y2="983.821"/></defs><path d="M154.366 377.77c-19.775.33-39.179 4.908-57.75 11.5-6.479 22.615-11.322 45.84-12.266 69.404-.322 12.958.349 26.404 5.785 38.37 2.336 5.346 6.211 9.83 10.761 13.442 11.896 10.028 24.968 18.507 37.87 27.167 5.065 3.336 10.189 6.584 15.287 9.867 18.551-10.25 36.861-20.987 54.018-33.443 5.604-4.233 11.216-8.845 14.467-15.175 4.02-7.817 5.68-16.592 6.373-25.277 1.333-18.693-1.228-37.44-4.893-55.729-1.99-9.627-4.327-19.182-7.058-28.626-19.606-7.023-40.185-11.963-61.13-11.513l-1.464.013z" transform="matrix(2.7633 0 0 2.7633 -176.409 -1026.13)" filter="url(#o)"/><path d="M95.713 56.854c136.909-49.244 233.077-31.558 320.802 0 0 0 73.731 239.085 0 312.816-39.533 39.533-167.722 109.153-167.722 109.153s-117-73.072-153.08-109.153c-73.732-73.731 0-312.816 0-312.816z" fill="#8d8d8d" stroke="#404040" stroke-width="5.799" stroke-linecap="round" stroke-linejoin="round"/><path d="M636.222 77.47c-1.81-.012-3.625-.012-5.45.005-43.78.34-92.29 8.189-148.25 27.637-4.726 16.437-17.952 65.136-25.31 120.218-4.521 33.84-6.697 69.782-3.415 100.918 3.283 31.137 12.176 56.861 27.281 71.966 16.131 16.131 54.562 43.856 88.102 66.485 24.219 16.341 45.727 30.1 56.023 36.624 11.132-6.166 34.95-19.533 61.693-35.689 36.696-22.168 78.716-49.978 96.158-67.42 15.105-15.105 23.999-40.829 27.281-71.966 3.283-31.136 1.107-67.079-3.414-100.918-7.362-55.108-20.599-103.826-25.32-120.24-45.059-15.77-91.801-27.279-145.38-27.62z" transform="translate(-375.167 -39.848)" fill="url(#p)" stroke="#d2d2d2" stroke-width="5" stroke-linecap="round" stroke-linejoin="round" stroke-opacity=".995"/><path d="M632.132 65.891c-44.828.066-94.35 7.605-150.98 26.523a19.501 19.553 0 0 0-12.657 13.436c-7.194 26.619-22.005 86.122-27.563 147.2a19.501 19.553 0 0 0 25.582 20.322c107.333-35.831 217.428-48.839 328.696-49.773a19.501 19.553 0 0 0 19.072-22.74c-6.773-41.087-15.699-76.305-20.846-95.1a19.501 19.553 0 0 0-12.558-13.345c-45.846-15.532-93.947-26.603-148.746-26.523z" transform="translate(-375.167 -39.848)" fill="url(#q)"/><g transform="translate(482.532 -38.527)" font-size="12" fill-rule="evenodd"><path transform="matrix(1.21592 0 0 1.21592 -410.083 -7.64)" d="M296.869 83.912c-1.197 27.277-84.507 47.84-152.583 46.243C80.132 128.65 3.555 108.251 4.328 80.397l-1.254 36.784c-.656 24.938 95.976 45.463 142.267 46.55 42.129.988 149.672-15.114 150.39-43.795l1.138-36.024z" fill="url(#r)"/><path transform="matrix(1.21592 0 0 1.21592 -410.083 -7.64)" d="M295.066 86.608c-1.65.773-3.915-.143-3.973-.806.481-1.7.977-6.458 3.008-9.403 1.676-7.818 2.488-16.879-2.851 1.859 2.483-5.462 2.271-11.525 1.832-13.767-.443-2.89-2.298-6.81-3.448-9.405-1.166 3.74-4.24 6.318-4.067 15.113.014 2.4.085 3.714 1.906 8.214-5.532-2.454-10.286 3.946-7.778 13.215 4.611-10.692 11.72-9.36 7.615-.689-.36.778-2.223 3.65-4.547 7.555 7.234-4.478 12.432-11.268 12.303-11.886zm-24.09 18.444c-5.138.257-4.794-3.671-4.237-6.365.764-3.493 4.965-10.732 10.567-4.87 4.42-13.963-3.895-15.395-9.518-5.645 2.69-4.674 2.343-7.335.51-12.242-1.832-4.908-2.66-4.441-4.328-7.871-1.711 4.462-3.672 6.161-4.672 11.454-.816 5.27-.301 6.726 2.519 11.553-7.564-3.925-16.406 5.415-11.845 13.962 5.12-7.812 12.307-8.355 11.74-2.133-.404 2.44-.732 4.644-4.496 8.32 4.462-1.423 10.766-3.995 13.76-6.163zm-32.55 12.291c-3.918-1.675-4.292-3.484-3.845-6.025.622-3.297 5.333-8.515 12.842-5.061 4.254-10.636-5.487-13.795-13.905-4.654 2.292-4.264 3.044-8.973 1.728-12.856-1.373-3.708-3.712-6.056-5.886-9.193-2.138 3.626-5.985 7.865-6.277 11.75-.284 3.885 1.311 8.014 4.079 12.404-12.295-6.596-19.892 3.732-13.493 11.174 3.71-5.907 11.603-7.76 13.854-2.362 1.308 3.384-1.093 4.883-4.705 8.479l15.608-3.656zm-54.432 9.52c3.553-3.291 4.75-7.105 2.933-9.86-3.721-5.289-10.77-3.751-15.381 1.081-7.494-8.716 5.198-18.414 15.585-10.677-1.817-2.994-4.325-6.534-3.77-11.469.553-4.935 3.99-7.837 6.723-11.385 2.825 3.531 4.521 3.425 6.334 8.082 1.813 4.657-1.527 10.872-2.775 13.841 8.999-8.344 21.599-.773 15.958 9.295-3.997-5.377-12.768-4.992-14.793.518-1.421 4.202.674 6.968 4.895 9.076l-15.71 1.498zm-27.976 2.647c-5.082-4.443-5.945-7.66-4.284-10.744 2.681-4.374 10.664-5.709 15.783-.33 6.685-9.351-5.844-17.97-15.5-9.338 1.543-3.144 5.096-8.01 4.104-12.876-.992-4.865-5.495-6.345-7.19-10.193-2.5 3.77-5.999 5.36-7.389 10.161-1.39 4.8 1.421 9.809 2.93 12.655-11.388-8.333-22.873.29-15.38 9.722 5.06-4.876 12.249-4.979 15.095.156 2.255 3.767.95 7.152-3.95 10.697l15.781.09zm-44.131-1.832c-3.515-3.332-4.668-7.159-2.821-9.893 3.781-5.246 10.811-3.628 15.368 1.257 7.593-8.631-4.988-18.473-15.462-10.854 1.851-2.973 4.399-6.485 3.9-11.426-.497-4.94-3.9-7.882-6.592-11.46-2.866 3.498-4.56 3.372-6.426 8.008-1.866 4.636 1.402 10.889 2.617 13.872-8.904-8.446-21.59-1.02-16.063 9.113 4.058-5.332 12.824-4.847 14.786.686 1.373 4.218-.754 6.96-4.998 9.02l15.69 1.677zm-53.834-9.402c3.937-1.63 4.331-3.435 3.913-5.98-.584-3.305-5.235-8.576-12.783-5.208-4.132-10.684 5.644-13.731 13.958-4.495-2.244-4.29-2.943-9.007-1.582-12.875 1.416-3.692 3.78-6.013 5.99-9.125 2.097 3.65 5.895 7.933 6.143 11.82.24 3.888-1.402 8-4.22 12.357 12.37-6.455 19.848 3.959 13.364 11.328-3.643-5.95-11.514-7.891-13.826-2.52-1.346 3.369 1.038 4.894 4.608 8.532l-15.565-3.834zM26.378 106.11c5.134.315 4.835-3.617 4.31-6.317-.725-3.502-4.843-10.788-10.511-4.99-4.26-14.012 4.07-15.35 9.581-5.536-2.637-4.705-2.259-7.361-.37-12.248 1.888-4.886 2.71-4.41 4.418-7.82 1.66 4.48 3.601 6.202 4.54 11.506.757 5.28.225 6.729-2.65 11.524 7.608-3.839 16.343 5.601 11.685 14.096-5.03-7.87-12.21-8.495-11.714-2.267.375 2.444.678 4.652 4.4 8.372-4.445-1.475-10.72-4.119-13.69-6.32zM3.608 87.205c1.88 2.02 3.292 1.318 3.362-.08.002-1.768-.145-10.389-3.64-8.951-1.586-7.837-1.771-22.79 3.572.914-1.684-5.73-1.906-9.586-1.441-11.823.476-2.885 2.373-6.294 3.552-8.875 1.123 3.753 4.17 5.876 3.897 14.668-.041 2.4-.127 3.713-1.999 8.192 5.85-10.483 10.24 4.063 7.627 13.303-4.49-10.744-11.613-9.493-7.608-.776.352.782 2.182 3.676 4.462 7.607-7.183-4.561-11.92-13.562-11.784-14.179z" fill="url(#s)"/><path transform="matrix(1.21592 0 0 1.21592 -410.083 -7.64)" d="M3.044 119.064c-1.365 0-1.651 4.284.19 5.968 21.41 29.381 102.803 39.786 145.967 39.255 64.523-.792 138.167-19.074 146.296-40.979.967-3.055.967-5.607 0-5.427-9.343 21.672-67.576 38.17-146.514 41.35-53.989 2.188-124.441-12.497-145.94-40.167z" fill="url(#t)"/><path transform="matrix(1.21592 0 0 1.21592 -410.083 -7.64)" d="M296.264 85.396c1.365-.01 1.684 2.746-.144 5.969-18.131 30.563-102.493 42.105-145.659 41.908-64.527-.292-116.533-9.53-146.25-39.848-1.88-1.962-3.165-5.403-.041-5.427 30.924 29.567 81.775 41.605 146.47 40.217 54.02-1.154 127.391-13.458 145.624-42.82z" fill="url(#u)"/><path d="M469.018 568.188a3.71 3.71 0 0 0-3.719 3.719v9.031a3.71 3.71 0 0 0 3.719 3.719h10.094a3.71 3.71 0 0 0 3.718-3.719v-9.031a3.71 3.71 0 0 0-3.718-3.719h-10.094zm-.891-1.453a4.365 4.365 0 0 0-4.375 4.375v10.625a4.365 4.365 0 0 0 4.375 4.375h11.875a4.365 4.365 0 0 0 4.375-4.375V571.11a4.365 4.365 0 0 0-4.375-4.375h-11.875z" fill="url(#v)" transform="rotate(-50.149 -275.376 1026.073) scale(.98901)"/><g transform="rotate(-50.149 -254.936 1068.039) scale(.98901)"><rect rx="3.058" y="567.563" x="505.299" width="17.531" ry="3.058" height="16.469" fill="#007d00"/><rect rx="2.362" y="569.438" x="510.299" width="11.281" ry="2.362" height="12.719" fill="url(#w)"/></g><path d="M469.018 568.188a3.71 3.71 0 0 0-3.719 3.719v9.031a3.71 3.71 0 0 0 3.719 3.719h10.094a3.71 3.71 0 0 0 3.718-3.719v-9.031a3.71 3.71 0 0 0-3.718-3.719h-10.094zm-.891-1.453a4.365 4.365 0 0 0-4.375 4.375v10.625a4.365 4.365 0 0 0 4.375 4.375h11.875a4.365 4.365 0 0 0 4.375-4.375V571.11a4.365 4.365 0 0 0-4.375-4.375h-11.875z" fill="url(#x)" transform="rotate(-45.674 -401.281 1289.617) scale(.98901)"/><g transform="rotate(-45.674 -380.767 1336.277) scale(.98901)"><rect rx="3.058" y="567.563" x="505.299" width="17.531" ry="3.058" height="16.469" fill="#007d00"/><rect rx="2.362" y="569.438" x="510.299" width="11.281" ry="2.362" height="12.719" fill="url(#y)"/></g><path transform="matrix(.98901 0 0 .98901 -551.231 -370.917)" d="M318.798 538.376a9.277 9.277 0 0 0-9.297 9.297 9.277 9.277 0 0 0 9.297 9.297h11.156a9.277 9.277 0 0 0 9.297-9.297 9.277 9.277 0 0 0-9.297-9.297h-11.156zm-.984-1.64a10.914 10.914 0 0 0-10.938 10.937c0 6.06 4.878 10.937 10.938 10.937h13.125c6.06 0 10.937-4.878 10.937-10.937 0-6.06-4.878-10.938-10.937-10.938h-13.125z" fill="url(#z)"/><path transform="matrix(.75003 .35808 -.40917 .9302 -390.862 -481.135)" d="M318.798 538.376a9.277 9.277 0 0 0-9.297 9.297 9.277 9.277 0 0 0 9.297 9.297h11.156a9.277 9.277 0 0 0 9.297-9.297 9.277 9.277 0 0 0-9.297-9.297h-11.156zm-.984-1.64a10.914 10.914 0 0 0-10.938 10.937c0 6.06 4.878 10.937 10.938 10.937h13.125c6.06 0 10.937-4.878 10.937-10.937 0-6.06-4.878-10.938-10.937-10.938h-13.125z" fill="url(#A)"/><rect transform="matrix(.75003 .35808 -.40917 .9302 -388.43 -536.956)" rx="7.646" y="589.001" x="334.501" width="29.75" ry="7.646" height="18.594" fill="#0010e5"/><rect transform="matrix(.75003 .35808 -.40917 .9302 -388.43 -536.956)" rx="3.02" y="590.876" x="340.752" width="20.375" ry="3.02" height="7.344" fill="url(#B)"/><path d="M318.798 538.376a9.277 9.277 0 0 0-9.297 9.297 9.277 9.277 0 0 0 9.297 9.297h11.156a9.277 9.277 0 0 0 9.297-9.297 9.277 9.277 0 0 0-9.297-9.297h-11.156zm-.984-1.64a10.914 10.914 0 0 0-10.938 10.937c0 6.06 4.878 10.937 10.938 10.937h13.125c6.06 0 10.937-4.878 10.937-10.937 0-6.06-4.878-10.938-10.937-10.938h-13.125z" transform="matrix(-.74991 .35833 .40948 .93007 -67.708 -479.906)" fill="url(#C)"/><rect height="18.594" ry="7.646" transform="matrix(-.74991 .35833 .40948 .93007 -70.159 -535.725)" width="29.75" x="334.501" y="589.001" rx="7.646" fill="#0500e5"/><rect height="6.686" ry="2.749" transform="matrix(-.88267 .44614 .38003 .91308 -541.372 -474.327)" width="14.627" x="-192.894" y="763.422" rx="2.749" fill="url(#D)"/><path d="M504.067 506.726c.322-1.15-1.943 1.482-2.577 1.193l-2.367-1.234c-2.07-.73-2.243-3.432-1.733-5.17l4.825-12.725c.84-1.849 3.252-.259 2.996-.958-.787-2.237-2.709-3.571-3.906-1.454l-6.154 15.044c-.755 2.117-.97 5.426 1.258 6.403l4.732 1.993c1.233.535 2.375-.764 2.926-3.092z" fill="url(#E)" transform="matrix(.98901 0 0 .98901 -548.171 -370.48)"/><path d="M-56.42 125.764c-.715 1.908.169 4.251 2.077 4.966l1.72.97c.44.328 1.314.295 2.338-.532 2.164-1.854 4.134-5.527 4.903-8.21.411-1.397-.89-10.23-3.73-11.17-.379-.129-1.932-.217-2.415.995l-4.893 12.98z" fill="#007d00"/><path transform="scale(.98901) rotate(18.2 1399.404 -1434.078)" d="M512.738 497.983c-.31 1.133-4.028 5.77-6.356 6.933-1.685.842-2.143-1.862-2.005-7.277.032-1.24-.396-8.52 2.04-8.557 2.458-.037 6.757 7.523 6.321 8.9z" fill="url(#F)"/><g><path d="M504.067 506.726c.322-1.15-1.943 1.482-2.577 1.193l-2.367-1.234c-2.07-.73-2.243-3.432-1.733-5.17l4.825-12.725c.84-1.849 3.252-.259 2.996-.958-.787-2.237-2.709-3.571-3.906-1.454l-6.154 15.044c-.755 2.117-.97 5.426 1.258 6.403l4.732 1.993c1.233.535 2.375-.764 2.926-3.092z" fill="url(#G)" transform="matrix(-.98901 0 0 .98901 92.78 -369.862)"/><path d="M-398.971 126.382c.714 1.908-.17 4.251-2.077 4.966l-1.72.97c-.44.328-1.315.295-2.339-.532-2.163-1.854-4.133-5.527-4.902-8.21-.412-1.396.89-10.23 3.729-11.17.38-.128 1.933-.217 2.416.996l4.893 12.98z" fill="#007d00"/><path transform="scale(-.98901 .98901) rotate(18.2 1627.678 3.574)" d="M512.738 497.983c-.31 1.133-4.028 5.77-6.356 6.933-1.685.842-2.143-1.862-2.005-7.277.032-1.24-.396-8.52 2.04-8.557 2.458-.037 6.757 7.523 6.321 8.9z" fill="url(#H)"/></g><rect transform="matrix(.98901 0 0 .98901 -576.11 -420.844)" rx="7.646" y="589.001" x="334.501" width="29.75" ry="7.646" height="18.594" fill="#0041a6"/><rect transform="matrix(.98901 0 0 .98901 -576.11 -420.844)" rx="3.02" y="590.876" x="340.752" width="20.375" ry="3.02" height="7.344" fill="url(#I)"/></g></svg>