<?xml version="1.0" encoding="UTF-8" standalone="no"?>
<!-- Created with Inkscape (http://www.inkscape.org/) -->

<svg
   xmlns:dc="http://purl.org/dc/elements/1.1/"
   xmlns:cc="http://creativecommons.org/ns#"
   xmlns:rdf="http://www.w3.org/1999/02/22-rdf-syntax-ns#"
   xmlns:svg="http://www.w3.org/2000/svg"
   xmlns="http://www.w3.org/2000/svg"
   xmlns:xlink="http://www.w3.org/1999/xlink"
   xmlns:sodipodi="http://sodipodi.sourceforge.net/DTD/sodipodi-0.dtd"
   xmlns:inkscape="http://www.inkscape.org/namespaces/inkscape"
   version="1.1"
   width="500"
   height="500"
   id="svg6752"
   inkscape:version="0.48.3.1 r9886"
   sodipodi:docname="shield_level_3.svg">
  <sodipodi:namedview
     pagecolor="#ffffff"
     bordercolor="#666666"
     borderopacity="1"
     objecttolerance="10"
     gridtolerance="10"
     guidetolerance="10"
     inkscape:pageopacity="0"
     inkscape:pageshadow="2"
     inkscape:window-width="1440"
     inkscape:window-height="847"
     id="namedview3183"
     showgrid="false"
     inkscape:zoom="0.76417784"
     inkscape:cx="368.76144"
     inkscape:cy="205.01336"
     inkscape:window-x="0"
     inkscape:window-y="0"
     inkscape:window-maximized="1"
     inkscape:current-layer="svg6752" />
  <defs
     id="defs3">
    <linearGradient
       x1="-7668.9604"
       y1="-11707.119"
       x2="-7725.8379"
       y2="-9479.4238"
       id="linearGradient6634"
       xlink:href="#linearGradient6097-2"
       gradientUnits="userSpaceOnUse"
       gradientTransform="matrix(0.15518081,0,0,0.15559098,1844.8886,1837.7326)" />
    <linearGradient
       id="linearGradient6097-2">
      <stop
         id="stop6099-1"
         style="stop-color:#ffffff;stop-opacity:1"
         offset="0" />
      <stop
         id="stop6101-2"
         style="stop-color:#ffffff;stop-opacity:0"
         offset="1" />
    </linearGradient>
    <linearGradient
       x1="174.23146"
       y1="209.90202"
       x2="169.38644"
       y2="310.67828"
       id="linearGradient6642"
       xlink:href="#linearGradient6636"
       gradientUnits="userSpaceOnUse"
       gradientTransform="matrix(2.9229274,0,0,2.9229274,151.16123,-508.91522)" />
    <linearGradient
       id="linearGradient6636">
      <stop
         id="stop6638"
         style="stop-color:#ffcc00;stop-opacity:1"
         offset="0" />
      <stop
         id="stop6640"
         style="stop-color:#ffcc00;stop-opacity:0"
         offset="1" />
    </linearGradient>
    <filter
       color-interpolation-filters="sRGB"
       id="filter6357">
      <feGaussianBlur
         id="feGaussianBlur6359"
         stdDeviation="0.78190263" />
    </filter>
    <linearGradient
       x1="-7668.9604"
       y1="-11707.119"
       x2="-7725.8379"
       y2="-9479.4238"
       id="linearGradient5510"
       xlink:href="#linearGradient6097-2"
       gradientUnits="userSpaceOnUse"
       gradientTransform="matrix(0.15300974,0,0,0.15300974,1328.0213,1818.2424)" />
    <linearGradient
       id="linearGradient6779">
      <stop
         id="stop6781"
         style="stop-color:#ffffff;stop-opacity:1"
         offset="0" />
      <stop
         id="stop6783"
         style="stop-color:#ffffff;stop-opacity:0"
         offset="1" />
    </linearGradient>
    <linearGradient
       x1="-109.17429"
       y1="163.15849"
       x2="-113.28542"
       y2="341.30743"
       id="linearGradient5529"
       xlink:href="#linearGradient5522"
       gradientUnits="userSpaceOnUse"
       gradientTransform="matrix(2.9229274,0,0,2.9229274,471.27702,-454.58647)" />
    <linearGradient
       id="linearGradient5522">
      <stop
         id="stop5524"
         style="stop-color:#ffffff;stop-opacity:1"
         offset="0" />
      <stop
         id="stop5526"
         style="stop-color:#ffffff;stop-opacity:0"
         offset="1" />
    </linearGradient>
    <linearGradient
       x1="-109.17429"
       y1="163.15849"
       x2="-113.28542"
       y2="341.30743"
       id="linearGradient6886"
       xlink:href="#linearGradient5522"
       gradientUnits="userSpaceOnUse"
       gradientTransform="matrix(2.9229274,0,0,2.9229274,471.27702,-454.58647)" />
    <linearGradient
       x1="-7668.9604"
       y1="-11707.119"
       x2="-7725.8379"
       y2="-9479.4238"
       id="linearGradient6888"
       xlink:href="#linearGradient6097-2"
       gradientUnits="userSpaceOnUse"
       gradientTransform="matrix(0.15300974,0,0,0.15300974,1328.0213,1818.2424)" />
    <linearGradient
       x1="174.23146"
       y1="209.90202"
       x2="169.38644"
       y2="310.67828"
       id="linearGradient6890"
       xlink:href="#linearGradient6636"
       gradientUnits="userSpaceOnUse"
       gradientTransform="matrix(2.9229274,0,0,2.9229274,151.16123,-508.91522)" />
    <linearGradient
       x1="-7668.9604"
       y1="-11707.119"
       x2="-7725.8379"
       y2="-9479.4238"
       id="linearGradient6892"
       xlink:href="#linearGradient6097-2"
       gradientUnits="userSpaceOnUse"
       gradientTransform="matrix(0.15518081,0,0,0.15559098,1844.8886,1837.7326)" />
    <linearGradient
       x1="-7668.9604"
       y1="-11707.119"
       x2="-7725.8379"
       y2="-9479.4238"
       id="linearGradient6616"
       xlink:href="#linearGradient6097-2-7"
       gradientUnits="userSpaceOnUse"
       gradientTransform="matrix(0.15096114,0,0,0.14465384,1322.8813,1735.9314)" />
    <linearGradient
       id="linearGradient6097-2-7">
      <stop
         id="stop6099-1-4"
         style="stop-color:#ffffff;stop-opacity:1"
         offset="0" />
      <stop
         id="stop6101-2-0"
         style="stop-color:#ffffff;stop-opacity:0"
         offset="1" />
    </linearGradient>
    <linearGradient
       x1="-37.011112"
       y1="439.55563"
       x2="-36.04211"
       y2="558.74292"
       id="linearGradient6624"
       xlink:href="#linearGradient6618"
       gradientUnits="userSpaceOnUse"
       gradientTransform="matrix(2.7633056,0,0,2.7633056,252.31155,-1023.7687)" />
    <linearGradient
       id="linearGradient6618">
      <stop
         id="stop6620"
         style="stop-color:#00e4c6;stop-opacity:1"
         offset="0" />
      <stop
         id="stop6622"
         style="stop-color:#00e4c6;stop-opacity:0"
         offset="1" />
    </linearGradient>
    <filter
       color-interpolation-filters="sRGB"
       id="filter6357-4">
      <feGaussianBlur
         id="feGaussianBlur6359-6"
         stdDeviation="0.78190263" />
    </filter>
    <linearGradient
       x1="-7668.9604"
       y1="-11707.119"
       x2="-7725.8379"
       y2="-9479.4238"
       id="linearGradient6596"
       xlink:href="#linearGradient6097-2-7"
       gradientUnits="userSpaceOnUse"
       gradientTransform="matrix(0.14670635,0,0,0.14709413,1767.8593,1749.0021)" />
    <linearGradient
       id="linearGradient6915">
      <stop
         id="stop6917"
         style="stop-color:#ffffff;stop-opacity:1"
         offset="0" />
      <stop
         id="stop6919"
         style="stop-color:#ffffff;stop-opacity:0"
         offset="1" />
    </linearGradient>
    <linearGradient
       x1="150.97539"
       y1="434.71063"
       x2="152.91339"
       y2="530.64185"
       id="linearGradient6604"
       xlink:href="#linearGradient6598"
       gradientUnits="userSpaceOnUse"
       gradientTransform="matrix(2.7633056,0,0,2.7633056,198.75856,-986.28156)" />
    <linearGradient
       id="linearGradient6598">
      <stop
         id="stop6600"
         style="stop-color:#0000ff;stop-opacity:1"
         offset="0" />
      <stop
         id="stop6602"
         style="stop-color:#0000ff;stop-opacity:0"
         offset="1" />
    </linearGradient>
    <linearGradient
       x1="-37.011112"
       y1="439.55563"
       x2="-36.04211"
       y2="558.74292"
       id="linearGradient7022"
       xlink:href="#linearGradient6618"
       gradientUnits="userSpaceOnUse"
       gradientTransform="matrix(2.7633056,0,0,2.7633056,252.31155,-1023.7687)" />
    <linearGradient
       x1="-7668.9604"
       y1="-11707.119"
       x2="-7725.8379"
       y2="-9479.4238"
       id="linearGradient7024"
       xlink:href="#linearGradient6097-2-7"
       gradientUnits="userSpaceOnUse"
       gradientTransform="matrix(0.15096114,0,0,0.14465384,1322.8813,1735.9314)" />
    <linearGradient
       x1="150.97539"
       y1="434.71063"
       x2="152.91339"
       y2="530.64185"
       id="linearGradient7026"
       xlink:href="#linearGradient6598"
       gradientUnits="userSpaceOnUse"
       gradientTransform="matrix(2.7633056,0,0,2.7633056,198.75856,-986.28156)" />
    <linearGradient
       x1="-7668.9604"
       y1="-11707.119"
       x2="-7725.8379"
       y2="-9479.4238"
       id="linearGradient7028"
       xlink:href="#linearGradient6097-2-7"
       gradientUnits="userSpaceOnUse"
       gradientTransform="matrix(0.14670635,0,0,0.14709413,1767.8593,1749.0021)" />
  </defs>
  <metadata
     id="metadata4">
    <rdf:RDF>
      <cc:Work
         rdf:about="">
        <dc:format>image/svg+xml</dc:format>
        <dc:type
           rdf:resource="http://purl.org/dc/dcmitype/StillImage" />
        <dc:title />
      </cc:Work>
    </rdf:RDF>
  </metadata>
  <path
     inkscape:connector-curvature="0"
     transform="matrix(205.08622,0,0,205.08622,69313.913,27440.493)"
     d="m -336.37633,-132.67614 c 0.0474,0.0249 0.0848,0.0617 0.11206,0.11028 0.0273,0.0474 0.0409,0.1002 0.0409,0.15831 0,0.10909 -0.0486,0.201 -0.14585,0.2757 -0.0972,0.0735 -0.22057,0.11029 -0.36998,0.11029 -0.13045,0 -0.24191,-0.0267 -0.33441,-0.08 -0.0913,-0.0534 -0.13696,-0.11917 -0.13696,-0.19744 0,-0.0344 0.0125,-0.064 0.0374,-0.0889 0.0249,-0.0249 0.0569,-0.0374 0.0961,-0.0374 0.0344,0 0.0628,0.0113 0.0854,0.0338 0.0237,0.0213 0.0356,0.0498 0.0356,0.0854 l 0.004,0.0623 c 0,0.0593 0.019,0.10554 0.0569,0.13874 0.0202,0.0166 0.0415,0.0291 0.064,0.0374 0.0237,0.008 0.0528,0.0125 0.0872,0.0125 0.0854,0 0.14882,-0.0356 0.19033,-0.10673 0.0427,-0.0723 0.064,-0.15534 0.064,-0.24902 0,-0.0901 -0.0219,-0.16364 -0.0658,-0.22056 -0.0439,-0.0569 -0.0984,-0.0854 -0.16365,-0.0854 l -0.0462,0.004 -0.0427,0.007 -0.009,0 c -0.0237,0 -0.0368,-0.009 -0.0391,-0.0267 0,-0.0166 0.0142,-0.0249 0.0427,-0.0249 l 0.0107,0 0.0391,0.004 0.0427,0.002 c 0.064,0 0.11444,-0.0261 0.1512,-0.0783 0.0368,-0.0534 0.0551,-0.12452 0.0551,-0.21345 0,-0.0842 -0.0202,-0.15238 -0.0605,-0.20456 -0.0391,-0.0522 -0.0913,-0.0783 -0.15653,-0.0783 -0.0569,0 -0.10198,0.0166 -0.13518,0.0498 -0.032,0.032 -0.048,0.0759 -0.048,0.13163 l 0,0.016 0.004,0.0623 0,0.0107 c 0,0.0332 -0.0119,0.0599 -0.0356,0.08 -0.0225,0.019 -0.0539,0.0285 -0.0943,0.0285 -0.0344,0 -0.064,-0.0107 -0.0889,-0.032 -0.0225,-0.0225 -0.0338,-0.051 -0.0338,-0.0854 0,-0.0771 0.0451,-0.14526 0.13518,-0.20455 0.0913,-0.0605 0.19803,-0.0907 0.32018,-0.0907 0.13637,0 0.24605,0.0291 0.32906,0.0872 0.083,0.0581 0.12451,0.13518 0.12452,0.23124 -1e-5,0.0972 -0.0291,0.16423 -0.0872,0.20099 -0.0569,0.0368 -0.0984,0.0611 -0.12452,0.0729 l -0.0978,0.032 c 0.051,0.007 0.0878,0.0154 0.11029,0.0249 0.0178,0.005 0.0308,0.009 0.0391,0.0125 0.008,0.004 0.0213,0.0113 0.0391,0.0231"
     style="font-size:1.77874517px;font-style:normal;font-variant:normal;font-weight:100;font-stretch:normal;text-align:start;line-height:125%;letter-spacing:0px;word-spacing:0px;writing-mode:lr-tb;text-anchor:start;opacity:0.30044843;fill:#000000;fill-opacity:1;stroke:none;display:inline;font-family:Baskerville-DemiBold;-inkscape-font-specification:Baskerville-DemiBold Thin"
     id="path5501-2" />
  <path
     style="font-size:1.77874517px;font-style:normal;font-variant:normal;font-weight:100;font-stretch:normal;text-align:start;line-height:125%;letter-spacing:0px;word-spacing:0px;writing-mode:lr-tb;text-anchor:start;opacity:0.75336328;fill:#000000;fill-opacity:1;stroke:none;display:inline;font-family:Baskerville-DemiBold;-inkscape-font-specification:Baskerville-DemiBold Thin"
     d="m 711.34375,91.46875 c -11.66941,0 -20.94114,3.409887 -27.75,10.21875 -6.56276,6.56276 -9.84375,15.57054 -9.84375,27 l 0,3.28125 0.84375,12.78125 0,2.1875 c 0,6.80886 -2.45196,12.28402 -7.3125,16.40625 -4.61444,3.89664 -11.05827,5.84375 -19.34375,5.84375 -5.88434,0 -11.06717,-1.52119 -15.59375,-4.5625 0.86617,1.3071 1.87764,2.53389 3.03125,3.6875 5.10665,4.36834 11.19503,6.5625 18.25,6.5625 8.28548,0 14.72931,-1.94711 19.34375,-5.84375 4.86054,-4.12223 7.28125,-9.59739 7.28125,-16.40625 l 0,-2.21875 -0.8125,-12.75 0,-3.28125 c 0,-11.42946 3.28099,-20.43724 9.84375,-27 6.80886,-6.80886 16.04934,-10.21875 27.71875,-10.21875 9.74985,0 18.09454,2.84488 25,8.53125 -7.84348,-9.476146 -18.07,-14.21875 -30.65625,-14.21875 z m 84.4375,21.71875 c 8.93846,10.18765 13.40476,22.41218 13.40625,36.6875 -0.002,19.93438 -5.95949,33.67978 -17.875,41.21875 -11.66941,7.54717 -20.1744,12.51748 -25.53125,14.9375 l -20.0625,6.5625 c 5.86731,0.80532 10.78199,1.71234 14.8125,2.6875 l 10.90625,-3.5625 c 5.35685,-2.42002 13.86184,-7.42158 25.53125,-14.96875 11.91551,-7.53897 17.9042,-21.28437 17.90625,-41.21875 -0.002,-17.03018 -6.37307,-31.13116 -19.09375,-42.34375 z m -81.875,103.21875 -9.46875,0.84375 -8.78125,1.4375 -1.84375,0 c -0.83837,0 -1.60369,-0.078 -2.3125,-0.1875 -0.008,0.12308 -0.0313,0.24712 -0.0313,0.375 0.4717,3.63003 3.17071,5.46875 8.03125,5.46875 l 1.84375,0 8.75,-1.4375 9.46875,-0.8125 c 9.86257,0 18.5202,3.18969 26,9.53125 -8.66265,-10.12057 -19.19479,-15.21875 -31.65625,-15.21875 z m 86.3125,21.0625 c 2.59165,2.99038 4.92923,6.30288 6.96875,9.9375 5.59885,9.72109 8.375,20.51994 8.375,32.4375 0,22.37286 -9.96162,41.24256 -29.90625,56.5625 -19.93438,15.07384 -45.23307,22.625 -75.875,22.625 -26.7535,0 -49.62327,-5.47515 -68.59375,-16.40625 -4.68109,-2.7379 -8.77024,-5.63207 -12.28125,-8.6875 4.4936,5.1916 10.48219,9.96497 17.96875,14.34375 18.97048,10.9311 41.809,16.40625 68.5625,16.40625 30.64193,0 55.94062,-7.55116 75.875,-22.625 19.94463,-15.31994 29.9375,-34.15839 29.9375,-56.53125 0,-11.91756 -2.8074,-22.74766 -8.40625,-32.46875 -3.42819,-6.10937 -7.63953,-11.30689 -12.625,-15.59375 z m -139.125,49.125 c 2.79625,3.85229 4.21875,8.52759 4.21875,14.0625 l 0.8125,12.78125 c 0,12.16161 3.88348,21.65989 11.65625,28.46875 0.42473,0.34904 0.85175,0.66866 1.28125,1 -4.84121,-6.26271 -7.28125,-14.18593 -7.28125,-23.78125 l -0.8125,-12.78125 c 0,-7.30107 -2.45196,-13.16291 -7.3125,-17.53125 -0.82,-0.81637 -1.66782,-1.54628 -2.5625,-2.21875 z"
     id="path5501-2-6"
     inkscape:connector-curvature="0"
     transform="translate(-459.27,2.835)" />
  <path
     inkscape:connector-curvature="0"
     style="font-size:1.77874517px;font-style:normal;font-variant:normal;font-weight:100;font-stretch:normal;text-align:start;line-height:125%;letter-spacing:0px;word-spacing:0px;writing-mode:lr-tb;text-anchor:start;opacity:0.78681611;fill:#ffffff;fill-opacity:1;stroke:none;display:inline;font-family:Baskerville-DemiBold;-inkscape-font-specification:Baskerville-DemiBold Thin"
     d="m 721.84375,90.25 c -25.05128,0 -46.93188,6.186034 -65.65625,18.59375 -18.47417,12.15956 -27.75,26.12535 -27.75,41.9375 0,7.05497 2.32306,12.91681 6.9375,17.53125 0.8686,0.74302 1.76302,1.41412 2.6875,2.03125 -2.62417,-3.93382 -3.9375,-8.55767 -3.9375,-13.875 0,-15.81215 9.24458,-29.80919 27.71875,-41.96875 18.72437,-12.40772 40.60497,-18.59375 65.65625,-18.59375 27.96761,0 50.47579,5.95949 67.5,17.875 2.32011,1.62408 4.4648,3.32504 6.46875,5.09375 -3.40249,-3.88339 -7.45638,-7.46009 -12.15625,-10.75 C 772.28829,96.209491 749.81136,90.25 721.84375,90.25 z m 25.8125,21.09375 c 0.49357,0.59628 0.96276,1.2412 1.4375,1.875 8.26497,10.7014 12.40625,24.66924 12.40625,41.9375 0,18.23832 -3.73408,32.82965 -11.28125,43.78125 -7.53897,10.7055 -17.87448,16.0625 -31,16.0625 l -8.78125,-0.40625 -8,-0.84375 -2.21875,0 c -5.84496,0 -8.75,1.72057 -8.75,5.125 0.39037,3.00415 2.31765,4.78727 5.71875,5.3125 0.20355,-3.16204 3.08571,-4.75 8.71875,-4.75 l 2.1875,0 8.03125,0.8125 8.75,0.40625 c 13.12552,0 23.46103,-5.357 31,-16.0625 7.54717,-10.9516 11.3125,-25.51168 11.3125,-43.75 0,-17.26826 -4.14128,-31.26735 -12.40625,-41.96875 -2.17464,-2.90323 -4.55547,-5.41535 -7.125,-7.53125 z m 18.53125,109.59375 -9.125,3 c 10.4594,1.4356 18.01261,3.17668 22.625,5.125 3.65053,1.02543 6.29778,1.8447 8,2.5625 1.64069,0.82034 4.38072,2.29873 8.03125,4.71875 l -0.1875,-0.21875 c 3.78393,1.98776 7.24549,4.33663 10.40625,7.0625 -4.52169,-5.23002 -9.8677,-9.49577 -16.0625,-12.75 l 0.15625,0.25 c -3.65053,-2.42002 -6.35931,-3.92966 -8,-4.75 -1.70222,-0.7178 -4.38072,-1.53707 -8.03125,-2.5625 -2.02502,-0.85539 -4.658,-1.67429 -7.8125,-2.4375 z m -15.03125,16.28125 c 0.66453,0.7733 1.32637,1.54239 1.96875,2.375 9.00329,11.67351 13.5,26.77173 13.5,45.25 0,19.21248 -4.36782,36.23477 -13.125,51.0625 -8.51313,14.58778 -21.51689,21.90625 -39.03125,21.90625 -7.05497,0 -13.01446,-0.92181 -17.875,-2.5625 -4.14033,-1.52732 -8.08486,-3.75683 -11.84375,-6.65625 1.28928,1.66389 2.74434,3.22781 4.375,4.65625 4.14274,3.40443 8.51056,5.95403 13.125,7.65625 4.86054,1.64069 10.82003,2.5625 17.875,2.5625 17.51436,0 30.54937,-7.28722 39.0625,-21.875 8.75718,-14.82773 13.125,-31.88127 13.125,-51.09375 0,-18.47827 -4.49671,-33.54524 -13.5,-45.21875 -2.39532,-3.10464 -4.9526,-5.78278 -7.65625,-8.0625 z m -105,44.65625 c -8.03938,0 -14.6121,2.58085 -19.71875,7.6875 -5.10665,5.10665 -7.65625,11.16378 -7.65625,18.21875 0,12.03907 5.24821,22.6462 15.78125,31.8125 -6.74519,-7.79293 -10.125,-16.49101 -10.125,-26.125 0,-7.05497 2.58085,-13.14335 7.6875,-18.25 5.10665,-5.10665 11.64812,-7.65625 19.6875,-7.65625 5.83791,0 10.82401,1.58789 15,4.75 -0.90091,-1.24932 -1.96365,-2.42817 -3.15625,-3.5 -4.63495,-4.61444 -10.44503,-6.9375 -17.5,-6.9375 z"
     id="path5501-2-5"
     transform="translate(-464.94,-2.835)" />
</svg>
