<svg xmlns="http://www.w3.org/2000/svg" xmlns:xlink="http://www.w3.org/1999/xlink" width="500" height="500" enable-background="new"><defs><linearGradient id="a"><stop offset="0" stop-color="#fff"/><stop offset="1" stop-color="#fff" stop-opacity="0"/></linearGradient><linearGradient id="b"><stop offset="0" stop-color="#fc0"/><stop offset="1" stop-color="#fc0" stop-opacity="0"/></linearGradient><linearGradient id="c"><stop offset="0" stop-color="#fff"/><stop offset="1" stop-color="#fff" stop-opacity="0"/></linearGradient><linearGradient id="d"><stop offset="0" stop-color="#fff"/><stop offset="1" stop-color="#fff" stop-opacity="0"/></linearGradient><linearGradient id="e"><stop offset="0" stop-color="#00e4c6"/><stop offset="1" stop-color="#00e4c6" stop-opacity="0"/></linearGradient><linearGradient id="f"><stop offset="0" stop-color="#00f"/><stop offset="1" stop-color="#00f" stop-opacity="0"/></linearGradient><linearGradient id="g"><stop offset="0" stop-color="#fff"/><stop offset="1" stop-color="#fff" stop-opacity="0"/></linearGradient><linearGradient xlink:href="#h" id="l" gradientUnits="userSpaceOnUse" gradientTransform="matrix(.1467 0 0 .1471 1767.86 1749.002)" x1="-7668.96" y1="-11707.119" x2="-7725.838" y2="-9479.424"/><linearGradient id="h"><stop offset="0" stop-color="#fff"/><stop offset="1" stop-color="#fff" stop-opacity="0"/></linearGradient><linearGradient xlink:href="#i" id="k" gradientUnits="userSpaceOnUse" gradientTransform="matrix(2.7633 0 0 2.7633 198.759 -986.282)" x1="150.975" y1="434.711" x2="152.913" y2="530.642"/><linearGradient id="i"><stop offset="0" stop-color="#7575ff"/><stop offset="1" stop-color="#00f" stop-opacity="0"/></linearGradient><filter color-interpolation-filters="sRGB" id="j"><feGaussianBlur stdDeviation=".782"/></filter></defs><path d="M154.366 377.77c-19.775.33-39.179 4.908-57.75 11.5-6.479 22.615-11.322 45.84-12.266 69.404-.322 12.958.349 26.404 5.785 38.37 2.336 5.346 6.211 9.83 10.761 13.442 11.896 10.028 24.968 18.507 37.87 27.167 5.065 3.336 10.189 6.584 15.287 9.867 18.551-10.25 36.861-20.987 54.018-33.443 5.604-4.233 11.216-8.845 14.467-15.175 4.02-7.817 5.68-16.592 6.373-25.277 1.333-18.693-1.228-37.44-4.893-55.729-1.99-9.627-4.327-19.182-7.058-28.626-19.606-7.023-40.185-11.963-61.13-11.513l-1.464.013z" transform="matrix(2.7633 0 0 2.7633 -176.409 -1026.13)" filter="url(#j)"/><path d="M95.713 56.854c136.909-49.244 233.077-31.558 320.802 0 0 0 73.731 239.085 0 312.816-39.533 39.533-167.722 109.153-167.722 109.153s-117-73.072-153.08-109.153c-73.732-73.731 0-312.816 0-312.816z" fill="#7c7cff" stroke="navy" stroke-width="5.799" stroke-linecap="round" stroke-linejoin="round" stroke-opacity=".995"/><path d="M636.222 77.47c-1.81-.012-3.625-.012-5.45.005-43.78.34-92.29 8.189-148.25 27.637-4.726 16.437-17.952 65.136-25.31 120.218-4.521 33.84-6.697 69.782-3.415 100.918 3.283 31.137 12.176 56.861 27.281 71.966 16.131 16.131 54.562 43.856 88.102 66.485 24.219 16.341 45.727 30.1 56.023 36.624 11.132-6.166 34.95-19.533 61.693-35.689 36.696-22.168 78.716-49.978 96.158-67.42 15.105-15.105 23.999-40.829 27.281-71.966 3.283-31.136 1.107-67.079-3.414-100.918-7.362-55.108-20.599-103.826-25.32-120.24-45.059-15.77-91.801-27.279-145.38-27.62z" transform="translate(-375.167 -39.848)" fill="url(#k)" stroke="#00f" stroke-width="5.799" stroke-linecap="round" stroke-linejoin="round" stroke-opacity=".995"/><path d="M632.132 65.891c-44.828.066-94.35 7.605-150.98 26.523a19.501 19.553 0 0 0-12.657 13.436c-7.194 26.619-22.005 86.122-27.563 147.2a19.501 19.553 0 0 0 25.582 20.322c107.333-35.831 217.428-48.839 328.696-49.773a19.501 19.553 0 0 0 19.072-22.74c-6.773-41.087-15.699-76.305-20.846-95.1a19.501 19.553 0 0 0-12.558-13.345c-45.846-15.532-93.947-26.603-148.746-26.523z" transform="translate(-375.167 -39.848)" fill="url(#l)"/><g transform="matrix(1.19863 0 0 1.13072 545.388 5.56)" opacity=".789"><g transform="translate(1.429 -131.429)"><rect width="84.286" height="138.571" rx="23.347" ry="24.749" x="-334.286" y="252.362"/><path d="M-257.143 214.505a35 35 0 1 1-70 0 35 35 0 1 1 70 0z"/></g><rect width="25.714" height="114.286" rx="15.931" ry="16.093" x="-172.709" y="298.635" transform="rotate(40)"/><rect width="25.714" height="114.286" rx="15.931" ry="16.093" x="272.255" y="-74.733" transform="scale(-1 1) rotate(40)"/></g><g transform="matrix(1.19863 0 0 1.13072 658.255 31.67)" fill="#1300e5"><g transform="translate(1.429 -131.429)"><rect width="84.286" height="138.571" rx="23.347" ry="24.749" x="-334.286" y="252.362"/><path d="M-257.143 214.505a35 35 0 1 1-70 0 35 35 0 1 1 70 0z"/></g><rect width="25.714" height="114.286" rx="15.931" ry="16.093" x="-172.709" y="298.635" transform="rotate(40)"/><rect width="25.714" height="114.286" rx="15.931" ry="16.093" x="272.255" y="-74.733" transform="scale(-1 1) rotate(40)"/></g><g opacity=".843" font-size="1.779" font-weight="100" letter-spacing="0" word-spacing="0" font-family="Baskerville-DemiBold"><path d="M-973.95 376.664c2.106-2.257 3.679-5.644 4.744-10.146a60.11 60.11 0 0 0 1.142-7.217c.253-2.562.507-5.34.507-8.346V271.54l-.254-7.217c0-1.357-.634-3.462-1.8-6.316-.889-3.006-2.702-5.188-5.417-6.545-2.701-1.357-7.369-2.029-13.987-2.029v-3.158c11.732-1.51 20.455-3.83 26.17-6.989 1.8-.888 3.69-1.877 5.644-2.93 2.854-1.648 5.264-3.31 7.217-4.959 2.854-2.257 6.164-5.34 9.93-9.246l3.831.507v128.37l.254 11.96c0 3.007.38 5.569 1.142 7.674.887 1.801 1.509 3.006 1.8 3.615.254.507 1.142 1.725 2.702 3.83 2.258 2.702 6.989 4.516 14.213 5.416v3.387h-73.321v-3.387c4.058-.507 7.217-1.141 9.474-2.03 2.258-.887 4.287-2.485 6.088-4.743M-789.766 358.39c7.521 0 13.235-1.28 17.146-3.83 3.906-2.562 7.064-7.141 9.474-13.763l2.93.507-7.902 45.573h-108.29l-.507-4.059 9.703-10.831 20.98-22.562c21.659-23.763 35.42-41.886 41.287-54.37 2.701-6.011 4.807-12.036 6.316-18.048 1.51-6.164 2.258-12.037 2.258-17.597 0-10.07-2.258-17.974-6.773-23.689-4.363-5.72-10.528-8.574-18.5-8.574-7.522.002-13.461 2.106-17.823 6.317a21.002 21.002 0 0 0-4.744 7.216c-1.014 2.715-1.585 6.012-1.585 9.932v1.357l.254 9.246c-.002 4.807-1.586 8.802-4.744 11.96-3.158 2.854-7.217 4.287-12.176 4.287-9.779 0-14.665-4.883-14.665-14.664 0-10.832 6.088-20.305 18.275-28.428 12.176-8.117 26.546-12.176 43.09-12.176 15.943 0 28.727 3.907 38.354 11.733 9.778 7.673 14.663 17.822 14.663 30.456 0 11.58-3.615 22.034-10.832 31.359-7.217 9.17-19.25 20.155-36.096 32.938l-22.11 16.696-14.664 13.084h56.628M-620.03 307.63c6.012 3.158 10.755 7.825 14.213 13.987 3.462 6.012 5.187 12.709 5.187 20.08 0 13.836-6.164 25.493-18.498 34.967-12.329 9.323-27.976 13.989-46.927 13.989-16.545 0-30.682-3.387-42.414-10.147-11.58-6.773-17.371-15.115-17.371-25.042 0-4.363 1.585-8.117 4.743-11.276 3.158-3.158 7.217-4.743 12.189-4.743 4.363 0 7.965 1.433 10.832 4.287 3.006 2.701 4.515 6.316 4.515 10.831l.507 7.902c0 7.522 2.41 13.386 7.217 17.597 2.562 2.106 5.264 3.691 8.118 4.744 3.006 1.014 6.696 1.585 11.06 1.585 10.831 0 18.875-4.515 24.14-13.537 5.416-9.17 8.117-19.702 8.117-31.584 0-11.428-2.777-20.755-8.346-27.974-5.568-7.217-12.48-10.832-20.756-10.832l-5.86.507-5.415.888h-1.142c-3.006 0-4.667-1.141-4.96-3.386 0-2.106 1.802-3.159 5.417-3.159h1.357l4.959.508 5.416.253c8.117 0 14.515-3.31 19.177-9.93 4.668-6.774 6.989-15.794 6.989-27.073 0-10.68-2.562-19.327-7.674-25.946-4.959-6.62-11.58-9.93-19.853-9.93-7.217 0-12.935 2.105-17.146 6.316-4.058 4.058-6.088 9.626-6.088 16.695v2.03l.508 7.9v1.358c0 4.21-1.51 7.597-4.516 10.147-2.853 2.41-6.836 3.615-11.96 3.615-4.363 0-8.117-1.358-11.276-4.06-2.853-2.853-4.287-6.468-4.287-10.83 0-9.78 5.72-18.425 17.146-25.945 11.58-7.673 25.117-11.504 40.61-11.504 17.296 0 31.207 3.691 41.736 11.06 10.527 7.37 15.792 17.146 15.793 29.33-.001 12.328-3.69 20.83-11.06 25.492-7.217 4.667-12.48 7.75-15.793 9.246l-12.405 4.059c6.469.888 11.136 1.953 13.989 3.158 2.258.634 3.906 1.141 4.96 1.585 1.014.508 2.7 1.434 4.958 2.93M-566.03 331.769l90.469-109.87h11.06v105.133l20.303.253v11.504h-20.755v12.189c0 11.275 1.357 19.176 4.059 23.687 2.701 4.516 8.117 7.446 16.242 8.803v3.386h-73.095v-3.386c7.064-.888 12.036-2.702 14.89-5.416 3.006-2.854 4.96-6.164 5.86-9.931 1.014-3.767 1.585-9.475 1.585-17.146v-12.632h-70.615v-6.545m9.931-4.515h60.463v-73.547l-60.463 73.547M-401.707 318.685c-1.953 0-2.93-1.015-2.93-3.158 0-.888.38-1.954 1.142-3.159l4.959-90.694c23.913 3.615 43.016 5.416 57.303 5.416h6.089c3.31.001 6.316-.075 9.017-.253 2.702-.127 5.188-.508 7.446-.888l13.988-1.801c2.562-.254 4.287-.508 5.188-.635a85.973 85.973 0 0 0 3.614-1.141l1.801-.254.635 2.03c0 7.369-3.679 14.513-11.06 21.432-7.37 6.773-20.906 10.147-40.609 10.147h-16.247c-2.562-.254-4.363-.508-5.416-.508-3.463 0-13.16-1.014-29.103-2.93l-3.159 55.275 8.574-5.86c12.037-7.965 26.02-11.96 41.963-11.96 18.199 0 32.637 4.363 43.317 13.084 10.831 8.574 16.243 20.23 16.243 34.97 0 14.89-6.088 27.373-18.274 37.45-12.176 10.07-27.674 15.116-46.474 15.116-16.395 0-30.231-3.387-41.512-10.147-11.123-6.925-16.695-15.415-16.695-25.494 0-4.058 1.357-7.521 4.059-10.375 2.853-3.006 6.544-4.515 11.06-4.515 11.58 0 17.37 6.989 17.37 20.98v5.873c.128 1.954.508 3.755.889 5.416.507 1.51 2.486 4.211 6.088 8.117 3.767 3.767 9.702 5.645 17.822 5.645 9.78 0 17.597-4.06 23.463-12.176 5.568-8.422 8.346-19.929 8.346-34.518 0-14.139-3.006-25.042-9.018-32.713-5.86-7.826-14.59-11.733-26.17-11.733-6.165 0-12.113 1.142-17.823 3.615-4.668 1.65-8.498 3.539-11.504 5.644-1.801 1.142-3.387 2.41-4.744 3.615-1.357 1.142-3.462 3.31-6.316 6.316 0 3.159-1.142 4.744-3.387 4.744M-217.533 293.641c9.323-6.164 20.606-9.246 33.841-9.246 16.695 0 30.457 4.668 41.286 13.987 10.984 9.323 16.47 21.132 16.47 35.42 0 15.943-6.089 29.254-18.275 39.932-12.176 10.68-27.299 16.018-45.346 16.018-20.456 0-37-7.293-49.634-21.884-12.48-14.588-18.724-33.991-18.724-58.205 0-26.472 7.445-47.904 22.334-64.299 15.04-16.544 34.593-24.816 58.658-24.816 13.837 0 25.267 2.714 34.291 8.117 9.018 5.264 13.537 12.037 13.537 20.304 0 4.059-1.357 7.37-4.059 9.931-2.562 2.41-5.935 3.615-10.146 3.615-4.516 0-8.574-1.357-12.176-4.059-3.463-2.701-5.492-6.164-6.088-10.375l-1.142-8.345c-1.357-9.932-7.217-14.89-17.598-14.89-11.885 0-20.606 3.615-26.17 10.832-5.416 7.065-9.322 13.987-11.732 20.755-2.41 6.773-4.059 13.01-4.96 18.726-.887 5.72-1.356 13.762-1.356 24.14l6.988-5.645m-5.416 42.415c0 15.34 2.715 27.373 8.118 36.097 5.568 8.574 13.535 12.86 23.913 12.86 10.223 0 18.123-4.364 23.689-13.086 5.568-8.879 8.346-21.132 8.346-36.775 0-14.889-2.563-26.32-7.674-34.292-4.96-8.117-12.328-12.176-22.11-12.176-10.831 0-19.252 4.135-25.268 12.405-6.011 8.27-9.03 19.93-9.03 34.97M-89.081 219.418h2.93c1.357 1.953 3.158 3.31 5.415 4.059 2.106.507 6.012.634 11.732.634h91.597v5.187l-10.146 13.537c-9.17 13.236-17.748 28.802-25.72 46.7-7.825 17.898-11.732 36.323-11.732 55.274v5.644l.508 6.773.253 7.673c0 16.394-5.936 24.59-17.823 24.59-5.263 0-9.626-1.952-13.085-5.859-3.463-3.906-5.187-9.03-5.187-15.34 0-3.006.074-5.34.253-6.99.127-1.648.634-4.514 1.586-8.573.887-4.211 3.31-10.756 7.216-19.628 3.907-8.878 12.557-22.861 25.944-41.963l16.244-23.011 10.603-16.47h-62.04c-6.621 0-11.276.254-13.988.888-2.562.508-4.959 1.586-7.217 3.387-2.105 1.661-3.69 3.386-4.743 5.187l-2.93 7.674-2.93-.508 3.386-48.956M60.632 299.959c-5.111-3.463-9.322-7.978-12.632-13.537-3.006-5.568-4.516-11.58-4.516-18.047 0-13.838 5.492-25.193 16.47-34.068 11.123-9.018 25.493-13.536 43.09-13.536 15.943 0 29.178 3.691 39.707 11.06 10.527 7.37 15.792 16.695 15.792 27.975 0 6.62-1.649 12.036-4.96 16.243-3.157 4.211-6.544 7.37-10.146 9.475-3.615 2.105-9.855 4.883-18.726 8.346 9.018 3.906 15.943 7.52 20.757 10.831 4.21 2.854 8.27 7.217 12.176 13.086 4.059 5.72 6.088 12.934 6.088 21.658 0 14.439-6.164 26.471-18.499 36.097-12.189 9.474-27.45 14.213-45.798 14.213-18.049 0-33.089-4.211-45.122-12.633-11.884-8.422-17.822-19.176-17.822-32.261 0-7.522 1.8-13.762 5.416-18.726 3.614-4.363 7.14-7.902 10.603-10.603 3.31-2.258 9.322-5.492 18.048-9.703l-9.93-5.86m55.272-9.703c1.801-1.141 3.678-2.701 5.644-4.515 1.954-1.801 3.387-3.234 4.287-4.287 1.65-1.953 3.158-5.035 4.516-9.246 1.357-4.363 2.029-8.879 2.029-13.536 0-9.779-2.778-17.748-8.346-23.915-5.416-6.164-12.556-9.246-21.433-9.246-9.031 0-16.394 2.562-22.109 7.674-5.568 5.111-8.346 11.884-8.346 20.305 0 9.778 2.563 16.243 7.674 19.401l9.703 5.645 7.445 3.614 18.95 8.118m-36.999 20.305c-4.363 3.462-7.597 6.62-9.702 9.474-1.358 2.105-2.778 5.784-4.287 11.06-1.497 5.111-2.258 9.855-2.258 14.213 0 11.732 3.31 21.281 9.931 28.652 6.773 7.369 15.643 11.06 26.621 11.06 10.527 0 19.027-2.854 25.494-8.574 6.468-5.86 9.703-13.31 9.703-22.334 0-7.065-2.258-13.236-6.773-18.5-4.516-5.264-11.808-10.008-21.884-14.214l-18.952-7.673-7.889-3.158M281.807 316.654c-4.211 2.702-9.399 4.96-15.568 6.773-6.012 1.649-12.036 2.486-18.048 2.486-16.545 0-30.38-4.744-41.51-14.214-10.984-9.475-16.47-21.282-16.47-35.42 0-15.792 6.012-28.952 18.049-39.48 12.176-10.68 27.448-16.019 45.797-16.019 20.605 0 37.075 7.293 49.408 21.884 12.48 14.589 18.724 33.84 18.724 57.755 0 26.622-7.52 48.205-22.56 64.75-15.04 16.392-34.517 24.59-58.432 24.59-13.536 0-24.891-2.702-34.066-8.118-9.018-5.416-13.536-12.328-13.536-20.756 0-3.907 1.281-7.065 3.83-9.475 2.702-2.41 6.164-3.614 10.375-3.614 6.317 0 10.528 1.509 12.633 4.515 2.105 2.562 3.539 4.667 4.287 6.316l1.357 3.615 1.142 8.346c1.357 9.93 7.217 14.889 17.597 14.889 11.58 0 20.23-3.615 25.945-10.832 2.854-3.754 5.187-7.217 6.988-10.375 1.954-3.158 3.615-6.697 4.96-10.603 2.105-6.164 3.767-12.328 4.959-18.5.888-5.72 1.357-13.762 1.357-24.14l-7.217 5.645m-58.658-41.06c0 14.588 2.486 25.869 7.445 33.84 5.111 7.966 12.557 11.96 22.335 11.96 10.68 0 19.102-4.058 25.268-12.175 6.164-8.27 9.247-19.928 9.247-34.97 0-15.491-2.778-27.523-8.346-36.097-5.416-8.726-13.31-13.084-23.689-13.084-10.223 0-18.198 4.44-23.913 13.31-5.568 8.879-8.346 21.283-8.346 37.226" style="text-align:start;line-height:125%;-inkscape-font-specification:Baskerville-DemiBold Thin"/></g><g font-size="1.779" font-weight="100" letter-spacing="0" word-spacing="0" font-family="Baskerville-DemiBold"><path style="text-align:start;line-height:125%;-inkscape-font-specification:Baskerville-DemiBold Thin" d="M-937.972 223.937v125.331l.25 11.963c0 3.006.38 5.567 1.141 7.673.888 1.8 1.506 3.005 1.797 3.614.254.507 1.146 1.72 2.706 3.826.613.733 1.42 1.408 2.397 2.01-.812-1.112-1.408-1.964-1.585-2.32-.292-.608-.929-1.812-1.817-3.613-.76-2.106-1.14-4.667-1.14-7.673l-.251-11.963V224.42l-3.498-.483zm-47.872 23.887c-.476.066-.924.15-1.41.213v3.15c6.618 0 11.27.672 13.972 2.03.267.132.525.275.773.424-1.005-1.692-2.42-3.017-4.27-3.942-1.972-.99-5.005-1.61-9.065-1.875zm67.971 136.908v.425h-68.976c-.283.038-.538.08-.83.116v3.382h73.323v-3.382a55.382 55.382 0 0 1-3.517-.541zM-823.403 225.386c-7.521.001-13.457 2.109-17.819 6.32a21.022 21.022 0 0 0-4.735 7.228c-1.014 2.714-1.584 6.015-1.584 9.934v1.353l.25 9.238c0 4.807-1.595 8.804-4.753 11.963-3.159 2.853-7.217 4.29-12.176 4.29-3.72 0-6.721-.712-9.025-2.126 2.303 3.754 6.483 5.624 12.542 5.624 4.96 0 9.018-1.437 12.176-4.29 3.158-3.159 4.734-7.137 4.735-11.944l-.251-9.257v-1.353c0-3.92.57-7.22 1.584-9.934a20.946 20.946 0 0 1 4.735-7.209c4.362-4.21 10.317-6.318 17.839-6.32 5.844 0 10.707 1.528 14.61 4.6-4.339-5.407-10.376-8.117-18.128-8.117zm49.959 12.195c5.96 6.84 8.948 15.182 8.948 25.047 0 11.58-3.625 22.042-10.842 31.367-7.217 9.17-19.238 20.148-36.083 32.932l-22.109 16.698-14.669 13.084h7.422l10.745-9.586 22.11-16.698c16.844-12.784 28.884-23.762 36.101-32.932 7.217-9.325 10.823-19.768 10.823-31.348 0-11.629-4.162-21.138-12.446-28.564zm12.06 104.961a45.138 45.138 0 0 1-1.856 4.407l-6.629 38.17H-875.1l.445 3.517h108.285l7.905-45.572-2.919-.522zM-666.84 223.434c-7.217 0-12.951 2.109-17.162 6.32-4.059 4.059-6.088 9.63-6.088 16.698v2.03l.522 7.904v1.352c0 4.211-1.516 7.597-4.522 10.147-2.854 2.41-6.84 3.614-11.963 3.614-3.64 0-6.845-.941-9.644-2.822a14.737 14.737 0 0 0 1.874 2.28c3.159 2.702 6.924 4.06 11.287 4.06 5.124 0 9.11-1.205 11.963-3.615 3.006-2.55 4.503-5.935 4.503-10.146v-1.372l-.502-7.885v-2.03c0-7.068 2.029-12.639 6.087-16.698 4.211-4.21 9.926-6.32 17.143-6.32 6.03 0 11.19 1.76 15.46 5.277-4.85-5.86-11.174-8.794-18.958-8.794zm52.22 13.432c5.527 6.3 8.29 13.86 8.29 22.69 0 12.327-3.685 20.828-11.054 25.49-7.217 4.668-12.477 7.742-15.79 9.239l-12.407 4.058c3.628.498 6.668 1.06 9.16 1.662l6.745-2.203c3.313-1.497 8.573-4.59 15.79-9.257 7.369-4.663 11.073-13.164 11.074-25.492-.001-10.532-3.941-19.253-11.808-26.187zm-50.635 63.835l-5.856.522-5.431.889h-1.14c-.519 0-.992-.049-1.43-.116-.005.076-.02.153-.02.232.292 2.245 1.961 3.382 4.967 3.382h1.14l5.412-.89 5.856-.502c6.099 0 11.453 1.973 16.08 5.895-5.358-6.26-11.872-9.412-19.579-9.412zm53.379 13.026a37.037 37.037 0 0 1 4.31 6.146c3.462 6.012 5.18 12.69 5.18 20.06 0 13.837-6.162 25.507-18.496 34.981-12.328 9.322-27.974 13.992-46.925 13.992-16.545 0-30.689-3.386-42.42-10.146-2.896-1.693-5.425-3.483-7.596-5.373 2.779 3.21 6.483 6.163 11.113 8.871 11.732 6.76 25.856 10.146 42.402 10.146 18.95 0 34.596-4.67 46.924-13.992 12.334-9.474 18.514-21.125 18.514-34.961 0-7.37-1.736-14.068-5.198-20.08-2.12-3.779-4.725-6.993-7.808-9.644zm-86.041 30.38c1.73 2.383 2.61 5.275 2.61 8.698l.502 7.904c0 7.521 2.401 13.396 7.208 17.606.263.216.527.414.793.619-2.994-3.873-4.503-8.773-4.503-14.707l-.503-7.905c0-4.515-1.516-8.14-4.522-10.842a15.039 15.039 0 0 0-1.585-1.372zM-466.252 223.647v101.637l3.498.039V223.647h-3.498zm-31.135 28.641l-60.317 73.247h6.242l54.075-65.787v-7.46zm51.427 76.707v8.04h-20.756v12.194c0 11.276 1.357 19.164 4.058 23.675.979 1.635 2.33 3.07 4.02 4.29-.175-.251-.345-.51-.502-.773-2.702-4.511-4.059-12.418-4.059-23.694v-12.175h20.757v-11.519l-3.518-.038zm-118.315 7.595v3.498h67.1v-3.498h-67.1zm117.87 47.89v.619h-68.782c-.274.038-.53.08-.811.116v3.401h73.092v-3.401a44.042 44.042 0 0 1-3.498-.734zM-292.335 223.879l-1.797.251c-.442.148-.807.26-1.198.387-.639 6.622-4.266 13.052-10.939 19.307-7.369 6.772-20.902 10.146-40.604 10.146H-363.127c-2.562-.254-4.359-.503-5.411-.503-3.463 0-13.163-1.022-29.106-2.937l-3.15 55.273 3.846-2.628 2.802-49.128c15.943 1.915 25.643 2.918 29.106 2.918 1.052 0 2.868.269 5.43.522h16.235c19.702 0 33.235-3.373 40.604-10.146 7.382-6.919 11.074-14.064 11.074-21.433l-.638-2.03zm-67.41 69.091c-1.288 0-2.576.053-3.846.155-9.152 1.858-17.526 5.312-25.124 10.34l-8.58 5.855v-.135c-.86.88-1.774 1.851-2.842 2.976 0 2.823-.909 4.396-2.706 4.697-.017.144-.038.289-.038.425 0 2.143.965 3.15 2.918 3.15l-.058-.02c2.245 0 3.382-1.595 3.382-4.754 2.854-3.006 4.962-5.158 6.32-6.3 1.357-1.205 2.953-2.472 4.754-3.614 3.006-2.105 6.831-3.994 11.499-5.643 5.71-2.474 11.655-3.634 17.819-3.634 8.895 0 16.104 2.324 21.626 6.939-5.834-6.954-14.207-10.437-25.124-10.437zm58.482 13.451c7.032 7.874 10.552 17.75 10.552 29.628 0 14.89-6.077 27.377-18.264 37.454-12.176 10.07-27.679 15.113-46.48 15.113-16.394 0-30.232-3.386-41.512-10.146-2.484-1.546-4.68-3.168-6.61-4.87 2.6 3.01 5.989 5.792 10.127 8.368 11.28 6.76 25.1 10.146 41.494 10.146 18.8 0 34.303-5.042 46.48-15.113 12.186-10.077 18.282-22.564 18.282-37.454 0-13.713-4.694-24.75-14.07-33.126zm-83.51 37.9c2.394 3.467 3.595 8.385 3.595 14.745v5.876c.127 1.953.509 3.75.89 5.411.507 1.51 2.485 4.21 6.087 8.117.506.506 1.06.973 1.643 1.41-2.417-2.788-3.803-4.808-4.213-6.029-.38-1.661-.763-3.458-.89-5.411v-5.876c0-8.95-2.373-15.02-7.111-18.244zM-182.059 223.086c-11.884 0-20.603 3.626-26.167 10.842-5.416 7.065-9.322 13.989-11.731 20.757-2.41 6.773-4.067 13.012-4.967 18.727-.888 5.72-1.353 13.761-1.353 24.139l3.575-2.88c.157-7.345.599-13.276 1.295-17.76.9-5.716 2.538-11.955 4.948-18.728 2.41-6.768 6.315-13.692 11.73-20.757 5.565-7.216 14.284-10.822 26.169-10.822 4.584 0 8.29.964 11.112 2.899-2.923-4.275-7.798-6.417-14.61-6.417zm46.422 10.997c3.18 3.85 4.793 8.236 4.793 13.142 0 4.059-1.357 7.352-4.058 9.914-2.562 2.41-5.936 3.614-10.147 3.614-4.427 0-8.413-1.306-11.963-3.904a16.917 16.917 0 0 0 3.286 3.363c3.602 2.702 7.66 4.059 12.175 4.059 4.211 0 7.585-1.204 10.147-3.614 2.701-2.562 4.058-5.875 4.058-9.934 0-6.465-2.773-12.01-8.29-16.64zm-54.79 52.858c-1.267 0-2.49.06-3.691.173a60.25 60.25 0 0 0-9.431 2.339c-4.778 2.046-8.822 5.337-12.137 9.895-6.012 8.27-9.026 19.921-9.026 34.961 0 15.341 2.714 27.378 8.117 36.102 1.754 2.701 3.76 4.972 5.991 6.822a32.665 32.665 0 0 1-2.473-3.305c-5.403-8.723-8.117-20.76-8.117-36.101h-.02c0-15.04 3.014-26.711 9.026-34.98 6.016-8.27 14.447-12.39 25.279-12.39 6.45 0 11.842 1.766 16.195 5.296-4.83-5.863-11.4-8.812-19.713-8.812zm51.234 14.475c7.676 8.475 11.5 18.687 11.5 30.632 0 15.943-6.078 29.25-18.264 39.928-12.176 10.68-27.312 16.022-45.359 16.022-17.813 0-32.646-5.537-44.528-16.601 12.42 13.402 28.44 20.099 48.046 20.099 18.047 0 33.163-5.323 45.34-16.002 12.185-10.678 18.282-24.005 18.282-39.948 0-13.64-5.006-25.015-15.017-34.13zM20.849 225.87v1.68l-10.147 13.53a234.137 234.137 0 0 0-7.962 12.33h.522l-5.257 8.155c-4.51 8.1-8.848 16.844-13.026 26.226-7.826 17.897-11.731 36.323-11.731 55.273v5.644l.502 6.764.252 7.672c0 16.394-5.932 24.583-17.82 24.583-3.99 0-7.462-1.116-10.416-3.362.268.347.538.694.83 1.024 3.46 3.906 7.821 5.856 13.085 5.856 11.887 0 17.819-8.19 17.819-24.583l-.252-7.692-.502-6.764v-5.644c0-18.95 3.905-37.375 11.731-55.273C-3.552 273.39 5.03 257.832 14.2 244.597l10.147-13.548v-5.18h-3.498zm-83.142 24.041c-6.621 0-11.262.236-13.973.87-2.562.507-4.97 1.6-7.228 3.401-2.106 1.662-3.683 3.379-4.735 5.18l-1.972 5.16-.386 5.508 2.938.522 2.918-7.673c1.053-1.8 2.649-3.537 4.754-5.199 2.258-1.8 4.647-2.874 7.209-3.382 2.712-.634 7.371-.889 13.992-.889h56.278l2.242-3.498h-62.037zM100.84 223.763c-9.03 0-16.394 2.56-22.11 7.672-5.567 5.112-8.348 11.892-8.348 20.312 0 9.5 2.423 15.863 7.247 19.114-2.48-3.598-3.73-8.805-3.73-15.616 0-8.42 2.781-15.18 8.35-20.292 5.714-5.112 13.078-7.673 22.109-7.673 7.26 0 13.358 2.062 18.302 6.185-.13-.149-.254-.298-.387-.445-5.416-6.164-12.556-9.257-21.433-9.257zm47.93 13.18c5.336 6.05 8.02 13.075 8.02 21.105 0 6.62-1.657 12.046-4.967 16.253-3.158 4.211-6.544 7.365-10.146 9.47-3.615 2.105-9.857 4.886-18.727 8.349 2.042.885 3.97 1.754 5.797 2.61 7.658-3.045 13.153-5.542 16.447-7.46 3.602-2.106 6.988-5.26 10.146-9.47 3.31-4.208 4.948-9.614 4.948-16.235 0-9.631-3.842-17.84-11.518-24.622zm-94.081 58.018a40.97 40.97 0 0 0 7.692 6.745v.02l5.102 3.014c.46-.224.838-.427 1.314-.657l-9.914-5.875a41.148 41.148 0 0 1-4.194-3.247zm22.477 13.876c-4.364 3.463-7.597 6.616-9.702 9.47-1.357 2.106-2.781 5.779-4.29 11.055-1.497 5.111-2.262 9.866-2.262 14.224 0 11.732 3.313 21.271 9.934 28.642a35.378 35.378 0 0 0 2.918 2.84c-6.232-7.276-9.335-16.602-9.335-27.984 0-4.358.746-9.093 2.242-14.205 1.51-5.276 2.934-8.968 4.29-11.074 2.106-2.854 5.34-6.007 9.703-9.47l7.904 3.17 18.94 7.672c7.79 3.252 13.914 6.82 18.38 10.707-4.516-5.263-11.803-10.018-21.878-14.224l-18.96-7.673-7.884-3.15zm73.285.136c1.842 2.047 3.652 4.381 5.43 7.054 4.06 5.72 6.088 12.94 6.088 21.664 0 14.44-6.16 26.477-18.495 36.102-12.189 9.475-27.435 14.205-45.784 14.205-18.048 0-33.094-4.198-45.127-12.62a53.818 53.818 0 0 1-4.947-3.962c2.367 2.665 5.181 5.147 8.445 7.46 12.033 8.422 27.079 12.64 45.127 12.64 18.35 0 33.615-4.75 45.804-14.225 12.334-9.625 18.495-21.663 18.495-36.101 0-8.724-2.03-15.926-6.088-21.646-2.898-4.354-5.882-7.876-8.948-10.571zM253.654 223.338c-11.904-.55-22.519 7.872-26.744 18.661-6.451 15.78-6.637 33.573-3.877 50.192 1.675 8.138 4.842 16.526 11.449 21.942-9.75-12.788-10.016-29.981-9.293-45.354 1.046-14.287 5.015-30.876 18.329-38.612 9.648-5.163 22.58-4.485 31.143 2.544-5.037-6.287-13.038-9.536-21.007-9.373zm45.938 15.19c17.566 18.428 22.397 45.287 20.482 69.89-1.442 25.745-13.483 51.555-35.125 66.324-19.348 13.371-44.833 16.3-67.309 10.396-6.211-1.848-12.248-4.616-17.25-8.794 12.004 13.12 31.162 15.855 48.08 15.021 22.45-.764 44.26-11.899 57.584-30.061 17.37-22.852 20.772-53.562 15.872-81.167-2.967-15.726-10.498-30.7-22.334-41.609zm-95.684 70.522c19.16 20.829 52.82 23.92 77.173 10.828 3.29-2.022 7.987-4.071 6.178-8.959.13-3.304-4.032 2.181-5.912 2.994-16.187 11.142-37.808 12.725-56.384 7.12a57.654 57.654 0 0 1-21.055-11.983zm15.635 42.595c4.356 4.542 5.262 10.754 5.849 16.708-.268 4.281 4.46 12.115 6.028 11.607-4.178-7.189-1.473-16.625-7.144-23.208-1.445-1.805-2.666-3.933-4.733-5.107z"/></g><g opacity=".5" letter-spacing="0" word-spacing="0" fill="#fff"><path style="text-align:start;line-height:125%;-inkscape-font-specification:Baskerville-DemiBold Thin" d="M-941.808 220.391c-3.766 3.907-7.08 7-9.933 9.258-1.953 1.649-4.355 3.299-7.209 4.947a177.475 177.475 0 0 1-5.643 2.938c-5.715 3.158-14.436 5.487-26.168 6.996v3.15c1.79 0 3.424.056 4.928.155 10.997-1.511 19.263-3.777 24.738-6.803 1.8-.888 3.69-1.866 5.643-2.918 2.854-1.65 5.275-3.318 7.228-4.967 2.854-2.258 6.148-5.332 9.915-9.238l.328.039v-3.035l-3.827-.522zm-30.69 33.261c.468.788.859 1.655 1.14 2.61 1.167 2.853 1.798 4.942 1.798 6.3l.251 7.228V349.2c0 3.006-.249 5.787-.502 8.35a59.975 59.975 0 0 1-1.14 7.208c-1.066 4.503-2.65 7.889-4.755 10.147l.077.096c-1.8 2.258-3.83 3.847-6.087 4.735-2.258.888-5.412 1.522-9.47 2.03v3.381h4.464c3.58-.485 6.455-1.08 8.523-1.894 2.258-.887 4.287-2.496 6.088-4.754l-.078-.077c2.106-2.258 3.67-5.644 4.735-10.146.508-2.258.887-4.68 1.14-7.228.254-2.563.503-5.343.503-8.35v-79.411l-.251-7.21c0-1.356-.63-3.465-1.797-6.319-.8-2.706-2.357-4.737-4.639-6.107zm42.847 124.713c.344.472.62.866 1.082 1.488 1.869 2.236 5.438 3.865 10.707 4.87v-2.957c-5.24-.653-9.165-1.797-11.79-3.401zM-817.517 220.45c-16.544 0-30.921 4.058-43.097 12.175-12.187 8.123-18.264 17.597-18.264 28.43 0 6.068 1.88 10.24 5.643 12.542-1.423-2.307-2.145-5.312-2.145-9.045 0-10.831 6.097-20.306 18.283-28.429 12.176-8.117 26.553-12.175 43.098-12.175 15.943 0 28.716 3.905 38.343 11.73.708.556 1.392 1.12 2.049 1.701a41.746 41.746 0 0 0-5.547-5.198c-9.627-7.826-22.42-11.732-38.363-11.732zm12.292 13.103c.11.138.22.264.328.406 4.516 5.715 6.765 13.623 6.765 23.694 0 5.56-.733 11.442-2.242 17.606-1.51 6.012-3.618 12.039-6.32 18.05-5.866 12.484-19.642 30.602-41.3 54.366l-20.97 22.554-9.701 10.842.502 4.058h3.073l-.077-.56 9.702-10.823 20.988-22.573c21.658-23.764 35.415-41.882 41.281-54.365 2.702-6.012 4.81-12.04 6.32-18.051 1.51-6.164 2.261-12.027 2.261-17.587 0-10.07-2.268-17.979-6.784-23.694a21.89 21.89 0 0 0-3.826-3.923zm40.334 105.483c-2.41 6.622-5.583 11.217-9.49 13.78-3.91 2.549-9.62 3.826-17.142 3.826l-.058.058h-49.166l-3.943 3.517h56.627l.058-.077c7.52 0 13.232-1.277 17.142-3.826 2.974-1.95 5.508-5.074 7.615-9.374l1.275-7.382-2.918-.522zM-663.853 219.174c-15.493 0-29.025 3.826-40.605 11.5-11.425 7.52-17.161 16.156-17.161 25.935 0 4.363 1.436 7.988 4.29 10.842.537.46 1.09.875 1.662 1.256-1.623-2.433-2.435-5.292-2.435-8.58 0-9.78 5.717-18.436 17.142-25.956 11.58-7.673 25.112-11.499 40.605-11.499 17.296 0 31.216 3.686 41.745 11.055a45.22 45.22 0 0 1 4 3.15c-2.104-2.402-4.61-4.614-7.518-6.648-10.528-7.37-24.429-11.055-41.725-11.055zm15.963 13.045c.306.369.596.768.89 1.16 5.11 6.618 7.672 15.256 7.672 25.936 0 11.28-2.31 20.303-6.977 27.076-4.662 6.62-11.054 9.934-19.172 9.934l-5.43-.252-4.948-.521h-1.372c-3.615 0-5.411 1.064-5.411 3.17.241 1.857 1.433 2.96 3.536 3.285.126-1.956 1.909-2.938 5.392-2.938h1.353l4.967.502 5.412.252c8.117 0 14.509-3.313 19.171-9.934 4.668-6.773 6.996-15.778 6.996-27.057 0-10.68-2.56-19.337-7.672-25.955-1.345-1.796-2.817-3.35-4.407-4.658zm11.461 67.778l-5.643 1.855c6.468.888 11.14 1.965 13.992 3.17 2.258.634 3.895 1.14 4.947 1.584 1.015.508 2.71 1.422 4.967 2.919l-.116-.136a34.05 34.05 0 0 1 6.436 4.368 33.804 33.804 0 0 0-9.934-7.885l.097.154c-2.258-1.496-3.933-2.43-4.948-2.937-1.052-.444-2.709-.95-4.966-1.585-1.253-.529-2.881-1.035-4.832-1.507zm-9.296 10.069c.411.478.82.954 1.218 1.468 5.568 7.22 8.349 16.557 8.349 27.985 0 11.882-2.702 22.41-8.118 31.58-5.264 9.02-13.306 13.547-24.138 13.547-4.363 0-8.049-.57-11.055-1.585-2.56-.944-5-2.323-7.324-4.116a20.57 20.57 0 0 0 2.705 2.88c2.562 2.105 5.264 3.682 8.117 4.734 3.006 1.015 6.692 1.585 11.055 1.585 10.832 0 18.893-4.507 24.158-13.528 5.416-9.17 8.117-19.717 8.117-31.599 0-11.428-2.781-20.746-8.349-27.965-1.481-1.92-3.063-3.576-4.735-4.986zm-64.936 27.617c-4.972 0-9.037 1.596-12.195 4.754-3.159 3.158-4.735 6.904-4.735 11.268 0 7.445 3.245 14.005 9.76 19.674-4.172-4.82-6.262-10.199-6.262-16.157 0-4.363 1.596-8.128 4.754-11.287 3.158-3.158 7.204-4.735 12.176-4.735 3.61 0 6.694.982 9.276 2.938a13.686 13.686 0 0 0-1.952-2.165c-2.866-2.853-6.46-4.29-10.822-4.29zM-477.315 220.14l-90.467 109.87v6.571h3.517v-3.034l-.019-.02 6.59-8h-.154l60.453-73.537v.31l23.578-28.642h7.556v-3.518h-11.054zm-16.563 35.348l-3.517 4.271v65.768h-54.056l-2.9 3.517h60.473v-73.556zm31.135 69.826v3.479l16.794.212v-3.478l-16.794-.213zm-34.42 14.785v9.122c0 7.67-.57 13.375-1.585 17.142-.9 3.767-2.85 7.08-5.856 9.934-2.854 2.714-7.836 4.524-14.9 5.411v3.402h4.29c6.644-.922 11.362-2.684 14.108-5.296 3.006-2.853 4.955-6.166 5.856-9.933 1.014-3.767 1.585-9.472 1.585-17.143v-12.64h-3.498zm38.517 37.106c2.383 3.413 6.477 5.838 12.233 7.286v-2.783c-5.177-.864-9.257-2.357-12.233-4.503zM-400.28 219.928l-4.967 90.679c-.761 1.205-1.14 2.281-1.14 3.17 0 2.143.964 3.15 2.918 3.15l-.059-.02c.239 0 .463-.022.677-.058.101-.794.46-1.71 1.101-2.725l4.967-90.698c23.914 3.614 43.015 5.411 57.303 5.411h6.088c3.31.001 6.324-.072 9.025-.251 2.702-.127 5.183-.509 7.44-.89l13.993-1.797c2.562-.253 4.28-.51 5.18-.637.63-.18 1.485-.446 2.435-.754.067-.703.116-1.4.116-2.107l-.638-2.029-1.797.251c-1.51.508-2.727.887-3.615 1.14-.9.127-2.636.385-5.198.638l-13.993 1.798c-2.257.38-4.739.762-7.44.889-2.702.179-5.696.252-9.006.251h-6.088c-14.288 0-33.39-1.797-57.303-5.411zm50.016 68.067c-15.943 0-29.92 3.998-41.958 11.963l-4.734 3.227-.348 6.03c1.446-1.484 2.625-2.644 3.478-3.362 1.358-1.205 2.954-2.473 4.755-3.614 3.006-2.106 6.831-3.995 11.499-5.644 4.476-1.938 9.099-3.046 13.857-3.44 5.383-1.101 11.026-1.662 16.949-1.662 18.198 0 32.65 4.363 43.33 13.084a47.377 47.377 0 0 1 2.222 1.894 45.324 45.324 0 0 0-5.74-5.392c-10.68-8.721-25.112-13.084-43.31-13.084zm15.693 15.461c.34.406.664.826.986 1.256 6.012 7.671 9.025 18.562 9.025 32.7 0 14.59-2.781 26.095-8.349 34.517-5.866 8.118-13.683 12.176-23.462 12.176-7.03 0-12.43-1.39-16.196-4.213.57.658 1.187 1.341 1.875 2.087 3.767 3.767 9.699 5.643 17.819 5.643 9.779 0 17.596-4.058 23.462-12.175 5.568-8.422 8.349-19.927 8.349-34.517 0-14.138-2.994-25.049-9.006-32.72a28.582 28.582 0 0 0-4.503-4.754zm-64.801 34.633c-4.137.177-7.548 1.685-10.224 4.503-2.701 2.854-4.058 6.32-4.058 10.378 0 7.842 3.39 14.71 10.127 20.64-4.407-5.089-6.63-10.8-6.63-17.142 0-4.059 1.358-7.505 4.06-10.359 2.853-3.006 6.539-4.522 11.054-4.522 4.182 0 7.61.92 10.281 2.744-2.87-4.163-7.46-6.242-13.78-6.242-.281 0-.554-.012-.83 0zM-178.685 218.787c-24.065 0-43.615 8.271-58.655 24.815-14.89 16.395-22.322 37.828-22.322 64.3 0 24.213 6.247 43.622 18.727 58.21a68.238 68.238 0 0 0 5.237 5.43 70.273 70.273 0 0 1-1.739-1.913c-12.48-14.588-18.727-33.997-18.727-58.21 0-26.472 7.452-47.905 22.341-64.3 15.04-16.543 34.59-24.814 58.655-24.814 13.837 0 25.261 2.714 34.285 8.117 1.955 1.14 3.687 2.35 5.218 3.633-2.174-2.625-5.064-5.02-8.716-7.15-9.024-5.404-20.468-8.118-34.304-8.118zm11.229 10.707c1.531 2.24 2.529 5.07 2.995 8.484l1.14 8.35c.597 4.21 2.626 7.676 6.088 10.378.068.05.144.085.213.135-1.492-2.044-2.41-4.384-2.783-7.016l-1.16-8.33c-.759-5.555-2.913-9.555-6.493-12zm-17.993 53.148c-13.235 0-24.518 3.073-33.84 9.238v.019l-3.421 2.764c-.044 2.03-.058 4.148-.058 6.397l6.996-5.644v-.019c3.748-2.479 7.813-4.451 12.195-5.933 2.85-1.226 5.943-2.009 9.315-2.339 3.9-.655 8.015-.985 12.33-.985 16.695 0 30.452 4.672 41.281 13.992.506.43.986.874 1.469 1.314a52.546 52.546 0 0 0-4.986-4.812c-10.83-9.32-24.586-13.992-41.281-13.992zm14.746 13.142a29.398 29.398 0 0 1 2.396 3.343c5.112 7.971 7.673 19.396 7.673 34.285 0 15.642-2.781 27.9-8.35 36.778-5.565 8.722-13.47 13.084-23.693 13.084-7.125 0-13.118-2.028-17.974-6.069 5.372 6.38 12.54 9.567 21.491 9.567 10.223 0 18.11-4.362 23.675-13.084 5.568-8.878 8.349-21.136 8.349-36.778 0-14.89-2.561-26.313-7.673-34.285-1.683-2.756-3.655-5.021-5.894-6.841zM-90.711 217.57l-.116.096h.116v-.096zm0 .096l-3.383 48.857 2.938.522.947-2.474 3.015-43.406h-.135l.135-.078v.078h2.802c1.357 1.953 3.154 3.31 5.412 4.058 2.105.507 6.01.638 11.73.638h88.09v-3.498h-91.607c-5.72 0-9.625-.13-11.73-.638-2.258-.748-4.055-2.105-5.412-4.059h-2.802zm88.205 35.735l-8.349 12.968-16.234 23.017c-13.387 19.102-22.049 33.08-25.955 41.958-3.907 8.872-6.321 15.425-7.21 19.636-.95 4.058-1.457 6.912-1.584 8.561-.179 1.649-.251 3.99-.251 6.996 0 6.31 1.717 11.439 5.18 15.345a18.52 18.52 0 0 0 2.666 2.474c-2.895-3.763-4.348-8.55-4.348-14.32 0-3.007.072-5.329.251-6.978.127-1.648.634-4.522 1.585-8.58.888-4.211 3.321-10.745 7.228-19.617 3.906-8.878 12.549-22.875 25.936-41.976l16.253-22.999 5.315-8.29a268.437 268.437 0 0 1 4.754-8.195h-5.237zM101.296 219.02c-17.597 0-31.975 4.51-43.098 13.528-10.978 8.874-16.466 20.234-16.466 34.072 0 6.467 1.516 12.483 4.522 18.05 2.34 3.93 5.13 7.322 8.369 10.205a44.62 44.62 0 0 1-4.87-6.706c-3.007-5.568-4.523-11.564-4.523-18.032 0-13.837 5.508-25.197 16.485-34.072 11.124-9.018 25.482-13.548 43.079-13.548 15.943 0 29.187 3.705 39.715 11.074a47.658 47.658 0 0 1 4.33 3.421c-2.173-2.477-4.782-4.793-7.847-6.938-10.529-7.37-23.753-11.055-39.696-11.055zm21.413 14.494c5.276 6.096 7.905 13.904 7.905 23.424 0 4.657-.672 9.165-2.03 13.528-1.357 4.21-2.854 7.285-4.503 9.238-.9 1.053-2.337 2.49-4.29 4.29-1.961 1.81-3.827 3.382-5.624 4.523l-18.96-8.117-7.44-3.614-9.702-5.644c-.152-.094-.297-.19-.444-.29 1.082 1.57 2.39 2.849 3.942 3.808l9.702 5.643 7.46 3.614 18.92 8.098c1.802-1.142 3.678-2.69 5.644-4.503 1.953-1.801 3.39-3.238 4.29-4.29 1.65-1.954 3.166-5.047 4.523-9.258 1.357-4.363 2.03-8.871 2.03-13.528 0-9.78-2.782-17.74-8.35-23.907a28.367 28.367 0 0 0-3.073-3.015zm6.03 61.207c-.747.296-1.492.6-2.28.908 9.017 3.906 15.943 7.512 20.756 10.823a32.976 32.976 0 0 1 3.324 2.609c-2.228-2.49-4.501-4.534-6.822-6.107-3.724-2.561-8.736-5.314-14.978-8.233zm-61.245 10.01c-7.97 3.88-13.607 6.911-16.737 9.045-3.462 2.702-6.995 6.247-10.61 10.61-3.615 4.965-5.411 11.206-5.411 18.728 0 11.16 4.325 20.622 12.968 28.39-6.308-7.058-9.45-15.358-9.45-24.892 0-7.522 1.796-13.763 5.41-18.727 3.615-4.364 7.129-7.89 10.591-10.591 3.31-2.258 9.325-5.51 18.051-9.721l-4.812-2.841zm58.443 29.203c4.485 5.253 6.725 11.396 6.725 18.437 0 9.024-3.233 16.482-9.701 22.341-6.468 5.72-14.965 8.581-25.492 8.581-9.445 0-17.324-2.739-23.655-8.194.181.211.354.43.54.638 6.774 7.369 15.634 11.054 26.613 11.054 10.527 0 19.024-2.841 25.492-8.561 6.468-5.86 9.701-13.317 9.701-22.342 0-7.064-2.249-13.23-6.764-18.495a34.216 34.216 0 0 0-3.46-3.46zM252.312 219.02c-18.35 0-33.628 5.341-45.804 16.02-12.036 10.53-18.05 23.692-18.05 39.485 0 13.547 5.047 24.942 15.132 34.207-7.75-8.586-11.635-18.832-11.635-30.71 0-15.792 6.015-28.935 18.051-39.464 12.176-10.68 27.455-16.021 45.804-16.021 17.656 0 32.268 5.366 43.851 16.08-12.089-13.051-27.862-19.598-47.35-19.598zm22.38 13.74a32.292 32.292 0 0 1 2.647 3.653c5.568 8.574 8.35 20.61 8.35 36.102 0 15.04-3.075 26.691-9.239 34.96-6.166 8.118-14.6 12.177-25.279 12.177-6.638 0-12.191-1.835-16.678-5.508 4.972 6.008 11.704 9.025 20.196 9.025 1.61 0 3.15-.105 4.657-.29 1.712-.337 3.431-.73 5.141-1.198a80.84 80.84 0 0 0 3.692-1.198c4.56-2.021 8.487-5.169 11.77-9.49 6.163-8.27 9.257-19.94 9.257-34.98 0-15.492-2.781-27.509-8.35-36.083-1.779-2.866-3.85-5.245-6.164-7.17zm16.079 80.011l-3.575 2.803c-.156 7.38-.577 13.338-1.276 17.838-1.192 6.172-2.861 12.331-4.967 18.495-1.344 3.907-3.013 7.452-4.967 10.61-1.8 3.158-4.123 6.624-6.976 10.379-5.716 7.216-14.376 10.822-25.956 10.822-4.584 0-8.27-.964-11.093-2.899 2.923 4.275 7.799 6.417 14.61 6.417 11.58 0 20.222-3.626 25.937-10.842 2.853-3.755 5.195-7.22 6.996-10.379 1.953-3.158 3.622-6.684 4.967-10.59 2.105-6.165 3.755-12.324 4.947-18.496.888-5.72 1.353-13.78 1.353-24.158zm-84.727 33.28c-4.21 0-7.676 1.204-10.378 3.614-2.55 2.41-3.826 5.564-3.826 9.47 0 6.667 2.84 12.383 8.484 17.162-3.316-4-4.967-8.555-4.967-13.664 0-3.906 1.277-7.06 3.827-9.47 2.701-2.41 6.167-3.614 10.378-3.614 4.32 0 7.641.699 9.991 2.107-.285-.364-.553-.717-.87-1.102-2.105-3.006-6.322-4.503-12.639-4.503z" font-size="1.779" font-weight="100" font-family="Baskerville-DemiBold"/></g></svg>
