<svg xmlns="http://www.w3.org/2000/svg" xmlns:xlink="http://www.w3.org/1999/xlink" width="500" height="500"><defs><linearGradient id="a"><stop offset="0" stop-color="#fff"/><stop offset="1" stop-color="#fff" stop-opacity="0"/></linearGradient><linearGradient id="b"><stop offset="0" stop-color="gray"/><stop offset="1" stop-color="#fff" stop-opacity="0"/></linearGradient><linearGradient id="c"><stop offset="0" stop-color="#fff"/><stop offset="1" stop-color="#fff" stop-opacity="0"/></linearGradient><linearGradient id="d"><stop offset="0" stop-color="#fff"/><stop offset="1" stop-color="#fff" stop-opacity="0"/></linearGradient><linearGradient id="e"><stop offset="0" stop-color="#00e4c6"/><stop offset="1" stop-color="#00e4c6" stop-opacity="0"/></linearGradient><filter color-interpolation-filters="sRGB" id="h"><feGaussianBlur stdDeviation=".782"/></filter><linearGradient id="f"><stop offset="0" stop-color="#ff0021"/><stop offset="1" stop-color="#ff0018" stop-opacity="0"/></linearGradient><linearGradient xlink:href="#d" id="j" gradientUnits="userSpaceOnUse" gradientTransform="matrix(.1467 0 0 .1471 1767.86 1749.002)" x1="-7668.96" y1="-11707.119" x2="-7725.838" y2="-9479.424"/><linearGradient id="g"><stop offset="0" stop-color="gray"/><stop offset="1" stop-color="#fff" stop-opacity="0"/></linearGradient><linearGradient xlink:href="#b" id="i" gradientUnits="userSpaceOnUse" gradientTransform="matrix(2.7633 0 0 2.7633 198.759 -986.282)" x1="150.975" y1="434.711" x2="152.913" y2="530.642"/></defs><path d="M154.366 377.77c-19.775.33-39.179 4.908-57.75 11.5-6.479 22.615-11.322 45.84-12.266 69.404-.322 12.958.349 26.404 5.785 38.37 2.336 5.346 6.211 9.83 10.761 13.442 11.896 10.028 24.968 18.507 37.87 27.167 5.065 3.336 10.189 6.584 15.287 9.867 18.551-10.25 36.861-20.987 54.018-33.443 5.604-4.233 11.216-8.845 14.467-15.175 4.02-7.817 5.68-16.592 6.373-25.277 1.333-18.693-1.228-37.44-4.893-55.729-1.99-9.627-4.327-19.182-7.058-28.626-19.606-7.023-40.185-11.963-61.13-11.513l-1.464.013z" transform="matrix(2.7633 0 0 2.7633 -176.409 -1026.13)" filter="url(#h)"/><path d="M95.713 56.854c136.909-49.244 233.077-31.558 320.802 0 0 0 73.731 239.085 0 312.816-39.533 39.533-167.722 109.153-167.722 109.153s-117-73.072-153.08-109.153c-73.732-73.731 0-312.816 0-312.816z" fill="#4f4f4f" stroke="#14e5dc" stroke-width="5.799" stroke-linecap="round" stroke-linejoin="round"/><path d="M626.625 75.531c-49.42.87-98.21 11.452-144.75 27.719-4.724 9.188-5.985 20.284-8.989 30.32-14.258 59.452-25.212 120.525-22.011 181.928 2.22 28.968 7.402 60.237 27.375 82.658 25.926 24.947 56.432 44.934 85.955 65.585 20.16 13.3 40.098 27.446 60.942 39.392 18.888-9.261 37.1-20.806 55.485-31.4 34.804-21.34 70.135-42.426 100.974-69.352 21.883-20.245 28.228-51.453 31.103-79.909 4.55-58.913-5.369-117.897-18.173-175.174-3.741-14.488-6.503-29.615-11.726-43.49-26.39-10.248-54.376-17.475-82.358-22.55-24.356-4.227-49.095-6.223-73.827-5.727z" transform="translate(-376.33 -39.848)" fill="url(#i)" stroke="#ffe001" stroke-width="7" stroke-linecap="round" stroke-linejoin="round" stroke-opacity=".995"/><path d="M252.4 47.621c-47.24.713-93.97 10.159-138.53 25.438-19.19 72.221-34.398 147.453-25.813 222.437 3.358 24.519 12.79 49.769 33.406 64.906 37.62 31.478 79.159 57.926 120.153 84.886 7.002 4.245 4.898 5.637 15.643-.492 49.492-28.448 100.185-56.7 142.891-94.675 20.884-24.429 23.517-58.224 24.657-89.062 1.11-62.058-11.837-123.13-26.657-183-.8-8.193-10.95-7.322-16.843-10.094-41.598-13.057-85.12-21.012-128.907-20.344z" fill="none" stroke="#00d11c" stroke-width="7" stroke-linecap="round" stroke-linejoin="round" stroke-opacity=".995"/><path d="M251.975 57.621c-44.4.764-88.411 9.172-130.406 23.25-18.87 72.015-33.602 147.304-22.85 221.859 3.96 23.259 17.728 44.893 37.782 57.52 35.549 28.306 73.734 53.279 112.13 77.746 10.482-6.03 20.661-12.498 31.34-18.239 40.704-23.896 82.211-47.556 115.725-81.024 19.498-28.843 18.377-65.45 18.341-99.08-1.876-53.85-13.004-106.788-26.218-158.844-43.635-14.563-89.533-23.924-135.844-23.188z" fill="none" stroke="#0034d6" stroke-width="7" stroke-linecap="round" stroke-linejoin="round" stroke-opacity=".995"/><path d="M252.162 67.621c-41.575.775-82.858 8.268-122.312 21.063-18.11 69.973-31.866 143.306-20.688 215.593 4.526 23.514 22.24 42.443 42.116 54.878 31.241 24.023 64.336 45.87 97.54 67.091 48.489-29.18 100.502-54.556 140.115-95.541 18.142-30.56 15.18-67.64 14.573-101.865-2.794-47.506-12.576-94.19-23.969-140.219-41.048-13.261-84.029-21.64-127.375-21z" fill="none" stroke="#ff4040" stroke-width="7" stroke-linecap="round" stroke-linejoin="round" stroke-opacity=".995"/><path d="M252.475 77.621c-38.811.716-77.359 7.464-114.344 18.875-17.172 67.609-29.977 138.456-18.687 208.156 5.72 23.454 25.815 39.377 45.036 51.952 27.268 20.485 55.793 39.458 84.526 57.86 45.877-27.159 94.586-51.682 132.063-90.093 17.438-32.408 12.84-70.737 11.65-106.243-3.372-41.12-11.82-81.655-21.525-121.694C332.85 84.53 292.809 77.129 252.475 77.62z" fill="none" stroke="#40f7ff" stroke-width="7" stroke-linecap="round" stroke-linejoin="round" stroke-opacity=".995"/><path d="M252.725 87.621c-36.027.659-71.848 6.685-106.313 16.781-16.087 64.77-27.91 132.618-16.906 199.25 6.972 23.303 28.908 36.708 47.666 49.955 23.473 17.226 47.703 33.41 72.147 49.14 42.985-25.242 88.13-48.707 123.468-84.22 16.661-33.363 10.697-72.092 9.17-108.083-3.426-35.792-10.916-71.177-19.138-106.135-35.643-10.54-72.752-17.15-110.094-16.688z" fill="none" stroke="#fff31d" stroke-width="7" stroke-linecap="round" stroke-linejoin="round" stroke-opacity=".995"/><path d="M252.362 97.621c-33.256.711-66.285 5.788-98.25 14.875-14.981 61.646-25.808 126.376-15.156 189.594 22.708 37.535 76.038 66.975 110.156 88.937 39.998-23.437 81.672-45.65 114.813-78.406 15.342-33.764 8.569-71.859 6.799-107.65-3.213-31.224-10.019-62.089-16.83-92.6-32.992-9.463-67.16-15.088-101.532-14.75z" fill="none" stroke="#00db02" stroke-width="7" stroke-linecap="round" stroke-linejoin="round" stroke-opacity=".995"/><path d="M249.768 107.746c-29.54.785-58.89 5.149-87.375 12.875-13.723 58.445-23.745 119.562-13.468 179.438 23.793 32.92 68.35 58.653 100.53 79.25 36.97-21.727 75.26-42.345 106.063-72.625 14.106-34.208 6.342-72.266 4.403-108.117-3.1-26.259-8.826-52.252-14.528-78.102-31.066-8.64-63.288-13.385-95.625-12.719z" fill="none" stroke="#2f24ff" stroke-width="7" stroke-linecap="round" stroke-linejoin="round" stroke-opacity=".995"/><path d="M252.5 117.746c-27.814.396-55.5 4.225-82.407 11-12.449 54.79-21.273 111.945-12.219 168 26.288 30.926 59.677 50.576 91.313 70.844 33.921-19.837 68.706-39.263 97.219-66.531 12.743-35.023 4.17-73.002 2.017-109.178-2.897-21.313-7.552-42.331-12.174-63.322-27.32-7.207-55.474-11.104-83.75-10.813z" fill="none" stroke="#ff2424" stroke-width="7" stroke-linecap="round" stroke-linejoin="round" stroke-opacity=".995"/><path d="M251.617 127.777c-25.027.328-49.985 3.497-74.28 9.22-11.347 51.03-18.922 104.055-11.095 156.155 25.02 29.023 52.36 43.577 82.125 62.72 30.811-18.186 62.147-35.85 88.157-60.47 9.17-53.941.75-109.573-9.97-158.718-24.474-5.912-49.675-9.201-74.937-8.907z" fill="none" stroke="#01f3ff" stroke-width="7" stroke-linecap="round" stroke-linejoin="round" stroke-opacity=".995"/><path d="M249.617 137.809c-21.496.464-42.824 3.042-63.843 7.53-10.28 46.917-16.423 95.556-10.157 143.438 20.393 23.147 46.953 39.163 72.907 55.375 27.432-16.14 55.24-32.217 78.656-53.78 7.387-48.425 1.119-97.82-9.156-145.376-22.44-5.087-45.387-7.543-68.407-7.187z" fill="none" stroke="#fff901" stroke-width="7" stroke-linecap="round" stroke-linejoin="round" stroke-opacity=".995"/><path d="M249.93 147.809c-18.727.603-37.374 2.261-55.719 6.093-9.059 42.778-14.25 86.904-8.969 130.563 17.99 19.628 40.937 33.936 63.438 47.969 24.08-14.215 48.406-28.497 69.125-47.125 5.95-43.965.813-88.707-8.25-131.907-19.61-3.99-39.59-5.824-59.625-5.593z" fill="none" stroke="#0bce00" stroke-width="7" stroke-linecap="round" stroke-linejoin="round" stroke-opacity=".995"/><path d="M250.586 157.871c-16.073.47-32.12 1.68-47.906 4.625-7.84 38.57-12.145 78.276-7.781 117.594 15.643 16.396 34.87 28.673 53.906 40.625 20.671-12.246 41.277-24.615 59.5-40.344 4.782-39.544.54-79.522-7.219-118.375-16.619-3.023-33.569-4.312-50.5-4.125z" fill="none" stroke="#0045ce" stroke-width="7" stroke-linecap="round" stroke-linejoin="round" stroke-opacity=".995"/><path d="M251.086 167.902c-13.355.324-26.74 1.324-39.906 3.282-6.594 34.314-10.147 69.519-6.594 104.437 13.05 13.172 28.767 23.386 44.375 33.344 17.243-10.214 34.353-20.822 49.813-33.625 3.643-34.955.36-70.256-6.22-104.625-13.674-2.027-27.59-2.999-41.468-2.813z" fill="none" stroke="#ff0606" stroke-width="7" stroke-linecap="round" stroke-linejoin="round" stroke-opacity=".995"/><path d="M251.399 177.902a325.876 325.876 0 0 0-31.688 2.282c-5.387 29.882-8.17 60.45-5.437 90.812 10.473 10.187 22.601 18.33 34.843 26.156 13.916-8.2 27.42-16.875 40.063-26.968 2.683-30.233.138-60.692-5.156-90.47-10.82-1.292-21.726-1.984-32.625-1.812z" fill="none" stroke="#04f4ff" stroke-width="7" stroke-linecap="round" stroke-linejoin="round" stroke-opacity=".995"/><path d="M251.711 187.902a314.59 314.59 0 0 0-23.437 1.47c-4.118 25.357-6.298 51.243-4.313 77.03 7.868 7.089 16.477 13.23 25.375 18.938 10.446-6.205 20.523-12.876 30.156-20.313 1.782-25.446.234-51.067-4.28-76.125-7.808-.735-15.658-1.119-23.5-1z" fill="none" stroke="#fbf500" stroke-width="7" stroke-linecap="round" stroke-linejoin="round" stroke-opacity=".995"/><path d="M251.992 197.902c-5.027.102-10.047.42-15.062.782-2.836 20.774-4.565 41.913-3.281 62.937a168.239 168.239 0 0 0 15.906 11.844c6.942-4.23 13.706-8.777 20.219-13.656 1.162-20.534-.084-41.23-3.125-61.5-4.877-.332-9.769-.48-14.657-.407z" fill="none" stroke="#0eff17" stroke-width="7" stroke-linecap="round" stroke-linejoin="round" stroke-opacity=".995"/><path d="M255.899 207.84c-3.145 1.207-8.085-1.538-10.22 1.312-.651 16.389-5.41 33.59-.28 49.532 4.829 5.093 12.704-.411 14.5-5.72 1.771-7.895-.836-16.136-.094-24.218-.378-6.94-.302-15.048-3.469-20.937h-.156l-.281.031z" fill="none" stroke="#0e1fff" stroke-width="7" stroke-linecap="round" stroke-linejoin="round" stroke-opacity=".995"/><path d="M632.132 65.891c-44.828.066-94.35 7.605-150.98 26.523a19.501 19.553 0 0 0-12.657 13.436c-7.194 26.619-22.005 86.122-27.563 147.2a19.501 19.553 0 0 0 25.582 20.322c107.333-35.831 217.428-48.839 328.696-49.773a19.501 19.553 0 0 0 19.072-22.74c-6.773-41.087-15.699-76.305-20.846-95.1a19.501 19.553 0 0 0-12.558-13.345c-45.846-15.532-93.947-26.603-148.746-26.523z" transform="translate(-375.167 -39.848)" fill="url(#j)"/><path d="M631.438 272.375c-.522 5.997-.913 13.104.156 18.531 2.403-3.46-.694-8.189.187-12.156-.183-.7.052-12.89-.343-6.375z" transform="matrix(1 0 0 1.75032 -379.82 -258.12)" fill="none" stroke="#ff0e0e" stroke-width="3.779" stroke-linecap="round" stroke-linejoin="round" stroke-opacity=".995"/></svg>
