<svg xmlns="http://www.w3.org/2000/svg" xmlns:xlink="http://www.w3.org/1999/xlink" width="500" height="500" enable-background="new"><defs><linearGradient id="a"><stop offset="0" stop-color="#fff"/><stop offset="1" stop-color="#fff" stop-opacity="0"/></linearGradient><linearGradient id="b"><stop offset="0" stop-color="#fc0"/><stop offset="1" stop-color="#fc0" stop-opacity="0"/></linearGradient><linearGradient id="c"><stop offset="0" stop-color="#fff"/><stop offset="1" stop-color="#fff" stop-opacity="0"/></linearGradient><linearGradient id="d"><stop offset="0" stop-color="#fff"/><stop offset="1" stop-color="#fff" stop-opacity="0"/></linearGradient><linearGradient id="e"><stop offset="0" stop-color="#00e4c6"/><stop offset="1" stop-color="#00e4c6" stop-opacity="0"/></linearGradient><linearGradient id="f"><stop offset="0" stop-color="#00f"/><stop offset="1" stop-color="#00f" stop-opacity="0"/></linearGradient><filter color-interpolation-filters="sRGB" id="i"><feGaussianBlur stdDeviation=".782"/></filter><linearGradient xlink:href="#g" id="j" gradientUnits="userSpaceOnUse" gradientTransform="matrix(2.7633 0 0 2.7633 198.759 -986.282)" x1="150.975" y1="434.711" x2="152.913" y2="530.642"/><linearGradient id="g"><stop offset="0" stop-color="#00f"/><stop offset="1" stop-color="#00f" stop-opacity="0"/></linearGradient><linearGradient id="h"><stop offset="0" stop-color="#fff"/><stop offset="1" stop-color="#fff" stop-opacity="0"/></linearGradient><linearGradient y2="-9479.424" x2="-7725.838" y1="-11707.119" x1="-7668.96" gradientTransform="matrix(.1467 0 0 .1471 1767.86 1749.002)" gradientUnits="userSpaceOnUse" id="k" xlink:href="#h"/></defs><path transform="matrix(2.7633 0 0 2.7633 -176.409 -1026.13)" d="M154.366 377.77c-19.775.33-39.179 4.908-57.75 11.5-6.479 22.615-11.322 45.84-12.266 69.404-.322 12.958.349 26.404 5.785 38.37 2.336 5.346 6.211 9.83 10.761 13.442 11.896 10.028 24.968 18.507 37.87 27.167 5.065 3.336 10.189 6.584 15.287 9.867 18.551-10.25 36.861-20.987 54.018-33.443 5.604-4.233 11.216-8.845 14.467-15.175 4.02-7.817 5.68-16.592 6.373-25.277 1.333-18.693-1.228-37.44-4.893-55.729-1.99-9.627-4.327-19.182-7.058-28.626-19.606-7.023-40.185-11.963-61.13-11.513l-1.464.013z" filter="url(#i)"/><path d="M95.713 56.854c136.909-49.244 233.077-31.558 320.802 0 0 0 73.731 239.085 0 312.816-39.533 39.533-167.722 109.153-167.722 109.153s-117-73.072-153.08-109.153c-73.732-73.731 0-312.816 0-312.816z" fill="navy" stroke="navy" stroke-width="5.799" stroke-linecap="round" stroke-linejoin="round" stroke-opacity=".995"/><path d="M636.222 77.47c-1.81-.012-3.625-.012-5.45.005-43.78.34-92.29 8.189-148.25 27.637-4.726 16.437-17.952 65.136-25.31 120.218-4.521 33.84-6.697 69.782-3.415 100.918 3.283 31.137 12.176 56.861 27.281 71.966 16.131 16.131 54.562 43.856 88.102 66.485 24.219 16.341 45.727 30.1 56.023 36.624 11.132-6.166 34.95-19.533 61.693-35.689 36.696-22.168 78.716-49.978 96.158-67.42 15.105-15.105 23.999-40.829 27.281-71.966 3.283-31.136 1.107-67.079-3.414-100.918-7.362-55.108-20.599-103.826-25.32-120.24-45.059-15.77-91.801-27.279-145.38-27.62z" fill="url(#j)" stroke="#00f" stroke-width="5.799" stroke-linecap="round" stroke-linejoin="round" stroke-opacity=".995" transform="translate(-375.167 -39.848)"/><path d="M632.132 65.891c-44.828.066-94.35 7.605-150.98 26.523a19.501 19.553 0 0 0-12.657 13.436c-7.194 26.619-22.005 86.122-27.563 147.2a19.501 19.553 0 0 0 25.582 20.322c107.333-35.831 217.428-48.839 328.696-49.773a19.501 19.553 0 0 0 19.072-22.74c-6.773-41.087-15.699-76.305-20.846-95.1a19.501 19.553 0 0 0-12.558-13.345c-45.846-15.532-93.947-26.603-148.746-26.523z" fill="url(#k)" transform="translate(-375.167 -39.848)"/><path d="M303.297 245.037c-6.809 4.368-15.197 8.019-25.172 10.951-9.721 2.667-19.463 4.02-29.184 4.02-26.752 0-49.124-7.67-67.12-22.984-17.761-15.32-26.631-34.411-26.631-57.272 0-25.536 9.72-46.815 29.184-63.84 19.688-17.268 44.382-25.9 74.052-25.9 33.318 0 59.949 11.793 79.891 35.386 20.18 23.589 30.277 54.719 30.277 93.388 0 43.045-12.161 77.945-36.478 104.696-24.32 26.508-55.815 39.762-94.484 39.762-21.886 0-40.248-4.368-55.084-13.125-14.581-8.757-21.887-19.934-21.887-33.562 0-6.317 2.072-11.424 6.194-15.32 4.368-3.897 9.967-5.845 16.776-5.845 10.213 0 17.022 2.44 20.427 7.3 3.404 4.143 5.722 7.548 6.932 10.214l2.194 5.845 1.846 13.495c2.194 16.058 11.67 24.075 28.453 24.075 18.725 0 32.712-5.845 41.953-17.515 4.614-6.07 8.388-11.669 11.3-16.776 3.159-5.106 5.845-10.828 8.02-17.145 3.403-9.967 6.09-19.934 8.018-29.914 1.436-9.25 2.194-22.252 2.194-39.032l-11.67 9.127m-94.847-66.393c0 23.589 4.02 41.83 12.038 54.72 8.265 12.878 20.304 19.339 36.116 19.339 17.268 0 30.886-6.563 40.857-19.689 9.967-13.371 14.951-32.223 14.951-56.544 0-25.05-4.491-44.504-13.495-58.367-8.757-14.11-21.521-21.157-38.304-21.157-16.53 0-29.425 7.178-38.667 21.522-9.003 14.356-13.494 34.413-13.494 60.192" style="text-align:start;line-height:125%;-inkscape-font-specification:Baskerville-DemiBold Thin" font-size="1.779" font-weight="100" letter-spacing="0" word-spacing="0" fill="none" stroke="#fff" stroke-width="20.09844956" font-family="Baskerville-DemiBold" opacity=".57"/><g opacity=".3" font-size="1.779" font-weight="100" letter-spacing="0" word-spacing="0" font-family="Baskerville-DemiBold"><path d="M-1727.217 342.071c3.405-3.65 5.948-9.126 7.67-16.407.82-3.65 1.436-7.547 1.846-11.669.41-4.143.82-8.634.82-13.495V172.088l-.41-11.67c0-2.194-1.025-5.599-2.912-10.213-1.435-4.86-4.368-8.388-8.757-10.582-4.368-2.195-11.915-3.282-22.617-3.282v-5.106c18.97-2.441 33.074-6.194 42.316-11.3 2.912-1.436 5.968-3.036 9.126-4.738 4.614-2.666 8.511-5.353 11.67-8.02 4.614-3.65 9.967-8.633 16.058-14.95l6.193.82v207.57l.41 19.34c0 4.86.616 9.003 1.846 12.408 1.436 2.912 2.44 4.86 2.912 5.845.41.82 1.846 2.789 4.369 6.193 3.65 4.369 11.3 7.301 22.982 8.757v5.476h-118.559v-5.476c6.563-.82 11.67-1.845 15.32-3.281 3.65-1.436 6.932-4.02 9.844-7.67M-1429.399 312.523c12.162 0 21.401-2.072 27.724-6.194 6.317-4.143 11.423-11.546 15.32-22.254l4.737.82-12.777 73.69h-175.1l-.82-6.563 15.689-17.514 33.925-36.481c35.02-38.425 57.272-67.73 66.758-87.914 4.368-9.721 7.772-19.463 10.213-29.184 2.44-9.967 3.65-19.463 3.65-28.454 0-16.284-3.65-29.062-10.951-38.304-7.055-9.25-17.022-13.863-29.914-13.863-12.162.002-21.766 3.404-28.819 10.213-3.404 3.404-5.947 7.3-7.67 11.67-1.64 4.388-2.564 9.72-2.564 16.057v2.195l.41 14.95c-.001 7.773-2.563 14.234-7.67 19.34-5.106 4.615-11.669 6.932-19.688 6.932-15.812 0-23.712-7.896-23.712-23.712 0-17.514 9.844-32.832 29.549-45.966 19.688-13.125 42.924-19.688 69.676-19.688 25.78 0 46.45 6.317 62.016 18.97 15.812 12.408 23.71 28.82 23.71 49.248 0 18.724-5.845 35.627-17.514 50.705-11.67 14.828-31.128 32.59-58.366 53.261l-35.75 26.996-23.713 21.156h91.565M-1154.942 230.445c9.721 5.107 17.391 12.654 22.982 22.617 5.599 9.721 8.388 20.55 8.388 32.467 0 22.373-9.967 41.222-29.912 56.542-19.934 15.074-45.236 22.62-75.878 22.62-26.753 0-49.612-5.477-68.583-16.408-18.724-10.951-28.088-24.44-28.088-40.492 0-7.055 2.563-13.125 7.67-18.232 5.107-5.107 11.67-7.67 19.709-7.67 7.055 0 12.88 2.317 17.514 6.932 4.86 4.368 7.301 10.213 7.301 17.514l.82 12.777c0 12.162 3.897 21.645 11.67 28.454 4.143 3.404 8.511 5.968 13.126 7.67 4.86 1.64 10.828 2.563 17.883 2.563 17.514 0 30.521-7.3 39.034-21.888 8.757-14.828 13.126-31.859 13.126-51.071 0-18.478-4.492-33.56-13.495-45.234-9.003-11.67-20.18-17.514-33.562-17.514l-9.475.82-8.758 1.436h-1.845c-4.86 0-7.547-1.846-8.02-5.476 0-3.404 2.913-5.107 8.758-5.107h2.194l8.02.82 8.756.41c13.126 0 23.47-5.352 31.01-16.057 7.547-10.952 11.3-25.538 11.3-43.776 0-17.268-4.143-31.251-12.408-41.953-8.019-10.705-18.724-16.058-32.102-16.058-11.67 0-20.915 3.405-27.724 10.214-6.562 6.562-9.844 15.566-9.844 26.995v3.281l.82 12.777v2.195c0 6.809-2.44 12.284-7.3 16.407-4.615 3.896-11.055 5.845-19.34 5.845-7.055 0-13.126-2.195-18.232-6.563-4.615-4.615-6.932-10.46-6.932-17.515 0-15.812 9.25-29.79 27.723-41.95 18.725-12.408 40.614-18.601 65.665-18.601 27.967 0 50.461 5.968 67.486 17.883 17.022 11.916 25.535 27.724 25.537 47.424-.002 19.935-5.968 33.682-17.884 41.22-11.67 7.548-20.18 12.531-25.537 14.951l-20.057 6.563c10.459 1.436 18.006 3.159 22.619 5.107 3.65 1.025 6.316 1.846 8.018 2.563 1.641.82 4.369 2.318 8.02 4.738M-1067.625 269.477L-921.34 91.821h17.884v169.996l32.83.41v18.601h-33.56v19.71c0 18.231 2.194 31.006 6.563 38.301 4.368 7.301 13.125 12.039 26.263 14.233v5.476h-118.193v-5.476c11.423-1.435 19.462-4.368 24.077-8.757 4.86-4.614 8.019-9.967 9.475-16.058 1.64-6.091 2.563-15.32 2.563-27.724v-20.426h-114.181v-10.583m16.058-7.3h97.766V143.3l-97.766 118.923M-801.921 248.32c-3.158 0-4.737-1.64-4.737-5.106 0-1.436.615-3.159 1.845-5.107l8.02-146.649c38.666 5.845 69.554 8.757 92.657 8.757H-694.292c5.353.002 10.214-.12 14.582-.41 4.368-.205 8.388-.82 12.038-1.436l22.62-2.912c4.142-.41 6.931-.82 8.387-1.025 1.436-.41 3.405-1.026 5.845-1.846l2.913-.41 1.025 3.281c0 11.916-5.947 23.468-17.883 34.656-11.916 10.951-33.805 16.407-65.663 16.407h-26.271c-4.143-.41-7.055-.82-8.758-.82-5.598 0-21.28-1.641-47.059-4.738l-5.106 89.376 13.863-9.475c19.463-12.88 42.074-19.34 67.853-19.34 29.426 0 52.773 7.056 70.041 21.157 17.515 13.864 26.266 32.712 26.266 56.545 0 24.077-9.844 44.261-29.55 60.556-19.687 16.283-44.747 24.442-75.147 24.442-26.51 0-48.882-5.476-67.122-16.407-17.987-11.198-26.996-24.926-26.996-41.223 0-6.562 2.194-12.161 6.563-16.776 4.614-4.86 10.582-7.3 17.883-7.3 18.725 0 28.089 11.3 28.089 33.925v9.495c.205 3.159.82 6.07 1.436 8.757.82 2.44 4.02 6.81 9.844 13.126 6.09 6.091 15.689 9.126 28.818 9.126 15.813 0 28.454-6.563 37.94-19.688 9.003-13.618 13.494-32.223 13.494-55.814 0-22.861-4.86-40.492-14.582-52.896-9.475-12.654-23.59-18.97-42.317-18.97-9.967 0-19.586 1.845-28.819 5.844-7.547 2.667-13.74 5.722-18.601 9.127-2.912 1.846-5.476 3.896-7.67 5.845-2.195 1.845-5.6 5.352-10.214 10.213 0 5.107-1.846 7.67-5.476 7.67M-504.117 207.826c15.074-9.967 33.318-14.95 54.719-14.95 26.995 0 49.247 7.546 66.757 22.616 17.76 15.074 26.63 34.17 26.63 57.273 0 25.779-9.843 47.303-29.548 64.569-19.688 17.268-44.14 25.9-73.322 25.9-33.077 0-59.828-11.792-80.257-35.385-20.18-23.59-30.277-54.963-30.277-94.117 0-42.803 12.039-77.459 36.114-103.968 24.319-26.751 55.935-40.127 94.848-40.127 22.373 0 40.855 4.389 55.447 13.125 14.582 8.511 21.89 19.463 21.89 32.83 0 6.563-2.195 11.916-6.564 16.059-4.142 3.896-9.598 5.845-16.406 5.845-7.302 0-13.864-2.195-19.689-6.563-5.599-4.368-8.88-9.967-9.844-16.776l-1.846-13.495c-2.194-16.058-11.67-24.075-28.455-24.075-19.217 0-33.319 5.845-42.316 17.515-8.757 11.423-15.074 22.617-18.97 33.56-3.897 10.952-6.563 21.038-8.02 30.279-1.435 9.25-2.194 22.252-2.194 39.032l11.3-9.126m-8.757 68.582c0 24.806 4.39 44.262 13.126 58.368 9.003 13.864 21.887 20.794 38.667 20.794 16.53 0 29.305-7.055 38.304-21.16 9.003-14.355 13.495-34.169 13.495-59.462 0-24.075-4.143-42.56-12.408-55.449-8.019-13.125-19.935-19.688-35.75-19.688-17.515 0-31.13 6.686-40.858 20.057-9.721 13.372-14.602 32.225-14.602 56.544M-296.416 87.81h4.737c2.195 3.158 5.107 5.352 8.757 6.562 3.405.82 9.722 1.026 18.97 1.026h148.11v8.388l-16.407 21.889c-14.828 21.4-28.698 46.57-41.587 75.512-12.654 28.94-18.97 58.733-18.97 89.375v9.126l.82 10.952.41 12.408c0 26.507-9.598 39.762-28.819 39.762-8.511 0-15.566-3.159-21.159-9.475-5.598-6.317-8.388-14.602-8.388-24.806 0-4.86.121-8.634.41-11.3.206-2.666 1.026-7.3 2.564-13.864 1.436-6.808 5.353-17.39 11.67-31.737 6.316-14.356 20.303-36.966 41.95-67.852l26.265-37.21 17.145-26.63h-100.317c-10.706 0-18.233.41-22.617 1.436-4.143.82-8.02 2.563-11.67 5.476-3.404 2.686-5.968 5.476-7.67 8.388l-4.737 12.407-4.738-.82 5.476-79.161M-54.335 218.041c-8.264-5.599-15.073-12.9-20.426-21.889-4.86-9.003-7.301-18.724-7.301-29.181 0-22.375 8.88-40.736 26.63-55.086 17.986-14.582 41.223-21.887 69.676-21.887 25.78 0 47.18 5.968 64.205 17.883 17.022 11.916 25.535 26.996 25.535 45.234 0 10.706-2.666 19.463-8.019 26.266-5.107 6.808-10.582 11.915-16.407 15.32-5.845 3.404-15.935 7.895-30.279 13.494 14.582 6.317 25.78 12.162 33.563 17.515 6.808 4.614 13.371 11.669 19.688 21.158 6.563 9.25 9.844 20.915 9.844 35.02 0 23.348-9.967 42.804-29.912 58.368-19.709 15.32-44.385 22.982-74.054 22.982-29.184 0-53.503-6.809-72.96-20.426-19.216-13.618-28.819-31.007-28.819-52.166 0-12.162 2.913-22.252 8.758-30.279 5.845-7.055 11.546-12.777 17.145-17.145 5.353-3.65 15.074-8.88 29.184-15.69l-16.059-9.474m89.375-15.69c2.912-1.845 5.947-4.368 9.126-7.3 3.158-2.913 5.476-5.23 6.932-6.932 2.666-3.159 5.107-8.142 7.301-14.951 2.195-7.055 3.282-14.356 3.282-21.887 0-15.812-4.492-28.698-13.495-38.669-8.757-9.967-20.304-14.95-34.658-14.95-14.602 0-26.507 4.142-35.748 12.407-9.004 8.265-13.495 19.217-13.495 32.832 0 15.812 4.143 26.266 12.408 31.372l15.689 9.127 12.038 5.845 30.642 13.125M-24.77 235.22c-7.055 5.6-12.285 10.706-15.69 15.32-2.194 3.405-4.49 9.352-6.931 17.884-2.42 8.265-3.65 15.935-3.65 22.982 0 18.97 5.352 34.411 16.057 46.329 10.952 11.915 25.294 17.883 43.046 17.883 17.022 0 30.765-4.614 41.222-13.864 10.46-9.475 15.69-21.521 15.69-36.113 0-11.423-3.651-21.4-10.952-29.914-7.301-8.511-19.094-16.181-35.386-22.982l-30.644-12.408-12.756-5.106M303.297 245.037c-6.809 4.368-15.197 8.019-25.172 10.951-9.721 2.667-19.463 4.02-29.184 4.02-26.752 0-49.124-7.67-67.12-22.984-17.761-15.32-26.631-34.411-26.631-57.272 0-25.536 9.72-46.815 29.184-63.84 19.688-17.268 44.382-25.9 74.052-25.9 33.318 0 59.949 11.793 79.891 35.386 20.18 23.589 30.277 54.719 30.277 93.388 0 43.045-12.161 77.945-36.478 104.696-24.32 26.508-55.815 39.762-94.484 39.762-21.886 0-40.248-4.368-55.084-13.125-14.581-8.757-21.887-19.934-21.887-33.562 0-6.317 2.072-11.424 6.194-15.32 4.368-3.897 9.967-5.845 16.776-5.845 10.213 0 17.022 2.44 20.427 7.3 3.404 4.143 5.722 7.548 6.932 10.214l2.194 5.845 1.846 13.495c2.194 16.058 11.67 24.075 28.453 24.075 18.725 0 32.712-5.845 41.953-17.515 4.614-6.07 8.388-11.669 11.3-16.776 3.159-5.106 5.845-10.828 8.02-17.145 3.403-9.967 6.09-19.934 8.018-29.914 1.436-9.25 2.194-22.252 2.194-39.032l-11.67 9.127m-94.847-66.393c0 23.589 4.02 41.83 12.038 54.72 8.265 12.878 20.304 19.339 36.116 19.339 17.268 0 30.886-6.563 40.857-19.689 9.967-13.371 14.951-32.223 14.951-56.544 0-25.05-4.491-44.504-13.495-58.367-8.757-14.11-21.521-21.157-38.304-21.157-16.53 0-29.425 7.178-38.667 21.522-9.003 14.356-13.494 34.413-13.494 60.192" style="text-align:start;line-height:125%;-inkscape-font-specification:Baskerville-DemiBold Thin"/></g><g opacity=".753" font-size="1.779" font-weight="100" letter-spacing="0" word-spacing="0" font-family="Baskerville-DemiBold"><path style="text-align:start;line-height:125%;-inkscape-font-specification:Baskerville-DemiBold Thin" d="M-1669.043 95.116v202.656l.407 19.344c0 4.86.613 9.002 1.843 12.406 1.436 2.913 2.435 4.86 2.907 5.844.41.82 1.852 2.783 4.375 6.188.99 1.185 2.295 2.277 3.875 3.25-1.313-1.798-2.276-3.176-2.563-3.75-.471-.985-1.502-2.932-2.937-5.844-1.23-3.404-1.844-7.546-1.844-12.406l-.406-19.344V95.897l-5.657-.78zm-77.406 38.625c-.77.106-1.494.243-2.281.344v5.094c10.701 0 18.225 1.087 22.594 3.281.43.215.847.447 1.25.687-1.626-2.736-3.914-4.878-6.907-6.375-3.187-1.601-8.091-2.601-14.656-3.03zm109.907 221.375v.688h-111.532c-.458.061-.87.128-1.343.187v5.469h118.562v-5.469a89.55 89.55 0 0 1-5.688-.875zM-1483.787 97.46c-12.162.002-21.76 3.41-28.813 10.219a33.991 33.991 0 0 0-7.656 11.687c-1.64 4.39-2.563 9.726-2.563 16.063v2.187l.407 14.938c-.002 7.773-2.581 14.237-7.688 19.343-5.107 4.615-11.669 6.938-19.688 6.938-6.013 0-10.868-1.152-14.593-3.438 3.725 6.07 10.483 9.094 20.281 9.094 8.019 0 14.58-2.323 19.688-6.937 5.106-5.107 7.654-11.54 7.656-19.313l-.406-14.969v-2.187c0-6.337.921-11.674 2.562-16.063 1.723-4.368 4.252-8.251 7.656-11.656 7.053-6.809 16.682-10.216 28.844-10.219 9.45 0 17.313 2.47 23.625 7.438-7.016-8.743-16.778-13.125-29.313-13.125zm80.78 19.719c9.639 11.059 14.47 24.549 14.47 40.5 0 18.724-5.862 35.64-17.532 50.718-11.67 14.828-31.106 32.58-58.343 53.25l-35.75 27-23.72 21.157h12l17.376-15.5 35.75-27c27.237-20.67 46.705-38.423 58.375-53.25 11.67-15.078 17.5-31.963 17.5-50.688 0-18.804-6.73-34.18-20.125-46.187zm19.5 169.719c-.93 2.555-1.931 4.945-3 7.124l-10.718 61.72h-170.156l.719 5.687h175.093l12.782-73.688-4.72-.844zM-1230.631 94.304c-11.67 0-20.941 3.41-27.75 10.218-6.563 6.563-9.844 15.571-9.844 27v3.282l.844 12.781v2.187c0 6.81-2.452 12.285-7.313 16.407-4.614 3.896-11.058 5.843-19.343 5.843-5.885 0-11.068-1.52-15.594-4.562a23.83 23.83 0 0 0 3.031 3.687c5.107 4.369 11.195 6.563 18.25 6.563 8.285 0 14.73-1.947 19.344-5.844 4.86-4.122 7.281-9.597 7.281-16.406v-2.219l-.813-12.75v-3.281c0-11.43 3.281-20.437 9.844-27 6.81-6.809 16.05-10.219 27.719-10.219 9.75 0 18.095 2.845 25 8.531-7.843-9.476-18.07-14.218-30.656-14.218zm84.437 21.718c8.939 10.188 13.405 22.413 13.407 36.688-.002 19.934-5.96 33.68-17.875 41.219-11.67 7.547-20.175 12.517-25.532 14.937l-20.062 6.563c5.867.805 10.782 1.712 14.812 2.687l10.907-3.562c5.356-2.42 13.861-7.422 25.53-14.969 11.916-7.539 17.905-21.284 17.907-41.219-.002-17.03-6.373-31.13-19.094-42.344zm-81.875 103.22l-9.468.843-8.782 1.437h-1.843a15 15 0 0 1-2.313-.187c-.008.123-.031.247-.031.375.471 3.63 3.17 5.469 8.031 5.469h1.844l8.75-1.438 9.468-.812c9.863 0 18.52 3.19 26 9.531-8.662-10.12-19.194-15.219-31.656-15.219zm86.313 21.062a59.887 59.887 0 0 1 6.969 9.937c5.598 9.721 8.375 20.52 8.375 32.438 0 22.373-9.962 41.242-29.907 56.562-19.934 15.074-45.233 22.625-75.875 22.625-26.753 0-49.623-5.475-68.593-16.406-4.682-2.738-8.77-5.632-12.282-8.688 4.494 5.192 10.482 9.965 17.969 14.344 18.97 10.931 41.809 16.406 68.563 16.406 30.641 0 55.94-7.55 75.875-22.625 19.944-15.32 29.937-34.158 29.937-56.53 0-11.918-2.807-22.748-8.406-32.47-3.428-6.109-7.64-11.306-12.625-15.593zm-139.125 49.125c2.796 3.852 4.219 8.527 4.219 14.062l.812 12.781c0 12.162 3.883 21.66 11.656 28.47.425.348.852.668 1.282 1-4.842-6.263-7.282-14.187-7.282-23.782l-.812-12.781c0-7.301-2.452-13.163-7.313-17.531a24.317 24.317 0 0 0-2.562-2.22zM-906.287 94.647v164.344l5.656.063V94.648h-5.656zm-50.344 46.313l-97.531 118.437h10.093l87.438-106.375V140.96zm83.156 124.031v13h-33.562v19.719c0 18.232 2.194 30.986 6.562 38.281 1.582 2.645 3.767 4.965 6.5 6.938a21.584 21.584 0 0 1-.812-1.25c-4.369-7.295-6.563-20.08-6.563-38.313V283.68h33.563v-18.625l-5.688-.063zm-191.312 12.281v5.657h108.5v-5.656h-108.5zm190.593 77.438v1h-111.218c-.444.062-.859.13-1.313.188v5.5h118.188v-5.5a71.214 71.214 0 0 1-5.657-1.188zM-625.069 95.022l-2.906.407c-.714.24-1.306.42-1.937.625-1.033 10.709-6.897 21.105-17.688 31.218-11.915 10.952-33.798 16.407-65.656 16.407h-26.281c-4.143-.41-7.048-.813-8.75-.813-5.6 0-21.284-1.653-47.063-4.75l-5.094 89.375 6.219-4.25 4.531-79.437c25.78 3.097 41.464 4.718 47.063 4.718 1.702 0 4.638.434 8.781.844h26.25c31.858 0 53.74-5.454 65.656-16.406 11.936-11.187 17.907-22.74 17.907-34.656l-1.032-3.282zm-109 111.72c-2.083 0-4.166.085-6.219.25-14.799 3.003-28.339 8.588-40.625 16.718l-13.875 9.469v-.219c-1.388 1.424-2.866 2.993-4.593 4.812 0 4.565-1.47 7.108-4.375 7.594-.03.233-.063.468-.063.688 0 3.466 1.56 5.093 4.719 5.093l-.094-.03c3.63 0 5.468-2.582 5.468-7.688 4.615-4.86 8.025-8.342 10.22-10.188 2.194-1.948 4.774-3.998 7.687-5.844 4.86-3.404 11.046-6.458 18.593-9.125 9.233-3.999 18.846-5.875 28.813-5.875 14.383 0 26.039 3.757 34.969 11.22-9.434-11.245-22.972-16.876-40.625-16.876zm94.563 21.75c11.371 12.73 17.062 28.7 17.062 47.905 0 24.078-9.826 44.269-29.531 60.563-19.688 16.284-44.756 24.438-75.156 24.438-26.51 0-48.885-5.476-67.125-16.407-4.016-2.5-7.567-5.122-10.688-7.875 4.205 4.869 9.684 9.366 16.375 13.531 18.24 10.932 40.585 16.407 67.094 16.407 30.4 0 55.468-8.154 75.156-24.438 19.705-16.294 29.563-36.485 29.563-60.562 0-22.174-7.59-40.019-22.75-53.563zm-135.032 61.28c3.87 5.607 5.813 13.56 5.813 23.844v9.5c.205 3.159.822 6.064 1.438 8.75.82 2.44 4.019 6.809 9.843 13.125a24.69 24.69 0 0 0 2.656 2.281c-3.908-4.509-6.148-7.775-6.812-9.75-.615-2.686-1.232-5.591-1.438-8.75v-9.5c0-14.471-3.838-24.288-11.5-29.5zM-446.756 93.741c-19.217 0-33.316 5.862-42.313 17.531-8.757 11.424-15.072 22.62-18.968 33.563-3.897 10.952-6.576 21.04-8.032 30.281-1.435 9.25-2.187 22.251-2.187 39.031l5.781-4.656c.254-11.876.968-21.467 2.094-28.719 1.456-9.24 4.103-19.33 8-30.28 3.896-10.944 10.211-22.14 18.969-33.563 8.997-11.67 23.095-17.5 42.312-17.5 7.413 0 13.405 1.558 17.969 4.687-4.727-6.912-12.61-10.375-23.625-10.375zm75.062 17.781c5.14 6.227 7.75 13.317 7.75 21.25 0 6.563-2.194 11.889-6.562 16.032-4.143 3.896-9.598 5.843-16.406 5.843-7.16 0-13.605-2.112-19.344-6.312 1.448 1.983 3.213 3.8 5.312 5.437 5.825 4.369 12.387 6.563 19.688 6.563 6.809 0 12.263-1.947 16.406-5.844 4.368-4.142 6.563-9.5 6.563-16.062 0-10.454-4.485-19.42-13.407-26.907zm-88.593 85.47c-2.049 0-4.028.098-5.97.28-5.322.883-10.404 2.146-15.25 3.782-7.725 3.308-14.263 8.63-19.624 16-9.721 13.371-14.594 32.212-14.594 56.531 0 24.805 4.388 44.27 13.125 58.375 2.836 4.367 6.08 8.04 9.688 11.031a52.819 52.819 0 0 1-4-5.344c-8.737-14.105-13.125-33.57-13.125-58.375h-.031c0-24.319 4.872-43.19 14.593-56.562 9.728-13.372 23.36-20.031 40.875-20.031 10.431 0 19.149 2.853 26.188 8.562-7.81-9.48-18.433-14.25-31.875-14.25zm82.843 23.405c12.411 13.705 18.594 30.217 18.594 49.532 0 25.78-9.827 47.296-29.531 64.562-19.688 17.269-44.162 25.906-73.344 25.906-28.803 0-52.788-8.953-72-26.843 20.083 21.671 45.987 32.5 77.688 32.5 29.181 0 53.624-8.607 73.312-25.875 19.705-17.266 29.563-38.815 29.563-64.594 0-22.057-8.094-40.449-24.282-55.188zM-118.662 98.241v2.719l-16.407 21.875c-4.372 6.31-8.67 12.971-12.875 19.938h.844l-8.5 13.187c-7.291 13.098-14.306 27.236-21.062 42.406-12.654 28.94-18.97 58.733-18.97 89.375v9.125l.813 10.938.407 12.406c0 26.507-9.592 39.75-28.813 39.75-6.454 0-12.067-1.806-16.844-5.438.433.562.871 1.123 1.344 1.657 5.593 6.316 12.645 9.469 21.156 9.469 19.22 0 28.813-13.243 28.813-39.75l-.406-12.438-.813-10.938v-9.125c0-30.641 6.315-60.435 18.969-89.375 12.89-28.941 26.766-54.099 41.594-75.5l16.406-21.906v-8.375h-5.656zM-253.1 137.116c-10.705 0-18.209.381-22.594 1.406-4.142.82-8.037 2.588-11.687 5.5-3.405 2.687-5.954 5.463-7.656 8.375l-3.188 8.344-.625 8.906 4.75.844 4.719-12.406c1.702-2.912 4.283-5.72 7.687-8.406 3.65-2.912 7.514-4.649 11.657-5.469 4.384-1.025 11.919-1.438 22.625-1.438h91l3.625-5.656H-253.1zM10.681 94.835c-14.602 0-26.509 4.141-35.75 12.406-9.003 8.265-13.5 19.228-13.5 32.844 0 15.36 3.919 25.649 11.719 30.906-4.012-5.818-6.031-14.238-6.031-25.25 0-13.615 4.496-24.547 13.5-32.812 9.24-8.265 21.148-12.407 35.75-12.407 11.738 0 21.6 3.335 29.593 10-.208-.24-.41-.481-.625-.718-8.757-9.967-20.302-14.969-34.656-14.969zm77.5 21.313c8.629 9.78 12.969 21.14 12.969 34.124 0 10.706-2.679 19.479-8.031 26.282-5.107 6.809-10.582 11.908-16.407 15.312-5.845 3.405-15.937 7.901-30.28 13.5 3.302 1.431 6.419 2.837 9.374 4.219 12.382-4.923 21.268-8.96 26.594-12.063 5.824-3.404 11.3-8.503 16.406-15.312 5.353-6.803 8-15.545 8-26.25 0-15.574-6.212-28.848-18.625-39.813zM-63.944 209.96a66.246 66.246 0 0 0 12.438 10.906v.032l8.25 4.875c.744-.363 1.354-.691 2.125-1.063l-16.032-9.5a66.534 66.534 0 0 1-6.78-5.25zm36.344 22.437c-7.055 5.6-12.283 10.699-15.688 15.313-2.194 3.404-4.497 9.343-6.937 17.875-2.42 8.265-3.656 15.953-3.656 23 0 18.97 5.357 34.395 16.062 46.313a57.205 57.205 0 0 0 4.719 4.593c-10.077-11.766-15.094-26.845-15.094-45.25 0-7.047 1.205-14.704 3.625-22.969 2.44-8.531 4.743-14.501 6.938-17.906 3.404-4.614 8.632-9.713 15.687-15.312l12.781 5.125 30.625 12.406c12.598 5.258 22.498 11.027 29.72 17.312-7.302-8.51-19.084-16.199-35.376-23l-30.656-12.406-12.75-5.094zm118.5.22c2.978 3.31 5.905 7.085 8.781 11.405 6.563 9.25 9.844 20.926 9.844 35.032 0 23.347-9.962 42.81-29.906 58.375-19.709 15.32-44.362 22.969-74.032 22.969-29.183 0-53.512-6.789-72.968-20.407a87.022 87.022 0 0 1-8-6.406c3.827 4.31 8.378 8.322 13.656 12.063 19.456 13.617 43.785 20.437 72.969 20.437 29.67 0 54.353-7.68 74.062-23 19.945-15.564 29.906-35.028 29.906-58.375 0-14.106-3.28-25.75-9.843-35-4.687-7.04-9.512-12.736-14.469-17.094zM257.775 94.147c-16.53 0-29.415 7.157-38.656 21.5-9 14.35-13.497 34.424-13.5 60.188 0 23.589 4.012 41.83 12.031 54.719 2.653 4.135 5.694 7.596 9.125 10.406a48.032 48.032 0 0 1-3.437-4.719c-8.02-12.89-12.063-31.13-12.063-54.719 0-25.779 4.497-45.831 13.5-60.187 9.241-14.344 22.158-21.531 38.688-21.531 11.233 0 20.645 3.18 28.28 9.5-8.452-10.095-19.772-15.157-33.968-15.157zm74.281 24.563a109.992 109.992 0 0 1 3.438 3.844c20.18 23.589 30.25 54.737 30.25 93.406 0 43.046-12.152 77.936-36.469 104.687-24.32 26.508-55.8 39.75-94.469 39.75-21.887 0-40.258-4.367-55.093-13.125-3.007-1.805-5.675-3.707-8.063-5.718 3.475 4.166 8.016 7.981 13.719 11.406 14.836 8.757 33.207 13.125 55.094 13.125 38.669 0 70.18-13.274 94.5-39.781 24.317-26.752 36.468-61.642 36.468-104.688 0-38.669-10.1-69.786-30.281-93.375a106.137 106.137 0 0 0-9.094-9.531zM177.338 232.741c2.25 2.45 4.667 4.843 7.312 7.125 17.996 15.314 40.374 22.969 67.125 22.969 9.721 0 19.466-1.334 29.188-4 9.975-2.933 18.347-6.6 25.156-10.969v.032l5.906-4.594c.068-3.239.094-6.605.094-10.188l-11.656 9.125v-.031c-5.336 3.423-11.658 6.396-18.938 8.937-4.567 2.057-9.54 3.38-14.906 4-6.84 1.324-13.666 2.032-20.5 2.032-26.751 0-49.129-7.686-67.125-23-.555-.479-1.119-.952-1.656-1.438zm25.28 68.875c2.629 3.346 4.5 6.196 5.532 8.469l2.188 5.844 1.843 13.469c1.228 8.983 4.742 15.451 10.532 19.406-2.477-3.62-4.09-8.199-4.844-13.719l-1.844-13.5-2.187-5.844c-1.21-2.666-3.534-6.076-6.938-10.219-1.083-1.546-2.51-2.85-4.281-3.906z"/></g><g opacity=".787" letter-spacing="0" word-spacing="0" fill="#fff"><path style="text-align:start;line-height:125%;-inkscape-font-specification:Baskerville-DemiBold Thin" d="M-1675.244 89.384c-6.09 6.316-11.448 11.318-16.062 14.969-3.159 2.666-7.042 5.333-11.657 8-3.158 1.702-6.212 3.314-9.125 4.75-9.24 5.106-23.342 8.871-42.312 11.312v5.094c2.895 0 5.536.09 7.969.25 17.782-2.444 31.147-6.108 40-11a284.04 284.04 0 0 0 9.125-4.719c4.614-2.666 8.529-5.365 11.687-8.031 4.615-3.65 9.94-8.621 16.031-14.938l.532.063v-4.906l-6.188-.844zm-49.625 53.781a18.51 18.51 0 0 1 1.844 4.219c1.887 4.614 2.906 7.993 2.906 10.187l.406 11.688v128.406c0 4.86-.402 9.357-.812 13.5-.41 4.122-1.023 8.006-1.844 11.656-1.722 7.28-4.283 12.756-7.687 16.406l.125.157c-2.912 3.65-6.193 6.22-9.844 7.656-3.65 1.436-8.75 2.46-15.313 3.281v5.469h7.22c5.788-.784 10.436-1.747 13.78-3.063 3.651-1.435 6.932-4.036 9.844-7.687l-.125-.125c3.405-3.65 5.934-9.126 7.656-16.406.82-3.65 1.434-7.566 1.844-11.688.41-4.142.813-8.64.813-13.5V174.915l-.407-11.656c0-2.195-1.019-5.605-2.906-10.219-1.292-4.376-3.81-7.66-7.5-9.875zm69.281 201.656c.558.763 1.005 1.4 1.75 2.406 3.022 3.616 8.794 6.25 17.313 7.876v-4.782c-8.473-1.056-14.82-2.906-19.063-5.5zM-1474.27 89.478c-26.751 0-50 6.561-69.688 19.687-19.704 13.134-29.53 28.454-29.53 45.969 0 9.814 3.038 16.56 9.124 20.281-2.301-3.73-3.468-8.59-3.468-14.625 0-17.514 9.857-32.835 29.562-45.969 19.688-13.125 42.936-19.687 69.688-19.687 25.779 0 46.433 6.315 62 18.969a72.528 72.528 0 0 1 3.312 2.75c-2.639-2.988-5.62-5.779-8.969-8.407-15.566-12.654-36.252-18.968-62.031-18.968zm19.875 21.187c.178.223.357.427.531.656 7.301 9.241 10.938 22.029 10.938 38.313 0 8.99-1.185 18.501-3.625 28.469-2.44 9.72-5.85 19.466-10.219 29.187-9.485 20.185-31.76 49.481-66.781 87.906l-33.907 36.469-15.687 17.531.813 6.563h4.968l-.125-.906 15.688-17.5 33.937-36.5c35.02-38.425 57.265-67.722 66.75-87.907 4.369-9.72 7.778-19.466 10.219-29.187 2.44-9.967 3.656-19.447 3.656-28.438 0-16.284-3.667-29.071-10.968-38.312-1.864-2.443-3.918-4.547-6.188-6.344zm65.219 170.563c-3.897 10.707-9.027 18.138-15.344 22.28-6.323 4.123-15.557 6.188-27.719 6.188l-.093.094h-79.5l-6.375 5.687h91.562l.094-.125c12.161 0 21.396-2.065 27.718-6.187 4.809-3.154 8.907-8.204 12.313-15.156l2.063-11.938-4.72-.844zM-1225.801 87.415c-25.052 0-46.932 6.186-65.657 18.594-18.474 12.16-27.75 26.125-27.75 41.937 0 7.055 2.324 12.917 6.938 17.532a28.228 28.228 0 0 0 2.688 2.03c-2.625-3.933-3.938-8.557-3.938-13.874 0-15.812 9.245-29.81 27.719-41.969 18.724-12.408 40.605-18.594 65.656-18.594 27.968 0 50.476 5.96 67.5 17.875a73.119 73.119 0 0 1 6.469 5.094c-3.403-3.883-7.457-7.46-12.157-10.75-17.024-11.916-39.5-17.875-67.468-17.875zm25.812 21.094c.494.596.963 1.241 1.438 1.875 8.265 10.701 12.406 24.669 12.406 41.937 0 18.239-3.734 32.83-11.281 43.782-7.54 10.705-17.875 16.062-31 16.062l-8.782-.406-8-.844h-2.218c-5.845 0-8.75 1.72-8.75 5.125.39 3.004 2.317 4.787 5.718 5.313.204-3.163 3.086-4.75 8.72-4.75h2.187l8.031.812 8.75.406c13.126 0 23.461-5.357 31-16.062 7.547-10.952 11.313-25.512 11.313-43.75 0-17.269-4.142-31.268-12.407-41.969-2.174-2.903-4.555-5.415-7.125-7.531zm18.532 109.594l-9.125 3c10.459 1.435 18.012 3.176 22.625 5.125 3.65 1.025 6.297 1.844 8 2.562 1.64.82 4.38 2.299 8.03 4.719l-.187-.219a55.059 55.059 0 0 1 10.407 7.063 54.66 54.66 0 0 0-16.063-12.75l.156.25c-3.65-2.42-6.36-3.93-8-4.75-1.702-.718-4.38-1.538-8.031-2.563-2.025-.855-4.658-1.674-7.813-2.437zm-15.032 16.28c.665.774 1.327 1.543 1.969 2.376 9.003 11.673 13.5 26.771 13.5 45.25 0 19.212-4.368 36.235-13.125 51.062-8.513 14.588-21.517 21.906-39.031 21.906-7.055 0-13.015-.921-17.875-2.562-4.14-1.527-8.085-3.757-11.844-6.656a33.262 33.262 0 0 0 4.375 4.656c4.143 3.404 8.51 5.954 13.125 7.656 4.86 1.64 10.82 2.563 17.875 2.563 17.514 0 30.55-7.287 39.063-21.875 8.757-14.828 13.125-31.882 13.125-51.094 0-18.478-4.497-33.545-13.5-45.219-2.396-3.104-4.953-5.783-7.657-8.062zm-105 44.657c-8.04 0-14.612 2.58-19.718 7.688-5.107 5.106-7.657 11.163-7.657 18.218 0 12.04 5.248 22.646 15.782 31.813-6.746-7.793-10.125-16.491-10.125-26.125 0-7.055 2.58-13.144 7.687-18.25 5.107-5.107 11.648-7.656 19.688-7.656 5.837 0 10.824 1.587 15 4.75a22.13 22.13 0 0 0-3.157-3.5c-4.635-4.615-10.445-6.938-17.5-6.938zM-924.176 88.978l-146.281 177.656v10.625h5.687v-4.906l-.031-.032 10.656-12.937h-.25l97.75-118.907v.5l38.125-46.312h12.219v-5.688h-17.875zm-26.781 57.156l-5.688 6.906v106.344h-87.406l-4.688 5.687h97.782V146.134zm50.343 112.906v5.625l27.157.344v-5.625l-27.157-.344zm-55.656 23.906v14.75c0 12.404-.922 21.628-2.563 27.719-1.456 6.091-4.608 11.448-9.468 16.063-4.615 4.388-12.67 7.314-24.094 8.75v5.5h6.938c10.744-1.49 18.372-4.34 22.812-8.563 4.86-4.614 8.013-9.971 9.469-16.063 1.64-6.09 2.562-15.315 2.562-27.718v-20.438h-5.656zm62.281 60c3.854 5.519 10.474 9.44 19.782 11.781v-4.5c-8.373-1.398-14.97-3.811-19.782-7.28zM-799.614 88.634l-8.031 146.625c-1.23 1.948-1.844 3.69-1.844 5.125 0 3.466 1.56 5.094 4.719 5.094l-.094-.032a6.59 6.59 0 0 0 1.094-.093c.164-1.284.745-2.766 1.781-4.407l8.032-146.656c38.667 5.845 69.553 8.75 92.656 8.75H-691.457c5.352.002 10.225-.117 14.593-.406 4.369-.205 8.381-.822 12.032-1.438l22.625-2.906c4.142-.41 6.918-.826 8.375-1.031 1.019-.291 2.402-.721 3.937-1.219.11-1.136.188-2.263.188-3.406l-1.032-3.281-2.906.406c-2.44.82-4.408 1.433-5.844 1.844-1.456.205-4.263.62-8.406 1.03l-22.625 2.907c-3.65.615-7.663 1.232-12.031 1.438-4.369.289-9.21.408-14.563.406h-9.843c-23.103 0-53.99-2.905-92.657-8.75zm80.875 110.062c-25.78 0-48.38 6.465-67.844 19.344l-7.656 5.219-.562 9.75c2.338-2.4 4.244-4.276 5.625-5.438 2.194-1.948 4.775-3.998 7.687-5.843 4.86-3.405 11.047-6.46 18.594-9.125 7.237-3.135 14.713-4.926 22.406-5.563 8.704-1.781 17.83-2.687 27.406-2.687 29.426 0 52.795 7.054 70.063 21.156 1.253.992 2.43 2.02 3.594 3.062-2.758-3.097-5.851-6.003-9.282-8.718-17.268-14.102-40.605-21.157-70.03-21.157zm25.375 25a48.708 48.708 0 0 1 1.594 2.032c9.721 12.403 14.594 30.014 14.594 52.875 0 23.59-4.497 42.194-13.5 55.812-9.486 13.126-22.126 19.688-37.938 19.688-11.368 0-20.098-2.249-26.187-6.813a147.719 147.719 0 0 0 3.031 3.375c6.091 6.091 15.683 9.125 28.812 9.125 15.813 0 28.453-6.562 37.938-19.688 9.003-13.617 13.5-32.22 13.5-55.812 0-22.861-4.841-40.503-14.563-52.906a46.217 46.217 0 0 0-7.28-7.688zm-104.781 56c-6.689.286-12.205 2.725-16.531 7.281-4.369 4.615-6.563 10.219-6.563 16.782 0 12.68 5.481 23.786 16.375 33.375-7.125-8.23-10.719-17.466-10.719-27.719 0-6.563 2.195-12.136 6.563-16.75 4.614-4.86 10.574-7.313 17.875-7.313 6.762 0 12.304 1.489 16.625 4.438-4.643-6.732-12.065-10.094-22.281-10.094-.457 0-.898-.019-1.344 0zM-441.301 86.79c-38.913 0-70.525 13.374-94.844 40.125-24.075 26.51-36.094 61.165-36.094 103.969 0 39.153 10.101 70.536 30.282 94.125a110.338 110.338 0 0 0 8.468 8.781 113.63 113.63 0 0 1-2.812-3.094c-20.18-23.589-30.281-54.972-30.281-94.125 0-42.803 12.05-77.46 36.125-103.968 24.319-26.752 55.93-40.125 94.843-40.125 22.373 0 40.846 4.388 55.438 13.125 3.16 1.845 5.96 3.8 8.437 5.875-3.516-4.245-8.19-8.117-14.093-11.563-14.592-8.737-33.096-13.125-55.47-13.125zm18.156 17.313c2.476 3.62 4.09 8.198 4.844 13.718l1.844 13.5c.963 6.81 4.244 12.413 9.843 16.782.11.082.233.137.344.218-2.413-3.305-3.898-7.088-4.5-11.343l-1.875-13.47c-1.228-8.983-4.71-15.451-10.5-19.405zm-29.094 85.937c-21.4 0-39.645 4.97-54.718 14.938v.03l-5.532 4.47c-.07 3.281-.094 6.707-.094 10.343l11.313-9.125v-.031c6.06-4.008 12.633-7.197 19.719-9.594 4.608-1.982 9.61-3.247 15.062-3.781 6.306-1.06 12.96-1.594 19.938-1.594 26.995 0 49.24 7.556 66.75 22.625.818.695 1.594 1.414 2.375 2.125a84.965 84.965 0 0 0-8.063-7.781c-17.51-15.07-39.755-22.625-66.75-22.625zm23.844 21.25a47.536 47.536 0 0 1 3.875 5.406c8.265 12.89 12.406 31.363 12.406 55.438 0 25.293-4.496 45.112-13.5 59.469-8.999 14.103-21.782 21.156-38.312 21.156-11.52 0-21.21-3.28-29.063-9.813 8.687 10.315 20.276 15.469 34.75 15.469 16.53 0 29.282-7.052 38.282-21.156 9.003-14.356 13.5-34.176 13.5-59.469 0-24.075-4.142-42.548-12.407-55.438-2.722-4.455-5.91-8.119-9.531-11.062zM-299.051 84.821l-.188.157h.188v-.157zm0 .157l-5.469 79 4.75.843 1.531-4 4.875-70.187h-.218l.218-.125v.125h4.532c2.194 3.158 5.099 5.352 8.75 6.562 3.404.82 9.719 1.032 18.968 1.032h142.438V92.57h-148.125c-9.25 0-15.565-.21-18.969-1.031-3.65-1.21-6.556-3.404-8.75-6.562h-4.531zm142.625 57.78l-13.5 20.97-26.25 37.218c-21.647 30.886-35.652 53.488-41.969 67.844-6.317 14.346-10.22 24.941-11.656 31.75-1.538 6.563-2.358 11.178-2.563 13.844-.289 2.666-.406 6.452-.406 11.312 0 10.203 2.776 18.496 8.375 24.813a29.946 29.946 0 0 0 4.313 4c-4.683-6.085-7.032-13.825-7.032-23.156 0-4.861.117-8.616.407-11.282.205-2.666 1.024-7.312 2.562-13.875 1.436-6.809 5.37-17.373 11.688-31.719 6.316-14.356 20.29-36.989 41.937-67.874l26.281-37.188 8.594-13.406a434.053 434.053 0 0 1 7.687-13.25h-8.468zM11.418 87.165c-28.454 0-51.702 7.293-69.688 21.875-17.75 14.35-26.625 32.719-26.625 55.094 0 10.457 2.452 20.184 7.313 29.187 3.782 6.352 8.294 11.839 13.53 16.5-2.898-3.285-5.532-6.91-7.874-10.843-4.86-9.004-7.313-18.7-7.313-29.157 0-22.375 8.906-40.744 26.657-55.093C-34.596 100.146-11.38 92.82 17.074 92.82c25.78 0 47.194 5.991 64.219 17.907a77.06 77.06 0 0 1 7 5.53c-3.514-4.004-7.732-7.749-12.688-11.218-17.024-11.916-38.408-17.875-64.188-17.875zm34.625 23.438c8.53 9.857 12.78 22.482 12.78 37.875 0 7.53-1.086 14.82-3.28 21.875-2.195 6.808-4.616 11.779-7.282 14.937-1.456 1.702-3.779 4.025-6.937 6.938-3.171 2.925-6.188 5.467-9.094 7.312L1.574 186.415l-12.031-5.844-15.688-9.125a20.61 20.61 0 0 1-.719-.468c1.75 2.537 3.866 4.605 6.375 6.156l15.688 9.125 12.062 5.844 30.594 13.093c2.912-1.846 5.946-4.348 9.125-7.281 3.158-2.912 5.481-5.235 6.938-6.937 2.666-3.159 5.118-8.16 7.312-14.97 2.194-7.054 3.281-14.343 3.281-21.874 0-15.812-4.496-28.685-13.5-38.656a45.868 45.868 0 0 0-4.968-4.875zm9.75 98.968c-1.208.48-2.413.971-3.688 1.469 14.582 6.317 25.78 12.147 33.563 17.5 1.807 1.225 3.601 2.65 5.375 4.219-3.604-4.026-7.279-7.332-11.032-9.875-6.02-4.141-14.125-8.592-24.218-13.313zM-43.24 225.76c-12.886 6.274-22.002 11.174-27.062 14.625-5.6 4.368-11.311 10.101-17.156 17.156-5.845 8.027-8.75 18.12-8.75 30.281 0 18.045 6.994 33.346 20.968 45.906-10.199-11.413-15.281-24.833-15.281-40.25 0-12.161 2.905-22.254 8.75-30.28 5.845-7.056 11.526-12.757 17.125-17.126 5.353-3.65 15.078-8.91 29.188-15.718l-7.782-4.594zm94.5 47.219c7.252 8.494 10.875 18.427 10.875 29.812 0 14.592-5.228 26.65-15.687 36.125-10.458 9.25-24.197 13.875-41.219 13.875-15.272 0-28.013-4.429-38.25-13.25.294.342.573.695.875 1.031 10.952 11.916 25.279 17.875 43.031 17.875 17.022 0 30.762-4.594 41.219-13.844 10.46-9.474 15.688-21.533 15.688-36.124 0-11.424-3.637-21.394-10.938-29.907-1.632-1.903-3.512-3.775-5.594-5.594zM255.605 87.165c-29.67 0-54.374 8.638-74.062 25.906-19.463 17.024-29.188 38.309-29.188 63.844 0 21.906 8.162 40.33 24.469 55.313-12.532-13.884-18.813-30.452-18.813-49.657 0-25.535 9.725-46.788 29.188-63.812 19.688-17.269 44.392-25.906 74.062-25.906 28.55 0 52.178 8.677 70.907 26-19.547-21.102-45.052-31.688-76.563-31.688zm36.188 22.219a52.215 52.215 0 0 1 4.28 5.906c9.004 13.864 13.5 33.326 13.5 58.375 0 24.321-4.97 43.16-14.937 56.531-9.971 13.126-23.606 19.688-40.875 19.688-10.733 0-19.713-2.966-26.968-8.906 8.04 9.715 18.926 14.593 32.656 14.593 2.603 0 5.093-.17 7.531-.468 2.768-.546 5.547-1.18 8.313-1.938 2.063-.607 4.04-1.27 5.968-1.937 7.376-3.268 13.724-8.357 19.032-15.344 9.967-13.372 14.968-32.242 14.968-56.563 0-25.049-4.496-44.48-13.5-58.343-2.877-4.636-6.226-8.483-9.968-11.594zm26 129.375l-5.782 4.531c-.251 11.934-.933 21.567-2.062 28.844-1.928 9.98-4.627 19.939-8.032 29.906-2.173 6.317-4.872 12.05-8.03 17.156-2.913 5.107-6.668 10.71-11.282 16.781-9.241 11.67-23.244 17.5-41.969 17.5-7.412 0-13.374-1.558-17.937-4.687 4.727 6.912 12.61 10.375 23.625 10.375 18.724 0 32.696-5.862 41.937-17.531 4.615-6.07 8.4-11.675 11.313-16.781 3.158-5.107 5.857-10.809 8.031-17.125 3.404-9.968 6.072-19.927 8-29.907 1.436-9.25 2.188-22.282 2.188-39.062zm-137 53.812c-6.81 0-12.413 1.947-16.782 5.844-4.122 3.897-6.187 8.996-6.187 15.313 0 10.78 4.591 20.021 13.719 27.75-5.363-6.467-8.032-13.833-8.032-22.094 0-6.317 2.066-11.416 6.188-15.313 4.368-3.896 9.972-5.844 16.781-5.844 6.985 0 12.356 1.13 16.156 3.407-.461-.588-.895-1.16-1.406-1.781-3.404-4.861-10.224-7.282-20.437-7.282z" font-size="1.779" font-weight="100" font-family="Baskerville-DemiBold"/></g></svg>