<?xml version="1.0" encoding="UTF-8" standalone="no"?>
<!-- Created with Inkscape (http://www.inkscape.org/) -->

<svg
   xmlns:dc="http://purl.org/dc/elements/1.1/"
   xmlns:cc="http://creativecommons.org/ns#"
   xmlns:rdf="http://www.w3.org/1999/02/22-rdf-syntax-ns#"
   xmlns:svg="http://www.w3.org/2000/svg"
   xmlns="http://www.w3.org/2000/svg"
   xmlns:xlink="http://www.w3.org/1999/xlink"
   xmlns:sodipodi="http://sodipodi.sourceforge.net/DTD/sodipodi-0.dtd"
   xmlns:inkscape="http://www.inkscape.org/namespaces/inkscape"
   version="1.1"
   width="500"
   height="500"
   id="svg6752"
   inkscape:version="0.48.3.1 r9886"
   sodipodi:docname="shield_addict.svg">
  <sodipodi:namedview
     pagecolor="#ffffff"
     bordercolor="#666666"
     borderopacity="1"
     objecttolerance="10"
     gridtolerance="10"
     guidetolerance="10"
     inkscape:pageopacity="0"
     inkscape:pageshadow="2"
     inkscape:window-width="1440"
     inkscape:window-height="847"
     id="namedview3183"
     showgrid="false"
     inkscape:zoom="2.5791002"
     inkscape:cx="265.36407"
     inkscape:cy="136.41709"
     inkscape:window-x="0"
     inkscape:window-y="0"
     inkscape:window-maximized="1"
     inkscape:current-layer="svg6752"
     showguides="true"
     inkscape:guide-bbox="true" />
  <defs
     id="defs3">
    <linearGradient
       x1="-7668.9604"
       y1="-11707.119"
       x2="-7725.8379"
       y2="-9479.4238"
       id="linearGradient6634"
       xlink:href="#linearGradient6097-2"
       gradientUnits="userSpaceOnUse"
       gradientTransform="matrix(0.15518081,0,0,0.15559098,1844.8886,1837.7326)" />
    <linearGradient
       id="linearGradient6097-2">
      <stop
         id="stop6099-1"
         style="stop-color:#ffffff;stop-opacity:1"
         offset="0" />
      <stop
         id="stop6101-2"
         style="stop-color:#ffffff;stop-opacity:0"
         offset="1" />
    </linearGradient>
    <linearGradient
       x1="174.23146"
       y1="209.90202"
       x2="169.38644"
       y2="310.67828"
       id="linearGradient6642"
       xlink:href="#linearGradient6636"
       gradientUnits="userSpaceOnUse"
       gradientTransform="matrix(2.9229274,0,0,2.9229274,151.16123,-508.91522)" />
    <linearGradient
       id="linearGradient6636">
      <stop
         id="stop6638"
         style="stop-color:#808080;stop-opacity:1;"
         offset="0" />
      <stop
         id="stop6640"
         style="stop-color:#ffffff;stop-opacity:0;"
         offset="1" />
    </linearGradient>
    <filter
       color-interpolation-filters="sRGB"
       id="filter6357">
      <feGaussianBlur
         id="feGaussianBlur6359"
         stdDeviation="0.78190263" />
    </filter>
    <linearGradient
       x1="-7668.9604"
       y1="-11707.119"
       x2="-7725.8379"
       y2="-9479.4238"
       id="linearGradient5510"
       xlink:href="#linearGradient6097-2"
       gradientUnits="userSpaceOnUse"
       gradientTransform="matrix(0.15300974,0,0,0.15300974,1328.0213,1818.2424)" />
    <linearGradient
       id="linearGradient6779">
      <stop
         id="stop6781"
         style="stop-color:#ffffff;stop-opacity:1"
         offset="0" />
      <stop
         id="stop6783"
         style="stop-color:#ffffff;stop-opacity:0"
         offset="1" />
    </linearGradient>
    <linearGradient
       x1="-109.17429"
       y1="163.15849"
       x2="-113.28542"
       y2="341.30743"
       id="linearGradient5529"
       xlink:href="#linearGradient5522"
       gradientUnits="userSpaceOnUse"
       gradientTransform="matrix(2.9229274,0,0,2.9229274,471.27702,-454.58647)" />
    <linearGradient
       id="linearGradient5522">
      <stop
         id="stop5524"
         style="stop-color:#ffffff;stop-opacity:1"
         offset="0" />
      <stop
         id="stop5526"
         style="stop-color:#ffffff;stop-opacity:0"
         offset="1" />
    </linearGradient>
    <linearGradient
       x1="-109.17429"
       y1="163.15849"
       x2="-113.28542"
       y2="341.30743"
       id="linearGradient6886"
       xlink:href="#linearGradient5522"
       gradientUnits="userSpaceOnUse"
       gradientTransform="matrix(2.9229274,0,0,2.9229274,471.27702,-454.58647)" />
    <linearGradient
       x1="-7668.9604"
       y1="-11707.119"
       x2="-7725.8379"
       y2="-9479.4238"
       id="linearGradient6888"
       xlink:href="#linearGradient6097-2"
       gradientUnits="userSpaceOnUse"
       gradientTransform="matrix(0.15300974,0,0,0.15300974,1328.0213,1818.2424)" />
    <linearGradient
       x1="174.23146"
       y1="209.90202"
       x2="169.38644"
       y2="310.67828"
       id="linearGradient6890"
       xlink:href="#linearGradient6636"
       gradientUnits="userSpaceOnUse"
       gradientTransform="matrix(2.9229274,0,0,2.9229274,151.16123,-508.91522)" />
    <linearGradient
       x1="-7668.9604"
       y1="-11707.119"
       x2="-7725.8379"
       y2="-9479.4238"
       id="linearGradient6892"
       xlink:href="#linearGradient6097-2"
       gradientUnits="userSpaceOnUse"
       gradientTransform="matrix(0.15518081,0,0,0.15559098,1844.8886,1837.7326)" />
    <linearGradient
       x1="-7668.9604"
       y1="-11707.119"
       x2="-7725.8379"
       y2="-9479.4238"
       id="linearGradient6616"
       xlink:href="#linearGradient6097-2-7"
       gradientUnits="userSpaceOnUse"
       gradientTransform="matrix(0.15096114,0,0,0.14465384,1322.8813,1735.9314)" />
    <linearGradient
       id="linearGradient6097-2-7">
      <stop
         id="stop6099-1-4"
         style="stop-color:#ffffff;stop-opacity:1"
         offset="0" />
      <stop
         id="stop6101-2-0"
         style="stop-color:#ffffff;stop-opacity:0"
         offset="1" />
    </linearGradient>
    <linearGradient
       x1="-37.011112"
       y1="439.55563"
       x2="-36.04211"
       y2="558.74292"
       id="linearGradient6624"
       xlink:href="#linearGradient6618"
       gradientUnits="userSpaceOnUse"
       gradientTransform="matrix(2.7633056,0,0,2.7633056,252.31155,-1023.7687)" />
    <linearGradient
       id="linearGradient6618">
      <stop
         id="stop6620"
         style="stop-color:#00e4c6;stop-opacity:1"
         offset="0" />
      <stop
         id="stop6622"
         style="stop-color:#00e4c6;stop-opacity:0"
         offset="1" />
    </linearGradient>
    <filter
       color-interpolation-filters="sRGB"
       id="filter6357-4">
      <feGaussianBlur
         id="feGaussianBlur6359-6"
         stdDeviation="0.78190263" />
    </filter>
    <linearGradient
       x1="-7668.9604"
       y1="-11707.119"
       x2="-7725.8379"
       y2="-9479.4238"
       id="linearGradient6596"
       xlink:href="#linearGradient6097-2-7"
       gradientUnits="userSpaceOnUse"
       gradientTransform="matrix(0.14670635,0,0,0.14709413,1767.8593,1749.0021)" />
    <linearGradient
       id="linearGradient6915">
      <stop
         id="stop6917"
         style="stop-color:#ffffff;stop-opacity:1"
         offset="0" />
      <stop
         id="stop6919"
         style="stop-color:#ffffff;stop-opacity:0"
         offset="1" />
    </linearGradient>
    <linearGradient
       x1="150.97539"
       y1="434.71063"
       x2="152.91339"
       y2="530.64185"
       id="linearGradient6604"
       xlink:href="#linearGradient6598"
       gradientUnits="userSpaceOnUse"
       gradientTransform="matrix(2.7633056,0,0,2.7633056,198.75856,-986.28156)" />
    <linearGradient
       id="linearGradient6598">
      <stop
         id="stop6600"
         style="stop-color:#ff0021;stop-opacity:1;"
         offset="0" />
      <stop
         id="stop6602"
         style="stop-color:#ff0018;stop-opacity:0;"
         offset="1" />
    </linearGradient>
    <linearGradient
       x1="-37.011112"
       y1="439.55563"
       x2="-36.04211"
       y2="558.74292"
       id="linearGradient7022"
       xlink:href="#linearGradient6618"
       gradientUnits="userSpaceOnUse"
       gradientTransform="matrix(2.7633056,0,0,2.7633056,252.31155,-1023.7687)" />
    <linearGradient
       x1="-7668.9604"
       y1="-11707.119"
       x2="-7725.8379"
       y2="-9479.4238"
       id="linearGradient7024"
       xlink:href="#linearGradient6097-2-7"
       gradientUnits="userSpaceOnUse"
       gradientTransform="matrix(0.15096114,0,0,0.14465384,1322.8813,1735.9314)" />
    <linearGradient
       x1="150.97539"
       y1="434.71063"
       x2="152.91339"
       y2="530.64185"
       id="linearGradient7026"
       xlink:href="#linearGradient6598"
       gradientUnits="userSpaceOnUse"
       gradientTransform="matrix(2.7633056,0,0,2.7633056,198.75856,-986.28156)" />
    <linearGradient
       x1="-7668.9604"
       y1="-11707.119"
       x2="-7725.8379"
       y2="-9479.4238"
       id="linearGradient7028"
       xlink:href="#linearGradient6097-2-7"
       gradientUnits="userSpaceOnUse"
       gradientTransform="matrix(0.14670635,0,0,0.14709413,1767.8593,1749.0021)" />
    <linearGradient
       inkscape:collect="always"
       xlink:href="#linearGradient6636"
       id="linearGradient3215"
       gradientUnits="userSpaceOnUse"
       gradientTransform="matrix(2.7633056,0,0,2.7633056,198.75856,-986.28156)"
       x1="150.97539"
       y1="434.71063"
       x2="152.91339"
       y2="530.64185" />
    <linearGradient
       inkscape:collect="always"
       xlink:href="#linearGradient6097-2-7"
       id="linearGradient3217"
       gradientUnits="userSpaceOnUse"
       gradientTransform="matrix(0.14670635,0,0,0.14709413,1767.8593,1749.0021)"
       x1="-7668.9604"
       y1="-11707.119"
       x2="-7725.8379"
       y2="-9479.4238" />
    <linearGradient
       inkscape:collect="always"
       xlink:href="#linearGradient6636-2"
       id="linearGradient3215-7"
       gradientUnits="userSpaceOnUse"
       gradientTransform="matrix(2.7633056,0,0,2.7633056,198.75856,-986.28156)"
       x1="150.97539"
       y1="434.71063"
       x2="152.91339"
       y2="530.64185" />
    <linearGradient
       id="linearGradient6636-2">
      <stop
         id="stop6638-4"
         style="stop-color:#808080;stop-opacity:1;"
         offset="0" />
      <stop
         id="stop6640-6"
         style="stop-color:#ffffff;stop-opacity:0;"
         offset="1" />
    </linearGradient>
    <linearGradient
       y2="530.64185"
       x2="152.91339"
       y1="434.71063"
       x1="150.97539"
       gradientTransform="matrix(2.7633056,0,0,2.7633056,198.75856,-986.28156)"
       gradientUnits="userSpaceOnUse"
       id="linearGradient3841"
       xlink:href="#linearGradient6636-2"
       inkscape:collect="always" />
    <linearGradient
       inkscape:collect="always"
       xlink:href="#linearGradient6636"
       id="linearGradient3921"
       gradientUnits="userSpaceOnUse"
       gradientTransform="matrix(2.7633056,0,0,2.7633056,198.75856,-986.28156)"
       x1="150.97539"
       y1="434.71063"
       x2="152.91339"
       y2="530.64185" />
  </defs>
  <metadata
     id="metadata4">
    <rdf:RDF>
      <cc:Work
         rdf:about="">
        <dc:format>image/svg+xml</dc:format>
        <dc:type
           rdf:resource="http://purl.org/dc/dcmitype/StillImage" />
        <dc:title />
      </cc:Work>
    </rdf:RDF>
  </metadata>
  <path
     d="m 154.36579,377.77014 c -19.77503,0.33019 -39.17881,4.90743 -57.75,11.5 -6.47856,22.61463 -11.32179,45.84002 -12.26592,69.40377 -0.32193,12.95782 0.34882,26.40445 5.78511,38.37057 2.33565,5.34507 6.21109,9.83012 10.76142,13.44142 11.8959,10.02823 24.96792,18.50687 37.86884,27.1674 5.0653,3.33616 10.18946,6.58343 15.28805,9.86684 18.55115,-10.24981 36.86087,-20.98729 54.0182,-33.4428 5.60375,-4.23336 11.21556,-8.84494 14.46673,-15.17546 4.01957,-7.81718 5.68014,-16.59212 6.37257,-25.27641 1.33358,-18.69391 -1.22771,-37.44111 -4.89242,-55.72917 -1.99014,-9.62699 -4.32772,-19.18225 -7.05883,-28.62616 -19.60531,-7.0228 -40.18496,-11.96329 -61.12919,-11.51356 -0.48819,0.005 -0.97637,0.009 -1.46456,0.0136 z"
     transform="matrix(2.7633056,0,0,2.7633056,-176.40882,-1026.1291)"
     id="path6734"
     style="fill:#000000;fill-opacity:1;stroke:none;filter:url(#filter6357-4)"
     inkscape:connector-curvature="0" />
  <path
     d="m 470.87995,96.702085 c 136.90934,-49.24498 233.07761,-31.55826 320.80234,0 0,0 73.73135,239.084225 0,312.815545 -39.53264,39.53256 -167.72237,109.15266 -167.72237,109.15266 0,0 -116.9987,-73.07134 -153.07997,-109.15266 -73.73132,-73.73132 0,-312.815545 0,-312.815545 z"
     id="path6588"
     style="fill:#4f4f4f;fill-opacity:1;stroke:#14e5dc;stroke-width:5.79939364999999984;stroke-linecap:round;stroke-linejoin:round;stroke-miterlimit:4;stroke-opacity:1"
     inkscape:connector-curvature="0"
     transform="translate(-375.16738,-39.847589)" />
  <path
     style="fill:url(#linearGradient3921);fill-opacity:1;stroke:#ffe001;stroke-width:7;stroke-linecap:round;stroke-linejoin:round;stroke-miterlimit:4;stroke-opacity:0.99470903;stroke-dasharray:none"
     d="m 626.625,75.53125 c -49.42076,0.868831 -98.2095,11.451551 -144.75,27.71875 -4.72366,9.18784 -5.98472,20.28435 -8.98857,30.3208 -14.25837,59.45148 -25.21281,120.52421 -22.01155,181.92725 2.22102,28.9677 7.4024,60.23711 27.37512,82.6582 25.92636,24.94662 56.43167,44.93399 85.95544,65.58446 20.16039,13.30069 40.09798,27.4466 60.94187,39.3927 18.88792,-9.26165 37.09931,-20.80655 55.48476,-31.40049 34.80361,-21.34012 70.13499,-42.42588 100.9744,-69.3523 21.88258,-20.24495 28.2274,-51.45286 31.10244,-79.90834 4.54981,-58.91347 -5.3689,-117.89776 -18.17334,-175.17471 -3.74097,-14.48752 -6.50251,-29.61474 -11.72523,-43.49046 C 756.41945,93.560328 728.43357,86.332587 700.4521,81.258748 676.09594,77.030884 651.35701,75.034893 626.625,75.53125 z"
     id="path6590"
     inkscape:connector-curvature="0"
     transform="translate(-376.33058,-39.847589)" />
  <path
     style="fill:none;stroke:#00d11c;stroke-width:7;stroke-linecap:round;stroke-linejoin:round;stroke-miterlimit:4;stroke-opacity:0.99470903;stroke-dasharray:none"
     d="m 629.3125,87.46875 c -47.23967,0.712618 -93.97015,10.158548 -138.53125,25.4375 -19.18884,72.22152 -34.39681,147.45301 -25.8125,222.4375 3.35827,24.51868 12.7899,49.76839 33.40625,64.90625 37.62107,31.47773 79.1587,57.92511 120.15324,84.88519 7.00179,4.24505 4.89817,5.63782 15.64282,-0.49143 49.49252,-28.44845 100.1851,-56.70099 142.89144,-94.67501 20.8838,-24.42889 23.51676,-58.22388 24.65625,-89.0625 1.1097,-62.05731 -11.83614,-123.13034 -26.65625,-183 -0.80084,-8.19241 -10.95115,-7.32188 -16.84375,-10.09375 C 716.62089,94.755974 673.09839,86.800537 629.3125,87.46875 z"
     id="path6590-1"
     inkscape:connector-curvature="0"
     transform="translate(-376.91218,-39.847586)"
     sodipodi:nodetypes="ccccccccccc" />
  <path
     style="fill:none;stroke:#0034d6;stroke-width:7;stroke-linecap:round;stroke-linejoin:round;stroke-miterlimit:4;stroke-opacity:0.99470903;stroke-dasharray:none"
     d="m 629.46875,97.46875 c -44.40081,0.763805 -88.41109,9.1717 -130.40625,23.25 -18.86907,72.01454 -33.60142,147.30347 -22.8497,221.85838 3.95984,23.25945 17.72755,44.89359 37.78221,57.52128 35.54849,28.30519 73.73425,53.27803 112.12999,77.74534 10.48187,-6.03015 20.66096,-12.49783 31.34001,-18.23916 40.70426,-23.8963 82.21122,-47.5563 115.72467,-81.02365 C 792.6882,349.73716 791.56695,313.13006 791.53125,279.5 789.65482,225.65034 778.52702,172.71218 765.3125,120.65625 721.67772,106.09375 675.77935,96.732682 629.46875,97.46875 z"
     id="path6590-1-4"
     inkscape:connector-curvature="0"
     transform="translate(-377.49378,-39.84759)" />
  <path
     style="fill:none;stroke:#ff4040;stroke-width:7;stroke-linecap:round;stroke-linejoin:round;stroke-miterlimit:4;stroke-opacity:0.99470903;stroke-dasharray:none"
     d="m 629.65625,107.46875 c -41.57538,0.77487 -82.85851,8.26821 -122.3125,21.0625 -18.11075,69.97288 -31.86609,143.30645 -20.6875,215.59375 4.52507,23.5132 22.23987,42.44223 42.11527,54.87727 31.24148,24.02327 64.33645,45.8698 97.54098,67.09148 48.48815,-29.18097 100.50082,-54.55638 140.11436,-95.5413 C 784.56925,339.99283 781.60769,302.9135 781,268.6875 c -2.79471,-47.50544 -12.57617,-94.19056 -23.96875,-140.21875 -41.04874,-13.2613 -84.0292,-21.64001 -127.375,-21 z"
     id="path6590-1-4-7"
     inkscape:connector-curvature="0"
     transform="translate(-377.49378,-39.847586)" />
  <path
     style="fill:none;stroke:#40f7ff;stroke-width:7;stroke-linecap:round;stroke-linejoin:round;stroke-miterlimit:4;stroke-opacity:0.99470903;stroke-dasharray:none"
     d="m 629.96875,117.46875 c -38.8113,0.71584 -77.35873,7.46432 -114.34375,18.875 -17.17265,67.60873 -29.97741,138.45622 -18.6875,208.15625 5.7208,23.45323 25.81498,39.37708 45.03636,51.95151 27.26824,20.48553 55.79283,39.45788 84.52614,57.86099 45.87655,-27.15984 94.58586,-51.68287 132.0625,-90.09375 17.43817,-32.4079 12.84065,-70.7369 11.65043,-106.24342 -3.37203,-41.11894 -11.8197,-81.6549 -21.52543,-121.69408 -38.34262,-11.90401 -78.3849,-19.30422 -118.71875,-18.8125 z"
     id="path6590-1-4-7-4"
     inkscape:connector-curvature="0"
     transform="translate(-377.49378,-39.847589)" />
  <path
     style="fill:none;stroke:#fff31d;stroke-width:7;stroke-linecap:round;stroke-linejoin:round;stroke-miterlimit:4;stroke-opacity:0.99470903;stroke-dasharray:none"
     d="M 630.21875,127.46875 C 594.19183,128.1274 558.3706,134.15324 523.90625,144.25 507.81915,209.02008 495.99579,276.86796 507,343.5 c 6.97168,23.30218 28.9074,36.70808 47.66559,49.95454 23.4727,17.22619 47.70281,33.41092 72.14691,49.13921 42.98481,-25.24141 88.13047,-48.7058 123.46875,-84.21875 16.66099,-33.36353 10.69643,-72.09215 9.17047,-108.08326 -3.42704,-35.79264 -10.91723,-71.17722 -19.13922,-106.13549 -35.64223,-10.53901 -72.75132,-17.15013 -110.09375,-16.6875 z"
     id="path6590-1-4-7-4-8"
     inkscape:connector-curvature="0"
     transform="translate(-377.49378,-39.847588)" />
  <path
     style="fill:none;stroke:#00db02;stroke-width:7;stroke-linecap:round;stroke-linejoin:round;stroke-miterlimit:4;stroke-opacity:0.99470903;stroke-dasharray:none"
     d="m 630.4375,137.46875 c -33.25636,0.71094 -66.28484,5.78774 -98.25,14.875 -14.98151,61.64591 -25.80816,126.37576 -15.15625,189.59375 22.70817,37.53482 76.03826,66.97555 110.15625,88.9375 39.99795,-23.43709 81.67146,-45.65025 114.8125,-78.40625 15.34264,-33.76423 8.56926,-71.85874 6.79934,-107.65052 -3.2129,-31.22364 -10.01867,-62.08823 -16.83059,-92.59948 -32.99098,-9.46315 -67.15855,-15.08866 -101.53125,-14.75 z"
     id="path6590-1-4-7-4-8-3"
     inkscape:connector-curvature="0"
     transform="translate(-378.07538,-39.847586)"
     sodipodi:nodetypes="cccccccc" />
  <path
     style="fill:none;stroke:#2f24ff;stroke-width:7;stroke-linecap:round;stroke-linejoin:round;stroke-miterlimit:4;stroke-opacity:0.99470903;stroke-dasharray:none"
     d="m 627.84375,147.59375 c -29.54114,0.78452 -58.89001,5.14881 -87.375,12.875 -13.72352,58.44526 -23.74534,119.56207 -13.46875,179.4375 23.79337,32.92038 68.35074,58.65371 100.53125,79.25 36.96939,-21.72642 75.25905,-42.34443 106.0625,-72.625 14.10607,-34.20816 6.34146,-72.26544 4.40246,-108.11667 -3.09901,-26.2585 -8.82624,-52.25241 -14.52746,-78.10208 -31.06605,-8.63997 -63.28817,-13.38516 -95.625,-12.71875 z"
     id="path6590-1-4-7-4-8-3-2"
     inkscape:connector-curvature="0"
     transform="translate(-378.07538,-39.847589)"
     sodipodi:nodetypes="cccccccc" />
  <path
     style="fill:none;stroke:#ff2424;stroke-width:7;stroke-linecap:round;stroke-linejoin:round;stroke-miterlimit:4;stroke-opacity:0.99470903;stroke-dasharray:none"
     d="m 631.15625,157.59375 c -27.81354,0.39628 -55.49952,4.22451 -82.40625,11 -12.44858,54.78947 -21.27327,111.94485 -12.21875,168 26.28795,30.92565 59.6772,50.57556 91.3125,70.84375 33.92133,-19.83698 68.70608,-39.26264 97.21875,-66.53125 12.74329,-35.02224 4.17029,-73.00207 2.017,-109.17776 -2.89673,-21.3131 -7.5513,-42.33117 -12.17325,-63.32224 -27.32034,-7.20663 -55.47382,-11.10408 -83.75,-10.8125 z"
     id="path6590-1-4-7-4-8-3-2-0"
     inkscape:connector-curvature="0"
     transform="translate(-378.65698,-39.847593)"
     sodipodi:nodetypes="cccccccc" />
  <path
     style="fill:none;stroke:#01f3ff;stroke-width:7;stroke-linecap:round;stroke-linejoin:round;stroke-miterlimit:4;stroke-opacity:0.99470903;stroke-dasharray:none"
     d="m 631.4375,167.625 c -25.02688,0.32774 -49.98527,3.49695 -74.28125,9.21875 C 545.81003,227.87526 538.23533,280.89983 546.0625,333 c 25.01914,29.02214 52.35936,43.57682 82.125,62.71875 30.81098,-18.18484 62.14627,-35.84967 88.15625,-60.46875 9.16965,-53.94147 0.75097,-109.57312 -9.96875,-158.71875 -24.47449,-5.91169 -49.67574,-9.20098 -74.9375,-8.90625 z"
     id="path6590-1-4-7-4-8-3-2-0-2"
     inkscape:connector-curvature="0"
     transform="translate(-379.82018,-39.847591)"
     sodipodi:nodetypes="ccccccc" />
  <path
     style="fill:none;stroke:#fff901;stroke-width:7;stroke-linecap:round;stroke-linejoin:round;stroke-miterlimit:4;stroke-opacity:0.99470901;stroke-dasharray:none"
     d="m 629.4375,177.65625 c -21.49648,0.46416 -42.82418,3.04261 -63.84375,7.53125 -10.27958,46.91629 -16.42224,95.55518 -10.15625,143.4375 20.39275,23.14615 46.95252,39.16296 72.90625,55.375 27.43207,-16.14038 55.24009,-32.21723 78.65625,-53.78125 7.38699,-48.42385 1.11888,-97.81938 -9.15625,-145.375 -22.43939,-5.08751 -45.38668,-7.54305 -68.40625,-7.1875 z"
     id="path6590-1-4-7-4-8-3-2-0-2-7"
     inkscape:connector-curvature="0"
     transform="translate(-379.82018,-39.847595)" />
  <path
     style="fill:none;stroke:#0bce00;stroke-width:7;stroke-linecap:round;stroke-linejoin:round;stroke-miterlimit:4;stroke-opacity:0.99470901;stroke-dasharray:none"
     d="m 629.75,187.65625 c -18.72709,0.6032 -37.37383,2.26169 -55.71875,6.09375 -9.0589,42.77744 -14.25055,86.90378 -8.96875,130.5625 17.9899,19.62776 40.93694,33.93592 63.4375,47.96875 24.07958,-14.21515 48.40616,-28.49712 69.125,-47.125 5.94996,-43.96471 0.81325,-88.70624 -8.25,-131.90625 -19.60904,-3.98976 -39.58975,-5.82427 -59.625,-5.59375 z"
     id="path6590-1-4-7-4-8-3-2-0-2-7-2"
     inkscape:connector-curvature="0"
     transform="translate(-379.82018,-39.847597)" />
  <path
     style="fill:none;stroke:#0045ce;stroke-width:7;stroke-linecap:round;stroke-linejoin:round;stroke-miterlimit:4;stroke-opacity:0.99470901;stroke-dasharray:none"
     d="m 630.40625,197.71875 c -16.073,0.46968 -32.12021,1.67987 -47.90625,4.625 -7.83976,38.57064 -12.14453,78.27536 -7.78125,117.59375 15.6431,16.39616 34.87131,28.67325 53.90625,40.625 20.67118,-12.24596 41.27741,-24.61528 59.5,-40.34375 4.78182,-39.54369 0.54103,-79.5225 -7.21875,-118.375 -16.61893,-3.02365 -33.56896,-4.31257 -50.5,-4.125 z"
     id="path6590-1-4-7-4-8-3-2-0-2-7-2-2"
     inkscape:connector-curvature="0"
     transform="translate(-379.82018,-39.847596)" />
  <path
     style="fill:none;stroke:#ff0606;stroke-width:7;stroke-linecap:round;stroke-linejoin:round;stroke-miterlimit:4;stroke-opacity:0.99470901;stroke-dasharray:none;fill-opacity:1"
     d="m 630.90625,207.75 c -13.35525,0.32347 -26.74087,1.32375 -39.90625,3.28125 -6.59354,34.31392 -10.14667,69.51929 -6.59375,104.4375 13.04997,13.17142 28.76696,23.3863 44.375,33.34375 17.24245,-10.21397 34.35248,-20.82197 49.8125,-33.625 3.64309,-34.95469 0.36122,-70.25618 -6.21875,-104.625 -13.67474,-2.0271 -27.59136,-2.99871 -41.46875,-2.8125 z"
     id="path6590-1-4-7-4-8-3-2-0-2-7-2-2-3"
     inkscape:connector-curvature="0"
     transform="translate(-379.82018,-39.847594)" />
  <path
     style="fill:none;stroke:#04f4ff;stroke-width:7;stroke-linecap:round;stroke-linejoin:round;stroke-miterlimit:4;stroke-opacity:0.99470901;stroke-dasharray:none"
     d="m 631.21875,217.75 c -10.59213,0.23619 -21.16979,1.01473 -31.6875,2.28125 -5.3869,29.88245 -8.17081,60.45 -5.4375,90.8125 10.47322,10.18711 22.60144,18.32961 34.84375,26.15625 13.91573,-8.20048 27.41904,-16.87506 40.0625,-26.96875 2.68296,-30.23233 0.13827,-60.69167 -5.15625,-90.46875 -10.81983,-1.29299 -21.7254,-1.98494 -32.625,-1.8125 z"
     id="path6590-1-4-7-4-8-3-2-0-2-7-2-2-3-4"
     inkscape:connector-curvature="0"
     transform="translate(-379.82018,-39.847596)" />
  <path
     style="fill:none;stroke:#fbf500;stroke-width:7;stroke-linecap:round;stroke-linejoin:round;stroke-miterlimit:4;stroke-opacity:0.99470901;stroke-dasharray:none"
     d="m 631.53125,227.75 c -7.82731,0.19751 -15.64691,0.68786 -23.4375,1.46875 -4.11779,25.35818 -6.29794,51.24401 -4.3125,77.03125 7.86757,7.08823 16.47729,13.23021 25.375,18.9375 10.44613,-6.20479 20.52292,-12.87563 30.15625,-20.3125 1.78143,-25.44597 0.23391,-51.06767 -4.28125,-76.125 -7.80719,-0.7357 -15.65712,-1.11908 -23.5,-1 z"
     id="path6590-1-4-7-4-8-3-2-0-2-7-2-2-3-4-0"
     inkscape:connector-curvature="0"
     transform="translate(-379.82018,-39.847592)" />
  <path
     style="fill:none;stroke:#0eff17;stroke-width:7;stroke-linecap:round;stroke-linejoin:round;stroke-miterlimit:4;stroke-opacity:0.99470901;stroke-dasharray:none"
     d="m 631.8125,237.75 c -5.02779,0.10198 -10.04775,0.41934 -15.0625,0.78125 -2.83534,20.77477 -4.56481,41.91376 -3.28125,62.9375 5.10851,4.29182 10.34522,8.18733 15.90625,11.84375 6.94245,-4.23036 13.70625,-8.77686 20.21875,-13.65625 1.16202,-20.5333 -0.0836,-41.22969 -3.125,-61.5 -4.87672,-0.33144 -9.76848,-0.48 -14.65625,-0.40625 z"
     id="path6590-1-4-7-4-8-3-2-0-2-7-2-2-3-4-0-2"
     inkscape:connector-curvature="0"
     transform="translate(-379.82018,-39.847587)" />
  <path
     style="fill:none;stroke:#0e1fff;stroke-width:7;stroke-linecap:round;stroke-linejoin:round;stroke-miterlimit:4;stroke-opacity:0.99470903;stroke-dasharray:none"
     d="m 635.71875,247.6875 c -3.14473,1.20733 -8.08473,-1.53747 -10.21875,1.3125 -0.65188,16.38844 -5.41169,33.59027 -0.28125,49.53125 4.82929,5.09336 12.70417,-0.41093 14.5,-5.71875 1.7719,-7.89574 -0.83525,-16.13726 -0.0937,-24.21875 -0.3781,-6.93923 -0.30162,-15.04825 -3.46875,-20.9375 l -0.15625,0 -0.28125,0.0313 z"
     id="path6590-1-4-7-4-8-3-2-0-2-7-2-2-3-4-0-2-4"
     inkscape:connector-curvature="0"
     transform="translate(-379.82018,-39.847586)" />
  <path
     d="m 632.13203,65.89126 c -44.82789,0.06559 -94.34928,7.604325 -150.97916,26.522845 a 19.500958,19.552503 0 0 0 -12.65798,13.436165 c -7.19385,26.61871 -22.00469,86.12168 -27.56244,147.19987 a 19.500958,19.552503 0 0 0 25.58189,20.32193 c 107.33219,-35.83138 217.42719,-48.83879 328.69554,-49.77299 a 19.500958,19.552503 0 0 0 19.07182,-22.73987 c -6.77271,-41.08705 -15.69837,-76.3055 -20.84604,-95.10088 A 19.500958,19.552503 0 0 0 780.8785,92.414105 C 735.03153,76.881536 686.93138,65.811233 632.13203,65.89126 z"
     id="path6592"
     style="fill:url(#linearGradient3217);fill-opacity:1;stroke:none"
     inkscape:connector-curvature="0"
     transform="translate(-375.16738,-39.847589)" />
  <path
     style="fill:none;stroke:#ff0e0e;stroke-width:3.77930374;stroke-linecap:round;stroke-linejoin:round;stroke-miterlimit:4;stroke-opacity:0.99470903000000011;stroke-dasharray:none"
     d="m 631.4375,272.375 c -0.52186,5.99723 -0.9127,13.1045 0.15625,18.53125 2.40299,-3.46037 -0.69345,-8.18875 0.1875,-12.15625 -0.18295,-0.6992 0.0515,-12.8908 -0.34375,-6.375 z"
     id="path6590-1-4-7-4-8-3-2-0-2-7-2-2-3-4-0-2-4-3"
     inkscape:connector-curvature="0"
     transform="matrix(1,0,0,1.7503158,-379.82018,-258.11914)" />
</svg>
