<?xml version="1.0" encoding="UTF-8" standalone="no"?>
<!-- Created with Inkscape (http://www.inkscape.org/) -->

<svg
   xmlns:dc="http://purl.org/dc/elements/1.1/"
   xmlns:cc="http://creativecommons.org/ns#"
   xmlns:rdf="http://www.w3.org/1999/02/22-rdf-syntax-ns#"
   xmlns:svg="http://www.w3.org/2000/svg"
   xmlns="http://www.w3.org/2000/svg"
   xmlns:xlink="http://www.w3.org/1999/xlink"
   xmlns:sodipodi="http://sodipodi.sourceforge.net/DTD/sodipodi-0.dtd"
   xmlns:inkscape="http://www.inkscape.org/namespaces/inkscape"
   version="1.1"
   width="500"
   height="500"
   id="svg6752"
   inkscape:version="0.48.3.1 r9886"
   sodipodi:docname="shield_level_9_t2.svg">
  <sodipodi:namedview
     pagecolor="#ffffff"
     bordercolor="#666666"
     borderopacity="1"
     objecttolerance="10"
     gridtolerance="10"
     guidetolerance="10"
     inkscape:pageopacity="0"
     inkscape:pageshadow="2"
     inkscape:window-width="1440"
     inkscape:window-height="847"
     id="namedview3183"
     showgrid="false"
     inkscape:zoom="2.5791002"
     inkscape:cx="255.46631"
     inkscape:cy="170.62669"
     inkscape:window-x="0"
     inkscape:window-y="0"
     inkscape:window-maximized="1"
     inkscape:current-layer="svg6752" />
  <defs
     id="defs3">
    <linearGradient
       x1="-7668.9604"
       y1="-11707.119"
       x2="-7725.8379"
       y2="-9479.4238"
       id="linearGradient6634"
       xlink:href="#linearGradient6097-2"
       gradientUnits="userSpaceOnUse"
       gradientTransform="matrix(0.15518081,0,0,0.15559098,1844.8886,1837.7326)" />
    <linearGradient
       id="linearGradient6097-2">
      <stop
         id="stop6099-1"
         style="stop-color:#ffffff;stop-opacity:1"
         offset="0" />
      <stop
         id="stop6101-2"
         style="stop-color:#ffffff;stop-opacity:0"
         offset="1" />
    </linearGradient>
    <linearGradient
       x1="174.23146"
       y1="209.90202"
       x2="169.38644"
       y2="310.67828"
       id="linearGradient6642"
       xlink:href="#linearGradient6636"
       gradientUnits="userSpaceOnUse"
       gradientTransform="matrix(2.9229274,0,0,2.9229274,151.16123,-508.91522)" />
    <linearGradient
       id="linearGradient6636">
      <stop
         id="stop6638"
         style="stop-color:#ffcc00;stop-opacity:1"
         offset="0" />
      <stop
         id="stop6640"
         style="stop-color:#ffcc00;stop-opacity:0"
         offset="1" />
    </linearGradient>
    <filter
       color-interpolation-filters="sRGB"
       id="filter6357">
      <feGaussianBlur
         id="feGaussianBlur6359"
         stdDeviation="0.78190263" />
    </filter>
    <linearGradient
       x1="-7668.9604"
       y1="-11707.119"
       x2="-7725.8379"
       y2="-9479.4238"
       id="linearGradient5510"
       xlink:href="#linearGradient6097-2"
       gradientUnits="userSpaceOnUse"
       gradientTransform="matrix(0.15300974,0,0,0.15300974,1328.0213,1818.2424)" />
    <linearGradient
       id="linearGradient6779">
      <stop
         id="stop6781"
         style="stop-color:#ffffff;stop-opacity:1"
         offset="0" />
      <stop
         id="stop6783"
         style="stop-color:#ffffff;stop-opacity:0"
         offset="1" />
    </linearGradient>
    <linearGradient
       x1="-109.17429"
       y1="163.15849"
       x2="-113.28542"
       y2="341.30743"
       id="linearGradient5529"
       xlink:href="#linearGradient5522"
       gradientUnits="userSpaceOnUse"
       gradientTransform="matrix(2.9229274,0,0,2.9229274,471.27702,-454.58647)" />
    <linearGradient
       id="linearGradient5522">
      <stop
         id="stop5524"
         style="stop-color:#ffffff;stop-opacity:1"
         offset="0" />
      <stop
         id="stop5526"
         style="stop-color:#ffffff;stop-opacity:0"
         offset="1" />
    </linearGradient>
    <linearGradient
       x1="-109.17429"
       y1="163.15849"
       x2="-113.28542"
       y2="341.30743"
       id="linearGradient6886"
       xlink:href="#linearGradient5522"
       gradientUnits="userSpaceOnUse"
       gradientTransform="matrix(2.9229274,0,0,2.9229274,471.27702,-454.58647)" />
    <linearGradient
       x1="-7668.9604"
       y1="-11707.119"
       x2="-7725.8379"
       y2="-9479.4238"
       id="linearGradient6888"
       xlink:href="#linearGradient6097-2"
       gradientUnits="userSpaceOnUse"
       gradientTransform="matrix(0.15300974,0,0,0.15300974,1328.0213,1818.2424)" />
    <linearGradient
       x1="174.23146"
       y1="209.90202"
       x2="169.38644"
       y2="310.67828"
       id="linearGradient6890"
       xlink:href="#linearGradient6636"
       gradientUnits="userSpaceOnUse"
       gradientTransform="matrix(2.9229274,0,0,2.9229274,151.16123,-508.91522)" />
    <linearGradient
       x1="-7668.9604"
       y1="-11707.119"
       x2="-7725.8379"
       y2="-9479.4238"
       id="linearGradient6892"
       xlink:href="#linearGradient6097-2"
       gradientUnits="userSpaceOnUse"
       gradientTransform="matrix(0.15518081,0,0,0.15559098,1844.8886,1837.7326)" />
    <linearGradient
       x1="-7668.9604"
       y1="-11707.119"
       x2="-7725.8379"
       y2="-9479.4238"
       id="linearGradient6616"
       xlink:href="#linearGradient6097-2-7"
       gradientUnits="userSpaceOnUse"
       gradientTransform="matrix(0.15096114,0,0,0.14465384,1322.8813,1735.9314)" />
    <linearGradient
       id="linearGradient6097-2-7">
      <stop
         id="stop6099-1-4"
         style="stop-color:#ffffff;stop-opacity:1"
         offset="0" />
      <stop
         id="stop6101-2-0"
         style="stop-color:#ffffff;stop-opacity:0"
         offset="1" />
    </linearGradient>
    <linearGradient
       x1="-37.011112"
       y1="439.55563"
       x2="-36.04211"
       y2="558.74292"
       id="linearGradient6624"
       xlink:href="#linearGradient6618"
       gradientUnits="userSpaceOnUse"
       gradientTransform="matrix(2.7633056,0,0,2.7633056,252.31155,-1023.7687)" />
    <linearGradient
       id="linearGradient6618">
      <stop
         id="stop6620"
         style="stop-color:#00e4c6;stop-opacity:1"
         offset="0" />
      <stop
         id="stop6622"
         style="stop-color:#00e4c6;stop-opacity:0"
         offset="1" />
    </linearGradient>
    <filter
       color-interpolation-filters="sRGB"
       id="filter6357-4">
      <feGaussianBlur
         id="feGaussianBlur6359-6"
         stdDeviation="0.78190263" />
    </filter>
    <linearGradient
       x1="-7668.9604"
       y1="-11707.119"
       x2="-7725.8379"
       y2="-9479.4238"
       id="linearGradient6596"
       xlink:href="#linearGradient6097-2-7"
       gradientUnits="userSpaceOnUse"
       gradientTransform="matrix(0.14670635,0,0,0.14709413,1767.8593,1749.0021)" />
    <linearGradient
       id="linearGradient6915">
      <stop
         id="stop6917"
         style="stop-color:#ffffff;stop-opacity:1"
         offset="0" />
      <stop
         id="stop6919"
         style="stop-color:#ffffff;stop-opacity:0"
         offset="1" />
    </linearGradient>
    <linearGradient
       x1="150.97539"
       y1="434.71063"
       x2="152.91339"
       y2="530.64185"
       id="linearGradient6604"
       xlink:href="#linearGradient6598"
       gradientUnits="userSpaceOnUse"
       gradientTransform="matrix(2.7633056,0,0,2.7633056,198.75856,-986.28156)" />
    <linearGradient
       id="linearGradient6598">
      <stop
         id="stop6600"
         style="stop-color:#0000ff;stop-opacity:1"
         offset="0" />
      <stop
         id="stop6602"
         style="stop-color:#0000ff;stop-opacity:0"
         offset="1" />
    </linearGradient>
    <linearGradient
       x1="-37.011112"
       y1="439.55563"
       x2="-36.04211"
       y2="558.74292"
       id="linearGradient7022"
       xlink:href="#linearGradient6618"
       gradientUnits="userSpaceOnUse"
       gradientTransform="matrix(2.7633056,0,0,2.7633056,252.31155,-1023.7687)" />
    <linearGradient
       x1="-7668.9604"
       y1="-11707.119"
       x2="-7725.8379"
       y2="-9479.4238"
       id="linearGradient7024"
       xlink:href="#linearGradient6097-2-7"
       gradientUnits="userSpaceOnUse"
       gradientTransform="matrix(0.15096114,0,0,0.14465384,1322.8813,1735.9314)" />
    <linearGradient
       x1="150.97539"
       y1="434.71063"
       x2="152.91339"
       y2="530.64185"
       id="linearGradient7026"
       xlink:href="#linearGradient6598"
       gradientUnits="userSpaceOnUse"
       gradientTransform="matrix(2.7633056,0,0,2.7633056,198.75856,-986.28156)" />
    <linearGradient
       x1="-7668.9604"
       y1="-11707.119"
       x2="-7725.8379"
       y2="-9479.4238"
       id="linearGradient7028"
       xlink:href="#linearGradient6097-2-7"
       gradientUnits="userSpaceOnUse"
       gradientTransform="matrix(0.14670635,0,0,0.14709413,1767.8593,1749.0021)" />
    <linearGradient
       inkscape:collect="always"
       xlink:href="#linearGradient6598"
       id="linearGradient3215"
       gradientUnits="userSpaceOnUse"
       gradientTransform="matrix(2.7633056,0,0,2.7633056,198.75856,-986.28156)"
       x1="150.97539"
       y1="434.71063"
       x2="152.91339"
       y2="530.64185" />
    <linearGradient
       inkscape:collect="always"
       xlink:href="#linearGradient6097-2-7"
       id="linearGradient3217"
       gradientUnits="userSpaceOnUse"
       gradientTransform="matrix(0.14670635,0,0,0.14709413,1767.8593,1749.0021)"
       x1="-7668.9604"
       y1="-11707.119"
       x2="-7725.8379"
       y2="-9479.4238" />
  </defs>
  <metadata
     id="metadata4">
    <rdf:RDF>
      <cc:Work
         rdf:about="">
        <dc:format>image/svg+xml</dc:format>
        <dc:type
           rdf:resource="http://purl.org/dc/dcmitype/StillImage" />
        <dc:title />
      </cc:Work>
    </rdf:RDF>
  </metadata>
  <path
     inkscape:connector-curvature="0"
     transform="matrix(126.83405,0,0,126.83405,42043.942,17135.482)"
     d="m -329.26596,-132.60499 c -0.0332,0.0213 -0.0741,0.0391 -0.12274,0.0534 -0.0474,0.013 -0.0949,0.0196 -0.1423,0.0196 -0.13044,0 -0.23953,-0.0374 -0.32728,-0.11207 -0.0866,-0.0747 -0.12985,-0.16779 -0.12985,-0.27926 0,-0.12451 0.0474,-0.22827 0.1423,-0.31128 0.096,-0.0842 0.21641,-0.12629 0.36108,-0.12629 0.16246,0 0.29231,0.0575 0.38955,0.17254 0.0984,0.11502 0.14763,0.26681 0.14763,0.45536 0,0.20989 -0.0593,0.38006 -0.17787,0.5105 -0.11858,0.12925 -0.27215,0.19388 -0.4607,0.19388 -0.10672,0 -0.19625,-0.0213 -0.26859,-0.064 -0.0711,-0.0427 -0.10672,-0.0972 -0.10672,-0.16365 0,-0.0308 0.0101,-0.0557 0.0302,-0.0747 0.0213,-0.019 0.0486,-0.0285 0.0818,-0.0285 0.0498,0 0.083,0.0119 0.0996,0.0356 0.0166,0.0202 0.0279,0.0368 0.0338,0.0498 l 0.0107,0.0285 0.009,0.0658 c 0.0107,0.0783 0.0569,0.11739 0.13874,0.11739 0.0913,0 0.1595,-0.0285 0.20456,-0.0854 0.0225,-0.0296 0.0409,-0.0569 0.0551,-0.0818 0.0154,-0.0249 0.0285,-0.0528 0.0391,-0.0836 0.0166,-0.0486 0.0297,-0.0972 0.0391,-0.14586 0.007,-0.0451 0.0107,-0.1085 0.0107,-0.19032 l -0.0569,0.0445 m -0.46248,-0.32373 c 0,0.11502 0.0196,0.20396 0.0587,0.26681 0.0403,0.0628 0.099,0.0943 0.1761,0.0943 0.0842,0 0.1506,-0.032 0.19922,-0.096 0.0486,-0.0652 0.0729,-0.15712 0.0729,-0.27571 0,-0.12214 -0.0219,-0.217 -0.0658,-0.2846 -0.0427,-0.0688 -0.10494,-0.10316 -0.18677,-0.10316 -0.0806,0 -0.14348,0.035 -0.18854,0.10494 -0.0439,0.07 -0.0658,0.1678 -0.0658,0.2935"
     style="font-size:1.77874517px;font-style:normal;font-variant:normal;font-weight:100;font-stretch:normal;text-align:start;line-height:125%;letter-spacing:0px;word-spacing:0px;writing-mode:lr-tb;text-anchor:start;opacity:0.84304935;fill:#000000;fill-opacity:1;stroke:none;display:inline;font-family:Baskerville-DemiBold;-inkscape-font-specification:Baskerville-DemiBold Thin"
     id="path5513-4" />
  <path
     style="font-size:1.77874517px;font-style:normal;font-variant:normal;font-weight:100;font-stretch:normal;text-align:start;line-height:125%;letter-spacing:0px;word-spacing:0px;writing-mode:lr-tb;text-anchor:start;fill:#000000;fill-opacity:1;stroke:none;display:inline;font-family:Baskerville-DemiBold;-inkscape-font-specification:Baskerville-DemiBold Thin"
     d="m 2199.75,91.3125 c -19.2473,-0.888816 -36.4111,12.72979 -43.2437,30.17536 -10.4308,25.51475 -10.7313,54.2853 -6.2683,81.15813 2.7075,13.15814 7.8289,26.72224 18.512,35.47901 -15.7665,-20.6774 -16.1954,-48.47806 -15.0257,-73.33454 1.6904,-23.10203 8.108,-49.92637 29.6362,-62.43498 15.6005,-8.348365 36.5124,-7.251907 50.3583,4.11327 -8.1457,-10.165836 -21.082,-15.418669 -33.9688,-15.15625 z m 74.2812,24.5625 c 28.4038,29.79668 36.2156,73.22794 33.118,113.00984 -2.331,41.62841 -21.8008,83.3629 -56.7949,107.2434 -31.2864,21.62051 -72.4947,26.3555 -108.8366,16.81027 -10.0437,-2.98904 -19.8052,-7.46411 -27.8927,-14.21976 19.4098,21.21583 50.388,25.63593 77.7445,24.28822 36.2991,-1.23555 71.567,-19.23987 93.1105,-48.60816 28.0868,-36.95087 33.5874,-86.60673 25.6644,-131.24392 -4.7978,-25.428 -16.9747,-49.63992 -36.1132,-67.27989 z m -154.7187,114.03125 c 30.9806,33.68004 85.4093,38.67669 124.7862,17.50807 5.3195,-3.26883 12.9156,-6.58196 9.9902,-14.48517 0.2101,-5.3426 -6.5197,3.52625 -9.5602,4.84022 -26.1725,18.01666 -61.1334,20.57604 -91.1699,11.51383 -12.5569,-3.94993 -24.2336,-10.60398 -34.0463,-19.37695 z m 25.2813,68.875 c 7.0447,7.34449 8.509,17.38908 9.4577,27.01657 -0.4331,6.92229 7.2112,19.58937 9.7479,18.76835 -6.7553,-11.62513 -2.3822,-26.88199 -11.5523,-37.52783 -2.3356,-2.9181 -4.31,-6.35873 -7.6533,-8.25709 z"
     id="path5513-4-6"
     inkscape:connector-curvature="0"
     transform="matrix(0.61844258,0,0,0.61844258,-1106.7655,166.86606)" />
  <path
     inkscape:connector-curvature="0"
     style="font-size:1.77874517000000010px;font-style:normal;font-variant:normal;font-weight:100;font-stretch:normal;text-align:start;line-height:125%;letter-spacing:0px;word-spacing:0px;writing-mode:lr-tb;text-anchor:start;opacity:0.5;fill:#ffffff;fill-opacity:1;stroke:none;display:inline;font-family:Baskerville-DemiBold;-inkscape-font-specification:Baskerville-DemiBold Thin"
     d="m 2203.25,90 c -29.6698,0 -54.3742,8.63799 -74.0625,25.90625 C 2109.7248,132.93046 2100,154.21471 2100,179.75 c 0,21.90609 8.1617,40.33055 24.4688,55.3125 -12.5321,-13.88338 -18.8126,-30.45106 -18.8126,-49.65625 0,-25.53529 9.7249,-46.78829 29.1876,-63.8125 19.6882,-17.26826 44.3926,-25.90625 74.0624,-25.90625 28.5502,0 52.1774,8.67739 70.9063,26 C 2260.2656,100.58552 2234.7606,90 2203.25,90 z m 36.1875,22.21875 c 1.5128,1.81534 2.9529,3.76592 4.2813,5.90625 9.0032,13.86383 13.5,33.32577 13.5,58.375 0,24.32117 -4.9704,43.15963 -14.9376,56.53125 -9.9712,13.12552 -23.6067,19.6875 -40.875,19.6875 -10.7334,0 -19.7129,-2.96556 -26.9687,-8.90625 8.0396,9.71523 18.926,14.59375 32.6563,14.59375 2.6036,0 5.0935,-0.17036 7.5312,-0.46875 2.7677,-0.54505 5.5472,-1.17907 8.3125,-1.9375 2.0639,-0.60677 4.0407,-1.26927 5.9687,-1.9375 7.3753,-3.26766 13.7233,-8.35661 19.0313,-15.34375 9.9672,-13.37162 14.9687,-32.24133 14.9687,-56.5625 0,-25.04923 -4.4967,-44.47992 -13.5,-58.34375 -2.877,-4.6356 -6.2262,-8.48229 -9.9687,-11.59375 z m 26,129.375 -5.7813,4.53125 c -0.2517,11.93364 -0.9331,21.56742 -2.0624,28.84375 -1.9279,9.9795 -4.6269,19.93906 -8.0313,29.90625 -2.1739,6.31666 -4.8729,12.0496 -8.0313,17.15625 -2.9122,5.10665 -6.6668,10.7107 -11.2812,16.78125 -9.2412,11.66941 -23.2444,17.5 -41.9688,17.5 -7.412,0 -13.3738,-1.55852 -17.9374,-4.6875 4.7271,6.91207 12.6103,10.375 23.625,10.375 18.7243,0 32.6963,-5.86184 41.9374,-17.53125 4.6145,-6.07055 8.4003,-11.6746 11.3126,-16.78125 3.1583,-5.10665 5.8573,-10.80834 8.0312,-17.125 3.4044,-9.96719 6.0722,-19.92675 8,-29.90625 1.4356,-9.24939 2.1875,-22.28235 2.1875,-39.0625 z m -137,53.8125 c -6.8089,0 -12.4129,1.94711 -16.7813,5.84375 -4.1222,3.89664 -6.1874,8.99584 -6.1874,15.3125 0,10.77965 4.5916,20.02189 13.7187,27.75 -5.3622,-6.46673 -8.0313,-13.83279 -8.0313,-22.09375 0,-6.31666 2.0653,-11.41586 6.1876,-15.3125 4.3683,-3.89664 9.9723,-5.84375 16.7812,-5.84375 6.985,0 12.356,1.12974 16.1562,3.40625 -0.4616,-0.58819 -0.8955,-1.15984 -1.4062,-1.78125 -3.4044,-4.86054 -10.2242,-7.28125 -20.4375,-7.28125 z"
     id="path5513-4-0"
     transform="matrix(0.61844258,0,0,0.61844258,-1110.272,163.35949)" />
</svg>
