<?xml version="1.0" encoding="UTF-8" standalone="no"?>
<!-- Created with Inkscape (http://www.inkscape.org/) -->

<svg
   xmlns:dc="http://purl.org/dc/elements/1.1/"
   xmlns:cc="http://creativecommons.org/ns#"
   xmlns:rdf="http://www.w3.org/1999/02/22-rdf-syntax-ns#"
   xmlns:svg="http://www.w3.org/2000/svg"
   xmlns="http://www.w3.org/2000/svg"
   xmlns:xlink="http://www.w3.org/1999/xlink"
   xmlns:sodipodi="http://sodipodi.sourceforge.net/DTD/sodipodi-0.dtd"
   xmlns:inkscape="http://www.inkscape.org/namespaces/inkscape"
   version="1.1"
   width="500"
   height="500"
   id="svg6752"
   inkscape:version="0.92.3 (2405546, 2018-03-11)"
   sodipodi:docname="shield_level_9_t2.svg">
  <sodipodi:namedview
     pagecolor="#ffffff"
     bordercolor="#666666"
     borderopacity="1"
     objecttolerance="10"
     gridtolerance="10"
     guidetolerance="10"
     inkscape:pageopacity="0"
     inkscape:pageshadow="2"
     inkscape:window-width="1600"
     inkscape:window-height="847"
     id="namedview3183"
     showgrid="false"
     inkscape:zoom="1.1462668"
     inkscape:cx="48.598238"
     inkscape:cy="112.8853"
     inkscape:window-x="0"
     inkscape:window-y="0"
     inkscape:window-maximized="1"
     inkscape:current-layer="svg6752" />
  <defs
     id="defs3">
    <linearGradient
       x1="-7668.9604"
       y1="-11707.119"
       x2="-7725.8379"
       y2="-9479.4238"
       id="linearGradient6634"
       xlink:href="#linearGradient6097-2"
       gradientUnits="userSpaceOnUse"
       gradientTransform="matrix(0.15518081,0,0,0.15559098,1844.8886,1837.7326)" />
    <linearGradient
       id="linearGradient6097-2">
      <stop
         id="stop6099-1"
         style="stop-color:#ffffff;stop-opacity:1"
         offset="0" />
      <stop
         id="stop6101-2"
         style="stop-color:#ffffff;stop-opacity:0"
         offset="1" />
    </linearGradient>
    <linearGradient
       x1="174.23146"
       y1="209.90202"
       x2="169.38644"
       y2="310.67828"
       id="linearGradient6642"
       xlink:href="#linearGradient6636"
       gradientUnits="userSpaceOnUse"
       gradientTransform="matrix(2.9229274,0,0,2.9229274,151.16123,-508.91522)" />
    <linearGradient
       id="linearGradient6636">
      <stop
         id="stop6638"
         style="stop-color:#ffcc00;stop-opacity:1"
         offset="0" />
      <stop
         id="stop6640"
         style="stop-color:#ffcc00;stop-opacity:0"
         offset="1" />
    </linearGradient>
    <filter
       color-interpolation-filters="sRGB"
       id="filter6357">
      <feGaussianBlur
         id="feGaussianBlur6359"
         stdDeviation="0.78190263" />
    </filter>
    <linearGradient
       x1="-7668.9604"
       y1="-11707.119"
       x2="-7725.8379"
       y2="-9479.4238"
       id="linearGradient5510"
       xlink:href="#linearGradient6097-2"
       gradientUnits="userSpaceOnUse"
       gradientTransform="matrix(0.15300974,0,0,0.15300974,1328.0213,1818.2424)" />
    <linearGradient
       id="linearGradient6779">
      <stop
         id="stop6781"
         style="stop-color:#ffffff;stop-opacity:1"
         offset="0" />
      <stop
         id="stop6783"
         style="stop-color:#ffffff;stop-opacity:0"
         offset="1" />
    </linearGradient>
    <linearGradient
       x1="-109.17429"
       y1="163.15849"
       x2="-113.28542"
       y2="341.30743"
       id="linearGradient5529"
       xlink:href="#linearGradient5522"
       gradientUnits="userSpaceOnUse"
       gradientTransform="matrix(2.9229274,0,0,2.9229274,471.27702,-454.58647)" />
    <linearGradient
       id="linearGradient5522">
      <stop
         id="stop5524"
         style="stop-color:#ffffff;stop-opacity:1"
         offset="0" />
      <stop
         id="stop5526"
         style="stop-color:#ffffff;stop-opacity:0"
         offset="1" />
    </linearGradient>
    <linearGradient
       x1="-109.17429"
       y1="163.15849"
       x2="-113.28542"
       y2="341.30743"
       id="linearGradient6886"
       xlink:href="#linearGradient5522"
       gradientUnits="userSpaceOnUse"
       gradientTransform="matrix(2.9229274,0,0,2.9229274,471.27702,-454.58647)" />
    <linearGradient
       x1="-7668.9604"
       y1="-11707.119"
       x2="-7725.8379"
       y2="-9479.4238"
       id="linearGradient6888"
       xlink:href="#linearGradient6097-2"
       gradientUnits="userSpaceOnUse"
       gradientTransform="matrix(0.15300974,0,0,0.15300974,1328.0213,1818.2424)" />
    <linearGradient
       x1="174.23146"
       y1="209.90202"
       x2="169.38644"
       y2="310.67828"
       id="linearGradient6890"
       xlink:href="#linearGradient6636"
       gradientUnits="userSpaceOnUse"
       gradientTransform="matrix(2.9229274,0,0,2.9229274,151.16123,-508.91522)" />
    <linearGradient
       x1="-7668.9604"
       y1="-11707.119"
       x2="-7725.8379"
       y2="-9479.4238"
       id="linearGradient6892"
       xlink:href="#linearGradient6097-2"
       gradientUnits="userSpaceOnUse"
       gradientTransform="matrix(0.15518081,0,0,0.15559098,1844.8886,1837.7326)" />
    <linearGradient
       x1="-7668.9604"
       y1="-11707.119"
       x2="-7725.8379"
       y2="-9479.4238"
       id="linearGradient6616"
       xlink:href="#linearGradient6097-2-7"
       gradientUnits="userSpaceOnUse"
       gradientTransform="matrix(0.15096114,0,0,0.14465384,1322.8813,1735.9314)" />
    <linearGradient
       id="linearGradient6097-2-7">
      <stop
         id="stop6099-1-4"
         style="stop-color:#ffffff;stop-opacity:1"
         offset="0" />
      <stop
         id="stop6101-2-0"
         style="stop-color:#ffffff;stop-opacity:0"
         offset="1" />
    </linearGradient>
    <linearGradient
       x1="-37.011112"
       y1="439.55563"
       x2="-36.04211"
       y2="558.74292"
       id="linearGradient6624"
       xlink:href="#linearGradient6618"
       gradientUnits="userSpaceOnUse"
       gradientTransform="matrix(2.7633056,0,0,2.7633056,252.31155,-1023.7687)" />
    <linearGradient
       id="linearGradient6618">
      <stop
         id="stop6620"
         style="stop-color:#00e4c6;stop-opacity:1"
         offset="0" />
      <stop
         id="stop6622"
         style="stop-color:#00e4c6;stop-opacity:0"
         offset="1" />
    </linearGradient>
    <filter
       color-interpolation-filters="sRGB"
       id="filter6357-4">
      <feGaussianBlur
         id="feGaussianBlur6359-6"
         stdDeviation="0.78190263" />
    </filter>
    <linearGradient
       x1="-7668.9604"
       y1="-11707.119"
       x2="-7725.8379"
       y2="-9479.4238"
       id="linearGradient6596"
       xlink:href="#linearGradient6097-2-7"
       gradientUnits="userSpaceOnUse"
       gradientTransform="matrix(0.14670635,0,0,0.14709413,1767.8593,1749.0021)" />
    <linearGradient
       id="linearGradient6915">
      <stop
         id="stop6917"
         style="stop-color:#ffffff;stop-opacity:1"
         offset="0" />
      <stop
         id="stop6919"
         style="stop-color:#ffffff;stop-opacity:0"
         offset="1" />
    </linearGradient>
    <linearGradient
       x1="150.97539"
       y1="434.71063"
       x2="152.91339"
       y2="530.64185"
       id="linearGradient6604"
       xlink:href="#linearGradient6598"
       gradientUnits="userSpaceOnUse"
       gradientTransform="matrix(2.7633056,0,0,2.7633056,198.75856,-986.28156)" />
    <linearGradient
       id="linearGradient6598">
      <stop
         id="stop6600"
         style="stop-color:#0000ff;stop-opacity:1"
         offset="0" />
      <stop
         id="stop6602"
         style="stop-color:#0000ff;stop-opacity:0"
         offset="1" />
    </linearGradient>
    <linearGradient
       x1="-37.011112"
       y1="439.55563"
       x2="-36.04211"
       y2="558.74292"
       id="linearGradient7022"
       xlink:href="#linearGradient6618"
       gradientUnits="userSpaceOnUse"
       gradientTransform="matrix(2.7633056,0,0,2.7633056,252.31155,-1023.7687)" />
    <linearGradient
       x1="-7668.9604"
       y1="-11707.119"
       x2="-7725.8379"
       y2="-9479.4238"
       id="linearGradient7024"
       xlink:href="#linearGradient6097-2-7"
       gradientUnits="userSpaceOnUse"
       gradientTransform="matrix(0.15096114,0,0,0.14465384,1322.8813,1735.9314)" />
    <linearGradient
       x1="150.97539"
       y1="434.71063"
       x2="152.91339"
       y2="530.64185"
       id="linearGradient7026"
       xlink:href="#linearGradient6598"
       gradientUnits="userSpaceOnUse"
       gradientTransform="matrix(2.7633056,0,0,2.7633056,198.75856,-986.28156)" />
    <linearGradient
       x1="-7668.9604"
       y1="-11707.119"
       x2="-7725.8379"
       y2="-9479.4238"
       id="linearGradient7028"
       xlink:href="#linearGradient6097-2-7"
       gradientUnits="userSpaceOnUse"
       gradientTransform="matrix(0.14670635,0,0,0.14709413,1767.8593,1749.0021)" />
    <linearGradient
       inkscape:collect="always"
       xlink:href="#linearGradient6598"
       id="linearGradient3215"
       gradientUnits="userSpaceOnUse"
       gradientTransform="matrix(2.7633056,0,0,2.7633056,198.75856,-986.28156)"
       x1="150.97539"
       y1="434.71063"
       x2="152.91339"
       y2="530.64185" />
    <linearGradient
       inkscape:collect="always"
       xlink:href="#linearGradient6097-2-7"
       id="linearGradient3217"
       gradientUnits="userSpaceOnUse"
       gradientTransform="matrix(0.14670635,0,0,0.14709413,1767.8593,1749.0021)"
       x1="-7668.9604"
       y1="-11707.119"
       x2="-7725.8379"
       y2="-9479.4238" />
  </defs>
  <metadata
     id="metadata4">
    <rdf:RDF>
      <cc:Work
         rdf:about="">
        <dc:format>image/svg+xml</dc:format>
        <dc:type
           rdf:resource="http://purl.org/dc/dcmitype/StillImage" />
        <dc:title />
      </cc:Work>
    </rdf:RDF>
  </metadata>
  <path
     inkscape:connector-curvature="0"
     d="m 281.80677,316.65407 c -4.21089,2.70156 -9.39841,4.95921 -15.56762,6.77294 -6.01193,1.64884 -12.03655,2.48594 -18.04848,2.48594 -16.54423,0 -30.38056,-4.74359 -41.51025,-14.21429 -10.98383,-9.4745 -16.4694,-21.28148 -16.4694,-35.41968 0,-15.7921 6.01193,-28.9524 18.04849,-39.4809 12.17606,-10.67943 27.44815,-16.01787 45.79723,-16.01787 20.60546,0 37.07487,7.29296 49.40821,21.88395 12.48047,14.58845 18.72451,33.84059 18.72451,57.75515 0,26.6212 -7.52126,48.20455 -22.55997,64.74878 -15.03998,16.3933 -34.51789,24.59059 -58.43245,24.59059 -13.53573,0 -24.89118,-2.70157 -34.06636,-8.11738 -9.0179,-5.41582 -13.53573,-12.32827 -13.53573,-20.75639 0,-3.90649 1.28103,-7.06466 3.83039,-9.47451 2.70157,-2.40984 6.16414,-3.61477 10.37503,-3.61477 6.31633,0 10.52722,1.50933 12.63267,4.51529 2.10544,2.56205 3.53867,4.6675 4.28699,6.31634 l 1.35712,3.61477 1.14151,8.34568 c 1.35712,9.93111 7.21686,14.88905 17.59696,14.88905 11.57994,0 20.23003,-3.61477 25.94517,-10.83163 2.85376,-3.75429 5.18751,-7.21686 6.98855,-10.37502 1.95325,-3.15817 3.61478,-6.69684 4.95922,-10.60333 2.10544,-6.16413 3.76697,-12.32827 4.95921,-18.50001 0.88784,-5.72022 1.35712,-13.7615 1.35712,-24.13906 l -7.21686,5.64411 m -58.65821,-41.05998 c 0,14.58845 2.48595,25.86907 7.44516,33.84059 5.11141,7.96518 12.55657,11.96045 22.33548,11.96045 10.67942,0 19.10121,-4.05869 25.26788,-12.17607 6.16413,-8.26958 9.2462,-19.92816 9.2462,-34.96941 0,-15.49151 -2.77767,-27.52299 -8.34568,-36.09697 -5.41581,-8.72619 -13.30997,-13.0842 -23.6888,-13.0842 -10.22282,0 -18.19815,4.43919 -23.91329,13.30996 -5.56801,8.87838 -8.34568,21.28275 -8.34568,37.22579"
     style="font-style:normal;font-variant:normal;font-weight:100;font-stretch:normal;font-size:1.77874517px;line-height:125%;font-family:Baskerville-DemiBold;-inkscape-font-specification:'Baskerville-DemiBold Thin';text-align:start;letter-spacing:0px;word-spacing:0px;writing-mode:lr-tb;text-anchor:start;display:inline;opacity:0.84304935;fill:#000000;fill-opacity:1;stroke:none;stroke-width:126.83405304"
     id="path5513-4" />
  <path
     style="font-style:normal;font-variant:normal;font-weight:100;font-stretch:normal;font-size:1.77874517px;line-height:125%;font-family:Baskerville-DemiBold;-inkscape-font-specification:'Baskerville-DemiBold Thin';text-align:start;letter-spacing:0px;word-spacing:0px;writing-mode:lr-tb;text-anchor:start;display:inline;fill:#000000;fill-opacity:1;stroke:none;stroke-width:0.6184426"
     d="m 253.65357,223.3376 c -11.90335,-0.54968 -22.51818,7.87264 -26.74375,18.66173 -6.45085,15.7794 -6.63669,33.57234 -3.87658,50.19164 1.67443,8.13755 4.84172,16.52617 11.44861,21.94173 -9.75068,-12.78779 -10.01593,-29.9809 -9.29254,-45.3532 1.04542,-14.28728 5.01434,-30.8766 18.32829,-38.61245 9.64801,-5.16299 22.58082,-4.48489 31.14372,2.54382 -5.03765,-6.28699 -13.03801,-9.53556 -21.00775,-9.37327 z m 45.93865,15.19049 c 17.56612,18.42754 22.39727,45.28728 20.48158,69.8901 -1.44159,25.74478 -13.48254,51.55517 -35.12438,66.32389 -19.34884,13.37104 -44.83381,16.29936 -67.30919,10.39618 -6.21145,-1.84855 -12.24838,-4.61612 -17.25003,-8.7941 12.00384,13.12077 31.16208,15.85435 48.08051,15.02087 22.44891,-0.76412 44.26008,-11.89876 57.5835,-30.06136 17.37007,-22.85199 20.77187,-53.56129 15.87195,-81.16683 -2.96716,-15.72576 -10.49787,-30.69944 -22.33394,-41.60875 z m -95.68463,70.52178 c 19.15972,20.82918 52.82075,23.91932 77.1731,10.82774 3.28981,-2.02158 7.98756,-4.07056 6.17836,-8.95825 0.12994,-3.30409 -4.03206,2.18079 -5.91243,2.9934 -16.18619,11.14227 -37.8075,12.7251 -56.38335,7.12065 -7.76572,-2.44281 -14.98709,-6.55796 -21.05568,-11.98354 z m 15.63503,42.59524 c 4.35675,4.54214 5.26233,10.75414 5.84905,16.70819 -0.26785,4.28104 4.45971,12.1149 6.02851,11.60715 -4.17776,-7.18947 -1.47325,-16.62497 -7.14443,-23.20881 -1.44444,-1.80467 -2.66549,-3.93251 -4.73313,-5.10653 z"
     id="path5513-4-6"
     inkscape:connector-curvature="0" />
  <path
     inkscape:connector-curvature="0"
     style="font-style:normal;font-variant:normal;font-weight:100;font-stretch:normal;font-size:1.77874517px;line-height:125%;font-family:Baskerville-DemiBold;-inkscape-font-specification:'Baskerville-DemiBold Thin';text-align:start;letter-spacing:0px;word-spacing:0px;writing-mode:lr-tb;text-anchor:start;display:inline;opacity:0.5;fill:#ffffff;fill-opacity:1;stroke:none;stroke-width:0.6184426"
     d="m 252.31161,219.01932 c -18.34906,0 -33.62732,5.3421 -45.8034,16.02153 -12.03656,10.5285 -18.05079,23.69158 -18.05079,39.48369 0,13.54766 5.04754,24.94213 15.13255,34.20761 -7.75039,-8.58607 -11.63452,-18.83223 -11.63452,-30.70954 0,-15.79211 6.0143,-28.93587 18.05086,-39.46437 12.17602,-10.67942 27.45427,-16.02153 45.80334,-16.02153 17.65666,0 32.26873,5.36647 43.85147,16.07951 -12.08863,-13.05036 -27.86201,-19.5969 -47.34951,-19.5969 z m 22.3799,13.74102 c 0.93558,1.12269 1.82619,2.32901 2.64773,3.65268 5.56797,8.57398 8.34898,20.61007 8.34898,36.10159 0,15.04124 -3.07391,26.69175 -9.23805,34.96133 -6.16661,8.11738 -14.59939,12.17559 -25.27884,12.17559 -6.63799,0 -12.1913,-1.83403 -16.67859,-5.50801 4.97203,6.00831 11.70464,9.0254 20.19604,9.0254 1.61018,0 3.15004,-0.10536 4.65762,-0.2899 1.71166,-0.33708 3.43062,-0.72918 5.1408,-1.19823 1.27641,-0.37525 2.49894,-0.78497 3.6913,-1.19823 4.5612,-2.02086 8.48707,-5.16809 11.76977,-9.48923 6.16414,-8.26958 9.25728,-19.93941 9.25728,-34.98066 0,-15.49151 -2.78095,-27.50828 -8.34898,-36.08226 -1.77926,-2.86685 -3.85054,-5.24581 -6.16506,-7.17007 z m 16.0795,80.01101 -3.5754,2.80232 c -0.15566,7.38027 -0.57707,13.33821 -1.27548,17.8382 -1.19229,6.17175 -2.86147,12.33117 -4.96689,18.4953 -1.34444,3.90649 -3.01361,7.45199 -4.9669,10.61016 -1.80103,3.15817 -4.12303,6.62395 -6.97678,10.37824 -5.71515,7.21686 -14.37532,10.82274 -25.95529,10.82274 -4.5839,0 -8.27093,-0.96385 -11.09325,-2.89895 2.92344,4.27472 7.79875,6.41634 14.61071,6.41634 11.5799,0 20.22078,-3.62521 25.93587,-10.84207 2.8538,-3.75428 5.1951,-7.22007 6.99619,-10.37824 1.95323,-3.15817 3.62241,-6.68433 4.96684,-10.59083 2.10542,-6.16413 3.75531,-12.32355 4.94754,-18.49529 0.88784,-5.72022 1.35284,-13.78036 1.35284,-24.15792 z m -84.72663,33.27994 c -4.21091,0 -7.67667,1.20418 -10.37827,3.61403 -2.54935,2.40985 -3.82655,5.56341 -3.82655,9.4699 0,6.66659 2.83964,12.38239 8.48423,17.16178 -3.31622,-3.9993 -4.9669,-8.55479 -4.9669,-13.66371 0,-3.9065 1.27727,-7.06006 3.82667,-9.46991 2.70155,-2.40985 6.1673,-3.61402 10.37821,-3.61402 4.31982,0 7.64148,0.69868 9.99168,2.10657 -0.28547,-0.36376 -0.55381,-0.7173 -0.86965,-1.1016 -2.10543,-3.00597 -6.32308,-4.50304 -12.63942,-4.50304 z"
     id="path5513-4-0" />
</svg>
