<?xml version="1.0" encoding="UTF-8" standalone="no"?>
<!-- Created with Inkscape (http://www.inkscape.org/) -->

<svg
   xmlns:dc="http://purl.org/dc/elements/1.1/"
   xmlns:cc="http://creativecommons.org/ns#"
   xmlns:rdf="http://www.w3.org/1999/02/22-rdf-syntax-ns#"
   xmlns:svg="http://www.w3.org/2000/svg"
   xmlns="http://www.w3.org/2000/svg"
   xmlns:xlink="http://www.w3.org/1999/xlink"
   xmlns:sodipodi="http://sodipodi.sourceforge.net/DTD/sodipodi-0.dtd"
   xmlns:inkscape="http://www.inkscape.org/namespaces/inkscape"
   version="1.1"
   width="500"
   height="500"
   id="svg6752"
   inkscape:version="0.48.3.1 r9886"
   sodipodi:docname="shield_gold.svg">
  <sodipodi:namedview
     pagecolor="#ffffff"
     bordercolor="#666666"
     borderopacity="1"
     objecttolerance="10"
     gridtolerance="10"
     guidetolerance="10"
     inkscape:pageopacity="0"
     inkscape:pageshadow="2"
     inkscape:window-width="1440"
     inkscape:window-height="847"
     id="namedview3183"
     showgrid="false"
     inkscape:zoom="0.76417784"
     inkscape:cx="-70.127206"
     inkscape:cy="335.43675"
     inkscape:window-x="0"
     inkscape:window-y="0"
     inkscape:window-maximized="1"
     inkscape:current-layer="svg6752" />
  <defs
     id="defs3">
    <linearGradient
       x1="-7668.9604"
       y1="-11707.119"
       x2="-7725.8379"
       y2="-9479.4238"
       id="linearGradient6634"
       xlink:href="#linearGradient6097-2"
       gradientUnits="userSpaceOnUse"
       gradientTransform="matrix(0.15518081,0,0,0.15559098,1844.8886,1837.7326)" />
    <linearGradient
       id="linearGradient6097-2">
      <stop
         id="stop6099-1"
         style="stop-color:#ffffff;stop-opacity:1"
         offset="0" />
      <stop
         id="stop6101-2"
         style="stop-color:#ffffff;stop-opacity:0"
         offset="1" />
    </linearGradient>
    <linearGradient
       x1="174.23146"
       y1="209.90202"
       x2="169.38644"
       y2="310.67828"
       id="linearGradient6642"
       xlink:href="#linearGradient6636"
       gradientUnits="userSpaceOnUse"
       gradientTransform="matrix(2.9229274,0,0,2.9229274,151.16123,-508.91522)" />
    <linearGradient
       id="linearGradient6636">
      <stop
         id="stop6638"
         style="stop-color:#efd311;stop-opacity:1;"
         offset="0" />
      <stop
         id="stop6640"
         style="stop-color:#fff295;stop-opacity:0;"
         offset="1" />
    </linearGradient>
    <filter
       color-interpolation-filters="sRGB"
       id="filter6357">
      <feGaussianBlur
         id="feGaussianBlur6359"
         stdDeviation="0.78190263" />
    </filter>
    <linearGradient
       x1="-7668.9604"
       y1="-11707.119"
       x2="-7725.8379"
       y2="-9479.4238"
       id="linearGradient5510"
       xlink:href="#linearGradient6097-2"
       gradientUnits="userSpaceOnUse"
       gradientTransform="matrix(0.15300974,0,0,0.15300974,1328.0213,1818.2424)" />
    <linearGradient
       id="linearGradient6779">
      <stop
         id="stop6781"
         style="stop-color:#ffffff;stop-opacity:1"
         offset="0" />
      <stop
         id="stop6783"
         style="stop-color:#ffffff;stop-opacity:0"
         offset="1" />
    </linearGradient>
    <linearGradient
       x1="-109.17429"
       y1="163.15849"
       x2="-113.28542"
       y2="341.30743"
       id="linearGradient5529"
       xlink:href="#linearGradient5522"
       gradientUnits="userSpaceOnUse"
       gradientTransform="matrix(2.9229274,0,0,2.9229274,471.27702,-454.58647)" />
    <linearGradient
       id="linearGradient5522">
      <stop
         id="stop5524"
         style="stop-color:#ffffff;stop-opacity:1"
         offset="0" />
      <stop
         id="stop5526"
         style="stop-color:#ffffff;stop-opacity:0"
         offset="1" />
    </linearGradient>
    <linearGradient
       x1="-109.17429"
       y1="163.15849"
       x2="-113.28542"
       y2="341.30743"
       id="linearGradient6886"
       xlink:href="#linearGradient5522"
       gradientUnits="userSpaceOnUse"
       gradientTransform="matrix(2.9229274,0,0,2.9229274,471.27702,-454.58647)" />
    <linearGradient
       x1="-7668.9604"
       y1="-11707.119"
       x2="-7725.8379"
       y2="-9479.4238"
       id="linearGradient6888"
       xlink:href="#linearGradient6097-2"
       gradientUnits="userSpaceOnUse"
       gradientTransform="matrix(0.15300974,0,0,0.15300974,1328.0213,1818.2424)" />
    <linearGradient
       x1="174.23146"
       y1="209.90202"
       x2="169.38644"
       y2="310.67828"
       id="linearGradient6890"
       xlink:href="#linearGradient6636"
       gradientUnits="userSpaceOnUse"
       gradientTransform="matrix(2.9229274,0,0,2.9229274,151.16123,-508.91522)" />
    <linearGradient
       x1="-7668.9604"
       y1="-11707.119"
       x2="-7725.8379"
       y2="-9479.4238"
       id="linearGradient6892"
       xlink:href="#linearGradient6097-2"
       gradientUnits="userSpaceOnUse"
       gradientTransform="matrix(0.15518081,0,0,0.15559098,1844.8886,1837.7326)" />
    <linearGradient
       x1="-7668.9604"
       y1="-11707.119"
       x2="-7725.8379"
       y2="-9479.4238"
       id="linearGradient6616"
       xlink:href="#linearGradient6097-2-7"
       gradientUnits="userSpaceOnUse"
       gradientTransform="matrix(0.15096114,0,0,0.14465384,1322.8813,1735.9314)" />
    <linearGradient
       id="linearGradient6097-2-7">
      <stop
         id="stop6099-1-4"
         style="stop-color:#ffffff;stop-opacity:1"
         offset="0" />
      <stop
         id="stop6101-2-0"
         style="stop-color:#ffffff;stop-opacity:0"
         offset="1" />
    </linearGradient>
    <linearGradient
       x1="-37.011112"
       y1="439.55563"
       x2="-36.04211"
       y2="558.74292"
       id="linearGradient6624"
       xlink:href="#linearGradient6618"
       gradientUnits="userSpaceOnUse"
       gradientTransform="matrix(2.7633056,0,0,2.7633056,252.31155,-1023.7687)" />
    <linearGradient
       id="linearGradient6618">
      <stop
         id="stop6620"
         style="stop-color:#00e4c6;stop-opacity:1"
         offset="0" />
      <stop
         id="stop6622"
         style="stop-color:#00e4c6;stop-opacity:0"
         offset="1" />
    </linearGradient>
    <filter
       color-interpolation-filters="sRGB"
       id="filter6357-4">
      <feGaussianBlur
         id="feGaussianBlur6359-6"
         stdDeviation="0.78190263" />
    </filter>
    <linearGradient
       x1="-7668.9604"
       y1="-11707.119"
       x2="-7725.8379"
       y2="-9479.4238"
       id="linearGradient6596"
       xlink:href="#linearGradient6097-2-7"
       gradientUnits="userSpaceOnUse"
       gradientTransform="matrix(0.14670635,0,0,0.14709413,1767.8593,1749.0021)" />
    <linearGradient
       id="linearGradient6915">
      <stop
         id="stop6917"
         style="stop-color:#ffffff;stop-opacity:1"
         offset="0" />
      <stop
         id="stop6919"
         style="stop-color:#ffffff;stop-opacity:0"
         offset="1" />
    </linearGradient>
    <linearGradient
       x1="150.97539"
       y1="434.71063"
       x2="152.91339"
       y2="530.64185"
       id="linearGradient6604"
       xlink:href="#linearGradient6598"
       gradientUnits="userSpaceOnUse"
       gradientTransform="matrix(2.7633056,0,0,2.7633056,198.75856,-986.28156)" />
    <linearGradient
       id="linearGradient6598">
      <stop
         id="stop6600"
         style="stop-color:#ff0021;stop-opacity:1;"
         offset="0" />
      <stop
         id="stop6602"
         style="stop-color:#ff0018;stop-opacity:0;"
         offset="1" />
    </linearGradient>
    <linearGradient
       x1="-37.011112"
       y1="439.55563"
       x2="-36.04211"
       y2="558.74292"
       id="linearGradient7022"
       xlink:href="#linearGradient6618"
       gradientUnits="userSpaceOnUse"
       gradientTransform="matrix(2.7633056,0,0,2.7633056,252.31155,-1023.7687)" />
    <linearGradient
       x1="-7668.9604"
       y1="-11707.119"
       x2="-7725.8379"
       y2="-9479.4238"
       id="linearGradient7024"
       xlink:href="#linearGradient6097-2-7"
       gradientUnits="userSpaceOnUse"
       gradientTransform="matrix(0.15096114,0,0,0.14465384,1322.8813,1735.9314)" />
    <linearGradient
       x1="150.97539"
       y1="434.71063"
       x2="152.91339"
       y2="530.64185"
       id="linearGradient7026"
       xlink:href="#linearGradient6598"
       gradientUnits="userSpaceOnUse"
       gradientTransform="matrix(2.7633056,0,0,2.7633056,198.75856,-986.28156)" />
    <linearGradient
       x1="-7668.9604"
       y1="-11707.119"
       x2="-7725.8379"
       y2="-9479.4238"
       id="linearGradient7028"
       xlink:href="#linearGradient6097-2-7"
       gradientUnits="userSpaceOnUse"
       gradientTransform="matrix(0.14670635,0,0,0.14709413,1767.8593,1749.0021)" />
    <linearGradient
       inkscape:collect="always"
       xlink:href="#linearGradient6636"
       id="linearGradient3215"
       gradientUnits="userSpaceOnUse"
       gradientTransform="matrix(2.7633056,0,0,2.7633056,198.75856,-986.28156)"
       x1="150.97539"
       y1="434.71063"
       x2="152.91339"
       y2="530.64185" />
    <linearGradient
       inkscape:collect="always"
       xlink:href="#linearGradient6097-2-7"
       id="linearGradient3217"
       gradientUnits="userSpaceOnUse"
       gradientTransform="matrix(0.14670635,0,0,0.14709413,1767.8593,1749.0021)"
       x1="-7668.9604"
       y1="-11707.119"
       x2="-7725.8379"
       y2="-9479.4238" />
    <linearGradient
       inkscape:collect="always"
       xlink:href="#linearGradient662"
       id="linearGradient2613"
       gradientUnits="userSpaceOnUse"
       gradientTransform="matrix(1.5268664,0,0,0.4333053,-113.5668,-298.40825)"
       spreadMethod="reflect"
       x1="79.615402"
       y1="983.85266"
       x2="128.04625"
       y2="983.85809" />
    <linearGradient
       id="linearGradient662">
      <stop
         id="stop663"
         offset="0"
         style="stop-color: rgb(133, 61, 0); stop-opacity: 1;" />
      <stop
         id="stop664"
         offset="1"
         style="stop-color: rgb(255, 234, 0); stop-opacity: 1;" />
    </linearGradient>
    <linearGradient
       inkscape:collect="always"
       xlink:href="#linearGradient662"
       id="linearGradient2615"
       gradientUnits="userSpaceOnUse"
       gradientTransform="matrix(1.6139151,0,0,0.4099342,-113.5668,-298.40825)"
       spreadMethod="reflect"
       x1="71.826027"
       y1="941.45758"
       x2="115.08168"
       y2="939.13007" />
    <linearGradient
       id="linearGradient3595">
      <stop
         id="stop3597"
         offset="0"
         style="stop-color: rgb(133, 61, 0); stop-opacity: 1;" />
      <stop
         id="stop3599"
         offset="1"
         style="stop-color: rgb(255, 234, 0); stop-opacity: 1;" />
    </linearGradient>
    <linearGradient
       inkscape:collect="always"
       xlink:href="#linearGradient662"
       id="linearGradient2617"
       gradientUnits="userSpaceOnUse"
       gradientTransform="matrix(2.0476865,0,0,0.3230954,-113.5668,-298.40825)"
       spreadMethod="reflect"
       x1="65.569817"
       y1="1363.2657"
       x2="104.15134"
       y2="1345.3002" />
    <linearGradient
       id="linearGradient3602">
      <stop
         id="stop3604"
         offset="0"
         style="stop-color: rgb(133, 61, 0); stop-opacity: 1;" />
      <stop
         id="stop3606"
         offset="1"
         style="stop-color: rgb(255, 234, 0); stop-opacity: 1;" />
    </linearGradient>
    <linearGradient
       inkscape:collect="always"
       xlink:href="#linearGradient662"
       id="linearGradient2619"
       gradientUnits="userSpaceOnUse"
       gradientTransform="matrix(2.0193481,0,0,0.32763,-113.5668,-298.40825)"
       spreadMethod="reflect"
       x1="66.687035"
       y1="1247.5718"
       x2="105.91934"
       y2="1229.3033" />
    <linearGradient
       id="linearGradient3609">
      <stop
         id="stop3611"
         offset="0"
         style="stop-color: rgb(133, 61, 0); stop-opacity: 1;" />
      <stop
         id="stop3613"
         offset="1"
         style="stop-color: rgb(255, 234, 0); stop-opacity: 1;" />
    </linearGradient>
    <linearGradient
       inkscape:collect="always"
       xlink:href="#linearGradient662"
       id="linearGradient2621"
       gradientUnits="userSpaceOnUse"
       gradientTransform="scale(1.03175,0.969223)"
       x1="449.47934"
       y1="584.73096"
       x2="469.4697"
       y2="584.73096" />
    <linearGradient
       id="linearGradient3616">
      <stop
         id="stop3618"
         offset="0"
         style="stop-color: rgb(133, 61, 0); stop-opacity: 1;" />
      <stop
         id="stop3620"
         offset="1"
         style="stop-color: rgb(255, 234, 0); stop-opacity: 1;" />
    </linearGradient>
    <linearGradient
       inkscape:collect="always"
       xlink:href="#linearGradient723"
       id="linearGradient2623"
       gradientUnits="userSpaceOnUse"
       gradientTransform="scale(0.941795,1.0618)"
       x1="541.83704"
       y1="536.29382"
       x2="553.81549"
       y2="536.29382" />
    <linearGradient
       id="linearGradient723">
      <stop
         id="stop724"
         offset="0"
         style="stop-color: rgb(0, 106, 0); stop-opacity: 1;" />
      <stop
         id="stop725"
         offset="1"
         style="stop-color: rgb(255, 255, 183); stop-opacity: 1;" />
    </linearGradient>
    <linearGradient
       inkscape:collect="always"
       xlink:href="#linearGradient662"
       id="linearGradient2625"
       gradientUnits="userSpaceOnUse"
       gradientTransform="scale(1.03175,0.969223)"
       x1="449.47934"
       y1="584.73096"
       x2="469.4697"
       y2="584.73096" />
    <linearGradient
       id="linearGradient3627">
      <stop
         id="stop3629"
         offset="0"
         style="stop-color: rgb(133, 61, 0); stop-opacity: 1;" />
      <stop
         id="stop3631"
         offset="1"
         style="stop-color: rgb(255, 234, 0); stop-opacity: 1;" />
    </linearGradient>
    <linearGradient
       inkscape:collect="always"
       xlink:href="#linearGradient723"
       id="linearGradient2627"
       gradientUnits="userSpaceOnUse"
       gradientTransform="scale(0.941795,1.0618)"
       x1="541.83704"
       y1="536.29382"
       x2="553.81549"
       y2="536.29382" />
    <linearGradient
       id="linearGradient3634">
      <stop
         id="stop3636"
         offset="0"
         style="stop-color: rgb(0, 106, 0); stop-opacity: 1;" />
      <stop
         id="stop3638"
         offset="1"
         style="stop-color: rgb(255, 255, 183); stop-opacity: 1;" />
    </linearGradient>
    <linearGradient
       inkscape:collect="always"
       xlink:href="#linearGradient662"
       id="linearGradient2629"
       gradientUnits="userSpaceOnUse"
       gradientTransform="scale(1.26491,0.790568)"
       x1="242.60658"
       y1="692.75824"
       x2="270.27655"
       y2="692.75824" />
    <linearGradient
       id="linearGradient3641">
      <stop
         id="stop3643"
         offset="0"
         style="stop-color: rgb(133, 61, 0); stop-opacity: 1;" />
      <stop
         id="stop3645"
         offset="1"
         style="stop-color: rgb(255, 234, 0); stop-opacity: 1;" />
    </linearGradient>
    <linearGradient
       inkscape:collect="always"
       xlink:href="#linearGradient702"
       id="linearGradient2631"
       gradientUnits="userSpaceOnUse"
       gradientTransform="scale(1.66567,0.600359)"
       x1="210.69629"
       y1="994.62329"
       x2="215.93205"
       y2="983.82104" />
    <linearGradient
       id="linearGradient702">
      <stop
         id="stop703"
         offset="0"
         style="stop-color: rgb(255, 90, 0); stop-opacity: 1;" />
      <stop
         id="stop704"
         offset="1"
         style="stop-color: rgb(255, 255, 255); stop-opacity: 1;" />
    </linearGradient>
    <linearGradient
       inkscape:collect="always"
       xlink:href="#linearGradient662"
       id="linearGradient2633"
       gradientUnits="userSpaceOnUse"
       gradientTransform="scale(1.26491,0.790568)"
       x1="242.60658"
       y1="692.75824"
       x2="270.27655"
       y2="692.75824" />
    <linearGradient
       id="linearGradient3652">
      <stop
         id="stop3654"
         offset="0"
         style="stop-color: rgb(133, 61, 0); stop-opacity: 1;" />
      <stop
         id="stop3656"
         offset="1"
         style="stop-color: rgb(255, 234, 0); stop-opacity: 1;" />
    </linearGradient>
    <linearGradient
       inkscape:collect="always"
       xlink:href="#linearGradient702"
       id="linearGradient2635"
       gradientUnits="userSpaceOnUse"
       gradientTransform="scale(1.66567,0.600359)"
       x1="210.69629"
       y1="994.62329"
       x2="215.93205"
       y2="983.82104" />
    <linearGradient
       id="linearGradient3659">
      <stop
         id="stop3661"
         offset="0"
         style="stop-color: rgb(255, 90, 0); stop-opacity: 1;" />
      <stop
         id="stop3663"
         offset="1"
         style="stop-color: rgb(255, 255, 255); stop-opacity: 1;" />
    </linearGradient>
    <linearGradient
       inkscape:collect="always"
       xlink:href="#linearGradient662"
       id="linearGradient2637"
       gradientUnits="userSpaceOnUse"
       gradientTransform="scale(1.26491,0.790568)"
       x1="242.60658"
       y1="692.75824"
       x2="270.27655"
       y2="692.75824" />
    <linearGradient
       id="linearGradient3666">
      <stop
         id="stop3668"
         offset="0"
         style="stop-color: rgb(133, 61, 0); stop-opacity: 1;" />
      <stop
         id="stop3670"
         offset="1"
         style="stop-color: rgb(255, 234, 0); stop-opacity: 1;" />
    </linearGradient>
    <linearGradient
       inkscape:collect="always"
       xlink:href="#linearGradient702"
       id="linearGradient2639"
       gradientUnits="userSpaceOnUse"
       gradientTransform="scale(1.47907,0.676099)"
       x1="-125.46559"
       y1="1137.5801"
       x2="-121.23284"
       y2="1128.8472" />
    <linearGradient
       id="linearGradient3673">
      <stop
         id="stop3675"
         offset="0"
         style="stop-color: rgb(255, 90, 0); stop-opacity: 1;" />
      <stop
         id="stop3677"
         offset="1"
         style="stop-color: rgb(255, 255, 255); stop-opacity: 1;" />
    </linearGradient>
    <linearGradient
       inkscape:collect="always"
       xlink:href="#linearGradient662"
       id="linearGradient2641"
       gradientUnits="userSpaceOnUse"
       gradientTransform="scale(0.656238,1.52384)"
       x1="753.72913"
       y1="318.48154"
       x2="769.88824"
       y2="318.48154" />
    <linearGradient
       id="linearGradient3680">
      <stop
         id="stop3682"
         offset="0"
         style="stop-color: rgb(133, 61, 0); stop-opacity: 1;" />
      <stop
         id="stop3684"
         offset="1"
         style="stop-color: rgb(255, 234, 0); stop-opacity: 1;" />
    </linearGradient>
    <linearGradient
       inkscape:collect="always"
       xlink:href="#linearGradient723"
       id="linearGradient2643"
       gradientUnits="userSpaceOnUse"
       gradientTransform="scale(0.725561,1.37824)"
       x1="695.97632"
       y1="366.04816"
       x2="704.06763"
       y2="356.69254" />
    <linearGradient
       id="linearGradient3687">
      <stop
         id="stop3689"
         offset="0"
         style="stop-color: rgb(0, 106, 0); stop-opacity: 1;" />
      <stop
         id="stop3691"
         offset="1"
         style="stop-color: rgb(255, 255, 183); stop-opacity: 1;" />
    </linearGradient>
    <linearGradient
       inkscape:collect="always"
       xlink:href="#linearGradient662"
       id="linearGradient2645"
       gradientUnits="userSpaceOnUse"
       gradientTransform="scale(0.656238,1.52384)"
       x1="753.72913"
       y1="318.48154"
       x2="769.88824"
       y2="318.48154" />
    <linearGradient
       id="linearGradient3694">
      <stop
         id="stop3696"
         offset="0"
         style="stop-color: rgb(133, 61, 0); stop-opacity: 1;" />
      <stop
         id="stop3698"
         offset="1"
         style="stop-color: rgb(255, 234, 0); stop-opacity: 1;" />
    </linearGradient>
    <linearGradient
       inkscape:collect="always"
       xlink:href="#linearGradient723"
       id="linearGradient2647"
       gradientUnits="userSpaceOnUse"
       gradientTransform="scale(0.725561,1.37824)"
       x1="695.97632"
       y1="366.04816"
       x2="704.06763"
       y2="356.69254" />
    <linearGradient
       id="linearGradient3701">
      <stop
         id="stop3703"
         offset="0"
         style="stop-color: rgb(0, 106, 0); stop-opacity: 1;" />
      <stop
         id="stop3705"
         offset="1"
         style="stop-color: rgb(255, 255, 183); stop-opacity: 1;" />
    </linearGradient>
  </defs>
  <metadata
     id="metadata4">
    <rdf:RDF>
      <cc:Work
         rdf:about="">
        <dc:format>image/svg+xml</dc:format>
        <dc:type
           rdf:resource="http://purl.org/dc/dcmitype/StillImage" />
        <dc:title></dc:title>
      </cc:Work>
    </rdf:RDF>
  </metadata>
  <path
     d="m 154.36579,377.77014 c -19.77503,0.33019 -39.17881,4.90743 -57.75,11.5 -6.47856,22.61463 -11.32179,45.84002 -12.26592,69.40377 -0.32193,12.95782 0.34882,26.40445 5.78511,38.37057 2.33565,5.34507 6.21109,9.83012 10.76142,13.44142 11.8959,10.02823 24.96792,18.50687 37.86884,27.1674 5.0653,3.33616 10.18946,6.58343 15.28805,9.86684 18.55115,-10.24981 36.86087,-20.98729 54.0182,-33.4428 5.60375,-4.23336 11.21556,-8.84494 14.46673,-15.17546 4.01957,-7.81718 5.68014,-16.59212 6.37257,-25.27641 1.33358,-18.69391 -1.22771,-37.44111 -4.89242,-55.72917 -1.99014,-9.62699 -4.32772,-19.18225 -7.05883,-28.62616 -19.60531,-7.0228 -40.18496,-11.96329 -61.12919,-11.51356 -0.48819,0.005 -0.97637,0.009 -1.46456,0.0136 z"
     transform="matrix(2.7633056,0,0,2.7633056,-176.40882,-1026.1291)"
     id="path6734"
     style="fill:#000000;fill-opacity:1;stroke:none;filter:url(#filter6357-4)"
     inkscape:connector-curvature="0" />
  <path
     d="m 470.87995,96.702085 c 136.90934,-49.24498 233.07761,-31.55826 320.80234,0 0,0 73.73135,239.084225 0,312.815545 -39.53264,39.53256 -167.72237,109.15266 -167.72237,109.15266 0,0 -116.9987,-73.07134 -153.07997,-109.15266 -73.73132,-73.73132 0,-312.815545 0,-312.815545 z"
     id="path6588"
     style="fill:#926d0c;fill-opacity:1;stroke:#75570a;stroke-width:5.79939364999999984;stroke-linecap:round;stroke-linejoin:round;stroke-miterlimit:4;stroke-opacity:1"
     inkscape:connector-curvature="0"
     transform="translate(-375.16738,-39.847589)" />
  <path
     d="m 636.22186,77.469309 c -1.80971,-0.01121 -3.62463,-0.01121 -5.45009,0.0056 -43.7807,0.340656 -92.29064,8.188926 -148.2496,27.636691 -4.72646,16.43726 -17.95226,65.13602 -25.31087,120.21802 -4.52079,33.8398 -6.69658,69.78224 -3.41401,100.91886 3.28263,31.13668 12.17608,56.86071 27.28119,71.96584 16.13091,16.13094 54.56173,43.85563 88.10105,66.48503 24.21921,16.34103 45.72739,30.09882 56.02366,36.62358 11.13225,-6.16636 34.95043,-19.53304 61.69312,-35.68893 36.69522,-22.16838 78.71572,-49.97763 96.15776,-67.41968 15.10516,-15.10513 23.99861,-40.82916 27.28121,-71.96584 3.28258,-31.13662 1.10679,-67.07906 -3.41401,-100.91886 C 799.5593,170.2224 786.32229,121.50427 781.60161,105.0896 736.54243,89.320035 689.79991,77.811422 636.22186,77.470458 z"
     id="path6590"
     style="fill:url(#linearGradient3215);fill-opacity:1;stroke:#fff4a5;stroke-width:5;stroke-linecap:round;stroke-linejoin:round;stroke-miterlimit:4;stroke-opacity:0.99470901;stroke-dasharray:none"
     inkscape:connector-curvature="0"
     transform="translate(-375.16738,-39.847589)" />
  <path
     d="m 632.13203,65.89126 c -44.82789,0.06559 -94.34928,7.604325 -150.97916,26.522845 a 19.500958,19.552503 0 0 0 -12.65798,13.436165 c -7.19385,26.61871 -22.00469,86.12168 -27.56244,147.19987 a 19.500958,19.552503 0 0 0 25.58189,20.32193 c 107.33219,-35.83138 217.42719,-48.83879 328.69554,-49.77299 a 19.500958,19.552503 0 0 0 19.07182,-22.73987 c -6.77271,-41.08705 -15.69837,-76.3055 -20.84604,-95.10088 A 19.500958,19.552503 0 0 0 780.8785,92.414105 C 735.03153,76.881536 686.93138,65.811233 632.13203,65.89126 z"
     id="path6592"
     style="fill:url(#linearGradient3217);fill-opacity:1;stroke:none"
     inkscape:connector-curvature="0"
     transform="translate(-375.16738,-39.847589)" />
  <g
     id="g2575"
     transform="matrix(1.2159183,0,0,1.2159183,72.461312,-46.011303)">
    <path
       inkscape:connector-curvature="0"
       style="font-size:12px;fill:url(#linearGradient2613);fill-rule:evenodd;stroke-width:1"
       sodipodi:nodetypes="ccccccc"
       id="path615"
       d="M 296.86871,83.911566 C 295.67198,111.18859 212.3624,131.75249 144.2857,130.15508 80.131795,128.64974 3.5550321,108.25137 4.3283195,80.397325 l -1.254162,36.783655 c -0.6559156,24.93756 95.9762195,45.46315 142.2663425,46.54935 42.1294,0.98851 149.67255,-15.11363 150.39037,-43.79416 l 1.13784,-36.024604 z" />
    <path
       inkscape:connector-curvature="0"
       style="font-size:12px;fill:url(#linearGradient2615);fill-rule:evenodd;stroke:none"
       sodipodi:nodetypes="cccccccccccccccccccccccccccccccccccccccccccccccccccccccccccccccccccccccccccccccccccccccccccccccccccccccccccc"
       id="path675"
       d="m 295.06617,86.607864 c -1.65045,0.772799 -3.91533,-0.142587 -3.9734,-0.805417 0.48161,-1.701362 0.97688,-6.458296 3.00799,-9.403653 1.67598,-7.818198 2.48872,-16.878764 -2.85109,1.858916 2.48327,-5.461327 2.2713,-11.524805 1.83256,-13.766745 -0.44321,-2.890372 -2.29822,-6.810574 -3.44827,-9.405035 -1.16583,3.740118 -4.23921,6.318312 -4.06669,15.1129 0.0137,2.400388 0.0845,3.714496 1.90536,8.214644 -5.53185,-2.454641 -10.28553,3.945254 -7.77786,13.21421 4.61166,-10.691815 11.72051,-9.359242 7.61558,-0.688207 -0.36008,0.77711 -2.22331,3.650157 -4.54781,7.554823 7.23435,-4.478429 12.43263,-11.267937 12.30363,-11.886436 z m -24.08994,18.444376 c -5.13792,0.25638 -4.79386,-3.67163 -4.23717,-6.364841 0.76434,-3.493499 4.96467,-10.732566 10.56704,-4.869588 4.41986,-13.963422 -3.89532,-15.396285 -9.51777,-5.645559 2.69027,-4.674375 2.34255,-7.335128 0.51031,-12.242538 -1.83223,-4.90741 -2.65985,-4.44077 -4.32884,-7.870906 -1.71088,4.461837 -3.67172,6.161572 -4.67186,11.453715 -0.81599,5.271401 -0.30095,6.726063 2.51898,11.553273 -7.56344,-3.924838 -16.40618,5.415208 -11.84463,13.962444 5.11955,-7.812259 12.30656,-8.355195 11.73889,-2.13303 -0.40303,2.43935 -0.7314,4.6438 -4.49535,8.32063 4.462,-1.42367 10.76567,-3.99584 13.7604,-6.1636 z m -32.55021,12.29085 c -3.91801,-1.67468 -4.29217,-3.48439 -3.84505,-6.02501 0.622,-3.29722 5.33298,-8.51535 12.84233,-5.06138 4.2532,-10.636097 -5.48768,-13.794643 -13.90575,-4.65331 2.29204,-4.263937 3.04459,-8.973694 1.72853,-12.856887 -1.37357,-3.707745 -3.71181,-6.055588 -5.88608,-9.192172 -2.13815,3.625837 -5.98466,7.864805 -6.27699,11.749462 -0.2842,3.884738 1.31102,8.014469 4.07881,12.404237 -12.29492,-6.596407 -19.89196,3.73158 -13.49279,11.17416 3.71059,-5.90731 11.60345,-7.75939 13.85418,-2.36249 1.30776,3.38451 -1.09336,4.88285 -4.7048,8.47891 l 15.60761,-3.65552 z m -54.43246,9.51972 c 3.55304,-3.29113 4.74953,-7.10502 2.93348,-9.8598 -3.72116,-5.28897 -10.76916,-3.75102 -15.3814,1.08124 -7.49349,-8.71675 5.1982,-18.414198 15.58491,-10.67709 -1.81702,-2.99392 -4.32421,-6.53386 -3.77029,-11.469011 0.554,-4.935065 3.99145,-7.836825 6.72346,-11.385065 2.82554,3.531159 4.52129,3.424524 6.33425,8.081736 1.81296,4.657131 -1.52673,10.87174 -2.77519,13.84133 8.99923,-8.343807 21.59909,-0.77312 15.95801,9.29507 -3.99707,-5.37747 -12.76766,-4.99257 -14.79275,0.51764 -1.4214,4.20188 0.67413,6.96861 4.89488,9.07618 l -15.70936,1.49777 z m -27.97556,2.6475 c -5.08237,-4.44321 -5.94513,-7.66122 -4.28411,-10.74452 2.68141,-4.37343 10.66456,-5.70844 15.78272,-0.3304 6.6858,-9.35062 -5.84394,-17.97017 -15.49885,-9.33704 1.54267,-3.14407 5.09563,-8.00991 4.10362,-12.875922 -0.99217,-4.865927 -5.495,-6.345479 -7.19051,-10.193452 -2.49913,3.769237 -5.99849,5.360873 -7.38857,10.161242 -1.39016,4.800372 1.42099,9.808642 2.92958,12.655002 -11.38791,-8.33282 -22.87245,0.2899 -15.37896,9.72137 5.05943,-4.87569 12.24783,-4.97834 15.09387,0.15617 2.25569,3.76761 0.95028,7.15203 -3.94908,10.69751 l 15.78029,0.09 z m -44.13115,-1.83256 c -3.51522,-3.33148 -4.66811,-7.15879 -2.82083,-9.89267 3.78136,-5.24618 10.8113,-3.62795 15.36806,1.25669 7.59249,-8.63077 -4.98777,-18.47236 -15.46208,-10.85425 1.8511,-2.97301 4.39855,-6.48408 3.90092,-11.425165 -0.49771,-4.941085 -3.90182,-7.881968 -6.59316,-11.461117 -2.86556,3.498786 -4.56009,3.372792 -6.426,8.009019 -1.865992,4.636146 1.40252,10.888413 2.61707,13.871993 -8.903416,-8.445886 -21.588929,-1.01941 -16.063015,9.11255 4.058234,-5.3316 12.823785,-4.84665 14.785915,0.68633 1.37333,4.21782 -0.7536,6.9604 -4.998099,9.01974 l 15.691219,1.67688 z m -53.834049,-9.40162 c 3.936876,-1.62987 4.331613,-3.4351 3.913614,-5.98068 -0.584419,-3.30414 -5.235531,-8.5757 -12.783848,-5.20763 -4.131519,-10.683925 5.644665,-13.731118 13.957972,-4.49437 -2.243241,-4.289808 -2.942103,-9.007861 -1.581713,-12.875681 1.415701,-3.691884 3.780543,-6.012885 5.990517,-9.124499 2.096587,3.649995 5.894537,7.932561 6.142539,11.820309 0.239868,3.887748 -1.402361,7.998931 -4.220017,12.356901 12.369349,-6.455694 19.84804,3.95827 13.364366,11.32731 -3.642922,-5.94927 -11.514153,-7.89124 -13.826288,-2.52036 -1.346238,3.36938 1.037557,4.89505 4.607758,8.53211 l -15.5649,-3.83341 z M 26.377788,106.10956 c 5.13467,0.31494 4.835506,-3.61673 4.30957,-6.316117 -0.724403,-3.50204 -4.841932,-10.788527 -10.510836,-4.989807 -4.260279,-14.012956 4.070679,-15.350897 9.581541,-5.536565 -2.636758,-4.704795 -2.258695,-7.3614 -0.370579,-12.247662 1.888116,-4.8861 2.710369,-4.410105 4.41832,-7.821045 1.65988,4.481114 3.601191,6.203136 4.540898,11.506341 0.755799,5.280348 0.224169,6.728991 -2.650586,11.523828 7.607694,-3.838375 16.343312,5.601962 11.684554,14.096657 -5.030069,-7.870258 -12.210409,-8.495102 -11.713754,-2.26683 0.375134,2.44382 0.678365,4.65176 4.4001,8.3713 -4.445487,-1.47443 -10.719307,-4.11834 -13.689228,-6.3201 z M 3.6084717,87.205053 C 5.48821,89.224287 6.9001692,88.522659 6.9699578,87.124771 6.9715032,85.356548 6.8248495,76.736106 3.3308626,78.173768 1.7441878,70.336943 1.5589795,55.384687 6.9018773,79.08826 5.2182467,73.357864 4.9962733,69.501595 5.4605548,67.26486 c 0.4762383,-2.885166 2.3729764,-6.293503 3.5525506,-8.874544 1.1230436,3.753051 4.1696676,5.875666 3.8967766,14.667734 -0.04099,2.400062 -0.126807,3.713357 -1.998818,8.192356 5.850858,-10.482937 10.239815,4.062382 7.626482,13.302138 -4.489329,-10.743709 -11.6128939,-9.492394 -7.607205,-0.775077 0.35122,0.781177 2.181586,3.675291 4.461348,7.606153 C 8.2089092,96.823033 3.472392,87.822007 3.6084717,87.205053 z" />
    <path
       inkscape:connector-curvature="0"
       style="font-size:12px;fill:url(#linearGradient2617);fill-rule:evenodd"
       sodipodi:nodetypes="ccsccsc"
       id="path690"
       d="m 3.0436555,119.06405 c -1.3646201,0 -1.6506884,4.28371 0.190658,5.96766 21.4088445,29.38175 102.8029765,39.7862 145.9664365,39.25506 64.52318,-0.79159 138.16711,-19.0741 146.29627,-40.97838 0.9672,-3.05557 0.96728,-5.60725 0,-5.42749 -9.34298,21.67189 -67.57623,38.16967 -146.51425,41.3492 C 94.994421,161.41876 24.541647,146.73427 3.0436555,119.06405 z" />
    <path
       inkscape:connector-curvature="0"
       style="font-size:12px;fill:url(#linearGradient2619);fill-rule:evenodd"
       sodipodi:nodetypes="ccsccsc"
       id="path692"
       d="m 296.26404,85.395835 c 1.36454,-0.01057 1.68371,2.745752 -0.14454,5.968962 C 277.98885,121.92807 193.62748,133.47037 150.46118,133.27328 85.933854,132.98095 33.927812,123.74282 4.2116798,93.425351 2.3305588,91.462729 1.045732,88.022182 4.1696277,87.998024 35.093884,117.56539 85.945161,129.60311 150.64004,128.21507 c 54.02031,-1.15412 127.39095,-13.45839 145.624,-42.819235 z" />
    <g
       transform="matrix(0.5212105,-0.6244505,0.6244505,0.5212105,-391.94131,135.53718)"
       id="g731">
      <path
         inkscape:connector-curvature="0"
         style="font-size:12px;fill:url(#linearGradient2621);fill-rule:evenodd"
         id="path722"
         d="m 469.0176,568.1882 c -2.0601,0 -3.7186,1.6585 -3.7186,3.7187 l 0,9.0314 c 0,2.0601 1.6585,3.7187 3.7186,3.7187 l 10.094,0 c 2.0601,0 3.7187,-1.6586 3.7187,-3.7187 l 0,-9.0314 c 0,-2.0602 -1.6586,-3.7187 -3.7187,-3.7187 l -10.094,0 z m -0.8906,-1.4532 c -2.4237,0 -4.375,1.9513 -4.375,4.375 l 0,10.6252 c 0,2.4237 1.9513,4.3749 4.375,4.3749 l 11.8752,0 c 2.4237,0 4.3749,-1.9512 4.3749,-4.3749 l 0,-10.6252 c 0,-2.4237 -1.9512,-4.375 -4.3749,-4.375 l -11.8752,0 z" />
      <g
         transform="translate(-40.0002,0.624969)"
         id="g728">
        <rect
           rx="3.0583456"
           y="567.56317"
           x="505.2991"
           width="17.531328"
           style="font-size:12px;fill:#007d00;fill-opacity:1;fill-rule:evenodd"
           ry="3.0583456"
           id="rect727"
           height="16.468801" />
        <rect
           rx="2.3619506"
           y="569.43817"
           x="510.29916"
           width="11.281287"
           style="font-size:12px;fill:url(#linearGradient2623);fill-opacity:1;fill-rule:evenodd"
           ry="2.3619506"
           id="rect719"
           height="12.718804" />
      </g>
    </g>
    <g
       transform="matrix(0.5683406,-0.5818827,0.5818827,0.5683406,-520.90633,89.715003)"
       id="g736">
      <path
         inkscape:connector-curvature="0"
         style="font-size:12px;fill:url(#linearGradient2625);fill-rule:evenodd"
         id="path737"
         d="m 469.0176,568.1882 c -2.0601,0 -3.7186,1.6585 -3.7186,3.7187 l 0,9.0314 c 0,2.0601 1.6585,3.7187 3.7186,3.7187 l 10.094,0 c 2.0601,0 3.7187,-1.6586 3.7187,-3.7187 l 0,-9.0314 c 0,-2.0602 -1.6586,-3.7187 -3.7187,-3.7187 l -10.094,0 z m -0.8906,-1.4532 c -2.4237,0 -4.375,1.9513 -4.375,4.375 l 0,10.6252 c 0,2.4237 1.9513,4.3749 4.375,4.3749 l 11.8752,0 c 2.4237,0 4.3749,-1.9512 4.3749,-4.3749 l 0,-10.6252 c 0,-2.4237 -1.9512,-4.375 -4.3749,-4.375 l -11.8752,0 z" />
      <g
         transform="translate(-40.0002,0.624969)"
         id="g738">
        <rect
           rx="3.0583456"
           y="567.56317"
           x="505.2991"
           width="17.531328"
           style="font-size:12px;fill:#007d00;fill-opacity:1;fill-rule:evenodd"
           ry="3.0583456"
           id="rect739"
           height="16.468801" />
        <rect
           rx="2.3619506"
           y="569.43817"
           x="510.29916"
           width="11.281287"
           style="font-size:12px;fill:url(#linearGradient2627);fill-opacity:1;fill-rule:evenodd"
           ry="2.3619506"
           id="rect740"
           height="12.718804" />
      </g>
    </g>
    <g
       transform="matrix(0.8133874,0,0,0.8133874,-116.08342,-298.76777)"
       id="g741">
      <path
         inkscape:connector-curvature="0"
         style="font-size:12px;fill:url(#linearGradient2629);fill-rule:evenodd"
         id="path698"
         d="m 318.7981,538.3757 c -5.1505,0 -9.2969,4.1465 -9.2969,9.2969 0,5.1505 4.1464,9.2969 9.2969,9.2969 l 11.1563,0 c 5.1505,0 9.2969,-4.1464 9.2969,-9.2969 0,-5.1504 -4.1464,-9.2969 -9.2969,-9.2969 l -11.1563,0 z m -0.9844,-1.6405 c -6.0594,0 -10.9375,4.8781 -10.9375,10.9375 0,6.0594 4.8781,10.9375 10.9375,10.9375 l 13.1251,0 c 6.0593,0 10.9375,-4.8781 10.9375,-10.9375 0,-6.0594 -4.8782,-10.9375 -10.9375,-10.9375 l -13.1251,0 z" />
      <g
         transform="translate(-24.3751,-50.6252)"
         id="g705">
        <rect
           rx="7.6459913"
           y="589.00079"
           x="334.50137"
           width="29.750078"
           style="font-size:12px;fill:#e50000;fill-opacity:1;fill-rule:evenodd"
           ry="7.6459913"
           id="rect695"
           height="18.593801" />
        <rect
           rx="3.0198548"
           y="590.87579"
           x="340.75153"
           width="20.375002"
           style="font-size:12px;fill:url(#linearGradient2631);fill-opacity:1;fill-rule:evenodd"
           ry="3.0198548"
           id="rect700"
           height="7.3437934" />
      </g>
    </g>
    <g
       transform="matrix(0.6168413,0.2944934,-0.336513,0.7650258,15.808001,-389.4141)"
       id="g756">
      <path
         inkscape:connector-curvature="0"
         style="font-size:12px;fill:url(#linearGradient2633);fill-rule:evenodd"
         id="path757"
         d="m 318.7981,538.3757 c -5.1505,0 -9.2969,4.1465 -9.2969,9.2969 0,5.1505 4.1464,9.2969 9.2969,9.2969 l 11.1563,0 c 5.1505,0 9.2969,-4.1464 9.2969,-9.2969 0,-5.1504 -4.1464,-9.2969 -9.2969,-9.2969 l -11.1563,0 z m -0.9844,-1.6405 c -6.0594,0 -10.9375,4.8781 -10.9375,10.9375 0,6.0594 4.8781,10.9375 10.9375,10.9375 l 13.1251,0 c 6.0593,0 10.9375,-4.8781 10.9375,-10.9375 0,-6.0594 -4.8782,-10.9375 -10.9375,-10.9375 l -13.1251,0 z" />
      <g
         transform="translate(-24.3751,-50.6252)"
         id="g758">
        <rect
           rx="7.6459913"
           y="589.00079"
           x="334.50137"
           width="29.750078"
           style="font-size:12px;fill:#e50000;fill-opacity:1;fill-rule:evenodd"
           ry="7.6459913"
           id="rect759"
           height="18.593801" />
        <rect
           rx="3.0198548"
           y="590.87579"
           x="340.75153"
           width="20.375002"
           style="font-size:12px;fill:url(#linearGradient2635);fill-opacity:1;fill-rule:evenodd"
           ry="3.0198548"
           id="rect760"
           height="7.3437934" />
      </g>
    </g>
    <g
       transform="matrix(0.8133874,0,0,0.8133874,-107.97476,-383.81474)"
       id="g772">
      <path
         inkscape:connector-curvature="0"
         transform="matrix(-0.758242,0.362307,0.414026,0.940407,478.926,-5.64075)"
         style="font-size:12px;fill:url(#linearGradient2637);fill-rule:evenodd"
         id="path762"
         d="m 318.7981,538.3757 c -5.1505,0 -9.2969,4.1465 -9.2969,9.2969 0,5.1505 4.1464,9.2969 9.2969,9.2969 l 11.1563,0 c 5.1505,0 9.2969,-4.1464 9.2969,-9.2969 0,-5.1504 -4.1464,-9.2969 -9.2969,-9.2969 l -11.1563,0 z m -0.9844,-1.6405 c -6.0594,0 -10.9375,4.8781 -10.9375,10.9375 0,6.0594 4.8781,10.9375 10.9375,10.9375 l 13.1251,0 c 6.0593,0 10.9375,-4.8781 10.9375,-10.9375 0,-6.0594 -4.8782,-10.9375 -10.9375,-10.9375 l -13.1251,0 z" />
      <rect
         rx="7.6459913"
         y="589.00079"
         x="334.50137"
         width="29.750078"
         transform="matrix(-0.758242,0.362307,0.414026,0.940407,476.448,-62.0803)"
         style="font-size:12px;fill:#e50000;fill-rule:evenodd"
         ry="7.6459913"
         id="rect764"
         height="18.593801" />
      <rect
         rx="2.7493351"
         y="763.42181"
         x="-192.89398"
         width="14.626519"
         transform="matrix(-0.892476,0.451094,0.384255,0.923227,0,0)"
         style="font-size:12px;fill:url(#linearGradient2639);fill-rule:evenodd"
         ry="2.7493351"
         id="rect765"
         height="6.6859336" />
    </g>
    <g
       transform="matrix(0.8133874,0,0,0.8133874,-113.5668,-298.40825)"
       id="g793">
      <path
         inkscape:connector-curvature="0"
         style="font-size:12px;fill:url(#linearGradient2641);fill-rule:evenodd;stroke:none"
         sodipodi:nodetypes="cccccsccccs"
         id="path777"
         d="m 504.0674,506.7257 c 0.322,-1.1505 -1.9438,1.4819 -2.5773,1.1932 l -2.3676,-1.2337 c -2.07,-0.7306 -2.2424,-3.4323 -1.7328,-5.1706 l 4.8252,-12.7248 c 0.8409,-1.8488 3.2516,-0.2584 2.9963,-0.958 -0.7874,-2.2366 -2.7089,-3.5709 -3.9064,-1.4542 l -6.1537,15.0444 c -0.7555,2.1167 -0.9695,5.4262 1.2576,6.4026 l 4.7325,1.9937 c 1.2328,0.5346 2.3745,-0.764 2.9262,-3.0926 z" />
      <path
         inkscape:connector-curvature="0"
         style="font-size:12px;fill:#007d00;fill-rule:evenodd"
         sodipodi:nodetypes="ccccsscc"
         id="path789"
         d="m 497.2145,501.7565 c -0.7227,1.9292 0.1706,4.2985 2.0998,5.0212 l 1.7387,0.9806 c 0.4448,0.3321 1.3297,0.2983 2.365,-0.5372 2.1874,-1.875 4.1796,-5.5885 4.9566,-8.3019 0.4163,-1.4117 -0.8989,-10.3441 -3.77,-11.2932 -0.384,-0.1304 -1.9547,-0.22 -2.4429,1.0061 l -4.9472,13.1244 z" />
      <path
         inkscape:connector-curvature="0"
         transform="matrix(0.949972,0.312336,-0.312336,0.949972,176.357,-134.233)"
         style="font-size:12px;fill:url(#linearGradient2643);fill-rule:evenodd;stroke-width:1"
         sodipodi:nodetypes="cssss"
         id="path791"
         d="m 512.7383,497.9829 c -0.3107,1.1332 -4.0287,5.7704 -6.3564,6.9333 -1.6852,0.8419 -2.1431,-1.8618 -2.005,-7.2769 0.0317,-1.2397 -0.3961,-8.52 2.0395,-8.5569 2.4588,-0.0373 6.7579,7.5227 6.3219,8.9005 z" />
    </g>
    <g
       transform="matrix(-0.8133874,0,0,0.8133874,413.5668,-297.89988)"
       id="g797">
      <path
         inkscape:connector-curvature="0"
         style="font-size:12px;fill:url(#linearGradient2645);fill-rule:evenodd;stroke:none"
         sodipodi:nodetypes="cccccsccccs"
         id="path798"
         d="m 504.0674,506.7257 c 0.322,-1.1505 -1.9438,1.4819 -2.5773,1.1932 l -2.3676,-1.2337 c -2.07,-0.7306 -2.2424,-3.4323 -1.7328,-5.1706 l 4.8252,-12.7248 c 0.8409,-1.8488 3.2516,-0.2584 2.9963,-0.958 -0.7874,-2.2366 -2.7089,-3.5709 -3.9064,-1.4542 l -6.1537,15.0444 c -0.7555,2.1167 -0.9695,5.4262 1.2576,6.4026 l 4.7325,1.9937 c 1.2328,0.5346 2.3745,-0.764 2.9262,-3.0926 z" />
      <path
         inkscape:connector-curvature="0"
         style="font-size:12px;fill:#007d00;fill-rule:evenodd"
         sodipodi:nodetypes="ccccsscc"
         id="path799"
         d="m 497.2145,501.7565 c -0.7227,1.9292 0.1706,4.2985 2.0998,5.0212 l 1.7387,0.9806 c 0.4448,0.3321 1.3297,0.2983 2.365,-0.5372 2.1874,-1.875 4.1796,-5.5885 4.9566,-8.3019 0.4163,-1.4117 -0.8989,-10.3441 -3.77,-11.2932 -0.384,-0.1304 -1.9547,-0.22 -2.4429,1.0061 l -4.9472,13.1244 z" />
      <path
         inkscape:connector-curvature="0"
         transform="matrix(0.949972,0.312336,-0.312336,0.949972,176.357,-134.233)"
         style="font-size:12px;fill:url(#linearGradient2647);fill-rule:evenodd;stroke-width:1"
         sodipodi:nodetypes="cssss"
         id="path800"
         d="m 512.7383,497.9829 c -0.3107,1.1332 -4.0287,5.7704 -6.3564,6.9333 -1.6852,0.8419 -2.1431,-1.8618 -2.005,-7.2769 0.0317,-1.2397 -0.3961,-8.52 2.0395,-8.5569 2.4588,-0.0373 6.7579,7.5227 6.3219,8.9005 z" />
    </g>
  </g>
</svg>
