<svg xmlns="http://www.w3.org/2000/svg" xmlns:xlink="http://www.w3.org/1999/xlink" width="500" height="500"><defs><linearGradient id="a"><stop offset="0" stop-color="#fff"/><stop offset="1" stop-color="#fff" stop-opacity="0"/></linearGradient><linearGradient id="b"><stop offset="0" stop-color="#fc0"/><stop offset="1" stop-color="#fc0" stop-opacity="0"/></linearGradient><linearGradient id="c"><stop offset="0" stop-color="#fff"/><stop offset="1" stop-color="#fff" stop-opacity="0"/></linearGradient><linearGradient id="d"><stop offset="0" stop-color="#fff"/><stop offset=".555" stop-color="#fff" stop-opacity=".498"/><stop offset="1" stop-color="#fff" stop-opacity="0"/></linearGradient><linearGradient id="e"><stop offset="0" stop-color="#00e4c6"/><stop offset="1" stop-color="#00e4c6" stop-opacity="0"/></linearGradient><filter color-interpolation-filters="sRGB" id="j"><feGaussianBlur stdDeviation=".782"/></filter><linearGradient id="f"><stop offset="0" stop-color="#a1a1a1"/><stop offset="1" stop-color="#a6d9d6"/></linearGradient><linearGradient xlink:href="#f" id="k" gradientUnits="userSpaceOnUse" gradientTransform="matrix(2.7633 0 0 2.7633 198.759 -986.282)" x1="150.975" y1="434.711" x2="152.913" y2="530.642"/><linearGradient xlink:href="#d" id="l" gradientUnits="userSpaceOnUse" gradientTransform="matrix(.1467 0 0 .1471 1767.86 1749.002)" x1="-7668.96" y1="-11707.119" x2="-7725.838" y2="-9479.424"/><linearGradient id="g"><stop offset="0" stop-color="#fff"/><stop offset="1" stop-color="#fff" stop-opacity="0"/></linearGradient><linearGradient id="h"><stop offset="0" stop-color="#fff"/><stop offset="1" stop-color="#cacaca" stop-opacity="0"/></linearGradient><radialGradient xlink:href="#g" id="m" cx="200.869" cy="138.828" fx="200.869" fy="138.828" r="45.147" gradientTransform="matrix(1 0 0 .86957 0 18.108)" gradientUnits="userSpaceOnUse"/><linearGradient id="i"><stop offset="0" stop-color="#fff"/><stop offset="1" stop-color="#fff" stop-opacity="0"/></linearGradient><radialGradient r="45.147" fy="138.828" fx="200.869" cy="138.828" cx="200.869" gradientTransform="matrix(1 0 0 .86957 0 18.108)" gradientUnits="userSpaceOnUse" id="n" xlink:href="#i"/></defs><path d="M154.366 377.77c-19.775.33-39.179 4.908-57.75 11.5-6.479 22.615-11.322 45.84-12.266 69.404-.322 12.958.349 26.404 5.785 38.37 2.336 5.346 6.211 9.83 10.761 13.442 11.896 10.028 24.968 18.507 37.87 27.167 5.065 3.336 10.189 6.584 15.287 9.867 18.551-10.25 36.861-20.987 54.018-33.443 5.604-4.233 11.216-8.845 14.467-15.175 4.02-7.817 5.68-16.592 6.373-25.277 1.333-18.693-1.228-37.44-4.893-55.729-1.99-9.627-4.327-19.182-7.058-28.626-19.606-7.023-40.185-11.963-61.13-11.513l-1.464.013z" transform="matrix(2.7633 0 0 2.7633 -176.409 -1026.13)" filter="url(#j)"/><path d="M95.713 56.854c136.909-49.244 233.077-31.558 320.802 0 0 0 73.731 239.085 0 312.816-39.533 39.533-167.722 109.153-167.722 109.153s-117-73.072-153.08-109.153c-73.732-73.731 0-312.816 0-312.816z" fill="#d4d4d4" stroke="#575757" stroke-width="5.799" stroke-linecap="round" stroke-linejoin="round" stroke-opacity=".995"/><path d="M636.222 77.47c-1.81-.012-3.625-.012-5.45.005-43.78.34-92.29 8.189-148.25 27.637-4.726 16.437-17.952 65.136-25.31 120.218-4.521 33.84-6.697 69.782-3.415 100.918 3.283 31.137 12.176 56.861 27.281 71.966 16.131 16.131 54.562 43.856 88.102 66.485 24.219 16.341 45.727 30.1 56.023 36.624 11.132-6.166 34.95-19.533 61.693-35.689 36.696-22.168 78.716-49.978 96.158-67.42 15.105-15.105 23.999-40.829 27.281-71.966 3.283-31.136 1.107-67.079-3.414-100.918-7.362-55.108-20.599-103.826-25.32-120.24-45.059-15.77-91.801-27.279-145.38-27.62z" transform="translate(-375.167 -39.848)" fill="url(#k)" stroke="#45fff2" stroke-width="5" stroke-linecap="round" stroke-linejoin="round" stroke-opacity=".995"/><path d="M632.132 65.891c-44.828.066-94.35 7.605-150.98 26.523a19.501 19.553 0 0 0-12.657 13.436c-7.194 26.619-22.005 86.122-27.563 147.2a19.501 19.553 0 0 0 25.582 20.322c107.333-35.831 217.428-48.839 328.696-49.773a19.501 19.553 0 0 0 19.072-22.74c-6.773-41.087-15.699-76.305-20.846-95.1a19.501 19.553 0 0 0-12.558-13.345c-45.846-15.532-93.947-26.603-148.746-26.523z" transform="translate(-375.167 -39.848)" fill="url(#l)"/><path style="marker:none" d="M246.016 138.828a45.147 39.258 0 1 1-90.293 0 45.147 39.258 0 1 1 90.293 0z" transform="matrix(3.34783 0 0 7.28333 -525.913 -851.362)" color="#000" fill="url(#m)"/><path style="marker:none" d="M246.016 138.828a45.147 39.258 0 1 1-90.293 0 45.147 39.258 0 1 1 90.293 0z" transform="matrix(3.34783 0 0 7.28333 -311.304 -851.362)" color="#000" fill="url(#n)"/><path style="marker:none" d="M416.188 95.195l-9.399-1.43-2.882 8.202-7.05-5.79-7.337 5.493-2.463-8.313-9.462 1.04 2.906-8.195-8.583-3.742 7.353-5.476-4.98-7.338 9.466-1.018.205-8.603 8.572 3.763 5.325-7.137 4.958 7.35 8.754-3.405-.231 8.602 9.403 1.408-5.346 7.124 7.068 5.775-8.764 3.384z" color="#000" fill="#fff"/></svg>
