<svg xmlns="http://www.w3.org/2000/svg" xmlns:xlink="http://www.w3.org/1999/xlink" width="500" height="500"><defs><linearGradient id="a"><stop offset="0" stop-color="#fff"/><stop offset="1" stop-color="#fff" stop-opacity="0"/></linearGradient><linearGradient id="b"><stop offset="0" stop-color="#fc0"/><stop offset="1" stop-color="#fc0" stop-opacity="0"/></linearGradient><linearGradient id="c"><stop offset="0" stop-color="#fff"/><stop offset="1" stop-color="#fff" stop-opacity="0"/></linearGradient><linearGradient id="d"><stop offset="0" stop-color="#fff"/><stop offset="1" stop-color="#fff" stop-opacity="0"/></linearGradient><linearGradient id="e"><stop offset="0" stop-color="#00e4c6"/><stop offset="1" stop-color="#00e4c6" stop-opacity="0"/></linearGradient><filter color-interpolation-filters="sRGB" id="g"><feGaussianBlur stdDeviation=".782"/></filter><linearGradient id="f"><stop offset="0" stop-color="#fdff7d"/><stop offset="1" stop-color="#fdff32" stop-opacity="0"/></linearGradient><linearGradient xlink:href="#f" id="h" gradientUnits="userSpaceOnUse" gradientTransform="matrix(2.7633 0 0 2.7633 198.759 -986.282)" x1="150.975" y1="434.711" x2="152.913" y2="530.642"/><linearGradient xlink:href="#d" id="i" gradientUnits="userSpaceOnUse" gradientTransform="matrix(.1467 0 0 .1471 1767.86 1749.002)" x1="-7668.96" y1="-11707.119" x2="-7725.838" y2="-9479.424"/></defs><path style="marker:none" d="M722.304 715.482a111.37 111.37 0 1 1-222.74 0 111.37 111.37 0 1 1 222.74 0z" opacity=".991" color="#000" fill="#f93300" stroke="#fdff06" stroke-width="1.4724542400000002" stroke-opacity=".995" overflow="visible" enable-background="accumulate"/><path d="M154.366 377.77c-19.775.33-39.179 4.908-57.75 11.5-6.479 22.615-11.322 45.84-12.266 69.404-.322 12.958.349 26.404 5.785 38.37 2.336 5.346 6.211 9.83 10.761 13.442 11.896 10.028 24.968 18.507 37.87 27.167 5.065 3.336 10.189 6.584 15.287 9.867 18.551-10.25 36.861-20.987 54.018-33.443 5.604-4.233 11.216-8.845 14.467-15.175 4.02-7.817 5.68-16.592 6.373-25.277 1.333-18.693-1.228-37.44-4.893-55.729-1.99-9.627-4.327-19.182-7.058-28.626-19.606-7.023-40.185-11.963-61.13-11.513l-1.464.013z" transform="matrix(2.7633 0 0 2.7633 -176.409 -1026.13)" filter="url(#g)"/><path d="M95.713 56.854c136.909-49.244 233.077-31.558 320.802 0 0 0 73.731 239.085 0 312.816-39.533 39.533-167.722 109.153-167.722 109.153s-117-73.072-153.08-109.153c-73.732-73.731 0-312.816 0-312.816z" fill="#e0d400" stroke="#fdff06" stroke-width="5.799" stroke-linecap="round" stroke-linejoin="round" stroke-opacity=".995"/><path d="M636.222 77.47c-1.81-.012-3.625-.012-5.45.005-43.78.34-92.29 8.189-148.25 27.637-4.726 16.437-17.952 65.136-25.31 120.218-4.521 33.84-6.697 69.782-3.415 100.918 3.283 31.137 12.176 56.861 27.281 71.966 16.131 16.131 54.562 43.856 88.102 66.485 24.219 16.341 45.727 30.1 56.023 36.624 11.132-6.166 34.95-19.533 61.693-35.689 36.696-22.168 78.716-49.978 96.158-67.42 15.105-15.105 23.999-40.829 27.281-71.966 3.283-31.136 1.107-67.079-3.414-100.918-7.362-55.108-20.599-103.826-25.32-120.24-45.059-15.77-91.801-27.279-145.38-27.62z" transform="translate(-375.167 -39.848)" fill="url(#h)" stroke="#fffddc" stroke-width="5.799" stroke-linecap="round" stroke-linejoin="round" stroke-opacity=".995" opacity=".991"/><g fill="#f93300" stroke="#551900" stroke-width="4.431" stroke-opacity=".995"><g stroke-width="1.9" opacity=".789"><path transform="matrix(-.33027 .57204 -.57204 -.33027 1063.083 647.296)" d="M-243.313 520.438c-9.889 1.308-24.267 4.015-30.093 10.343l-63.25 71.094c-8.91 11.346-13.979 16.356-17.5 27.844l-29.938 90.312c-1.943 9.176 2.33 24.6 6.406 31.813l22.532 39.031c6.073 7.906 15.615 18.996 24 20.875l93.219 19.219c15.1 2.895 22.674 1.999 33.218 0l93.219-19.219c8.916-2.906 20.132-14.326 24.344-21.469l22.531-39c3.796-9.218 8.656-23.055 6.094-31.25L-88.5 629.72c-4.829-12.03-9.066-20.093-15.75-27.844l-63.25-71.094c-6.974-6.269-22.47-10.268-30.75-10.343zm73.032 52.437l42.437 47.688c7.757 7.342 8.203 10.394 11.344 20.25l19.781 59.593c-57.162-53.697-67.75-18.304-125.452-12.914 55.827-37.248 51.89-47.463 51.89-114.617zm-101.031.781c-17.655 74.41 16.844 67.97 49.142 114.4-59.36-29.085-66.69-19.785-124.08 13.35l20.094-60.593c4.951-12.664 5.814-12.272 13.094-20.25zm49.142 116.456c5.98 63.574 20.417 66.335 75.607 98.2l-62.53 12.875c-13.694 2.353-14.661 2.174-24.47 0l-61.5-12.687c73.22-22.218 50.029-47.252 72.892-98.388z" stroke-width="2.212"/><path transform="matrix(-.28526 .49408 -.46609 -.2691 846.136 577.621)" d="M-291.429 172.362a48.571 48.571 0 1 1-97.142 0 48.571 48.571 0 1 1 97.142 0z" stroke-width="2.637"/></g><path transform="matrix(-.28526 -.49408 .46609 -.2691 445.424 241.853)" d="M-291.429 172.362a48.571 48.571 0 1 1-97.142 0 48.571 48.571 0 1 1 97.142 0z" stroke-width="2.637" opacity=".789"/><path transform="matrix(.57051 0 0 .5382 936.819 61.898)" d="M-291.429 172.362a48.571 48.571 0 1 1-97.142 0 48.571 48.571 0 1 1 97.142 0z" stroke-width="2.637" opacity=".789"/></g><g fill="#f93300" stroke="#551900" stroke-width="4.431" stroke-opacity=".995"><g stroke-width="1.9" opacity=".789"><path transform="matrix(-.33027 .57204 -.57204 -.33027 576.8 591.029)" d="M-243.313 520.438c-64.564 11.597-99.568 43.09-123.726 80.339-28.666 44.2-33.78 102.528-10.649 151.067l22.532 39.031c29.075 33.46 70.036 59.775 125.185 63.284 62.019 3.947 120.365-28.542 142.815-63.878l22.531-39c15.912-39.223 16.715-98.809-11.544-148.338-30.001-52.582-86.398-79.805-122.081-82.505zm73.032 52.437s44.314 30.714 57.243 53.373c12.543 21.985 17.921 50.355 16.32 74.158-57.163-53.697-67.75-18.304-125.453-12.914 55.827-37.248 51.89-47.463 51.89-114.617zm-101.031.781c-17.655 74.41 16.844 67.97 49.142 114.4-59.36-29.085-66.69-19.785-124.08 13.35 0 0 5.933-49.906 18.057-71.166 13.247-23.232 30.326-38.29 56.88-56.584zm49.142 116.456c5.98 63.574 20.417 66.335 75.607 98.2 0 0-42.181 17.37-64.498 18.078-28.614.908-50.033-5.243-84.001-17.89 73.22-22.218 50.028-47.252 72.892-98.388z" stroke-width="2.212"/><path transform="matrix(-.28526 .49408 -.46609 -.2691 359.853 521.354)" d="M-291.429 172.362a48.571 48.571 0 1 1-97.142 0 48.571 48.571 0 1 1 97.142 0z" stroke-width="2.637"/></g><path transform="matrix(-.28526 -.49408 .46609 -.2691 -40.859 185.586)" d="M-291.429 172.362a48.571 48.571 0 1 1-97.142 0 48.571 48.571 0 1 1 97.142 0z" stroke-width="2.637" opacity=".789"/><path transform="matrix(.57051 0 0 .5382 450.536 5.631)" d="M-291.429 172.362a48.571 48.571 0 1 1-97.142 0 48.571 48.571 0 1 1 97.142 0z" stroke-width="2.637" opacity=".789"/></g><path d="M632.132 65.891c-44.828.066-94.35 7.605-150.98 26.523a19.501 19.553 0 0 0-12.657 13.436c-7.194 26.619-22.005 86.122-27.563 147.2a19.501 19.553 0 0 0 25.582 20.322c107.333-35.831 217.428-48.839 328.696-49.773a19.501 19.553 0 0 0 19.072-22.74c-6.773-41.087-15.699-76.305-20.846-95.1a19.501 19.553 0 0 0-12.558-13.345c-45.846-15.532-93.947-26.603-148.746-26.523z" transform="translate(-375.167 -39.848)" fill="url(#i)"/><g transform="matrix(1.19863 0 0 1.13072 51.392 -23.229)" opacity=".789" fill="#4d4d4d"><g transform="translate(1.429 -131.429)"><rect width="84.286" height="138.571" rx="23.347" ry="24.749" x="-334.286" y="252.362"/><path d="M-257.143 214.505a35 35 0 1 1-70 0 35 35 0 1 1 70 0z"/></g><rect width="25.714" height="114.286" rx="15.931" ry="16.093" x="-172.709" y="298.635" transform="rotate(40)"/><rect width="25.714" height="114.286" rx="15.931" ry="16.093" x="272.255" y="-74.733" transform="scale(-1 1) rotate(40)"/></g><g transform="matrix(-.59932 1.03805 -.97924 -.56536 -207.973 734.012)" opacity=".789" fill="#4d4d4d"><g transform="translate(1.429 -131.429)"><rect width="84.286" height="138.571" rx="23.347" ry="24.749" x="-334.286" y="252.362"/><path d="M-257.143 214.505a35 35 0 1 1-70 0 35 35 0 1 1 70 0z"/></g><rect width="25.714" height="114.286" rx="15.931" ry="16.093" x="-172.709" y="298.635" transform="rotate(40)"/><rect width="25.714" height="114.286" rx="15.931" ry="16.093" x="272.255" y="-74.733" transform="scale(-1 1) rotate(40)"/></g><g transform="matrix(-.59932 -1.03805 .97924 -.56536 -735.338 131.055)" opacity=".789" fill="#4d4d4d"><g transform="translate(1.429 -131.429)"><rect width="84.286" height="138.571" rx="23.347" ry="24.749" x="-334.286" y="252.362"/><path d="M-257.143 214.505a35 35 0 1 1-70 0 35 35 0 1 1 70 0z"/></g><rect width="25.714" height="114.286" rx="15.931" ry="16.093" x="-172.709" y="298.635" transform="rotate(40)"/><rect width="25.714" height="114.286" rx="15.931" ry="16.093" x="272.255" y="-74.733" transform="scale(-1 1) rotate(40)"/></g><g opacity=".789" fill="#4d4d4d"><path d="M-66.437 807.336a27.974 27.974 0 0 0 3.73-12.461c3.538-4.722 4.641-11.89 2.359-18.773l-29.944-90.323c-1.967-5.931-5.992-10.244-10.575-12.06 1.512-5.242-.11-11.758-4.789-17.017l-63.244-71.083c-4.964-5.582-11.983-8.198-17.96-7.267a27.878 27.878 0 0 0-12.793-3.092l-45.068-.003a28.007 28.007 0 0 0-12.669 3.006c-5.855-.696-12.595 1.929-17.41 7.341l-63.253 71.12c-4.486 5.044-6.16 11.214-4.956 16.336-5.03 1.525-9.531 6.035-11.653 12.433l-29.965 90.34c-2.35 7.083-1.102 14.448 2.686 19.16.21 4.309 1.42 8.649 3.734 12.656l22.51 39.013a28.007 28.007 0 0 0 8.938 9.455c2.32 5.428 7.974 9.982 15.078 11.447l93.197 19.203c6.158 1.27 11.939-.08 15.802-3.182 3.858 3.313 9.835 4.774 16.187 3.464l93.194-19.23c7.314-1.508 13.064-6.268 15.247-11.909a27.843 27.843 0 0 0 9.086-9.55zm-81.928 37.028l-62.517 12.908c-4.62.953-8.611 3.192-11.485 6.143-2.89-3.082-6.966-5.463-11.724-6.444l-61.5-12.666 65.352-37.757c3.195-1.844 6.412-61.707 8.557-64.43 2.104 2.593 4.21 62.347 7.283 64.12zm49.84-87.886l-65.359-37.735c-3.242-1.872-54.803 23.576-58.287 23.093 1.515-3.45 50.48-33.862 50.48-37.884v-76.247l42.428 47.698c3.137 3.528 7.086 5.856 11.082 6.868-1.623 4.291-1.777 9.515-.092 14.597zm-125.426-15.67c-3.592.456-53.472-23.674-56.815-21.744l-66.033 38.122 20.116-60.591c1.616-4.873 1.515-9.878.074-14.066 4.347-.846 8.748-3.288 12.16-7.125l41.738-46.916.005 75.491c0 4.126 47.166 33.31 48.755 36.829z"/><path d="M-61.591 884.578a39.575 41.952 30 1 1 41.952-72.663 39.575 41.952 30 1 1-41.952 72.663z"/></g><path d="M-424.995 812.226a39.575 41.952-30 1 1 41.952 72.664 39.575 41.952-30 1 1-41.952-72.664zM-180.25 532.456a41.952 39.575 0 1 1-83.903 0 41.952 39.575 0 1 1 83.904 0z" opacity=".789" fill="#4d4d4d"/></svg>