<?xml version="1.0" encoding="UTF-8" standalone="no"?>
<!-- Created with Inkscape (http://www.inkscape.org/) -->

<svg
   xmlns:dc="http://purl.org/dc/elements/1.1/"
   xmlns:cc="http://creativecommons.org/ns#"
   xmlns:rdf="http://www.w3.org/1999/02/22-rdf-syntax-ns#"
   xmlns:svg="http://www.w3.org/2000/svg"
   xmlns="http://www.w3.org/2000/svg"
   xmlns:xlink="http://www.w3.org/1999/xlink"
   xmlns:sodipodi="http://sodipodi.sourceforge.net/DTD/sodipodi-0.dtd"
   xmlns:inkscape="http://www.inkscape.org/namespaces/inkscape"
   version="1.1"
   width="500"
   height="500"
   id="svg6752"
   inkscape:version="0.48.3.1 r9886"
   sodipodi:docname="shield_level_2_t2.svg">
  <sodipodi:namedview
     pagecolor="#ffffff"
     bordercolor="#666666"
     borderopacity="1"
     objecttolerance="10"
     gridtolerance="10"
     guidetolerance="10"
     inkscape:pageopacity="0"
     inkscape:pageshadow="2"
     inkscape:window-width="1440"
     inkscape:window-height="847"
     id="namedview3183"
     showgrid="false"
     inkscape:zoom="2.5791002"
     inkscape:cx="170.33046"
     inkscape:cy="230.18364"
     inkscape:window-x="0"
     inkscape:window-y="0"
     inkscape:window-maximized="1"
     inkscape:current-layer="svg6752" />
  <defs
     id="defs3">
    <linearGradient
       x1="-7668.9604"
       y1="-11707.119"
       x2="-7725.8379"
       y2="-9479.4238"
       id="linearGradient6634"
       xlink:href="#linearGradient6097-2"
       gradientUnits="userSpaceOnUse"
       gradientTransform="matrix(0.15518081,0,0,0.15559098,1844.8886,1837.7326)" />
    <linearGradient
       id="linearGradient6097-2">
      <stop
         id="stop6099-1"
         style="stop-color:#ffffff;stop-opacity:1"
         offset="0" />
      <stop
         id="stop6101-2"
         style="stop-color:#ffffff;stop-opacity:0"
         offset="1" />
    </linearGradient>
    <linearGradient
       x1="174.23146"
       y1="209.90202"
       x2="169.38644"
       y2="310.67828"
       id="linearGradient6642"
       xlink:href="#linearGradient6636"
       gradientUnits="userSpaceOnUse"
       gradientTransform="matrix(2.9229274,0,0,2.9229274,151.16123,-508.91522)" />
    <linearGradient
       id="linearGradient6636">
      <stop
         id="stop6638"
         style="stop-color:#ffcc00;stop-opacity:1"
         offset="0" />
      <stop
         id="stop6640"
         style="stop-color:#ffcc00;stop-opacity:0"
         offset="1" />
    </linearGradient>
    <filter
       color-interpolation-filters="sRGB"
       id="filter6357">
      <feGaussianBlur
         id="feGaussianBlur6359"
         stdDeviation="0.78190263" />
    </filter>
    <linearGradient
       x1="-7668.9604"
       y1="-11707.119"
       x2="-7725.8379"
       y2="-9479.4238"
       id="linearGradient5510"
       xlink:href="#linearGradient6097-2"
       gradientUnits="userSpaceOnUse"
       gradientTransform="matrix(0.15300974,0,0,0.15300974,1328.0213,1818.2424)" />
    <linearGradient
       id="linearGradient6779">
      <stop
         id="stop6781"
         style="stop-color:#ffffff;stop-opacity:1"
         offset="0" />
      <stop
         id="stop6783"
         style="stop-color:#ffffff;stop-opacity:0"
         offset="1" />
    </linearGradient>
    <linearGradient
       x1="-109.17429"
       y1="163.15849"
       x2="-113.28542"
       y2="341.30743"
       id="linearGradient5529"
       xlink:href="#linearGradient5522"
       gradientUnits="userSpaceOnUse"
       gradientTransform="matrix(2.9229274,0,0,2.9229274,471.27702,-454.58647)" />
    <linearGradient
       id="linearGradient5522">
      <stop
         id="stop5524"
         style="stop-color:#ffffff;stop-opacity:1"
         offset="0" />
      <stop
         id="stop5526"
         style="stop-color:#ffffff;stop-opacity:0"
         offset="1" />
    </linearGradient>
    <linearGradient
       x1="-109.17429"
       y1="163.15849"
       x2="-113.28542"
       y2="341.30743"
       id="linearGradient6886"
       xlink:href="#linearGradient5522"
       gradientUnits="userSpaceOnUse"
       gradientTransform="matrix(2.9229274,0,0,2.9229274,471.27702,-454.58647)" />
    <linearGradient
       x1="-7668.9604"
       y1="-11707.119"
       x2="-7725.8379"
       y2="-9479.4238"
       id="linearGradient6888"
       xlink:href="#linearGradient6097-2"
       gradientUnits="userSpaceOnUse"
       gradientTransform="matrix(0.15300974,0,0,0.15300974,1328.0213,1818.2424)" />
    <linearGradient
       x1="174.23146"
       y1="209.90202"
       x2="169.38644"
       y2="310.67828"
       id="linearGradient6890"
       xlink:href="#linearGradient6636"
       gradientUnits="userSpaceOnUse"
       gradientTransform="matrix(2.9229274,0,0,2.9229274,151.16123,-508.91522)" />
    <linearGradient
       x1="-7668.9604"
       y1="-11707.119"
       x2="-7725.8379"
       y2="-9479.4238"
       id="linearGradient6892"
       xlink:href="#linearGradient6097-2"
       gradientUnits="userSpaceOnUse"
       gradientTransform="matrix(0.15518081,0,0,0.15559098,1844.8886,1837.7326)" />
    <linearGradient
       x1="-7668.9604"
       y1="-11707.119"
       x2="-7725.8379"
       y2="-9479.4238"
       id="linearGradient6616"
       xlink:href="#linearGradient6097-2-7"
       gradientUnits="userSpaceOnUse"
       gradientTransform="matrix(0.15096114,0,0,0.14465384,1322.8813,1735.9314)" />
    <linearGradient
       id="linearGradient6097-2-7">
      <stop
         id="stop6099-1-4"
         style="stop-color:#ffffff;stop-opacity:1"
         offset="0" />
      <stop
         id="stop6101-2-0"
         style="stop-color:#ffffff;stop-opacity:0"
         offset="1" />
    </linearGradient>
    <linearGradient
       x1="-37.011112"
       y1="439.55563"
       x2="-36.04211"
       y2="558.74292"
       id="linearGradient6624"
       xlink:href="#linearGradient6618"
       gradientUnits="userSpaceOnUse"
       gradientTransform="matrix(2.7633056,0,0,2.7633056,252.31155,-1023.7687)" />
    <linearGradient
       id="linearGradient6618">
      <stop
         id="stop6620"
         style="stop-color:#00e4c6;stop-opacity:1"
         offset="0" />
      <stop
         id="stop6622"
         style="stop-color:#00e4c6;stop-opacity:0"
         offset="1" />
    </linearGradient>
    <filter
       color-interpolation-filters="sRGB"
       id="filter6357-4">
      <feGaussianBlur
         id="feGaussianBlur6359-6"
         stdDeviation="0.78190263" />
    </filter>
    <linearGradient
       x1="-7668.9604"
       y1="-11707.119"
       x2="-7725.8379"
       y2="-9479.4238"
       id="linearGradient6596"
       xlink:href="#linearGradient6097-2-7"
       gradientUnits="userSpaceOnUse"
       gradientTransform="matrix(0.14670635,0,0,0.14709413,1767.8593,1749.0021)" />
    <linearGradient
       id="linearGradient6915">
      <stop
         id="stop6917"
         style="stop-color:#ffffff;stop-opacity:1"
         offset="0" />
      <stop
         id="stop6919"
         style="stop-color:#ffffff;stop-opacity:0"
         offset="1" />
    </linearGradient>
    <linearGradient
       x1="150.97539"
       y1="434.71063"
       x2="152.91339"
       y2="530.64185"
       id="linearGradient6604"
       xlink:href="#linearGradient6598"
       gradientUnits="userSpaceOnUse"
       gradientTransform="matrix(2.7633056,0,0,2.7633056,198.75856,-986.28156)" />
    <linearGradient
       id="linearGradient6598">
      <stop
         id="stop6600"
         style="stop-color:#0000ff;stop-opacity:1"
         offset="0" />
      <stop
         id="stop6602"
         style="stop-color:#0000ff;stop-opacity:0"
         offset="1" />
    </linearGradient>
    <linearGradient
       x1="-37.011112"
       y1="439.55563"
       x2="-36.04211"
       y2="558.74292"
       id="linearGradient7022"
       xlink:href="#linearGradient6618"
       gradientUnits="userSpaceOnUse"
       gradientTransform="matrix(2.7633056,0,0,2.7633056,252.31155,-1023.7687)" />
    <linearGradient
       x1="-7668.9604"
       y1="-11707.119"
       x2="-7725.8379"
       y2="-9479.4238"
       id="linearGradient7024"
       xlink:href="#linearGradient6097-2-7"
       gradientUnits="userSpaceOnUse"
       gradientTransform="matrix(0.15096114,0,0,0.14465384,1322.8813,1735.9314)" />
    <linearGradient
       x1="150.97539"
       y1="434.71063"
       x2="152.91339"
       y2="530.64185"
       id="linearGradient7026"
       xlink:href="#linearGradient6598"
       gradientUnits="userSpaceOnUse"
       gradientTransform="matrix(2.7633056,0,0,2.7633056,198.75856,-986.28156)" />
    <linearGradient
       x1="-7668.9604"
       y1="-11707.119"
       x2="-7725.8379"
       y2="-9479.4238"
       id="linearGradient7028"
       xlink:href="#linearGradient6097-2-7"
       gradientUnits="userSpaceOnUse"
       gradientTransform="matrix(0.14670635,0,0,0.14709413,1767.8593,1749.0021)" />
    <linearGradient
       inkscape:collect="always"
       xlink:href="#linearGradient6598"
       id="linearGradient3215"
       gradientUnits="userSpaceOnUse"
       gradientTransform="matrix(2.7633056,0,0,2.7633056,198.75856,-986.28156)"
       x1="150.97539"
       y1="434.71063"
       x2="152.91339"
       y2="530.64185" />
    <linearGradient
       inkscape:collect="always"
       xlink:href="#linearGradient6097-2-7"
       id="linearGradient3217"
       gradientUnits="userSpaceOnUse"
       gradientTransform="matrix(0.14670635,0,0,0.14709413,1767.8593,1749.0021)"
       x1="-7668.9604"
       y1="-11707.119"
       x2="-7725.8379"
       y2="-9479.4238" />
  </defs>
  <metadata
     id="metadata4">
    <rdf:RDF>
      <cc:Work
         rdf:about="">
        <dc:format>image/svg+xml</dc:format>
        <dc:type
           rdf:resource="http://purl.org/dc/dcmitype/StillImage" />
        <dc:title />
      </cc:Work>
    </rdf:RDF>
  </metadata>
  <path
     inkscape:connector-curvature="0"
     transform="matrix(126.83405,0,0,126.83405,43112.737,17135.482)"
     d="m -337.71458,-132.27593 c 0.0593,0 0.10435,-0.0101 0.13518,-0.0302 0.0308,-0.0202 0.0557,-0.0563 0.0747,-0.10851 l 0.0231,0.004 -0.0623,0.35931 -0.85379,0 -0.004,-0.032 0.0765,-0.0854 0.16542,-0.17788 c 0.17076,-0.18736 0.27926,-0.33025 0.32551,-0.42867 0.0213,-0.0474 0.0379,-0.0949 0.0498,-0.1423 0.0119,-0.0486 0.0178,-0.0949 0.0178,-0.13874 0,-0.0794 -0.0178,-0.14171 -0.0534,-0.18677 -0.0344,-0.0451 -0.083,-0.0676 -0.14586,-0.0676 -0.0593,1e-5 -0.10613,0.0166 -0.14052,0.0498 -0.0166,0.0166 -0.029,0.0356 -0.0374,0.0569 -0.008,0.0214 -0.0125,0.0474 -0.0125,0.0783 l 0,0.0107 0.002,0.0729 c -1e-5,0.0379 -0.0125,0.0694 -0.0374,0.0943 -0.0249,0.0225 -0.0569,0.0338 -0.096,0.0338 -0.0771,0 -0.11562,-0.0385 -0.11562,-0.11562 0,-0.0854 0.048,-0.16009 0.14408,-0.22413 0.096,-0.064 0.2093,-0.096 0.33974,-0.096 0.1257,0 0.22649,0.0308 0.30239,0.0925 0.0771,0.0605 0.11561,0.14052 0.11561,0.24013 0,0.0913 -0.0285,0.17372 -0.0854,0.24724 -0.0569,0.0723 -0.15178,0.15891 -0.28459,0.2597 l -0.17432,0.13163 -0.11562,0.10316 0.44647,0"
     style="font-size:1.77874517px;font-style:normal;font-variant:normal;font-weight:100;font-stretch:normal;text-align:start;line-height:125%;letter-spacing:0px;word-spacing:0px;writing-mode:lr-tb;text-anchor:start;opacity:0.84304935;fill:#000000;fill-opacity:1;stroke:none;display:inline;font-family:Baskerville-DemiBold;-inkscape-font-specification:Baskerville-DemiBold Thin"
     id="path5499-6" />
  <path
     style="font-size:1.77874517px;font-style:normal;font-variant:normal;font-weight:100;font-stretch:normal;text-align:start;line-height:125%;letter-spacing:0px;word-spacing:0px;writing-mode:lr-tb;text-anchor:start;fill:#000000;fill-opacity:1;stroke:none;display:inline;font-family:Baskerville-DemiBold;-inkscape-font-specification:Baskerville-DemiBold Thin"
     d="m 458.1875,94.625 c -12.16161,0.0021 -21.75958,3.409887 -28.8125,10.21875 -3.40443,3.40443 -5.93353,7.31916 -7.65625,11.6875 -1.64069,4.38885 -2.5625,9.72534 -2.5625,16.0625 l 0,2.1875 0.40625,14.9375 c -0.002,7.77277 -2.58085,14.2371 -7.6875,19.34375 -5.10665,4.61444 -11.66863,6.9375 -19.6875,6.9375 -6.01396,0 -10.86823,-1.15178 -14.59375,-3.4375 3.72483,6.06955 10.48306,9.09375 20.28125,9.09375 8.01887,0 14.58085,-2.32306 19.6875,-6.9375 5.10665,-5.10665 7.6542,-11.53973 7.65625,-19.3125 l -0.40625,-14.96875 0,-2.1875 c 0,-6.33716 0.92181,-11.67365 2.5625,-16.0625 1.72272,-4.36834 4.25182,-8.25182 7.65625,-11.65625 7.05292,-6.80886 16.68214,-10.2167 28.84375,-10.21875 9.45013,0 17.31299,2.47032 23.625,7.4375 -7.0164,-8.74326 -16.77808,-13.125 -29.3125,-13.125 z m 80.78125,19.71875 c 9.63822,11.059 14.46875,24.54885 14.46875,40.5 0,18.72437 -5.86184,35.64081 -17.53125,50.71875 -11.66941,14.82773 -31.10625,32.57936 -58.34375,53.25 l -35.75,27 -23.71875,21.15625 12,0 17.375,-15.5 35.75,-27 c 27.2375,-20.67064 46.70559,-38.42227 58.375,-53.25 11.66941,-15.07794 17.5,-31.96313 17.5,-50.6875 0,-18.80393 -6.72905,-34.18037 -20.125,-46.1875 z m 19.5,169.71875 c -0.93008,2.55575 -1.93205,4.94512 -3,7.125 l -10.71875,61.71875 -170.15625,0 0.71875,5.6875 175.09375,0 12.78125,-73.6875 -4.71875,-0.84375 z"
     id="path5499-6-30"
     inkscape:connector-curvature="0"
     transform="matrix(0.61844258,0,0,0.61844258,-37.970477,166.86606)" />
  <path
     inkscape:connector-curvature="0"
     style="font-size:1.77874517000000010px;font-style:normal;font-variant:normal;font-weight:100;font-stretch:normal;text-align:start;line-height:125%;letter-spacing:0px;word-spacing:0px;writing-mode:lr-tb;text-anchor:start;opacity:0.5;fill:#ffffff;fill-opacity:1;stroke:none;display:inline;font-family:Baskerville-DemiBold;-inkscape-font-specification:Baskerville-DemiBold Thin"
     d="m 473.375,92.3125 c -26.75145,0 -49.99922,6.561982 -69.6875,19.6875 -19.70468,13.13372 -29.53125,28.45439 -29.53125,45.96875 0,9.81402 3.03876,16.56045 9.125,20.28125 -2.30142,-3.73012 -3.46875,-8.58954 -3.46875,-14.625 0,-17.51436 9.85782,-32.83503 29.5625,-45.96875 19.68828,-13.12552 42.93605,-19.6875 69.6875,-19.6875 25.77934,0 46.43396,6.31493 62,18.96875 1.14421,0.89786 2.25117,1.81021 3.3125,2.75 -2.63897,-2.98701 -5.61998,-5.77849 -8.96875,-8.40625 C 519.84021,98.62743 499.15434,92.3125 473.375,92.3125 z M 493.25,113.5 c 0.17812,0.22318 0.35669,0.4274 0.53125,0.65625 7.30107,9.24119 10.9375,22.02865 10.9375,38.3125 0,8.99098 -1.18447,18.50156 -3.625,28.46875 -2.44053,9.72109 -5.85041,19.46641 -10.21875,29.1875 -9.48524,20.18459 -31.76073,49.4813 -66.78125,87.90625 L 390.1875,334.5 374.5,352.03125 l 0.8125,6.5625 4.96875,0 -0.125,-0.90625 15.6875,-17.5 33.9375,-36.5 c 35.02052,-38.42495 57.26476,-67.72166 66.75,-87.90625 4.36834,-9.72109 7.77822,-19.46641 10.21875,-29.1875 2.44053,-9.96719 3.65625,-19.44652 3.65625,-28.4375 0,-16.28385 -3.66768,-29.07131 -10.96875,-38.3125 -1.86335,-2.44294 -3.91762,-4.54709 -6.1875,-6.34375 z m 65.21875,170.5625 c -3.89664,10.70755 -9.02709,18.13851 -15.34375,22.28125 -6.32281,4.12223 -15.55714,6.1875 -27.71875,6.1875 l -0.0937,0.0937 -79.5,0 -6.375,5.6875 91.5625,0 0.0937,-0.125 c 12.16161,0 21.39594,-2.06527 27.71875,-6.1875 4.80848,-3.15362 8.90638,-8.20439 12.3125,-15.15625 l 2.0625,-11.9375 -4.71875,-0.84375 z"
     id="path5499-6-3"
     transform="matrix(0.61844258,0,0,0.61844258,-41.476977,163.35949)" />
</svg>
