<?xml version="1.0" encoding="UTF-8" standalone="no"?>
<!-- Created with Inkscape (http://www.inkscape.org/) -->

<svg
   xmlns:dc="http://purl.org/dc/elements/1.1/"
   xmlns:cc="http://creativecommons.org/ns#"
   xmlns:rdf="http://www.w3.org/1999/02/22-rdf-syntax-ns#"
   xmlns:svg="http://www.w3.org/2000/svg"
   xmlns="http://www.w3.org/2000/svg"
   xmlns:xlink="http://www.w3.org/1999/xlink"
   xmlns:sodipodi="http://sodipodi.sourceforge.net/DTD/sodipodi-0.dtd"
   xmlns:inkscape="http://www.inkscape.org/namespaces/inkscape"
   version="1.1"
   width="500"
   height="500"
   id="svg6752"
   inkscape:version="0.48.3.1 r9886"
   sodipodi:docname="shield_level_5.svg">
  <sodipodi:namedview
     pagecolor="#ffffff"
     bordercolor="#666666"
     borderopacity="1"
     objecttolerance="10"
     gridtolerance="10"
     guidetolerance="10"
     inkscape:pageopacity="0"
     inkscape:pageshadow="2"
     inkscape:window-width="1440"
     inkscape:window-height="847"
     id="namedview3183"
     showgrid="false"
     inkscape:zoom="0.76417784"
     inkscape:cx="368.76144"
     inkscape:cy="205.01336"
     inkscape:window-x="0"
     inkscape:window-y="0"
     inkscape:window-maximized="1"
     inkscape:current-layer="svg6752" />
  <defs
     id="defs3">
    <linearGradient
       x1="-7668.9604"
       y1="-11707.119"
       x2="-7725.8379"
       y2="-9479.4238"
       id="linearGradient6634"
       xlink:href="#linearGradient6097-2"
       gradientUnits="userSpaceOnUse"
       gradientTransform="matrix(0.15518081,0,0,0.15559098,1844.8886,1837.7326)" />
    <linearGradient
       id="linearGradient6097-2">
      <stop
         id="stop6099-1"
         style="stop-color:#ffffff;stop-opacity:1"
         offset="0" />
      <stop
         id="stop6101-2"
         style="stop-color:#ffffff;stop-opacity:0"
         offset="1" />
    </linearGradient>
    <linearGradient
       x1="174.23146"
       y1="209.90202"
       x2="169.38644"
       y2="310.67828"
       id="linearGradient6642"
       xlink:href="#linearGradient6636"
       gradientUnits="userSpaceOnUse"
       gradientTransform="matrix(2.9229274,0,0,2.9229274,151.16123,-508.91522)" />
    <linearGradient
       id="linearGradient6636">
      <stop
         id="stop6638"
         style="stop-color:#ffcc00;stop-opacity:1"
         offset="0" />
      <stop
         id="stop6640"
         style="stop-color:#ffcc00;stop-opacity:0"
         offset="1" />
    </linearGradient>
    <filter
       color-interpolation-filters="sRGB"
       id="filter6357">
      <feGaussianBlur
         id="feGaussianBlur6359"
         stdDeviation="0.78190263" />
    </filter>
    <linearGradient
       x1="-7668.9604"
       y1="-11707.119"
       x2="-7725.8379"
       y2="-9479.4238"
       id="linearGradient5510"
       xlink:href="#linearGradient6097-2"
       gradientUnits="userSpaceOnUse"
       gradientTransform="matrix(0.15300974,0,0,0.15300974,1328.0213,1818.2424)" />
    <linearGradient
       id="linearGradient6779">
      <stop
         id="stop6781"
         style="stop-color:#ffffff;stop-opacity:1"
         offset="0" />
      <stop
         id="stop6783"
         style="stop-color:#ffffff;stop-opacity:0"
         offset="1" />
    </linearGradient>
    <linearGradient
       x1="-109.17429"
       y1="163.15849"
       x2="-113.28542"
       y2="341.30743"
       id="linearGradient5529"
       xlink:href="#linearGradient5522"
       gradientUnits="userSpaceOnUse"
       gradientTransform="matrix(2.9229274,0,0,2.9229274,471.27702,-454.58647)" />
    <linearGradient
       id="linearGradient5522">
      <stop
         id="stop5524"
         style="stop-color:#ffffff;stop-opacity:1"
         offset="0" />
      <stop
         id="stop5526"
         style="stop-color:#ffffff;stop-opacity:0"
         offset="1" />
    </linearGradient>
    <linearGradient
       x1="-109.17429"
       y1="163.15849"
       x2="-113.28542"
       y2="341.30743"
       id="linearGradient6886"
       xlink:href="#linearGradient5522"
       gradientUnits="userSpaceOnUse"
       gradientTransform="matrix(2.9229274,0,0,2.9229274,471.27702,-454.58647)" />
    <linearGradient
       x1="-7668.9604"
       y1="-11707.119"
       x2="-7725.8379"
       y2="-9479.4238"
       id="linearGradient6888"
       xlink:href="#linearGradient6097-2"
       gradientUnits="userSpaceOnUse"
       gradientTransform="matrix(0.15300974,0,0,0.15300974,1328.0213,1818.2424)" />
    <linearGradient
       x1="174.23146"
       y1="209.90202"
       x2="169.38644"
       y2="310.67828"
       id="linearGradient6890"
       xlink:href="#linearGradient6636"
       gradientUnits="userSpaceOnUse"
       gradientTransform="matrix(2.9229274,0,0,2.9229274,151.16123,-508.91522)" />
    <linearGradient
       x1="-7668.9604"
       y1="-11707.119"
       x2="-7725.8379"
       y2="-9479.4238"
       id="linearGradient6892"
       xlink:href="#linearGradient6097-2"
       gradientUnits="userSpaceOnUse"
       gradientTransform="matrix(0.15518081,0,0,0.15559098,1844.8886,1837.7326)" />
    <linearGradient
       x1="-7668.9604"
       y1="-11707.119"
       x2="-7725.8379"
       y2="-9479.4238"
       id="linearGradient6616"
       xlink:href="#linearGradient6097-2-7"
       gradientUnits="userSpaceOnUse"
       gradientTransform="matrix(0.15096114,0,0,0.14465384,1322.8813,1735.9314)" />
    <linearGradient
       id="linearGradient6097-2-7">
      <stop
         id="stop6099-1-4"
         style="stop-color:#ffffff;stop-opacity:1"
         offset="0" />
      <stop
         id="stop6101-2-0"
         style="stop-color:#ffffff;stop-opacity:0"
         offset="1" />
    </linearGradient>
    <linearGradient
       x1="-37.011112"
       y1="439.55563"
       x2="-36.04211"
       y2="558.74292"
       id="linearGradient6624"
       xlink:href="#linearGradient6618"
       gradientUnits="userSpaceOnUse"
       gradientTransform="matrix(2.7633056,0,0,2.7633056,252.31155,-1023.7687)" />
    <linearGradient
       id="linearGradient6618">
      <stop
         id="stop6620"
         style="stop-color:#00e4c6;stop-opacity:1"
         offset="0" />
      <stop
         id="stop6622"
         style="stop-color:#00e4c6;stop-opacity:0"
         offset="1" />
    </linearGradient>
    <filter
       color-interpolation-filters="sRGB"
       id="filter6357-4">
      <feGaussianBlur
         id="feGaussianBlur6359-6"
         stdDeviation="0.78190263" />
    </filter>
    <linearGradient
       x1="-7668.9604"
       y1="-11707.119"
       x2="-7725.8379"
       y2="-9479.4238"
       id="linearGradient6596"
       xlink:href="#linearGradient6097-2-7"
       gradientUnits="userSpaceOnUse"
       gradientTransform="matrix(0.14670635,0,0,0.14709413,1767.8593,1749.0021)" />
    <linearGradient
       id="linearGradient6915">
      <stop
         id="stop6917"
         style="stop-color:#ffffff;stop-opacity:1"
         offset="0" />
      <stop
         id="stop6919"
         style="stop-color:#ffffff;stop-opacity:0"
         offset="1" />
    </linearGradient>
    <linearGradient
       x1="150.97539"
       y1="434.71063"
       x2="152.91339"
       y2="530.64185"
       id="linearGradient6604"
       xlink:href="#linearGradient6598"
       gradientUnits="userSpaceOnUse"
       gradientTransform="matrix(2.7633056,0,0,2.7633056,198.75856,-986.28156)" />
    <linearGradient
       id="linearGradient6598">
      <stop
         id="stop6600"
         style="stop-color:#0000ff;stop-opacity:1"
         offset="0" />
      <stop
         id="stop6602"
         style="stop-color:#0000ff;stop-opacity:0"
         offset="1" />
    </linearGradient>
    <linearGradient
       x1="-37.011112"
       y1="439.55563"
       x2="-36.04211"
       y2="558.74292"
       id="linearGradient7022"
       xlink:href="#linearGradient6618"
       gradientUnits="userSpaceOnUse"
       gradientTransform="matrix(2.7633056,0,0,2.7633056,252.31155,-1023.7687)" />
    <linearGradient
       x1="-7668.9604"
       y1="-11707.119"
       x2="-7725.8379"
       y2="-9479.4238"
       id="linearGradient7024"
       xlink:href="#linearGradient6097-2-7"
       gradientUnits="userSpaceOnUse"
       gradientTransform="matrix(0.15096114,0,0,0.14465384,1322.8813,1735.9314)" />
    <linearGradient
       x1="150.97539"
       y1="434.71063"
       x2="152.91339"
       y2="530.64185"
       id="linearGradient7026"
       xlink:href="#linearGradient6598"
       gradientUnits="userSpaceOnUse"
       gradientTransform="matrix(2.7633056,0,0,2.7633056,198.75856,-986.28156)" />
    <linearGradient
       x1="-7668.9604"
       y1="-11707.119"
       x2="-7725.8379"
       y2="-9479.4238"
       id="linearGradient7028"
       xlink:href="#linearGradient6097-2-7"
       gradientUnits="userSpaceOnUse"
       gradientTransform="matrix(0.14670635,0,0,0.14709413,1767.8593,1749.0021)" />
  </defs>
  <metadata
     id="metadata4">
    <rdf:RDF>
      <cc:Work
         rdf:about="">
        <dc:format>image/svg+xml</dc:format>
        <dc:type
           rdf:resource="http://purl.org/dc/dcmitype/StillImage" />
        <dc:title></dc:title>
      </cc:Work>
    </rdf:RDF>
  </metadata>
  <path
     inkscape:connector-curvature="0"
     transform="matrix(205.08622,0,0,205.08622,68812.118,27440.493)"
     d="m -334.655,-132.58898 c -0.0154,0 -0.0231,-0.008 -0.0231,-0.0249 0,-0.007 0.003,-0.0154 0.009,-0.0249 l 0.0391,-0.71506 c 0.18854,0.0285 0.33915,0.0427 0.4518,0.0427 l 0.0267,0 0.0213,0 c 0.0261,1e-5 0.0498,-5.9e-4 0.0711,-0.002 0.0213,-0.001 0.0409,-0.004 0.0587,-0.007 l 0.11029,-0.0142 c 0.0202,-0.002 0.0338,-0.004 0.0409,-0.005 0.007,-0.002 0.0166,-0.005 0.0285,-0.009 l 0.0142,-0.002 0.005,0.016 c 0,0.0581 -0.029,0.11443 -0.0872,0.16898 -0.0581,0.0534 -0.16483,0.08 -0.32017,0.08 l -0.0765,0 c -0.0178,0 -0.035,0 -0.0516,0 -0.0202,-0.002 -0.0344,-0.004 -0.0427,-0.004 -0.0273,0 -0.10376,-0.008 -0.22946,-0.0231 l -0.0249,0.4358 0.0676,-0.0462 c 0.0949,-0.0628 0.20515,-0.0943 0.33085,-0.0943 0.14348,0 0.25732,0.0344 0.34152,0.10316 0.0854,0.0676 0.12807,0.1595 0.12807,0.27571 0,0.1174 -0.048,0.21582 -0.14408,0.29527 -0.096,0.0794 -0.21819,0.11918 -0.36642,0.11918 -0.12926,0 -0.23835,-0.0267 -0.32729,-0.08 -0.0877,-0.0546 -0.13163,-0.12154 -0.13163,-0.201 0,-0.032 0.0107,-0.0593 0.032,-0.0818 0.0225,-0.0237 0.0516,-0.0356 0.0872,-0.0356 0.0913,0 0.13696,0.0551 0.13696,0.16542 0,0.0142 0,0.0297 0,0.0463 0.001,0.0154 0.004,0.0296 0.007,0.0427 0.004,0.0119 0.0196,0.0332 0.048,0.064 0.0297,0.0297 0.0765,0.0445 0.14052,0.0445 0.0771,0 0.13874,-0.032 0.18499,-0.096 0.0439,-0.0664 0.0658,-0.15712 0.0658,-0.27215 0,-0.11147 -0.0237,-0.19744 -0.0711,-0.25792 -0.0462,-0.0617 -0.11503,-0.0925 -0.20634,-0.0925 -0.0486,0 -0.0955,0.009 -0.14052,0.0285 -0.0368,0.013 -0.067,0.0279 -0.0907,0.0445 -0.0142,0.009 -0.0267,0.019 -0.0374,0.0285 -0.0107,0.009 -0.0273,0.0261 -0.0498,0.0498 0,0.0249 -0.009,0.0374 -0.0267,0.0374"
     style="font-size:1.77874517px;font-style:normal;font-variant:normal;font-weight:100;font-stretch:normal;text-align:start;line-height:125%;letter-spacing:0px;word-spacing:0px;writing-mode:lr-tb;text-anchor:start;opacity:0.30044843;fill:#000000;fill-opacity:1;stroke:none;display:inline;font-family:Baskerville-DemiBold;-inkscape-font-specification:Baskerville-DemiBold Thin"
     id="path5505-7" />
  <path
     style="font-size:1.77874517px;font-style:normal;font-variant:normal;font-weight:100;font-stretch:normal;text-align:start;line-height:125%;letter-spacing:0px;word-spacing:0px;writing-mode:lr-tb;text-anchor:start;opacity:0.75336328;fill:#000000;fill-opacity:1;stroke:none;display:inline;font-family:Baskerville-DemiBold;-inkscape-font-specification:Baskerville-DemiBold Thin"
     d="M 1316.9062,92.1875 1314,92.59375 c -0.7141,0.24004 -1.3057,0.420079 -1.9375,0.625 -1.0324,10.70894 -6.897,21.10498 -17.6875,31.21875 -11.9155,10.9516 -33.7982,16.40625 -65.6562,16.40625 l -15.6876,0 -10.5937,0 c -4.1427,-0.41017 -7.0478,-0.8125 -8.75,-0.8125 -5.5989,0 -21.2832,-1.6532 -47.0625,-4.75 l -5.0938,89.375 6.2188,-4.25 4.5312,-79.4375 c 25.7794,3.0968 41.4637,4.71875 47.0626,4.71875 1.7022,0 4.6385,0.43358 8.7812,0.84375 l 10.5625,0 15.6875,0 c 31.8581,0 53.7407,-5.45465 65.6562,-16.40625 11.9361,-11.18745 17.9063,-22.74074 17.9063,-34.65625 l -1.0313,-3.28125 z m -109,111.71875 c -2.0832,0 -4.1663,0.0859 -6.2187,0.25 -14.7993,3.00407 -28.3395,8.58885 -40.625,16.71875 l -13.875,9.46875 0,-0.21875 c -1.3882,1.42395 -2.8665,2.9931 -4.5937,4.8125 0,4.5647 -1.4694,7.10758 -4.375,7.59375 -0.029,0.23312 -0.063,0.46763 -0.063,0.6875 0,3.46596 1.5605,5.09375 4.7188,5.09375 l -0.094,-0.0313 c 3.6301,0 5.4688,-2.58085 5.4688,-7.6875 4.6144,-4.86054 8.0243,-8.34172 10.2188,-10.1875 2.1944,-1.94832 4.7752,-3.99797 7.6874,-5.84375 4.8606,-3.40443 11.0466,-6.45888 18.5938,-9.125 9.233,-3.99918 18.8453,-5.875 28.8125,-5.875 14.3832,0 26.0391,3.75666 34.9687,11.21875 -9.4333,-11.2442 -22.9716,-16.875 -40.625,-16.875 z m 94.5626,21.75 c 11.3716,12.7315 17.0624,28.70085 17.0624,47.90625 0,24.07712 -9.8265,44.2684 -29.5312,60.5625 -19.6883,16.28385 -44.7563,24.4375 -75.1562,24.4375 -26.5095,0 -48.8847,-5.47515 -67.125,-16.40625 -4.0161,-2.50033 -7.5669,-5.1219 -10.6876,-7.875 4.2049,4.86836 9.6837,9.36535 16.375,13.53125 18.2404,10.9311 40.5844,16.40625 67.0938,16.40625 30.3999,0 55.468,-8.15365 75.1562,-24.4375 19.7047,-16.2941 29.5626,-36.48538 29.5626,-60.5625 0,-22.17347 -7.5907,-40.01833 -22.75,-53.5625 z m -135.0313,61.28125 c 3.8698,5.60683 5.8125,13.55877 5.8125,23.84375 l 0,9.5 c 0.2051,3.15833 0.8222,6.06337 1.4375,8.75 0.8203,2.44053 4.0193,6.80834 9.8437,13.125 0.8174,0.81733 1.7126,1.57391 2.6563,2.28125 -3.9085,-4.50914 -6.1488,-7.77548 -6.8125,-9.75 -0.6153,-2.68663 -1.2324,-5.59167 -1.4375,-8.75 l 0,-9.5 c 0,-14.47155 -3.8389,-24.28842 -11.5,-29.5 z"
     id="path5505-7-4"
     inkscape:connector-curvature="0"
     transform="translate(-961.065,2.835)" />
  <path
     inkscape:connector-curvature="0"
     style="font-size:1.77874517px;font-style:normal;font-variant:normal;font-weight:100;font-stretch:normal;text-align:start;line-height:125%;letter-spacing:0px;word-spacing:0px;writing-mode:lr-tb;text-anchor:start;opacity:0.78681611;fill:#ffffff;fill-opacity:1;stroke:none;display:inline;font-family:Baskerville-DemiBold;-inkscape-font-specification:Baskerville-DemiBold Thin"
     d="M 1148.0312,91.46875 1140,238.09375 c -1.2305,1.94832 -1.8438,3.6894 -1.8438,5.125 0,3.46596 1.5605,5.09375 4.7188,5.09375 l -0.094,-0.0313 c 0.3856,0 0.7486,-0.0359 1.0938,-0.0937 0.1638,-1.28377 0.7453,-2.76598 1.7812,-4.40625 L 1153.6875,97.125 c 38.667,5.84496 69.5533,8.75 92.6563,8.75 l 5.4687,0 4.375,0 c 5.3528,0.002 10.2254,-0.11708 14.5937,-0.40625 4.3684,-0.20509 8.3808,-0.82224 12.0313,-1.4375 l 22.625,-2.90625 c 4.1427,-0.41017 6.9189,-0.82616 8.375,-1.03125 1.0193,-0.291222 2.4026,-0.72076 3.9375,-1.21875 0.1095,-1.136432 0.1875,-2.263134 0.1875,-3.40625 L 1316.9062,92.1875 1314,92.59375 c -2.4405,0.820345 -4.4081,1.433578 -5.8438,1.84375 -1.4561,0.205086 -4.2635,0.621078 -8.4062,1.03125 l -22.625,2.90625 c -3.6505,0.615259 -7.6629,1.232414 -12.0312,1.4375 -4.3684,0.28917 -9.2098,0.4083 -14.5626,0.40625 l -4.375,0 -5.4687,0 c -23.103,0 -53.9893,-2.905043 -92.6563,-8.75 z m 80.875,110.0625 c -25.7793,0 -48.381,6.46434 -67.8437,19.34375 l -7.6563,5.21875 -0.5624,9.75 c 2.3386,-2.39985 4.2443,-4.2762 5.625,-5.4375 2.1944,-1.94832 4.7752,-3.99797 7.6874,-5.84375 4.8606,-3.40443 11.0466,-6.45888 18.5938,-9.125 7.2374,-3.13481 14.7128,-4.92581 22.4062,-5.5625 8.7038,-1.78122 17.8289,-2.6875 27.4063,-2.6875 29.4258,0 52.7942,7.05452 70.0625,21.15625 1.2534,0.99216 2.4301,2.0193 3.5938,3.0625 -2.758,-3.09743 -5.8512,-6.00362 -9.2813,-8.71875 -17.2683,-14.10173 -40.6055,-21.15625 -70.0313,-21.15625 z m 25.375,25 c 0.5484,0.65673 1.0734,1.33629 1.5938,2.03125 9.7211,12.40361 14.5938,30.01404 14.5938,52.875 0,23.59107 -4.4968,42.19477 -13.5,55.8125 -9.4853,13.12552 -22.1254,19.6875 -37.9376,19.6875 -11.3678,0 -20.0985,-2.2485 -26.1874,-6.8125 0.9224,1.06421 1.919,2.16886 3.0312,3.375 6.0911,6.09106 15.6829,9.125 28.8125,9.125 15.8121,0 28.4523,-6.56198 37.9375,-19.6875 9.0033,-13.61773 13.5,-32.22143 13.5,-55.8125 0,-22.86096 -4.8414,-40.50264 -14.5625,-52.90625 -2.1714,-2.89983 -4.6228,-5.45304 -7.2813,-7.6875 z m -104.7812,56 c -6.6885,0.28592 -12.2052,2.72449 -16.5312,7.28125 -4.3684,4.61444 -6.5626,10.21849 -6.5626,16.78125 0,12.68 5.4812,23.78674 16.375,33.375 -7.125,-8.22954 -10.7187,-17.46545 -10.7187,-27.71875 0,-6.56276 2.1942,-12.13556 6.5625,-16.75 4.6144,-4.86054 10.5739,-7.3125 17.875,-7.3125 6.7624,0 12.3045,1.48847 16.625,4.4375 -4.6427,-6.73243 -12.0647,-10.09375 -22.2812,-10.09375 -0.4564,0 -0.8979,-0.0191 -1.3438,0 z"
     id="path5505-7-9"
     transform="translate(-966.735,-2.835)" />
</svg>
