<?xml version="1.0" encoding="UTF-8" standalone="no"?>
<svg
   xmlns:dc="http://purl.org/dc/elements/1.1/"
   xmlns:cc="http://creativecommons.org/ns#"
   xmlns:rdf="http://www.w3.org/1999/02/22-rdf-syntax-ns#"
   xmlns:svg="http://www.w3.org/2000/svg"
   xmlns="http://www.w3.org/2000/svg"
   xmlns:xlink="http://www.w3.org/1999/xlink"
   xmlns:sodipodi="http://sodipodi.sourceforge.net/DTD/sodipodi-0.dtd"
   xmlns:inkscape="http://www.inkscape.org/namespaces/inkscape"
   sodipodi:docname="logo.svg"
   inkscape:version="0.91 r13725"
   version="1.1"
   id="svg3057"
   viewBox="0 0 400 400"
   height="5.55556in"
   width="5.55556in"
   inkscape:export-filename="/home/luke/devel/learnscripture.net/resources/graphics/android_icon.png"
   inkscape:export-xdpi="92.159927"
   inkscape:export-ydpi="92.159927">
  <metadata
     id="metadata3064">
    <rdf:RDF>
      <cc:Work
         rdf:about="">
        <dc:format>image/svg+xml</dc:format>
        <dc:type
           rdf:resource="http://purl.org/dc/dcmitype/StillImage" />
        <dc:title></dc:title>
      </cc:Work>
    </rdf:RDF>
  </metadata>
  <defs
     id="defs3062">
    <linearGradient
       id="linearGradient4258">
      <stop
         style="stop-color:#000000;stop-opacity:0;"
         offset="0"
         id="stop4260" />
      <stop
         style="stop-color:#000000;stop-opacity:1;"
         offset="1"
         id="stop4262" />
    </linearGradient>
    <linearGradient
       id="linearGradient4194">
      <stop
         style="stop-color:#ffffff;stop-opacity:1;"
         offset="0"
         id="stop4196" />
      <stop
         style="stop-color:#ffffff;stop-opacity:0;"
         offset="1"
         id="stop4198" />
    </linearGradient>
    <linearGradient
       inkscape:collect="always"
       xlink:href="#linearGradient4258"
       id="linearGradient4272"
       x1="202.21295"
       y1="196.72467"
       x2="299.43234"
       y2="206.22586"
       gradientUnits="userSpaceOnUse" />
    <linearGradient
       inkscape:collect="always"
       xlink:href="#linearGradient4194"
       id="linearGradient4290"
       x1="108.63452"
       y1="197.9915"
       x2="203"
       y2="207.49269"
       gradientUnits="userSpaceOnUse" />
    <filter
       inkscape:collect="always"
       id="filter4296">
      <feGaussianBlur
         inkscape:collect="always"
         stdDeviation="6.2930176"
         id="feGaussianBlur4298" />
    </filter>
    <linearGradient
       inkscape:collect="always"
       xlink:href="#linearGradient4322-4"
       id="linearGradient4328-8"
       x1="48.39328"
       y1="202.0667"
       x2="352.55685"
       y2="202.0667"
       gradientUnits="userSpaceOnUse" />
    <linearGradient
       inkscape:collect="always"
       id="linearGradient4322-4">
      <stop
         style="stop-color:#3a3a3a;stop-opacity:1;"
         offset="0"
         id="stop4324-0" />
      <stop
         style="stop-color:#3a3a3a;stop-opacity:0;"
         offset="1"
         id="stop4326-3" />
    </linearGradient>
    <linearGradient
       inkscape:collect="always"
       xlink:href="#linearGradient4194"
       id="linearGradient4370"
       x1="353.38141"
       y1="257.17358"
       x2="242.34308"
       y2="260.97406"
       gradientUnits="userSpaceOnUse" />
    <linearGradient
       inkscape:collect="always"
       xlink:href="#linearGradient4322-4"
       id="linearGradient3875"
       gradientUnits="userSpaceOnUse"
       x1="61.110001"
       y1="202.44427"
       x2="277.13229"
       y2="198.6438" />
    <filter
       id="filter4397"
       inkscape:label="Bloom"
       inkscape:menu="Bevels"
       inkscape:menu-tooltip="Soft, cushion-like bevel with matte highlights"
       color-interpolation-filters="sRGB">
      <feGaussianBlur
         id="feGaussianBlur4399"
         result="result1"
         in="SourceAlpha"
         stdDeviation="2.2" />
      <feSpecularLighting
         id="feSpecularLighting4401"
         result="result0"
         specularExponent="18.1"
         specularConstant="2"
         surfaceScale="5">
        <feDistantLight
           id="feDistantLight4403"
           azimuth="225"
           elevation="24" />
      </feSpecularLighting>
      <feComposite
         id="feComposite4405"
         in2="SourceAlpha"
         result="result6"
         operator="in" />
      <feMorphology
         id="feMorphology4407"
         radius="5.7"
         operator="dilate" />
      <feGaussianBlur
         id="feGaussianBlur4409"
         result="result11"
         stdDeviation="5.7" />
      <feDiffuseLighting
         id="feDiffuseLighting4411"
         surfaceScale="5"
         result="result3"
         diffuseConstant="2"
         in="result1">
        <feDistantLight
           id="feDistantLight4413"
           elevation="25"
           azimuth="225" />
      </feDiffuseLighting>
      <feBlend
         id="feBlend4415"
         in2="SourceGraphic"
         result="result7"
         mode="multiply"
         in="result3" />
      <feComposite
         id="feComposite4417"
         in2="SourceAlpha"
         in="result7"
         operator="in"
         result="result91" />
      <feBlend
         id="feBlend4419"
         in2="result91"
         result="result9"
         mode="lighten"
         in="result6" />
      <feComposite
         id="feComposite4421"
         in2="result9"
         in="result11" />
    </filter>
    <filter
       id="filter4546"
       inkscape:label="Button"
       x="0"
       y="0"
       width="1"
       height="1"
       inkscape:menu="Bevels"
       inkscape:menu-tooltip="Soft bevel, slightly depressed middle"
       color-interpolation-filters="sRGB">
      <feGaussianBlur
         id="feGaussianBlur4548"
         stdDeviation="2.3"
         in="SourceAlpha"
         result="result0" />
      <feMorphology
         id="feMorphology4550"
         in="SourceAlpha"
         radius="6.6"
         result="result1" />
      <feGaussianBlur
         id="feGaussianBlur4552"
         stdDeviation="8.9"
         in="result1" />
      <feColorMatrix
         id="feColorMatrix4554"
         values="1 0 0 0 0 0 1 0 0 0 0 0 1 0 0 0 0 0 0.3 0"
         result="result91" />
      <feComposite
         id="feComposite4556"
         in2="result91"
         in="result0"
         operator="out"
         result="result2" />
      <feGaussianBlur
         id="feGaussianBlur4558"
         stdDeviation="1.7"
         result="result4" />
      <feDiffuseLighting
         id="feDiffuseLighting4560"
         surfaceScale="10"
         result="result92">
        <feDistantLight
           id="feDistantLight4562"
           azimuth="225"
           elevation="45" />
      </feDiffuseLighting>
      <feBlend
         id="feBlend4564"
         in2="SourceGraphic"
         mode="multiply"
         result="result93" />
      <feComposite
         id="feComposite4566"
         in2="SourceAlpha"
         operator="in"
         result="result3" />
      <feSpecularLighting
         id="feSpecularLighting4568"
         in="result4"
         surfaceScale="5"
         specularExponent="17.9"
         result="result94">
        <feDistantLight
           id="feDistantLight4570"
           azimuth="225"
           elevation="45" />
      </feSpecularLighting>
      <feComposite
         id="feComposite4572"
         in2="result3"
         operator="atop" />
    </filter>
    <filter
       inkscape:collect="always"
       id="filter4582">
      <feGaussianBlur
         inkscape:collect="always"
         stdDeviation="6.2930176"
         id="feGaussianBlur4584" />
    </filter>
    <filter
       id="filter5065"
       inkscape:label="Ridged border"
       inkscape:menu="Bevels"
       inkscape:menu-tooltip="Ridged border with inner bevel"
       color-interpolation-filters="sRGB">
      <feMorphology
         id="feMorphology5067"
         radius="4.3"
         in="SourceAlpha"
         result="result91" />
      <feComposite
         id="feComposite5069"
         in2="result91"
         operator="out"
         in="SourceGraphic" />
      <feGaussianBlur
         id="feGaussianBlur5071"
         result="result0"
         stdDeviation="1.2" />
      <feDiffuseLighting
         id="feDiffuseLighting5073"
         diffuseConstant="1"
         result="result92">
        <feDistantLight
           id="feDistantLight5075"
           elevation="66"
           azimuth="225" />
      </feDiffuseLighting>
      <feBlend
         id="feBlend5077"
         in2="SourceGraphic"
         mode="multiply"
         result="result93" />
      <feComposite
         id="feComposite5079"
         in2="SourceAlpha"
         operator="in" />
    </filter>
    <filter
       id="filter5221"
       inkscape:label="Combined lighting"
       inkscape:menu="Bevels"
       inkscape:menu-tooltip="Basic specular bevel to use for building textures"
       color-interpolation-filters="sRGB">
      <feGaussianBlur
         id="feGaussianBlur5223"
         stdDeviation="6"
         in="SourceGraphic"
         result="result0" />
      <feDiffuseLighting
         id="feDiffuseLighting5225"
         lighting-color="rgb(255,255,255)"
         diffuseConstant="1"
         surfaceScale="4"
         result="result5">
        <feDistantLight
           id="feDistantLight5227"
           elevation="45"
           azimuth="235" />
      </feDiffuseLighting>
      <feComposite
         id="feComposite5229"
         in2="SourceGraphic"
         k1="1.4"
         in="result5"
         result="fbSourceGraphic"
         operator="arithmetic" />
      <feGaussianBlur
         id="feGaussianBlur5231"
         result="result0"
         in="fbSourceGraphic"
         stdDeviation="6" />
      <feSpecularLighting
         id="feSpecularLighting5233"
         specularExponent="25"
         specularConstant="1"
         surfaceScale="4"
         lighting-color="rgb(255,255,255)"
         result="result1"
         in="result0">
        <feDistantLight
           id="feDistantLight5235"
           azimuth="235"
           elevation="45" />
      </feSpecularLighting>
      <feComposite
         id="feComposite5237"
         in2="result1"
         k3="1"
         k2="1"
         operator="arithmetic"
         result="result4"
         in="fbSourceGraphic" />
      <feComposite
         id="feComposite5239"
         in2="SourceGraphic"
         operator="in"
         result="result2"
         in="result4" />
    </filter>
    <filter
       id="filter5327"
       inkscape:label="Button"
       x="0"
       y="0"
       width="1"
       height="1"
       inkscape:menu="Bevels"
       inkscape:menu-tooltip="Soft bevel, slightly depressed middle"
       color-interpolation-filters="sRGB">
      <feGaussianBlur
         id="feGaussianBlur5329"
         stdDeviation="2.3"
         in="SourceAlpha"
         result="result0" />
      <feMorphology
         id="feMorphology5331"
         in="SourceAlpha"
         radius="6.6"
         result="result1" />
      <feGaussianBlur
         id="feGaussianBlur5333"
         stdDeviation="8.9"
         in="result1" />
      <feColorMatrix
         id="feColorMatrix5335"
         values="1 0 0 0 0 0 1 0 0 0 0 0 1 0 0 0 0 0 0.3 0"
         result="result91" />
      <feComposite
         id="feComposite5337"
         in2="result91"
         in="result0"
         operator="out"
         result="result2" />
      <feGaussianBlur
         id="feGaussianBlur5339"
         stdDeviation="1.7"
         result="result4" />
      <feDiffuseLighting
         id="feDiffuseLighting5341"
         surfaceScale="10"
         result="result92">
        <feDistantLight
           id="feDistantLight5343"
           azimuth="225"
           elevation="45" />
      </feDiffuseLighting>
      <feBlend
         id="feBlend5345"
         in2="SourceGraphic"
         mode="multiply"
         result="result93" />
      <feComposite
         id="feComposite5347"
         in2="SourceAlpha"
         operator="in"
         result="result3" />
      <feSpecularLighting
         id="feSpecularLighting5349"
         in="result4"
         surfaceScale="5"
         specularExponent="17.9"
         result="result94">
        <feDistantLight
           id="feDistantLight5351"
           azimuth="225"
           elevation="45" />
      </feSpecularLighting>
      <feComposite
         id="feComposite5353"
         in2="result3"
         operator="atop" />
    </filter>
  </defs>
  <sodipodi:namedview
     pagecolor="#ffffff"
     bordercolor="#666666"
     borderopacity="1"
     objecttolerance="10"
     gridtolerance="10"
     guidetolerance="10"
     inkscape:pageopacity="0"
     inkscape:pageshadow="2"
     inkscape:window-width="1600"
     inkscape:window-height="848"
     id="namedview3060"
     showgrid="false"
     showguides="false"
     inkscape:guide-bbox="true"
     inkscape:zoom="0.48807293"
     inkscape:cx="705.20252"
     inkscape:cy="-129.80585"
     inkscape:current-layer="layer12"
     inkscape:window-x="0"
     inkscape:window-y="0"
     inkscape:window-maximized="1">
    <sodipodi:guide
       orientation="0,1"
       position="-54.631872,266.03347"
       id="guide3086" />
    <sodipodi:guide
       orientation="1,0"
       position="250.59402,336.10478"
       id="guide3090" />
    <sodipodi:guide
       orientation="1,0"
       position="59.587743,275.65196"
       id="guide3092" />
    <sodipodi:guide
       orientation="1,0"
       position="441.19953,221.61636"
       id="guide3094" />
  </sodipodi:namedview>
  <g
     inkscape:groupmode="layer"
     id="layer13"
     inkscape:label="bottom"
     style="display:inline">
    <rect
       style="color:#000000;fill:#f5f5f5;fill-opacity:1;fill-rule:nonzero;stroke:none;stroke-width:0.25000021;marker:none;visibility:visible;display:inline;overflow:visible;enable-background:accumulate"
       id="rect3898"
       width="979.36182"
       height="560.02557"
       x="-12.293244"
       y="-21.779545"
       transform="matrix(1.2150618,0,0,0.975609,1305.2687,-38.79185)" />
  </g>
  <g
     inkscape:groupmode="layer"
     id="layer8"
     inkscape:label="head unused"
     style="display:none">
    <path
       inkscape:connector-curvature="0"
       transform="translate(0,2.5086125e-6)"
       id="path3394-8-5"
       style="opacity:0.32618025;fill:url(#linearGradient4370);fill-opacity:1;stroke:none;display:inline"
       d="m 200.47506,389.13196 c 24.05426,0.1704 48.15858,-14.79329 65.64094,-26.78071 7.15,-4.94 21.44134,-15.00047 24,-18.97 8.35544,-12.96272 11.32412,-24.41611 11.32412,-24.41611 3.73,-11.2 8.88,-37.9 10.51,-50 10.16,7.17 15.54,-2.29 19.28,-11 l 6.03,-18 14.18,-30 c 1.9,-7.51 0.87,-8.2 0.55,-15 -0.34,-7 0.07,-17.77 -8.06,-20.46 -1.73,-0.44 -4.12,-0.6 -5.89,0 -5.11,1.32 -5.13,6.13 -11.09,9.46 l 2.92,-20 0,-24 c 0.04,-27.27 -14.24,-62.089997 -31.38,-82.999997 -7.95,-9.69 -21.53,-18.35 -32.54,-24.37 -16.56,-9.06 -28.75039,-11.957806 -47,-15.24 -5.77039,-1.037806 -12.55506,-2.32 -18.47506,-2.39 m 0,374.201677 c -24.05426,0.1704 -48.15858,-14.79329 -65.64094,-26.78071 -7.15,-4.94 -21.44134,-15.00047 -24,-18.97 C 102.47868,330.45339 99.51,319 99.51,319 95.78,307.8 90.63,281.1 89,269 78.84,276.17 73.46,266.71 69.72,258 L 63.69,240 49.51,210 c -1.9,-7.51 -0.87,-8.2 -0.55,-15 0.34,-7 -0.07,-17.77 8.06,-20.46 1.73,-0.44 4.12,-0.6 5.89,0 5.11,1.32 5.13,6.13 11.09,9.46 l -2.92,-20 0,-24 c -0.04,-27.27 14.24,-62.09 31.38,-83 7.95,-9.69 21.53,-18.35 32.54,-24.37 16.56,-9.06 28.75039,-11.957806 47,-15.24 5.77039,-1.037806 12.55506,-2.32 18.47506,-2.39" />
    <path
       inkscape:connector-curvature="0"
       transform="translate(3.1184052e-7,-2.6077725e-6)"
       id="Selection#1-9-4"
       style="fill:none;stroke:#767676;stroke-width:1.7199986;stroke-miterlimit:4;stroke-opacity:1;stroke-dasharray:none;display:inline"
       d="m 200.47506,27.714906 c 5.81,0.07 11.18516,0.95961 16.47506,1.810237 21.1401,3.399373 36.96,8.98 55,20.78 4.44,2.91 10.16,6.97 13.83,10.75 10.71,11.03 22.19,33.1 26.6,47.909997 5.61,18.82 4.66,33.82 4.57,53 -0.04,8.04 -4.48,21.11 0,27.83 2.14,3.2 7.09,6.47 11,6.66 5.4,0.26 11.45,-6.33 11.89,3.51 l 0,4 c -0.9,7.58 -11.83,25.06 -15.38,35 -1.09,3.05 -4.45,14.79 -6.21,16.36 -1.99,1.78 -4.15,0.8 -7.3,1.51 -4.43,1.01 -8.29,3.99 -10.18,8.13 -2.24,4.91 -2.42,11.83 -3.49,17 -2.84,13.76 -7.26,38.52 -14.46,49.96 -1.91,3.04 -4.02,6.47678 -6.52,8.91678 -7.96483,6.72644 -13.93,11.73322 -27.35,19.21322 -10.96,6.11 -20.45654,13.30881 -32.82654,15.49881 l -15.64852,1.58484 m 0,-349.389027 c -5.81,0.07 -11.18516,0.95961 -16.47506,1.810237 -21.1401,3.399373 -36.96,8.98 -55,20.78 -4.44,2.91 -10.16,6.97 -13.83,10.75 -10.71,11.03 -22.19,33.1 -26.6,47.91 -5.61,18.82 -4.66,33.82 -4.57,53 0.04,8.04 4.48,21.11 0,27.83 -2.14,3.2 -7.09,6.47 -11,6.66 -5.4,0.26 -11.45,-6.33 -11.89,3.51 l 0,4 c 0.9,7.58 11.83,25.06 15.38,35 1.09,3.05 4.45,14.79 6.21,16.36 1.99,1.78 4.15,0.8 7.3,1.51 4.43,1.01 8.29,3.99 10.18,8.13 2.24,4.91 2.42,11.83 3.49,17 2.84,13.76 7.26,38.52 14.46,49.96 1.91,3.04 4.02,6.47678 6.52,8.91678 7.96483,6.72644 13.93,11.73322 27.35,19.21322 10.96,6.11 20.45654,13.30881 32.82654,15.49881 l 15.64852,1.58484" />
    <path
       transform="matrix(0.79999937,0,0,0.79999937,3.7097868e-7,-2.7063826e-6)"
       style="fill:#3a3a3a;fill-opacity:0.99029122;stroke:none;display:inline"
       d="m 250.59375,18.71875 0,0.03125 c -7.40001,0.0875 -15.88076,1.702741 -23.09375,3 -22.81203,4.102746 -38.04998,7.706241 -58.75,19.03125 C 154.98749,48.306256 138.00001,59.13749 128.0625,71.25 106.63748,97.387521 88.79375,140.91247 88.84375,175 l 0,30 3.65625,25 c -7.450006,-4.1625 -7.487495,-10.1625 -13.875,-11.8125 -2.212502,-0.75 -5.181248,-0.55 -7.34375,0 -10.162508,3.3625 -9.66875,16.81249 -10.09375,25.5625 -0.4,8.50001 -1.687502,9.36249 0.6875,18.75 l 17.75,37.5 7.53125,22.5 c 4.675004,10.88751 11.39374,22.71251 24.09375,13.75 2.0375,15.12501 8.4625,48.49999 13.125,62.5 0,0 3.71194,14.32784 14.15625,30.53125 3.19833,4.96192 21.06249,17.5125 30,23.6875 21.85297,14.98429 51.99465,33.713 82.0625,33.5 l 0,-0.0625 c 30.06785,0.213 60.20953,-18.48446 82.0625,-33.46875 8.93751,-6.175 26.80167,-18.75683 30,-23.71875 10.44431,-16.20341 14.15625,-30.5 14.15625,-30.5 4.6625,-14.00001 11.0875,-47.37499 13.125,-62.5 12.70001,8.96251 19.41875,-2.86249 24.09375,-13.75 l 7.53125,-22.5 17.75,-37.5 c 2.375,-9.38751 1.0875,-10.24999 0.6875,-18.75 -0.425,-8.75001 0.0688,-22.23125 -10.09375,-25.59375 -2.1625,-0.55 -5.13125,-0.75 -7.34375,0 -6.38751,1.65 -6.42499,7.68125 -13.875,11.84375 l 3.65625,-25 0,-30 c 0.05,-34.08753 -17.79373,-77.612479 -39.21875,-103.75 C 363.18749,59.10624 346.20001,48.275006 332.4375,40.75 311.73748,29.424991 296.49953,25.790246 273.6875,21.6875 266.47451,20.390241 257.99376,18.80625 250.59375,18.71875 z m 0,15.9375 c 7.26251,0.0875 13.98137,1.186715 20.59375,2.25 26.42515,4.24922 46.19998,11.218738 68.75,25.96875 5.55,3.637503 12.69375,8.712496 17.28125,13.4375 13.38751,13.787511 27.7375,41.39374 33.25,59.90625 7.01251,23.52502 5.83125,42.27498 5.71875,66.25 -0.05,10.05001 -5.6,26.38124 0,34.78125 2.675,4 8.8625,8.075 13.75,8.3125 6.75001,0.325 14.325,-7.89376 14.875,4.40625 l 0,5 c -1.125,9.47501 -14.8125,31.32499 -19.25,43.75 -1.3625,3.8125 -5.55,18.475 -7.75,20.4375 -2.4875,2.225 -5.1875,0.9875 -9.125,1.875 -5.5375,1.2625 -10.35625,5.0125 -12.71875,10.1875 -2.8,6.1375 -3.0375,14.78749 -4.375,21.25 -3.55,17.20001 -9.06249,48.13749 -18.0625,62.4375 -2.3875,3.8 -5.03125,8.10625 -8.15625,11.15625 -9.95605,8.40806 -17.41249,14.64999 -34.1875,24 -13.70001,7.63751 -25.56874,16.6375 -41.03125,19.375 l -19.5625,2 0,0.0312 -19.5625,-1.9687 C 215.56874,466.7625 203.70001,457.76251 190,450.125 c -16.77501,-9.35001 -24.23145,-15.62319 -34.1875,-24.03125 -3.125,-3.05 -5.76875,-7.35625 -8.15625,-11.15625 -9.00001,-14.30001 -14.5125,-45.23749 -18.0625,-62.4375 -1.3375,-6.46251 -1.575,-15.1125 -4.375,-21.25 -2.3625,-5.175 -7.18125,-8.89375 -12.71875,-10.15625 -3.9375,-0.8875 -6.6375,0.31875 -9.125,-1.90625 -2.2,-1.9625 -6.387499,-16.625 -7.75,-20.4375 C 91.187496,286.32499 77.500001,264.47501 76.375,255 l 0,-5 c 0.55,-12.30001 8.124995,-4.05 14.875,-4.375 4.887504,-0.2375 11.075,-4.34375 13.75,-8.34375 5.6,-8.40001 0.05,-24.73124 0,-34.78125 -0.1125,-23.97502 -1.29376,-42.72498 5.71875,-66.25 5.5125,-18.51251 19.86249,-46.087489 33.25,-59.875 4.5875,-4.725004 11.73125,-9.799997 17.28125,-13.4375 22.55002,-14.750012 42.32485,-21.75078 68.75,-26 6.61238,-1.063285 13.33124,-2.1625 20.59375,-2.25 l 0,-0.03125 z"
       id="path3394-5-1"
       inkscape:connector-curvature="0" />
  </g>
  <g
     inkscape:groupmode="layer"
     id="layer11"
     inkscape:label="Head outline opt3"
     style="display:none">
    <path
       transform="matrix(0.79999937,0,0,0.79999937,3.7097868e-7,-2.7063826e-6)"
       style="fill:#3a3a3a;fill-opacity:0.99029122;stroke:none;display:inline;filter:url(#filter5065)"
       d="m 250.59375,18.71875 0,0.03125 c -7.40001,0.0875 -15.88076,1.702741 -23.09375,3 -22.81203,4.102746 -38.04998,7.706241 -58.75,19.03125 C 154.98749,48.306256 138.00001,59.13749 128.0625,71.25 106.63748,97.387521 88.79375,140.91247 88.84375,175 l 0,30 3.65625,25 c -7.450006,-4.1625 -7.487495,-10.1625 -13.875,-11.8125 -2.212502,-0.75 -5.181248,-0.55 -7.34375,0 -10.162508,3.3625 -9.66875,16.81249 -10.09375,25.5625 -0.4,8.50001 -1.687502,9.36249 0.6875,18.75 l 17.75,37.5 7.53125,22.5 c 4.675004,10.88751 11.39374,22.71251 24.09375,13.75 2.0375,15.12501 8.4625,48.49999 13.125,62.5 0,0 3.71194,14.32784 14.15625,30.53125 3.19833,4.96192 21.06249,17.5125 30,23.6875 21.85297,14.98429 51.99465,33.713 82.0625,33.5 l 0,-0.0625 c 30.06785,0.213 60.20953,-18.48446 82.0625,-33.46875 8.93751,-6.175 26.80167,-18.75683 30,-23.71875 10.44431,-16.20341 14.15625,-30.5 14.15625,-30.5 4.6625,-14.00001 11.0875,-47.37499 13.125,-62.5 12.70001,8.96251 19.41875,-2.86249 24.09375,-13.75 l 7.53125,-22.5 17.75,-37.5 c 2.375,-9.38751 1.0875,-10.24999 0.6875,-18.75 -0.425,-8.75001 0.0688,-22.23125 -10.09375,-25.59375 -2.1625,-0.55 -5.13125,-0.75 -7.34375,0 -6.38751,1.65 -6.42499,7.68125 -13.875,11.84375 l 3.65625,-25 0,-30 c 0.05,-34.08753 -17.79373,-77.612479 -39.21875,-103.75 C 363.18749,59.10624 346.20001,48.275006 332.4375,40.75 311.73748,29.424991 296.49953,25.790246 273.6875,21.6875 266.47451,20.390241 257.99376,18.80625 250.59375,18.71875 z m 0,15.9375 c 7.26251,0.0875 13.98137,1.186715 20.59375,2.25 26.42515,4.24922 46.19998,11.218738 68.75,25.96875 5.55,3.637503 12.69375,8.712496 17.28125,13.4375 13.38751,13.787511 27.7375,41.39374 33.25,59.90625 7.01251,23.52502 5.83125,42.27498 5.71875,66.25 -0.05,10.05001 -5.6,26.38124 0,34.78125 2.675,4 8.8625,8.075 13.75,8.3125 6.75001,0.325 14.325,-7.89376 14.875,4.40625 l 0,5 c -1.125,9.47501 -14.8125,31.32499 -19.25,43.75 -1.3625,3.8125 -5.55,18.475 -7.75,20.4375 -2.4875,2.225 -5.1875,0.9875 -9.125,1.875 -5.5375,1.2625 -10.35625,5.0125 -12.71875,10.1875 -2.8,6.1375 -3.0375,14.78749 -4.375,21.25 -3.55,17.20001 -9.06249,48.13749 -18.0625,62.4375 -2.3875,3.8 -5.03125,8.10625 -8.15625,11.15625 -9.95605,8.40806 -17.41249,14.64999 -34.1875,24 -13.70001,7.63751 -25.56874,16.6375 -41.03125,19.375 l -19.5625,2 0,0.0312 -19.5625,-1.9687 C 215.56874,466.7625 203.70001,457.76251 190,450.125 c -16.77501,-9.35001 -24.23145,-15.62319 -34.1875,-24.03125 -3.125,-3.05 -5.76875,-7.35625 -8.15625,-11.15625 -9.00001,-14.30001 -14.5125,-45.23749 -18.0625,-62.4375 -1.3375,-6.46251 -1.575,-15.1125 -4.375,-21.25 -2.3625,-5.175 -7.18125,-8.89375 -12.71875,-10.15625 -3.9375,-0.8875 -6.6375,0.31875 -9.125,-1.90625 -2.2,-1.9625 -6.387499,-16.625 -7.75,-20.4375 C 91.187496,286.32499 77.500001,264.47501 76.375,255 l 0,-5 c 0.55,-12.30001 8.124995,-4.05 14.875,-4.375 4.887504,-0.2375 11.075,-4.34375 13.75,-8.34375 5.6,-8.40001 0.05,-24.73124 0,-34.78125 -0.1125,-23.97502 -1.29376,-42.72498 5.71875,-66.25 5.5125,-18.51251 19.86249,-46.087489 33.25,-59.875 4.5875,-4.725004 11.73125,-9.799997 17.28125,-13.4375 22.55002,-14.750012 42.32485,-21.75078 68.75,-26 6.61238,-1.063285 13.33124,-2.1625 20.59375,-2.25 l 0,-0.03125 z"
       id="path3394-5-1-5"
       inkscape:connector-curvature="0" />
  </g>
  <g
     inkscape:label="Head outline"
     id="g4857"
     inkscape:groupmode="layer"
     style="display:none">
    <path
       inkscape:connector-curvature="0"
       id="path4859"
       d="m 250.59375,18.71875 0,0.03125 c -7.40001,0.0875 -15.88076,1.702741 -23.09375,3 -22.81203,4.102746 -38.04998,7.706241 -58.75,19.03125 C 154.98749,48.306256 138.00001,59.13749 128.0625,71.25 106.63748,97.387521 88.79375,140.91247 88.84375,175 l 0,30 3.65625,25 c -7.450006,-4.1625 -7.487495,-10.1625 -13.875,-11.8125 -2.212502,-0.75 -5.181248,-0.55 -7.34375,0 -10.162508,3.3625 -9.66875,16.81249 -10.09375,25.5625 -0.4,8.50001 -1.687502,9.36249 0.6875,18.75 l 17.75,37.5 7.53125,22.5 c 4.675004,10.88751 11.39374,22.71251 24.09375,13.75 2.0375,15.12501 8.4625,48.49999 13.125,62.5 0,0 3.71194,14.32784 14.15625,30.53125 3.19833,4.96192 21.06249,17.5125 30,23.6875 21.85297,14.98429 51.99465,33.713 82.0625,33.5 l 0,-0.0625 c 30.06785,0.213 60.20953,-18.48446 82.0625,-33.46875 8.93751,-6.175 26.80167,-18.75683 30,-23.71875 10.44431,-16.20341 14.15625,-30.5 14.15625,-30.5 4.6625,-14.00001 11.0875,-47.37499 13.125,-62.5 12.70001,8.96251 19.41875,-2.86249 24.09375,-13.75 l 7.53125,-22.5 17.75,-37.5 c 2.375,-9.38751 1.0875,-10.24999 0.6875,-18.75 -0.425,-8.75001 0.0688,-22.23125 -10.09375,-25.59375 -2.1625,-0.55 -5.13125,-0.75 -7.34375,0 -6.38751,1.65 -6.42499,7.68125 -13.875,11.84375 l 3.65625,-25 0,-30 c 0.05,-34.08753 -17.79373,-77.612479 -39.21875,-103.75 C 363.18749,59.10624 346.20001,48.275006 332.4375,40.75 311.73748,29.424991 296.49953,25.790246 273.6875,21.6875 266.47451,20.390241 257.99376,18.80625 250.59375,18.71875 z m 0,15.9375 c 7.26251,0.0875 13.98137,1.186715 20.59375,2.25 26.42515,4.24922 46.19998,11.218738 68.75,25.96875 5.55,3.637503 12.69375,8.712496 17.28125,13.4375 13.38751,13.787511 27.7375,41.39374 33.25,59.90625 7.01251,23.52502 5.83125,42.27498 5.71875,66.25 -0.05,10.05001 -5.6,26.38124 0,34.78125 2.675,4 8.8625,8.075 13.75,8.3125 6.75001,0.325 14.325,-7.89376 14.875,4.40625 l 0,5 c -1.125,9.47501 -14.8125,31.32499 -19.25,43.75 -1.3625,3.8125 -5.55,18.475 -7.75,20.4375 -2.4875,2.225 -5.1875,0.9875 -9.125,1.875 -5.5375,1.2625 -10.35625,5.0125 -12.71875,10.1875 -2.8,6.1375 -3.0375,14.78749 -4.375,21.25 -3.55,17.20001 -9.06249,48.13749 -18.0625,62.4375 -2.3875,3.8 -5.03125,8.10625 -8.15625,11.15625 -9.95605,8.40806 -17.41249,14.64999 -34.1875,24 -13.70001,7.63751 -25.56874,16.6375 -41.03125,19.375 l -19.5625,2 0,0.0312 -19.5625,-1.9687 C 215.56874,466.7625 203.70001,457.76251 190,450.125 c -16.77501,-9.35001 -24.23145,-15.62319 -34.1875,-24.03125 -3.125,-3.05 -5.76875,-7.35625 -8.15625,-11.15625 -9.00001,-14.30001 -14.5125,-45.23749 -18.0625,-62.4375 -1.3375,-6.46251 -1.575,-15.1125 -4.375,-21.25 -2.3625,-5.175 -7.18125,-8.89375 -12.71875,-10.15625 -3.9375,-0.8875 -6.6375,0.31875 -9.125,-1.90625 -2.2,-1.9625 -6.387499,-16.625 -7.75,-20.4375 C 91.187496,286.32499 77.500001,264.47501 76.375,255 l 0,-5 c 0.55,-12.30001 8.124995,-4.05 14.875,-4.375 4.887504,-0.2375 11.075,-4.34375 13.75,-8.34375 5.6,-8.40001 0.05,-24.73124 0,-34.78125 -0.1125,-23.97502 -1.29376,-42.72498 5.71875,-66.25 5.5125,-18.51251 19.86249,-46.087489 33.25,-59.875 4.5875,-4.725004 11.73125,-9.799997 17.28125,-13.4375 22.55002,-14.750012 42.32485,-21.75078 68.75,-26 6.61238,-1.063285 13.33124,-2.1625 20.59375,-2.25 l 0,-0.03125 z"
       style="fill:#3a3a3a;fill-opacity:0.99029122;stroke:none;display:inline"
       transform="matrix(0.79999937,0,0,0.79999937,3.7097868e-7,-2.7063826e-6)" />
  </g>
  <g
     inkscape:groupmode="layer"
     id="layer14"
     inkscape:label="Head full white"
     style="display:inline">
    <path
       transform="translate(1.9955912e-6,2.5086125e-6)"
       id="path3394-9"
       style="fill:#fefefe;fill-opacity:0.99029122;stroke:none;display:inline"
       d="m 200.47506,389.13196 c 24.05426,0.1704 48.15858,-14.79329 65.64094,-26.78071 7.15,-4.94 21.44134,-15.00047 24,-18.97 8.35544,-12.96272 11.32412,-24.41611 11.32412,-24.41611 3.73,-11.2 8.88,-37.9 10.51,-50 10.16,7.17 15.54,-2.29 19.28,-11 l 6.03,-18 14.18,-30 c 1.9,-7.51 0.87,-8.2 0.55,-15 -0.34,-7 0.07,-17.77 -8.06,-20.46 -1.73,-0.44 -4.12,-0.6 -5.89,0 -5.11,1.32 -5.13,6.13 -11.09,9.46 l 2.92,-20 0,-24 c 0.04,-27.27 -14.24,-62.089997 -31.38,-82.999997 -7.95,-9.69 -21.53,-18.35 -32.54,-24.37 -16.56,-9.06 -28.75039,-11.957806 -47,-15.24 -5.77039,-1.037806 -12.55506,-2.32 -18.47506,-2.39 m 0,374.201677 c -24.05426,0.1704 -48.15858,-14.79329 -65.64094,-26.78071 -7.15,-4.94 -21.44134,-15.00047 -24,-18.97 C 102.47868,330.45339 99.51,319 99.51,319 95.78,307.8 90.63,281.1 89,269 78.84,276.17 73.46,266.71 69.72,258 L 63.69,240 49.51,210 c -1.9,-7.51 -0.87,-8.2 -0.55,-15 0.34,-7 -0.07,-17.77 8.06,-20.46 1.73,-0.44 4.12,-0.6 5.89,0 5.11,1.32 5.13,6.13 11.09,9.46 l -2.92,-20 0,-24 c -0.04,-27.27 14.24,-62.09 31.38,-83 7.95,-9.69 21.53,-18.35 32.54,-24.37 16.56,-9.06 28.75039,-11.957806 47,-15.24 5.77039,-1.037806 12.55506,-2.32 18.47506,-2.39"
       inkscape:connector-curvature="0" />
  </g>
  <g
     style="display:inline"
     inkscape:groupmode="layer"
     id="g5241"
     inkscape:label="Head outline opt4">
    <path
       style="fill:#3a3a3a;fill-opacity:0.99029122;stroke:none;display:inline;filter:url(#filter5327)"
       d="M 249.625,14.71875 C 218.17285,17.678855 186.60868,24.703291 159.4375,41.375 140.98509,51.911978 124.4821,65.933813 113.77994,84.533892 94.428165,115.1189 83.239671,151.32477 84.71875,187.78125 c 0.08314,10.41538 0.0467,20.93168 2.21875,31.15625 -7.0379,-8.3633 -21.921465,-6.48572 -26.25,3.6875 -4.54119,9.91885 -3.408245,21.27037 -4.0625,31.9375 -0.05363,12.06385 8.441242,21.6193 12.553871,32.52837 6.708908,12.90842 10.820011,26.83187 15.821017,40.29169 3.222396,8.67313 11.56437,18.44471 21.781362,15.49244 3.6183,0.57689 2.17047,9.63535 3.82935,13.45365 4.60958,25.77422 9.75546,52.68731 24.3894,74.73385 9.45393,11.88311 23.3753,18.71988 35.3992,27.97518 25.40879,17.25531 54.63543,33.3277 86.44455,31.14982 36.11397,-3.22425 66.39974,-25.6818 95.04006,-46.00908 9.21936,-6.39798 16.93609,-14.84617 21.2509,-25.3541 11.67849,-23.77668 15.06847,-50.92787 20.05279,-76.44932 8.67911,3.84985 17.60521,-3.5377 21.09375,-11.15625 6.38412,-12.78067 9.03359,-27.08612 15.62876,-39.88835 6.09917,-14.5926 17.84808,-28.88878 14.24624,-45.67415 -0.3993,-10.68264 -0.0472,-24.98933 -11.15625,-30.625 -6.14012,-2.96348 -13.82998,-1.199 -18.59375,3.5 3.18897,-19.04557 2.29049,-38.72968 0.96875,-57.96875 C 410.57405,125.94942 396.21648,92.498042 373.57232,65.858394 356.2692,47.809986 333.65308,35.394299 310.39966,26.545317 290.90641,19.939716 270.15199,16.181097 249.625,14.71875 z m 1.6875,23.96875 c 37.20185,2.211859 74.93663,14.618701 102.5,40.0625 15.33466,16.004297 25.01474,36.79069 32.53125,57.4375 7.39863,25.12966 6.99404,52.12799 4.5966,78.00713 -2.23077,10.58423 -2.75264,24.10744 7.3409,30.86787 6.15162,5.05417 15.39601,5.60311 22.125,2.125 2.45758,13.06505 -7.35144,24.25052 -12.125,35.65625 -6.29382,10.38247 -7.92665,23.25966 -13.75,33.46875 -7.86406,-0.009 -15.99039,3.11769 -20.3125,10 -6.55933,10.63642 -5.18715,23.75868 -8.6875,35.4375 -4.57704,21.21393 -7.82291,44.45604 -22.9375,61.1875 -15.06963,14.47661 -34.30899,23.78268 -52.09375,34.59375 -14.6635,8.70805 -32.03748,10.32986 -48.74504,9.24425 -23.34436,-0.80717 -42.0068,-16.26368 -61.56746,-27.18175 -14.18341,-9.09549 -28.92344,-20.11523 -33.90625,-37.0625 -8.46354,-21.9166 -11.18689,-45.47652 -15.75,-68.375 -2.50087,-10.1991 -12.20254,-18.28132 -22.875,-17.46875 -4.39801,-1.05899 -3.10954,-7.83312 -5.43517,-10.90434 -4.667831,-16.69315 -14.476997,-31.02381 -20.78358,-46.97066 -1.077155,-3.51752 -1.787827,-8.08351 -0.34375,-11.34375 5.583815,1.57708 11.789563,3.68775 17.25,0.375 10.04533,-4.20065 15.32623,-15.74514 12.78125,-26.28125 -2.97156,-21.32659 -3.35693,-43.12847 -0.75725,-64.45759 3.71965,-27.18642 16.19772,-52.81509 33.226,-74.16741 12.81089,-14.590157 30.33527,-23.892212 47.875,-31.53125 19.07636,-7.660423 39.33276,-11.640724 59.84375,-12.71875 z"
       id="path5243"
       inkscape:connector-curvature="0"
       transform="matrix(0.79999937,0,0,0.79999937,3.9955912e-7,-2.7063826e-6)"
       inkscape:export-filename="/home/luke/devel/learnscripture.net/src/learnscripture/static/img/homepagetitle.png"
       inkscape:export-xdpi="44.291828"
       inkscape:export-ydpi="44.291828" />
  </g>
  <g
     inkscape:groupmode="layer"
     id="layer10"
     inkscape:label="Head outline opt2"
     style="display:none">
    <path
       transform="matrix(0.79999937,0,0,0.79999937,3.7097868e-7,-2.7063826e-6)"
       style="fill:#3a3a3a;fill-opacity:0.99029122;stroke:none;display:inline;filter:url(#filter4546)"
       d="m 250.59375,18.71875 0,0.03125 c -7.40001,0.0875 -15.88076,1.702741 -23.09375,3 -22.81203,4.102746 -38.04998,7.706241 -58.75,19.03125 C 154.98749,48.306256 138.00001,59.13749 128.0625,71.25 106.63748,97.387521 88.79375,140.91247 88.84375,175 l 0,30 3.65625,25 c -7.450006,-4.1625 -7.487495,-10.1625 -13.875,-11.8125 -2.212502,-0.75 -5.181248,-0.55 -7.34375,0 -10.162508,3.3625 -9.66875,16.81249 -10.09375,25.5625 -0.4,8.50001 -1.687502,9.36249 0.6875,18.75 l 17.75,37.5 7.53125,22.5 c 4.675004,10.88751 11.39374,22.71251 24.09375,13.75 2.0375,15.12501 8.4625,48.49999 13.125,62.5 0,0 3.71194,14.32784 14.15625,30.53125 3.19833,4.96192 21.06249,17.5125 30,23.6875 21.85297,14.98429 51.99465,33.713 82.0625,33.5 l 0,-0.0625 c 30.06785,0.213 60.20953,-18.48446 82.0625,-33.46875 8.93751,-6.175 26.80167,-18.75683 30,-23.71875 10.44431,-16.20341 14.15625,-30.5 14.15625,-30.5 4.6625,-14.00001 11.0875,-47.37499 13.125,-62.5 12.70001,8.96251 19.41875,-2.86249 24.09375,-13.75 l 7.53125,-22.5 17.75,-37.5 c 2.375,-9.38751 1.0875,-10.24999 0.6875,-18.75 -0.425,-8.75001 0.0688,-22.23125 -10.09375,-25.59375 -2.1625,-0.55 -5.13125,-0.75 -7.34375,0 -6.38751,1.65 -6.42499,7.68125 -13.875,11.84375 l 3.65625,-25 0,-30 c 0.05,-34.08753 -17.79373,-77.612479 -39.21875,-103.75 C 363.18749,59.10624 346.20001,48.275006 332.4375,40.75 311.73748,29.424991 296.49953,25.790246 273.6875,21.6875 266.47451,20.390241 257.99376,18.80625 250.59375,18.71875 z m 0,15.9375 c 7.26251,0.0875 13.98137,1.186715 20.59375,2.25 26.42515,4.24922 46.19998,11.218738 68.75,25.96875 5.55,3.637503 12.69375,8.712496 17.28125,13.4375 13.38751,13.787511 27.7375,41.39374 33.25,59.90625 7.01251,23.52502 5.83125,42.27498 5.71875,66.25 -0.05,10.05001 -5.6,26.38124 0,34.78125 2.675,4 8.8625,8.075 13.75,8.3125 6.75001,0.325 14.325,-7.89376 14.875,4.40625 l 0,5 c -1.125,9.47501 -14.8125,31.32499 -19.25,43.75 -1.3625,3.8125 -5.55,18.475 -7.75,20.4375 -2.4875,2.225 -5.1875,0.9875 -9.125,1.875 -5.5375,1.2625 -10.35625,5.0125 -12.71875,10.1875 -2.8,6.1375 -3.0375,14.78749 -4.375,21.25 -3.55,17.20001 -9.06249,48.13749 -18.0625,62.4375 -2.3875,3.8 -5.03125,8.10625 -8.15625,11.15625 -9.95605,8.40806 -17.41249,14.64999 -34.1875,24 -13.70001,7.63751 -25.56874,16.6375 -41.03125,19.375 l -19.5625,2 0,0.0312 -19.5625,-1.9687 C 215.56874,466.7625 203.70001,457.76251 190,450.125 c -16.77501,-9.35001 -24.23145,-15.62319 -34.1875,-24.03125 -3.125,-3.05 -5.76875,-7.35625 -8.15625,-11.15625 -9.00001,-14.30001 -14.5125,-45.23749 -18.0625,-62.4375 -1.3375,-6.46251 -1.575,-15.1125 -4.375,-21.25 -2.3625,-5.175 -7.18125,-8.89375 -12.71875,-10.15625 -3.9375,-0.8875 -6.6375,0.31875 -9.125,-1.90625 -2.2,-1.9625 -6.387499,-16.625 -7.75,-20.4375 C 91.187496,286.32499 77.500001,264.47501 76.375,255 l 0,-5 c 0.55,-12.30001 8.124995,-4.05 14.875,-4.375 4.887504,-0.2375 11.075,-4.34375 13.75,-8.34375 5.6,-8.40001 0.05,-24.73124 0,-34.78125 -0.1125,-23.97502 -1.29376,-42.72498 5.71875,-66.25 5.5125,-18.51251 19.86249,-46.087489 33.25,-59.875 4.5875,-4.725004 11.73125,-9.799997 17.28125,-13.4375 22.55002,-14.750012 42.32485,-21.75078 68.75,-26 6.61238,-1.063285 13.33124,-2.1625 20.59375,-2.25 l 0,-0.03125 z"
       id="path3394-5-1-9"
       inkscape:connector-curvature="0" />
  </g>
  <g
     inkscape:groupmode="layer"
     id="layer9"
     inkscape:label="Head outline opt1"
     style="display:none">
    <path
       style="fill:#3a3a3a;fill-opacity:0.99029122;stroke:none;display:inline;filter:url(#filter4397)"
       d="m 250.59375,18.71875 0,0.03125 c -7.40001,0.0875 -15.88076,1.702741 -23.09375,3 -22.81203,4.102746 -38.04998,7.706241 -58.75,19.03125 C 154.98749,48.306256 138.00001,59.13749 128.0625,71.25 106.63748,97.387521 88.79375,140.91247 88.84375,175 l 0,30 3.65625,25 c -7.450006,-4.1625 -7.487495,-10.1625 -13.875,-11.8125 -2.212502,-0.75 -5.181248,-0.55 -7.34375,0 -10.162508,3.3625 -9.66875,16.81249 -10.09375,25.5625 -0.4,8.50001 -1.687502,9.36249 0.6875,18.75 l 17.75,37.5 7.53125,22.5 c 4.675004,10.88751 11.39374,22.71251 24.09375,13.75 2.0375,15.12501 8.4625,48.49999 13.125,62.5 0,0 3.71194,14.32784 14.15625,30.53125 3.19833,4.96192 21.06249,17.5125 30,23.6875 21.85297,14.98429 51.99465,33.713 82.0625,33.5 l 0,-0.0625 c 30.06785,0.213 60.20953,-18.48446 82.0625,-33.46875 8.93751,-6.175 26.80167,-18.75683 30,-23.71875 10.44431,-16.20341 14.15625,-30.5 14.15625,-30.5 4.6625,-14.00001 11.0875,-47.37499 13.125,-62.5 12.70001,8.96251 19.41875,-2.86249 24.09375,-13.75 l 7.53125,-22.5 17.75,-37.5 c 2.375,-9.38751 1.0875,-10.24999 0.6875,-18.75 -0.425,-8.75001 0.0688,-22.23125 -10.09375,-25.59375 -2.1625,-0.55 -5.13125,-0.75 -7.34375,0 -6.38751,1.65 -6.42499,7.68125 -13.875,11.84375 l 3.65625,-25 0,-30 c 0.05,-34.08753 -17.79373,-77.612479 -39.21875,-103.75 C 363.18749,59.10624 346.20001,48.275006 332.4375,40.75 311.73748,29.424991 296.49953,25.790246 273.6875,21.6875 266.47451,20.390241 257.99376,18.80625 250.59375,18.71875 z m 0,15.9375 c 7.26251,0.0875 13.98137,1.186715 20.59375,2.25 26.42515,4.24922 46.19998,11.218738 68.75,25.96875 5.55,3.637503 12.69375,8.712496 17.28125,13.4375 13.38751,13.787511 27.7375,41.39374 33.25,59.90625 7.01251,23.52502 5.83125,42.27498 5.71875,66.25 -0.05,10.05001 -5.6,26.38124 0,34.78125 2.675,4 8.8625,8.075 13.75,8.3125 6.75001,0.325 14.325,-7.89376 14.875,4.40625 l 0,5 c -1.125,9.47501 -14.8125,31.32499 -19.25,43.75 -1.3625,3.8125 -5.55,18.475 -7.75,20.4375 -2.4875,2.225 -5.1875,0.9875 -9.125,1.875 -5.5375,1.2625 -10.35625,5.0125 -12.71875,10.1875 -2.8,6.1375 -3.0375,14.78749 -4.375,21.25 -3.55,17.20001 -9.06249,48.13749 -18.0625,62.4375 -2.3875,3.8 -5.03125,8.10625 -8.15625,11.15625 -9.95605,8.40806 -17.41249,14.64999 -34.1875,24 -13.70001,7.63751 -25.56874,16.6375 -41.03125,19.375 l -19.5625,2 0,0.0312 -19.5625,-1.9687 C 215.56874,466.7625 203.70001,457.76251 190,450.125 c -16.77501,-9.35001 -24.23145,-15.62319 -34.1875,-24.03125 -3.125,-3.05 -5.76875,-7.35625 -8.15625,-11.15625 -9.00001,-14.30001 -14.5125,-45.23749 -18.0625,-62.4375 -1.3375,-6.46251 -1.575,-15.1125 -4.375,-21.25 -2.3625,-5.175 -7.18125,-8.89375 -12.71875,-10.15625 -3.9375,-0.8875 -6.6375,0.31875 -9.125,-1.90625 -2.2,-1.9625 -6.387499,-16.625 -7.75,-20.4375 C 91.187496,286.32499 77.500001,264.47501 76.375,255 l 0,-5 c 0.55,-12.30001 8.124995,-4.05 14.875,-4.375 4.887504,-0.2375 11.075,-4.34375 13.75,-8.34375 5.6,-8.40001 0.05,-24.73124 0,-34.78125 -0.1125,-23.97502 -1.29376,-42.72498 5.71875,-66.25 5.5125,-18.51251 19.86249,-46.087489 33.25,-59.875 4.5875,-4.725004 11.73125,-9.799997 17.28125,-13.4375 22.55002,-14.750012 42.32485,-21.75078 68.75,-26 6.61238,-1.063285 13.33124,-2.1625 20.59375,-2.25 l 0,-0.03125 z"
       id="path3394-5"
       transform="scale(0.79999937,0.79999937)"
       inkscape:connector-curvature="0" />
  </g>
  <g
     inkscape:groupmode="layer"
     id="layer1"
     inkscape:label="Head full"
     style="display:none">
    <path
       id="path3394"
       style="fill:#3a3a3a;fill-opacity:0.99029122;stroke:none"
       d="m 200.47506,389.13196 c 24.05426,0.1704 48.15858,-14.79329 65.64094,-26.78071 7.15,-4.94 21.44134,-15.00047 24,-18.97 8.35544,-12.96272 11.32412,-24.41611 11.32412,-24.41611 3.73,-11.2 8.88,-37.9 10.51,-50 10.16,7.17 15.54,-2.29 19.28,-11 l 6.03,-18 14.18,-30 c 1.9,-7.51 0.87,-8.2 0.55,-15 -0.34,-7 0.07,-17.77 -8.06,-20.46 -1.73,-0.44 -4.12,-0.6 -5.89,0 -5.11,1.32 -5.13,6.13 -11.09,9.46 l 2.92,-20 0,-24 c 0.04,-27.27 -14.24,-62.089997 -31.38,-82.999997 -7.95,-9.69 -21.53,-18.35 -32.54,-24.37 -16.56,-9.06 -28.75039,-11.957806 -47,-15.24 -5.77039,-1.037806 -12.55506,-2.32 -18.47506,-2.39 m 0,374.201677 c -24.05426,0.1704 -48.15858,-14.79329 -65.64094,-26.78071 -7.15,-4.94 -21.44134,-15.00047 -24,-18.97 C 102.47868,330.45339 99.51,319 99.51,319 95.78,307.8 90.63,281.1 89,269 78.84,276.17 73.46,266.71 69.72,258 L 63.69,240 49.51,210 c -1.9,-7.51 -0.87,-8.2 -0.55,-15 0.34,-7 -0.07,-17.77 8.06,-20.46 1.73,-0.44 4.12,-0.6 5.89,0 5.11,1.32 5.13,6.13 11.09,9.46 l -2.92,-20 0,-24 c -0.04,-27.27 14.24,-62.09 31.38,-83 7.95,-9.69 21.53,-18.35 32.54,-24.37 16.56,-9.06 28.75039,-11.957806 47,-15.24 5.77039,-1.037806 12.55506,-2.32 18.47506,-2.39"
       inkscape:connector-curvature="0" />
  </g>
  <g
     inkscape:groupmode="layer"
     id="layer4"
     inkscape:label="Head inner opt 1"
     style="display:none">
    <path
       id="Selection#1-9"
       style="fill:#f8cb8c;fill-opacity:1;stroke:none;display:inline"
       d="m 200.47506,27.714906 c 5.81,0.07 11.18516,0.95961 16.47506,1.810237 21.1401,3.399373 36.96,8.98 55,20.78 4.44,2.91 10.16,6.97 13.83,10.75 10.71,11.03 22.19,33.1 26.6,47.909997 5.61,18.82 4.66,33.82 4.57,53 -0.04,8.04 -4.48,21.11 0,27.83 2.14,3.2 7.09,6.47 11,6.66 5.4,0.26 11.45,-6.33 11.89,3.51 l 0,4 c -0.9,7.58 -11.83,25.06 -15.38,35 -1.09,3.05 -4.45,14.79 -6.21,16.36 -1.99,1.78 -4.15,0.8 -7.3,1.51 -4.43,1.01 -8.29,3.99 -10.18,8.13 -2.24,4.91 -2.42,11.83 -3.49,17 -2.84,13.76 -7.26,38.52 -14.46,49.96 -1.91,3.04 -4.02,6.47678 -6.52,8.91678 -7.96483,6.72644 -13.93,11.73322 -27.35,19.21322 -10.96,6.11 -20.45654,13.30881 -32.82654,15.49881 l -15.64852,1.58484 m 0,-349.389027 c -5.81,0.07 -11.18516,0.95961 -16.47506,1.810237 -21.1401,3.399373 -36.96,8.98 -55,20.78 -4.44,2.91 -10.16,6.97 -13.83,10.75 -10.71,11.03 -22.19,33.1 -26.6,47.91 -5.61,18.82 -4.66,33.82 -4.57,53 0.04,8.04 4.48,21.11 0,27.83 -2.14,3.2 -7.09,6.47 -11,6.66 -5.4,0.26 -11.45,-6.33 -11.89,3.51 l 0,4 c 0.9,7.58 11.83,25.06 15.38,35 1.09,3.05 4.45,14.79 6.21,16.36 1.99,1.78 4.15,0.8 7.3,1.51 4.43,1.01 8.29,3.99 10.18,8.13 2.24,4.91 2.42,11.83 3.49,17 2.84,13.76 7.26,38.52 14.46,49.96 1.91,3.04 4.02,6.47678 6.52,8.91678 7.96483,6.72644 13.93,11.73322 27.35,19.21322 10.96,6.11 20.45654,13.30881 32.82654,15.49881 l 15.64852,1.58484"
       inkscape:connector-curvature="0" />
  </g>
  <g
     inkscape:groupmode="layer"
     id="layer6"
     inkscape:label="Head inner opt 2"
     style="display:none">
    <path
       transform="translate(3.1184052e-7,-2.6077725e-6)"
       id="Selection#1-9-47"
       style="fill:#ffffff;fill-opacity:1;stroke:none;display:inline"
       d="m 200.47506,27.714906 c 5.81,0.07 11.18516,0.95961 16.47506,1.810237 21.1401,3.399373 36.96,8.98 55,20.78 4.44,2.91 10.16,6.97 13.83,10.75 10.71,11.03 22.19,33.1 26.6,47.909997 5.61,18.82 4.66,33.82 4.57,53 -0.04,8.04 -4.48,21.11 0,27.83 2.14,3.2 7.09,6.47 11,6.66 5.4,0.26 11.45,-6.33 11.89,3.51 l 0,4 c -0.9,7.58 -11.83,25.06 -15.38,35 -1.09,3.05 -4.45,14.79 -6.21,16.36 -1.99,1.78 -4.15,0.8 -7.3,1.51 -4.43,1.01 -8.29,3.99 -10.18,8.13 -2.24,4.91 -2.42,11.83 -3.49,17 -2.84,13.76 -7.26,38.52 -14.46,49.96 -1.91,3.04 -4.02,6.47678 -6.52,8.91678 -7.96483,6.72644 -13.93,11.73322 -27.35,19.21322 -10.96,6.11 -20.45654,13.30881 -32.82654,15.49881 l -15.64852,1.58484 m 0,-349.389027 c -5.81,0.07 -11.18516,0.95961 -16.47506,1.810237 -21.1401,3.399373 -36.96,8.98 -55,20.78 -4.44,2.91 -10.16,6.97 -13.83,10.75 -10.71,11.03 -22.19,33.1 -26.6,47.91 -5.61,18.82 -4.66,33.82 -4.57,53 0.04,8.04 4.48,21.11 0,27.83 -2.14,3.2 -7.09,6.47 -11,6.66 -5.4,0.26 -11.45,-6.33 -11.89,3.51 l 0,4 c 0.9,7.58 11.83,25.06 15.38,35 1.09,3.05 4.45,14.79 6.21,16.36 1.99,1.78 4.15,0.8 7.3,1.51 4.43,1.01 8.29,3.99 10.18,8.13 2.24,4.91 2.42,11.83 3.49,17 2.84,13.76 7.26,38.52 14.46,49.96 1.91,3.04 4.02,6.47678 6.52,8.91678 7.96483,6.72644 13.93,11.73322 27.35,19.21322 10.96,6.11 20.45654,13.30881 32.82654,15.49881 l 15.64852,1.58484"
       inkscape:connector-curvature="0" />
  </g>
  <g
     inkscape:groupmode="layer"
     id="layer5"
     inkscape:label="Head shading"
     style="display:none">
    <path
       inkscape:connector-curvature="0"
       transform="translate(2.932624e-7,-2.6263506e-6)"
       id="Selection#1-9-4-9"
       style="opacity:0.91690985;fill:url(#linearGradient3875);fill-opacity:1;stroke:none;display:inline"
       d="m 200.47506,27.714906 c 5.81,0.07 11.18516,0.95961 16.47506,1.810237 21.1401,3.399373 36.96,8.98 55,20.78 4.44,2.91 10.16,6.97 13.83,10.75 10.71,11.03 22.19,33.1 26.6,47.909997 5.61,18.82 4.66,33.82 4.57,53 -0.04,8.04 -4.48,21.11 0,27.83 2.14,3.2 7.09,6.47 11,6.66 5.4,0.26 11.45,-6.33 11.89,3.51 l 0,4 c -0.9,7.58 -11.83,25.06 -15.38,35 -1.09,3.05 -4.45,14.79 -6.21,16.36 -1.99,1.78 -4.15,0.8 -7.3,1.51 -4.43,1.01 -8.29,3.99 -10.18,8.13 -2.24,4.91 -2.42,11.83 -3.49,17 -2.84,13.76 -7.26,38.52 -14.46,49.96 -1.91,3.04 -4.02,6.47678 -6.52,8.91678 -7.96483,6.72644 -13.93,11.73322 -27.35,19.21322 -10.96,6.11 -20.45654,13.30881 -32.82654,15.49881 l -15.64852,1.58484 m 0,-349.389027 c -5.81,0.07 -11.18516,0.95961 -16.47506,1.810237 -21.1401,3.399373 -36.96,8.98 -55,20.78 -4.44,2.91 -10.16,6.97 -13.83,10.75 -10.71,11.03 -22.19,33.1 -26.6,47.91 -5.61,18.82 -4.66,33.82 -4.57,53 0.04,8.04 4.48,21.11 0,27.83 -2.14,3.2 -7.09,6.47 -11,6.66 -5.4,0.26 -11.45,-6.33 -11.89,3.51 l 0,4 c 0.9,7.58 11.83,25.06 15.38,35 1.09,3.05 4.45,14.79 6.21,16.36 1.99,1.78 4.15,0.8 7.3,1.51 4.43,1.01 8.29,3.99 10.18,8.13 2.24,4.91 2.42,11.83 3.49,17 2.84,13.76 7.26,38.52 14.46,49.96 1.91,3.04 4.02,6.47678 6.52,8.91678 7.96483,6.72644 13.93,11.73322 27.35,19.21322 10.96,6.11 20.45654,13.30881 32.82654,15.49881 l 15.64852,1.58484" />
  </g>
  <g
     inkscape:groupmode="layer"
     id="layer2"
     inkscape:label="Shield bg"
     style="display:inline">
    <path
       id="Selection-8"
       transform="matrix(-1,0,0,1,403.47506,3.775079)"
       style="fill:#0e467b;fill-opacity:1;stroke:#000000;stroke-width:0.15999988000000001;stroke-miterlimit:4;stroke-opacity:1;stroke-dasharray:none;display:inline"
       d="m 203,355.79 c 0,0 -6.44753,0.6582 -20,-4.99 -14.84,-5.94 -28.54,-13.51 -40,-24.79 -2.17,-2.13 -5.02,-4.65 -6.64,-7.18 -8.97,-13.95 -31.68,-159.87 -31.69,-168.83 -0.03,-17.03 0.0973,-22.55101 6.39,-39 4.27735,-11.181012 11.1703,-26.938964 20.23,-34.71 C 149.91335,60.315659 165.95395,49.119515 203,49.04 m 0,306.74724 c 0,0 6.44753,0.6582 20,-4.99 14.84,-5.94 28.54,-13.51 40,-24.79 2.17,-2.13 5.02,-4.65 6.64,-7.18 8.97,-13.95 31.68,-159.87 31.69,-168.83 0.03,-17.03 -0.0973,-22.55101 -6.39,-39 C 290.66265,99.816232 283.7697,84.05828 274.71,76.287244 256.08665,60.312903 240.04605,49.116759 203,49.037244"
       inkscape:connector-curvature="0"
       inkscape:export-filename="/home/luke/devel/learnscripture.net/src/learnscripture/static/img/homepagetitle.png"
       inkscape:export-xdpi="44.291828"
       inkscape:export-ydpi="44.291828" />
    <g
       id="g3943"
       style="fill:#b92f2f;fill-opacity:1"
       inkscape:export-filename="/home/luke/devel/learnscripture.net/src/learnscripture/static/img/homepagetitle.png"
       inkscape:export-xdpi="44.291828"
       inkscape:export-ydpi="44.291828">
      <path
         id="rect3899"
         transform="scale(0.79999937,0.79999937)"
         d="m 250.59375,66 c -46.3076,0.09939 -66.34579,14.094558 -89.625,34.0625 -11.32463,9.7138 -19.96581,29.42998 -25.3125,43.40625 -7.86588,20.56125 -8.00625,27.46248 -7.96875,48.75 0.003,3.10027 2.23928,19.54391 5.625,41.75 l 117.28125,0 0,-167.9375 0,-0.03125 z"
         style="color:#000000;fill:#b92f2f;fill-opacity:1;fill-rule:nonzero;stroke:none;stroke-width:0.2;marker:none"
         inkscape:connector-curvature="0" />
      <path
         id="rect3920"
         transform="scale(0.79999937,0.79999937)"
         d="m 250.59375,233.96875 0,215.5 c 0,0 8.0594,0.81026 25,-6.25 18.55001,-7.42501 35.67499,-16.89999 50,-31 2.7125,-2.6625 6.2875,-5.80625 8.3125,-8.96875 8.10878,-12.61065 25.12323,-111.2657 33.96875,-169.28125 l -117.28125,0 z"
         style="color:#000000;fill:#b92f2f;fill-opacity:1;fill-rule:nonzero;stroke:none;stroke-width:0.2;marker:none"
         inkscape:connector-curvature="0" />
    </g>
  </g>
  <g
     inkscape:groupmode="layer"
     id="layer3"
     inkscape:label="Shield cross"
     style="display:none">
    <g
       id="g4096">
      <path
         id="rect3947-5"
         transform="scale(0.79999937,0.79999937)"
         d="m 250.59375,66 c -1.71031,0.0037 -3.35983,0.05257 -5,0.09375 l 0,382.95548 c 5.54396,0.14638 9.95186,3.46692 9.95186,3.46692 0,0 0.63185,0.0901 1.84053,0.0461 1.78625,-2.58518 1.78129,-2.44545 3.02011,-4.3098 l 0,-381.97125 c -2.01807,-1.743921 -2.88172,-2.560259 -2.88172,-2.560259 z"
         style="color:#000000;fill:#fcf885;fill-opacity:1;fill-rule:nonzero;stroke:none;stroke-width:0.25000021;marker:none;visibility:visible;display:inline;overflow:visible;enable-background:accumulate"
         inkscape:connector-curvature="0"
         sodipodi:nodetypes="ccccccccc" />
      <path
         id="rect3968-2"
         transform="scale(0.79999937,0.79999937)"
         d="m 132.08051,225.78125 c -1.98929,1.808 -1.10309,0.24458 -3.25656,3.16909 0.38059,2.46967 5.12878,9.03741 5.53544,11.64341 l 232.51561,0 c 0.40585,-2.61811 4.43487,-9.12912 4.80984,-11.5999 -1.24943,-2.60074 -1.79952,-1.68103 -2.55984,-3.2126 z"
         style="color:#000000;fill:#fcf885;fill-opacity:1;fill-rule:nonzero;stroke:none;stroke-width:0.25000021;marker:none;visibility:visible;display:inline;overflow:visible;enable-background:accumulate"
         inkscape:connector-curvature="0"
         sodipodi:nodetypes="ccccccc" />
    </g>
    <g
       id="g4194">
      <path
         inkscape:connector-curvature="0"
         id="rect3947-7-4"
         transform="scale(0.79999937,0.79999937)"
         d="m 250.59375,66 c -1.86869,0.004 -5.99812,-2.389872 -7.77647,-2.335852 -1.28742,1.151383 -1.66767,1.198634 -2.91103,2.648353 l 0,381.718749 c 1.54171,2.6684 1.29688,2.30582 2.92635,4.43831 1.77386,0.13988 7.76115,-3.00079 7.76115,-3.00079 0,0 1.40428,0.0946 4.125,-0.21875 l 0,-383.187499 c -1.35706,-0.02836 -2.72045,-0.02823 -4.125,-0.03125 l 0,-0.01563 z"
         style="color:#000000;fill:#c5be05;fill-opacity:1;fill-rule:nonzero;stroke:none;stroke-width:0.25000021;marker:none;visibility:visible;display:inline;overflow:visible;enable-background:accumulate"
         sodipodi:nodetypes="ccccccccccc" />
      <path
         inkscape:connector-curvature="0"
         id="rect3968-9-0"
         transform="scale(0.79999937,0.79999937)"
         d="m 132.9375,231.46875 c 0.35515,2.34479 -1.4956,9.49128 -1.12393,11.95827 1.86613,2.01216 0.10684,0.25447 3.37393,2.85423 l 230.8125,0 c 1.51274,-1.17029 1.89766,-0.71212 3.30895,-2.9192 -0.12567,-4.17978 -1.41411,-9.54851 -1.05894,-11.8933 z"
         style="color:#000000;fill:#c5be05;fill-opacity:1;fill-rule:nonzero;stroke:none;stroke-width:0.25000021;marker:none;visibility:visible;display:inline;overflow:visible;enable-background:accumulate"
         sodipodi:nodetypes="ccccccc" />
    </g>
    <g
       id="g3989"
       style="color:#000000;fill:#faf221;fill-opacity:1;fill-rule:nonzero;stroke:none;stroke-width:0.2;marker:none;visibility:visible;display:inline;overflow:visible;enable-background:accumulate">
      <path
         id="rect3947"
         transform="scale(0.79999937,0.79999937)"
         d="m 250.59375,63.429837 c -2.70769,0.0058 -5.3097,0.109342 -7.84375,0.208592 l 0,388.861001 c 5.28406,1.0416 7.84375,1.07003 7.84375,1.07003 0,0 2.29638,-0.15955 6.96875,-1.00042 l 0,-388.87105 c -2.26395,-0.07876 -4.56774,-0.23175 -6.96875,-0.236903 z"
         style="color:#000000;fill:#faf221;fill-opacity:1;fill-rule:nonzero;stroke:none;stroke-width:0.25000021;marker:none;visibility:visible;display:inline;overflow:visible;enable-background:accumulate"
         inkscape:connector-curvature="0"
         sodipodi:nodetypes="cccccccc" />
      <path
         id="rect3968"
         transform="scale(0.79999937,0.79999937)"
         d="m 128.66641,228.625 c 0.69969,4.65561 2.02148,9.60049 2.83479,14.8125 l 237.99017,0 c 0.81331,-5.21201 1.61529,-10.15689 2.31498,-14.8125 z"
         style="color:#000000;fill:#faf221;fill-opacity:1;fill-rule:nonzero;stroke:none;stroke-width:0.25000021;marker:none;visibility:visible;display:inline;overflow:visible;enable-background:accumulate"
         inkscape:connector-curvature="0"
         sodipodi:nodetypes="ccccc" />
    </g>
  </g>
  <g
     style="display:inline"
     inkscape:label="Shield cross opt2"
     id="g5085"
     inkscape:groupmode="layer">
    <g
       style="color:#000000;fill:#faf221;fill-opacity:1;fill-rule:nonzero;stroke:none;stroke-width:0.2;marker:none;visibility:visible;display:inline;overflow:visible;filter:url(#filter5221);enable-background:accumulate"
       id="g5099"
       transform="matrix(-1,0,0,1,400.37789,0)"
       inkscape:export-filename="/home/luke/devel/learnscripture.net/src/learnscripture/static/img/homepagetitle.png"
       inkscape:export-xdpi="44.291828"
       inkscape:export-ydpi="44.291828">
      <path
         sodipodi:nodetypes="cccccccc"
         inkscape:connector-curvature="0"
         style="color:#000000;fill:#faf221;fill-opacity:1;fill-rule:nonzero;stroke:none;stroke-width:0.25000021;marker:none;visibility:visible;display:inline;overflow:visible;enable-background:accumulate"
         d="m 250.59375,63.429837 c -2.70769,0.0058 -5.3097,0.109342 -7.84375,0.208592 l 0,388.861001 c 5.28406,1.0416 7.84375,1.07003 7.84375,1.07003 0,0 2.29638,-0.15955 6.96875,-1.00042 l 0,-388.87105 c -2.26395,-0.07876 -4.56774,-0.23175 -6.96875,-0.236903 z"
         transform="scale(0.79999937,0.79999937)"
         id="path5101" />
      <path
         sodipodi:nodetypes="ccccc"
         inkscape:connector-curvature="0"
         style="color:#000000;fill:#faf221;fill-opacity:1;fill-rule:nonzero;stroke:none;stroke-width:0.25000021;marker:none;visibility:visible;display:inline;overflow:visible;enable-background:accumulate"
         d="m 128.66641,228.625 c 0.69969,4.65561 2.02148,9.60049 2.83479,14.8125 l 237.99017,0 c 0.81331,-5.21201 1.61529,-10.15689 2.31498,-14.8125 z"
         transform="scale(0.79999937,0.79999937)"
         id="path5103" />
    </g>
  </g>
  <g
     inkscape:groupmode="layer"
     id="g5171"
     inkscape:label="Shield cross base"
     style="display:none">
    <g
       id="g5173"
       style="color:#000000;fill:#faf221;fill-opacity:1;fill-rule:nonzero;stroke:none;stroke-width:0.2;marker:none;visibility:visible;display:inline;overflow:visible;enable-background:accumulate">
      <path
         id="path5175"
         transform="scale(0.79999937,0.79999937)"
         d="m 250.59375,63.429837 c -2.70769,0.0058 -5.3097,0.109342 -7.84375,0.208592 l 0,388.861001 c 5.28406,1.0416 7.84375,1.07003 7.84375,1.07003 0,0 2.29638,-0.15955 6.96875,-1.00042 l 0,-388.87105 c -2.26395,-0.07876 -4.56774,-0.23175 -6.96875,-0.236903 z"
         style="color:#000000;fill:#faf221;fill-opacity:1;fill-rule:nonzero;stroke:none;stroke-width:0.25000021;marker:none;visibility:visible;display:inline;overflow:visible;enable-background:accumulate"
         inkscape:connector-curvature="0"
         sodipodi:nodetypes="cccccccc" />
      <path
         id="path5177"
         transform="scale(0.79999937,0.79999937)"
         d="m 128.66641,228.625 c 0.69969,4.65561 2.02148,9.60049 2.83479,14.8125 l 237.99017,0 c 0.81331,-5.21201 1.61529,-10.15689 2.31498,-14.8125 z"
         style="color:#000000;fill:#faf221;fill-opacity:1;fill-rule:nonzero;stroke:none;stroke-width:0.25000021;marker:none;visibility:visible;display:inline;overflow:visible;enable-background:accumulate"
         inkscape:connector-curvature="0"
         sodipodi:nodetypes="ccccc" />
    </g>
  </g>
  <g
     inkscape:groupmode="layer"
     id="layer12"
     inkscape:label="Text"
     style="display:inline">
    <text
       xml:space="preserve"
       style="font-style:italic;font-variant:normal;font-weight:normal;font-stretch:normal;font-size:48px;line-height:125%;font-family:'URW Palladio L';-inkscape-font-specification:'URW Palladio L Italic';text-align:center;letter-spacing:0px;word-spacing:0px;writing-mode:lr-tb;text-anchor:middle;fill:#000000;fill-opacity:1;stroke:none"
       x="910.90985"
       y="184.01848"
       id="text5356"
       sodipodi:linespacing="125%"
       transform="matrix(0.89523081,0,0,0.89523081,-82.22729,-41.86174)"
       inkscape:export-filename="/home/luke/devel/learnscripture.net/src/learnscripture/static/img/homepagetitle.png"
       inkscape:export-xdpi="44.291828"
       inkscape:export-ydpi="44.291828"><tspan
         sodipodi:role="line"
         x="920.96313"
         y="184.01848"
         id="tspan5368"
         style="font-size:80.42612457px">Take up the </tspan><tspan
         sodipodi:role="line"
         x="910.90985"
         y="284.55115"
         style="font-size:80.42612457px"
         id="tspan3182">full armor of God</tspan><tspan
         sodipodi:role="line"
         x="910.90985"
         y="385.0838"
         id="tspan5372"
         style="font-size:80.42612457px" /><tspan
         sodipodi:role="line"
         x="910.90985"
         y="456.47989"
         id="tspan5374"
         style="font-size:50.04291916px">Ephesians 6:13</tspan></text>
    <text
       xml:space="preserve"
       style="font-size:48px;font-style:italic;font-variant:normal;font-weight:normal;font-stretch:normal;text-align:start;line-height:125%;letter-spacing:0px;word-spacing:0px;writing-mode:lr-tb;text-anchor:start;fill:#000000;fill-opacity:1;stroke:none;display:inline;font-family:URW Palladio L;-inkscape-font-specification:URW Palladio L Italic"
       x="520.86932"
       y="184.01848"
       id="text5356-5"
       sodipodi:linespacing="125%"
       transform="matrix(0.89523081,0,0,0.89523081,-75.660342,449.45719)"
       inkscape:export-filename="/home/luke/devel/learnscripture.net/src/learnscripture/static/img/homepagetitle.png"
       inkscape:export-xdpi="44.291828"
       inkscape:export-ydpi="44.291828"><tspan
         sodipodi:role="line"
         x="520.86932"
         y="184.01848"
         id="tspan5360-4">All Scripture is God-breathed</tspan><tspan
         sodipodi:role="line"
         x="520.86932"
         y="244.01848"
         id="tspan5362-0"> and is useful for teaching, rebuking, </tspan><tspan
         sodipodi:role="line"
         x="520.86932"
         y="304.01849"
         id="tspan5364-5">  correcting and training in righteousness, </tspan><tspan
         sodipodi:role="line"
         x="520.86932"
         y="364.01849"
         id="tspan5366-9">    so that the man of God may be thoroughly </tspan><tspan
         sodipodi:role="line"
         x="520.86932"
         y="424.01849"
         id="tspan5368-4">       equipped for every good work.</tspan><tspan
         sodipodi:role="line"
         x="520.86932"
         y="484.01849"
         id="tspan5372-6" /><tspan
         sodipodi:role="line"
         x="520.86932"
         y="544.01849"
         id="tspan5374-9">                                         2 Timothy 3:16-17</tspan></text>
  </g>
  <g
     inkscape:groupmode="layer"
     id="layer7"
     inkscape:label="Shield shading"
     style="display:inline">
    <path
       inkscape:connector-curvature="0"
       id="Selection-8-1"
       transform="matrix(-1,0,0,1,403.47506,3.7750795)"
       style="fill:url(#linearGradient4290);fill-opacity:1;stroke:#000000;stroke-width:0.15999988;stroke-miterlimit:4;stroke-opacity:1;stroke-dasharray:none;display:inline;filter:url(#filter4296)"
       d="m 203,355.79 c 0,0 -6.44753,0.6582 -20,-4.99 -14.84,-5.94 -28.54,-13.51 -40,-24.79 -2.17,-2.13 -5.02,-4.65 -6.64,-7.18 -8.97,-13.95 -31.68,-159.87 -31.69,-168.83 -0.03,-17.03 0.0973,-22.55101 6.39,-39 4.27735,-11.181012 11.1703,-26.938964 20.23,-34.71 C 149.91335,60.315659 165.95395,49.119515 203,49.04 m 0,306.74724 c 0,0 6.44753,0.6582 20,-4.99 14.84,-5.94 28.54,-13.51 40,-24.79 2.17,-2.13 5.02,-4.65 6.64,-7.18 8.97,-13.95 31.68,-159.87 31.69,-168.83 0.03,-17.03 -0.0973,-22.55101 -6.39,-39 C 290.66265,99.816232 283.7697,84.05828 274.71,76.287244 256.08665,60.312903 240.04605,49.116759 203,49.037244"
       inkscape:export-filename="/home/luke/devel/learnscripture.net/src/learnscripture/static/img/homepagetitle.png"
       inkscape:export-xdpi="44.291828"
       inkscape:export-ydpi="44.291828" />
    <path
       inkscape:connector-curvature="0"
       id="Selection-8-6"
       transform="matrix(-1,0,0,1,403.47506,3.7750795)"
       style="display:inline;fill:url(#linearGradient4272);fill-opacity:1;stroke:none;filter:url(#filter4582)"
       d="m 203,355.79 c 0,0 -6.44753,0.6582 -20,-4.99 -14.84,-5.94 -28.54,-13.51 -40,-24.79 -2.17,-2.13 -5.02,-4.65 -6.64,-7.18 -8.97,-13.95 -31.68,-159.87 -31.69,-168.83 -0.03,-17.03 0.0973,-22.55101 6.39,-39 4.27735,-11.181012 11.1703,-26.938964 20.23,-34.71 C 149.91335,60.315659 165.95395,49.119515 203,49.04 m 0,306.74724 c 0,0 6.44753,0.6582 20,-4.99 14.84,-5.94 28.54,-13.51 40,-24.79 2.17,-2.13 5.02,-4.65 6.64,-7.18 8.97,-13.95 31.68,-159.87 31.69,-168.83 0.03,-17.03 -0.0973,-22.55101 -6.39,-39 C 290.66265,99.816232 283.7697,84.05828 274.71,76.287244 256.08665,60.312903 240.04605,49.116759 203,49.037244"
       inkscape:export-filename="/home/luke/devel/learnscripture.net/src/learnscripture/static/img/homepagetitle.png"
       inkscape:export-xdpi="44.291828"
       inkscape:export-ydpi="44.291828" />
  </g>
</svg>
